<svg xmlns="http://www.w3.org/2000/svg" width="1120" height="1280" viewBox="0 0 1120 1280" role="img">
<style>
:root {
  --bg: #FFFFFF;
  --node-bg: #F8F9FA;
  --node-border: #E2E8F0;
  --node-text: #1A202C;
  --edge-color: #94A3B8;
  --edge-label: #64748B;
  --accent: #6366F1;
  --font: 'Inter', sans-serif;
}
.diagra-node { filter: drop-shadow(0 10px 18px rgba(15, 23, 42, 0.10)); }
.diagra-edge { stroke-linecap: round; }
</style>
<defs>
  <marker id="arrow" markerWidth="10" markerHeight="10" refX="8" refY="3" orient="auto" markerUnits="strokeWidth">
    <path d="M0,0 L0,6 L9,3 z" fill="var(--edge-color)"/>
  </marker>
</defs>
<rect width="100%" height="100%" fill="var(--bg)"/>
<g class="diagra-edge-label">
  <path id="edge-1" class="diagra-edge" d="M 106 128 C 154 128, 58 188, 106 188" stroke="var(--edge-color)" stroke-width="1.7" fill="none" marker-end="url(#arrow)"/>
  <rect x="81" y="138" width="50" height="16" rx="4" fill="var(--bg)" opacity="0.9"/>
  <text x="106" y="150" text-anchor="middle" font-family="var(--font)" font-size="10" font-weight="600" fill="var(--edge-label)">Events</text>
</g>
<g class="diagra-edge-label">
  <path id="edge-2" class="diagra-edge" d="M 106 128 C 154 128, 58 484, 106 484" stroke="var(--edge-color)" stroke-width="1.7" fill="none" marker-end="url(#arrow)"/>
  <rect x="63.5" y="286" width="85" height="16" rx="4" fill="var(--bg)" opacity="0.9"/>
  <text x="106" y="298" text-anchor="middle" font-family="var(--font)" font-size="10" font-weight="600" fill="var(--edge-label)">Batch Files</text>
</g>
<g class="diagra-edge-label">
  <path id="edge-3" class="diagra-edge" d="M 106 424 C 154 424, 58 632, 106 632" stroke="var(--edge-color)" stroke-width="1.7" fill="none" marker-end="url(#arrow)"/>
  <rect x="56.5" y="572" width="99" height="16" rx="4" fill="var(--bg)" opacity="0.9"/>
  <text x="106" y="584" text-anchor="middle" font-family="var(--font)" font-size="10" font-weight="600" fill="var(--edge-label)">Schedule Jobs</text>
</g>
<g class="diagra-edge-label">
  <path id="edge-4" class="diagra-edge" d="M 106 276 C 154 276, 58 632, 106 632" stroke="var(--edge-color)" stroke-width="1.7" fill="none" marker-end="url(#arrow)"/>
  <rect x="49.5" y="434" width="113" height="16" rx="4" fill="var(--bg)" opacity="0.9"/>
  <text x="106" y="446" text-anchor="middle" font-family="var(--font)" font-size="10" font-weight="600" fill="var(--edge-label)">Streaming Input</text>
</g>
<g class="diagra-edge-label">
  <path id="edge-5" class="diagra-edge" d="M 106 572 C 154 572, 58 632, 106 632" stroke="var(--edge-color)" stroke-width="1.7" fill="none" marker-end="url(#arrow)"/>
  <rect x="63.5" y="598" width="85" height="16" rx="4" fill="var(--bg)" opacity="0.9"/>
  <text x="106" y="610" text-anchor="middle" font-family="var(--font)" font-size="10" font-weight="600" fill="var(--edge-label)">Batch Input</text>
</g>
<g class="diagra-edge-label">
  <path id="edge-6" class="diagra-edge" d="M 106 720 C 154 720, 58 780, 106 780" stroke="var(--edge-color)" stroke-width="1.7" fill="none" marker-end="url(#arrow)"/>
  <rect x="53" y="730" width="106" height="16" rx="4" fill="var(--bg)" opacity="0.9"/>
  <text x="106" y="742" text-anchor="middle" font-family="var(--font)" font-size="10" font-weight="600" fill="var(--edge-label)">Curated Tables</text>
</g>
<g class="diagra-edge-label">
  <path id="edge-7" class="diagra-edge" d="M 106 868 C 154 868, 58 928, 106 928" stroke="var(--edge-color)" stroke-width="1.7" fill="none" marker-end="url(#arrow)"/>
  <rect x="67" y="878" width="78" height="16" rx="4" fill="var(--bg)" opacity="0.9"/>
  <text x="106" y="890" text-anchor="middle" font-family="var(--font)" font-size="10" font-weight="600" fill="var(--edge-label)">Dashboards</text>
</g>
<g class="diagra-edge-label">
  <path id="edge-8" class="diagra-edge" d="M 106 720 C 154 720, 58 1076, 106 1076" stroke="var(--edge-color)" stroke-width="1" fill="none" marker-end="url(#arrow)" stroke-dasharray="6 5" opacity="0.4"/>
  <rect x="63.5" y="910" width="85" height="16" rx="4" fill="var(--bg)" opacity="0.9"/>
  <text x="106" y="922" text-anchor="middle" font-family="var(--font)" font-size="10" font-weight="600" fill="var(--edge-label)">Job Metrics</text>
</g>
<g class="diagra-edge-label">
  <path id="edge-9" class="diagra-edge" d="M 106 868 C 154 868, 58 1076, 106 1076" stroke="var(--edge-color)" stroke-width="1" fill="none" marker-end="url(#arrow)" stroke-dasharray="6 5" opacity="0.4"/>
  <rect x="56.5" y="1016" width="99" height="16" rx="4" fill="var(--bg)" opacity="0.9"/>
  <text x="106" y="1028" text-anchor="middle" font-family="var(--font)" font-size="10" font-weight="600" fill="var(--edge-label)">Query Metrics</text>
</g>
<circle r="4" fill="var(--accent)" opacity="0.9">
  <animateMotion dur="1.5s" begin="0s" repeatCount="indefinite">
    <mpath href="#edge-1"/>
  </animateMotion>
</circle>
<circle r="4" fill="var(--accent)" opacity="0.9">
  <animateMotion dur="1.5s" begin="0.2s" repeatCount="indefinite">
    <mpath href="#edge-2"/>
  </animateMotion>
</circle>
<circle r="4" fill="var(--accent)" opacity="0.9">
  <animateMotion dur="1.5s" begin="0.4s" repeatCount="indefinite">
    <mpath href="#edge-3"/>
  </animateMotion>
</circle>
<circle r="4" fill="var(--accent)" opacity="0.9">
  <animateMotion dur="1.5s" begin="0.6000000000000001s" repeatCount="indefinite">
    <mpath href="#edge-4"/>
  </animateMotion>
</circle>
<circle r="4" fill="var(--accent)" opacity="0.9">
  <animateMotion dur="1.5s" begin="0.8s" repeatCount="indefinite">
    <mpath href="#edge-5"/>
  </animateMotion>
</circle>
<circle r="4" fill="var(--accent)" opacity="0.9">
  <animateMotion dur="1.5s" begin="1s" repeatCount="indefinite">
    <mpath href="#edge-6"/>
  </animateMotion>
</circle>
<circle r="4" fill="var(--accent)" opacity="0.9">
  <animateMotion dur="1.5s" begin="1.2000000000000002s" repeatCount="indefinite">
    <mpath href="#edge-7"/>
  </animateMotion>
</circle>
<circle r="4" fill="var(--accent)" opacity="0.9">
  <animateMotion dur="1.5s" begin="1.4000000000000001s" repeatCount="indefinite">
    <mpath href="#edge-8"/>
  </animateMotion>
</circle>
<circle r="4" fill="var(--accent)" opacity="0.9">
  <animateMotion dur="1.5s" begin="1.6s" repeatCount="indefinite">
    <mpath href="#edge-9"/>
  </animateMotion>
</circle>
<g id="node-Sources" class="diagra-node" data-icon="generic-server">
  <rect x="40" y="40" width="132" height="88" rx="8" fill="var(--node-bg)" stroke="var(--node-border)"/>
  <svg x="90" y="52" width="32" height="32" viewBox="0 0 32 32" role="img" aria-label="server"><rect x="5" y="6" width="22" height="20" rx="3" fill="#64748B"/><path d="M9 12h14M9 18h14" stroke="#fff" stroke-width="2"/><circle cx="11" cy="23" r="1.5" fill="#fff"/></svg>

  <text x="106" y="108" text-anchor="middle" font-family="var(--font)" font-size="12" font-weight="600" fill="var(--node-text)">Source Systems</text>
</g>
<g id="node-PubSub" class="diagra-node" data-icon="gcp-pubsub">
  <rect x="40" y="188" width="132" height="88" rx="8" fill="var(--node-bg)" stroke="var(--node-border)"/>
  <svg x="90" y="200" width="32" height="32" viewBox="0 0 32 32" role="img" aria-label="Pub/Sub">
  <path d="M9.5 25.8h13.3a6.1 6.1 0 0 0 .8-12.1 8.4 8.4 0 0 0-16.1-1.9A7.2 7.2 0 0 0 9.5 25.8Z" fill="#4285F4"/>
  <path d="M16 6.8 25.2 16 16 25.2 6.8 16 16 6.8Z" fill="#77a7f7" opacity="0.95"/><path d="m13 11 6 5-6 5" stroke="#FFFFFF" stroke-width="1.8" fill="none" stroke-linecap="round" stroke-linejoin="round"/>
  <text x="16" y="20.4" text-anchor="middle" font-family="Arial, Helvetica, sans-serif" font-size="9" font-weight="700" fill="#FFFFFF">PS</text>
</svg>
  <text x="106" y="256" text-anchor="middle" font-family="var(--font)" font-size="12" font-weight="600" fill="var(--node-text)">Pub/Sub Streaming</text>
</g>
<g id="node-Composer" class="diagra-node" data-icon="generic-server">
  <rect x="40" y="336" width="132" height="88" rx="8" fill="var(--node-bg)" stroke="var(--node-border)"/>
  <svg x="90" y="348" width="32" height="32" viewBox="0 0 32 32" role="img" aria-label="server"><rect x="5" y="6" width="22" height="20" rx="3" fill="#64748B"/><path d="M9 12h14M9 18h14" stroke="#fff" stroke-width="2"/><circle cx="11" cy="23" r="1.5" fill="#fff"/></svg>

  <text x="106" y="404" text-anchor="middle" font-family="var(--font)" font-size="12" font-weight="600" fill="var(--node-text)">Cloud Composer Airflow</text>
</g>
<g id="node-RawStorage" class="diagra-node" data-icon="gcp-cloudstorage">
  <rect x="40" y="484" width="132" height="88" rx="8" fill="var(--node-bg)" stroke="var(--node-border)"/>
  <svg x="90" y="496" width="32" height="32" viewBox="0 0 32 32" role="img" aria-label="Cloud Storage">
  <path d="M9.5 25.8h13.3a6.1 6.1 0 0 0 .8-12.1 8.4 8.4 0 0 0-16.1-1.9A7.2 7.2 0 0 0 9.5 25.8Z" fill="#4285F4"/>
  <path d="M16 6 25 11v10l-9 5-9-5V11l9-5Z" fill="#77a7f7" opacity="0.95"/><path d="M10 13h12M10 18h12" stroke="#FFFFFF" stroke-width="1.4" stroke-linecap="round"/>
  <text x="16" y="20.4" text-anchor="middle" font-family="Arial, Helvetica, sans-serif" font-size="9" font-weight="700" fill="#FFFFFF">CS</text>
</svg>
  <text x="106" y="552" text-anchor="middle" font-family="var(--font)" font-size="12" font-weight="600" fill="var(--node-text)">Cloud Storage Raw Data</text>
</g>
<g id="node-Dataflow" class="diagra-node" data-icon="gcp-dataflow">
  <rect x="40" y="632" width="132" height="88" rx="8" fill="var(--node-bg)" stroke="var(--node-border)"/>
  <svg x="90" y="644" width="32" height="32" viewBox="0 0 32 32" role="img" aria-label="Dataflow">
  <path d="M9.5 25.8h13.3a6.1 6.1 0 0 0 .8-12.1 8.4 8.4 0 0 0-16.1-1.9A7.2 7.2 0 0 0 9.5 25.8Z" fill="#4285F4"/>
  <path d="M16 6.8 25.2 16 16 25.2 6.8 16 16 6.8Z" fill="#77a7f7" opacity="0.95"/><path d="m13 11 6 5-6 5" stroke="#FFFFFF" stroke-width="1.8" fill="none" stroke-linecap="round" stroke-linejoin="round"/>
  <text x="16" y="20.4" text-anchor="middle" font-family="Arial, Helvetica, sans-serif" font-size="9" font-weight="700" fill="#FFFFFF">DF</text>
</svg>
  <text x="106" y="700" text-anchor="middle" font-family="var(--font)" font-size="12" font-weight="600" fill="var(--node-text)">Dataflow ETL</text>
</g>
<g id="node-BigQuery" class="diagra-node" data-icon="gcp-bigquery">
  <rect x="40" y="780" width="132" height="88" rx="8" fill="var(--node-bg)" stroke="var(--node-border)"/>
  <svg x="90" y="792" width="32" height="32" viewBox="0 0 32 32" role="img" aria-label="BigQuery">
  <path d="M9.5 25.8h13.3a6.1 6.1 0 0 0 .8-12.1 8.4 8.4 0 0 0-16.1-1.9A7.2 7.2 0 0 0 9.5 25.8Z" fill="#4285F4"/>
  <ellipse cx="16" cy="9" rx="8.5" ry="3.4" fill="#77a7f7"/><path d="M7.5 9v12c0 1.9 3.8 3.4 8.5 3.4s8.5-1.5 8.5-3.4V9" fill="#77a7f7"/><path d="M7.5 15c0 1.9 3.8 3.4 8.5 3.4s8.5-1.5 8.5-3.4" stroke="#FFFFFF" stroke-width="1.2" fill="none"/>
  <text x="16" y="20.4" text-anchor="middle" font-family="Arial, Helvetica, sans-serif" font-size="9" font-weight="700" fill="#FFFFFF">BQ</text>
</svg>
  <text x="106" y="848" text-anchor="middle" font-family="var(--font)" font-size="12" font-weight="600" fill="var(--node-text)">BigQuery Warehouse</text>
</g>
<g id="node-Looker" class="diagra-node" data-icon="generic-browser">
  <rect x="40" y="928" width="132" height="88" rx="8" fill="var(--node-bg)" stroke="var(--node-border)"/>
  <svg x="90" y="940" width="32" height="32" viewBox="0 0 32 32" role="img" aria-label="browser"><rect x="4" y="6" width="24" height="20" rx="3" fill="#64748B"/><path d="M4 12h24" stroke="#fff" stroke-width="2"/><circle cx="9" cy="9" r="1" fill="#fff"/><circle cx="13" cy="9" r="1" fill="#fff"/></svg>

  <text x="106" y="996" text-anchor="middle" font-family="var(--font)" font-size="12" font-weight="600" fill="var(--node-text)">Looker Dashboards</text>
</g>
<g id="node-Monitoring" class="diagra-node" data-icon="gcp-monitoring">
  <rect x="40" y="1076" width="132" height="88" rx="8" fill="var(--node-bg)" stroke="var(--node-border)"/>
  <svg x="90" y="1088" width="32" height="32" viewBox="0 0 32 32" role="img" aria-label="Cloud Monitoring">
  <path d="M9.5 25.8h13.3a6.1 6.1 0 0 0 .8-12.1 8.4 8.4 0 0 0-16.1-1.9A7.2 7.2 0 0 0 9.5 25.8Z" fill="#4285F4"/>
  <path d="M16 6.8 25.2 16 16 25.2 6.8 16 16 6.8Z" fill="#77a7f7" opacity="0.95"/><path d="m13 11 6 5-6 5" stroke="#FFFFFF" stroke-width="1.8" fill="none" stroke-linecap="round" stroke-linejoin="round"/>
  <text x="16" y="20.4" text-anchor="middle" font-family="Arial, Helvetica, sans-serif" font-size="7" font-weight="700" fill="#FFFFFF">MON</text>
</svg>
  <text x="106" y="1144" text-anchor="middle" font-family="var(--font)" font-size="12" font-weight="600" fill="var(--node-text)">Cloud Monitoring</text>
</g>
</svg>