<svg xmlns="http://www.w3.org/2000/svg" width="1148" height="960" viewBox="0 0 1148 960" role="img">
<style>
:root {
  --bg: #0F172A;
  --node-bg: #1E293B;
  --node-border: #334155;
  --node-text: #F1F5F9;
  --edge-color: #475569;
  --edge-label: #CBD5E1;
  --accent: #818CF8;
  --font: 'Inter', sans-serif;
}
.diagra-node { filter: drop-shadow(0 10px 18px rgba(15, 23, 42, 0.10)); }
.diagra-edge { stroke-linecap: round; }
</style>
<defs>
  <marker id="arrow" markerWidth="10" markerHeight="10" refX="8" refY="3" orient="auto" markerUnits="strokeWidth">
    <path d="M0,0 L0,6 L9,3 z" fill="var(--edge-color)"/>
  </marker>
</defs>
<rect width="100%" height="100%" fill="var(--bg)"/>
<g class="diagra-edge-label">
  <path id="edge-1" class="diagra-edge" d="M 172 84 C 253 84, 271 158, 352 158" stroke="var(--edge-color)" stroke-width="1.7" fill="none" marker-end="url(#arrow)"/>
  <rect x="216" y="101" width="92" height="16" rx="4" fill="var(--bg)" opacity="0.9"/>
  <text x="262" y="113" text-anchor="middle" font-family="var(--font)" font-size="10" font-weight="600" fill="var(--edge-label)">Prepare Data</text>
</g>
<g class="diagra-edge-label">
  <path id="edge-2" class="diagra-edge" d="M 484 158 C 565 158, 583 232, 664 232" stroke="var(--edge-color)" stroke-width="1.7" fill="none" marker-end="url(#arrow)"/>
  <rect x="510.5" y="175" width="127" height="16" rx="4" fill="var(--bg)" opacity="0.9"/>
  <text x="574" y="187" text-anchor="middle" font-family="var(--font)" font-size="10" font-weight="600" fill="var(--edge-label)">Training Features</text>
</g>
<g class="diagra-edge-label">
  <path id="edge-3" class="diagra-edge" d="M 172 232 L 664 232" stroke="var(--edge-color)" stroke-width="1.7" fill="none" marker-end="url(#arrow)"/>
  <rect x="361.5" y="212" width="113" height="16" rx="4" fill="var(--bg)" opacity="0.9"/>
  <text x="418" y="224" text-anchor="middle" font-family="var(--font)" font-size="10" font-weight="600" fill="var(--edge-label)">Model Artifacts</text>
</g>
<g class="diagra-edge-label">
  <path id="edge-4" class="diagra-edge" d="M 796 232 L 976 232" stroke="var(--edge-color)" stroke-width="1.7" fill="none" marker-end="url(#arrow)"/>
  <rect x="840" y="244" width="92" height="16" rx="4" fill="var(--bg)" opacity="0.9"/>
  <text x="886" y="256" text-anchor="middle" font-family="var(--font)" font-size="10" font-weight="600" fill="var(--edge-label)">Deploy Model</text>
</g>
<g class="diagra-edge-label">
  <path id="edge-5" class="diagra-edge" d="M 484 306 C 705.4 306, 754.6 232, 976 232" stroke="var(--edge-color)" stroke-width="1.7" fill="none" marker-end="url(#arrow)"/>
  <rect x="666.5" y="281" width="127" height="16" rx="4" fill="var(--bg)" opacity="0.9"/>
  <text x="730" y="293" text-anchor="middle" font-family="var(--font)" font-size="10" font-weight="600" fill="var(--edge-label)">Online Prediction</text>
</g>
<g class="diagra-edge-label">
  <path id="edge-6" class="diagra-edge" d="M 172 380 C 253 380, 271 306, 352 306" stroke="var(--edge-color)" stroke-width="1.7" fill="none" marker-end="url(#arrow)"/>
  <rect x="202" y="323" width="120" height="16" rx="4" fill="var(--bg)" opacity="0.9"/>
  <text x="262" y="335" text-anchor="middle" font-family="var(--font)" font-size="10" font-weight="600" fill="var(--edge-label)">Async Prediction</text>
</g>
<g class="diagra-edge-label">
  <path id="edge-7" class="diagra-edge" d="M 1042 276 C 1182.4 276, 589.6 520, 730 520" stroke="var(--edge-color)" stroke-width="1" fill="none" marker-end="url(#arrow)" stroke-dasharray="6 5" opacity="0.4"/>
  <rect x="819" y="378" width="134" height="16" rx="4" fill="var(--bg)" opacity="0.9"/>
  <text x="886" y="390" text-anchor="middle" font-family="var(--font)" font-size="10" font-weight="600" fill="var(--edge-label)">Prediction Metrics</text>
</g>
<g class="diagra-edge-label">
  <path id="edge-8" class="diagra-edge" d="M 484 306 C 565 306, 583 564, 664 564" stroke="var(--edge-color)" stroke-width="1" fill="none" marker-end="url(#arrow)" stroke-dasharray="6 5" opacity="0.4"/>
  <rect x="517.5" y="415" width="113" height="16" rx="4" fill="var(--bg)" opacity="0.9"/>
  <text x="574" y="427" text-anchor="middle" font-family="var(--font)" font-size="10" font-weight="600" fill="var(--edge-label)">Serving Metrics</text>
</g>
<circle r="4" fill="var(--accent)" opacity="0.9">
  <animateMotion dur="1.5s" begin="0s" repeatCount="indefinite">
    <mpath href="#edge-1"/>
  </animateMotion>
</circle>
<circle r="4" fill="var(--accent)" opacity="0.9">
  <animateMotion dur="1.5s" begin="0.2s" repeatCount="indefinite">
    <mpath href="#edge-2"/>
  </animateMotion>
</circle>
<circle r="4" fill="var(--accent)" opacity="0.9">
  <animateMotion dur="1.5s" begin="0.4s" repeatCount="indefinite">
    <mpath href="#edge-3"/>
  </animateMotion>
</circle>
<circle r="4" fill="var(--accent)" opacity="0.9">
  <animateMotion dur="1.5s" begin="0.6000000000000001s" repeatCount="indefinite">
    <mpath href="#edge-4"/>
  </animateMotion>
</circle>
<circle r="4" fill="var(--accent)" opacity="0.9">
  <animateMotion dur="1.5s" begin="0.8s" repeatCount="indefinite">
    <mpath href="#edge-5"/>
  </animateMotion>
</circle>
<circle r="4" fill="var(--accent)" opacity="0.9">
  <animateMotion dur="1.5s" begin="1s" repeatCount="indefinite">
    <mpath href="#edge-6"/>
  </animateMotion>
</circle>
<circle r="4" fill="var(--accent)" opacity="0.9">
  <animateMotion dur="1.5s" begin="1.2000000000000002s" repeatCount="indefinite">
    <mpath href="#edge-7"/>
  </animateMotion>
</circle>
<circle r="4" fill="var(--accent)" opacity="0.9">
  <animateMotion dur="1.5s" begin="1.4000000000000001s" repeatCount="indefinite">
    <mpath href="#edge-8"/>
  </animateMotion>
</circle>
<g id="node-DataScientists" class="diagra-node" data-icon="generic-user">
  <rect x="40" y="40" width="132" height="88" rx="8" fill="var(--node-bg)" stroke="var(--node-border)"/>
  <svg x="90" y="52" width="32" height="32" viewBox="0 0 32 32" role="img" aria-label="user"><circle cx="16" cy="11" r="6" fill="#64748B"/><path d="M6 28c1.4-6 5-9 10-9s8.6 3 10 9" fill="#64748B"/></svg>

  <text x="106" y="108" text-anchor="middle" font-family="var(--font)" font-size="12" font-weight="600" fill="var(--node-text)">ML Engineers</text>
</g>
<g id="node-Storage" class="diagra-node" data-icon="gcp-cloudstorage">
  <rect x="40" y="188" width="132" height="88" rx="8" fill="var(--node-bg)" stroke="var(--node-border)"/>
  <svg x="90" y="200" width="32" height="32" viewBox="0 0 32 32" role="img" aria-label="Cloud Storage">
  <path d="M9.5 25.8h13.3a6.1 6.1 0 0 0 .8-12.1 8.4 8.4 0 0 0-16.1-1.9A7.2 7.2 0 0 0 9.5 25.8Z" fill="#4285F4"/>
  <path d="M16 6 25 11v10l-9 5-9-5V11l9-5Z" fill="#77a7f7" opacity="0.95"/><path d="M10 13h12M10 18h12" stroke="#FFFFFF" stroke-width="1.4" stroke-linecap="round"/>
  <text x="16" y="20.4" text-anchor="middle" font-family="Arial, Helvetica, sans-serif" font-size="9" font-weight="700" fill="#FFFFFF">CS</text>
</svg>
  <text x="106" y="256" text-anchor="middle" font-family="var(--font)" font-size="12" font-weight="600" fill="var(--node-text)">Cloud Storage Artifacts</text>
</g>
<g id="node-BigQueryML" class="diagra-node" data-icon="gcp-bigquery">
  <rect x="352" y="114" width="132" height="88" rx="8" fill="var(--node-bg)" stroke="var(--node-border)"/>
  <svg x="402" y="126" width="32" height="32" viewBox="0 0 32 32" role="img" aria-label="BigQuery">
  <path d="M9.5 25.8h13.3a6.1 6.1 0 0 0 .8-12.1 8.4 8.4 0 0 0-16.1-1.9A7.2 7.2 0 0 0 9.5 25.8Z" fill="#4285F4"/>
  <ellipse cx="16" cy="9" rx="8.5" ry="3.4" fill="#77a7f7"/><path d="M7.5 9v12c0 1.9 3.8 3.4 8.5 3.4s8.5-1.5 8.5-3.4V9" fill="#77a7f7"/><path d="M7.5 15c0 1.9 3.8 3.4 8.5 3.4s8.5-1.5 8.5-3.4" stroke="#FFFFFF" stroke-width="1.2" fill="none"/>
  <text x="16" y="20.4" text-anchor="middle" font-family="Arial, Helvetica, sans-serif" font-size="9" font-weight="700" fill="#FFFFFF">BQ</text>
</svg>
  <text x="418" y="182" text-anchor="middle" font-family="var(--font)" font-size="12" font-weight="600" fill="var(--node-text)">BigQuery ML Features</text>
</g>
<g id="node-VertexTrain" class="diagra-node" data-icon="gcp-vertexai">
  <rect x="664" y="188" width="132" height="88" rx="8" fill="var(--node-bg)" stroke="var(--node-border)"/>
  <svg x="714" y="200" width="32" height="32" viewBox="0 0 32 32" role="img" aria-label="Vertex AI">
  <path d="M9.5 25.8h13.3a6.1 6.1 0 0 0 .8-12.1 8.4 8.4 0 0 0-16.1-1.9A7.2 7.2 0 0 0 9.5 25.8Z" fill="#4285F4"/>
  <rect x="8" y="8" width="16" height="16" rx="3" fill="#77a7f7" opacity="0.95"/><path d="M11 6v4M16 6v4M21 6v4M11 22v4M16 22v4M21 22v4" stroke="#FFFFFF" stroke-width="1.1"/>
  <text x="16" y="20.4" text-anchor="middle" font-family="Arial, Helvetica, sans-serif" font-size="9" font-weight="700" fill="#FFFFFF">AI</text>
</svg>
  <text x="730" y="256" text-anchor="middle" font-family="var(--font)" font-size="12" font-weight="600" fill="var(--node-text)">Vertex AI Training</text>
</g>
<g id="node-VertexEndpoint" class="diagra-node" data-icon="gcp-vertexai">
  <rect x="976" y="188" width="132" height="88" rx="8" fill="var(--node-bg)" stroke="var(--node-border)"/>
  <svg x="1026" y="200" width="32" height="32" viewBox="0 0 32 32" role="img" aria-label="Vertex AI">
  <path d="M9.5 25.8h13.3a6.1 6.1 0 0 0 .8-12.1 8.4 8.4 0 0 0-16.1-1.9A7.2 7.2 0 0 0 9.5 25.8Z" fill="#4285F4"/>
  <rect x="8" y="8" width="16" height="16" rx="3" fill="#77a7f7" opacity="0.95"/><path d="M11 6v4M16 6v4M21 6v4M11 22v4M16 22v4M21 22v4" stroke="#FFFFFF" stroke-width="1.1"/>
  <text x="16" y="20.4" text-anchor="middle" font-family="Arial, Helvetica, sans-serif" font-size="9" font-weight="700" fill="#FFFFFF">AI</text>
</svg>
  <text x="1042" y="256" text-anchor="middle" font-family="var(--font)" font-size="12" font-weight="600" fill="var(--node-text)">Vertex AI Endpoint</text>
</g>
<g id="node-CloudRun" class="diagra-node" data-icon="gcp-cloudrun">
  <rect x="352" y="262" width="132" height="88" rx="8" fill="var(--node-bg)" stroke="var(--node-border)"/>
  <svg x="402" y="274" width="32" height="32" viewBox="0 0 32 32" role="img" aria-label="Cloud Run">
  <path d="M9.5 25.8h13.3a6.1 6.1 0 0 0 .8-12.1 8.4 8.4 0 0 0-16.1-1.9A7.2 7.2 0 0 0 9.5 25.8Z" fill="#4285F4"/>
  <path d="M8 10h16v12H8z" fill="#77a7f7" opacity="0.95"/><path d="M11 13h3M16 13h3M21 13h2M11 17h3M16 17h3M21 17h2" stroke="#FFFFFF" stroke-width="1.2" stroke-linecap="round"/>
  <text x="16" y="20.4" text-anchor="middle" font-family="Arial, Helvetica, sans-serif" font-size="7" font-weight="700" fill="#FFFFFF">RUN</text>
</svg>
  <text x="418" y="330" text-anchor="middle" font-family="var(--font)" font-size="12" font-weight="600" fill="var(--node-text)">Cloud Run Serving Layer</text>
</g>
<g id="node-PubSub" class="diagra-node" data-icon="gcp-pubsub">
  <rect x="40" y="336" width="132" height="88" rx="8" fill="var(--node-bg)" stroke="var(--node-border)"/>
  <svg x="90" y="348" width="32" height="32" viewBox="0 0 32 32" role="img" aria-label="Pub/Sub">
  <path d="M9.5 25.8h13.3a6.1 6.1 0 0 0 .8-12.1 8.4 8.4 0 0 0-16.1-1.9A7.2 7.2 0 0 0 9.5 25.8Z" fill="#4285F4"/>
  <path d="M16 6.8 25.2 16 16 25.2 6.8 16 16 6.8Z" fill="#77a7f7" opacity="0.95"/><path d="m13 11 6 5-6 5" stroke="#FFFFFF" stroke-width="1.8" fill="none" stroke-linecap="round" stroke-linejoin="round"/>
  <text x="16" y="20.4" text-anchor="middle" font-family="Arial, Helvetica, sans-serif" font-size="9" font-weight="700" fill="#FFFFFF">PS</text>
</svg>
  <text x="106" y="404" text-anchor="middle" font-family="var(--font)" font-size="12" font-weight="600" fill="var(--node-text)">Prediction Pub/Sub</text>
</g>
<g id="node-Monitoring" class="diagra-node" data-icon="gcp-monitoring">
  <rect x="664" y="520" width="132" height="88" rx="8" fill="var(--node-bg)" stroke="var(--node-border)"/>
  <svg x="714" y="532" width="32" height="32" viewBox="0 0 32 32" role="img" aria-label="Cloud Monitoring">
  <path d="M9.5 25.8h13.3a6.1 6.1 0 0 0 .8-12.1 8.4 8.4 0 0 0-16.1-1.9A7.2 7.2 0 0 0 9.5 25.8Z" fill="#4285F4"/>
  <path d="M16 6.8 25.2 16 16 25.2 6.8 16 16 6.8Z" fill="#77a7f7" opacity="0.95"/><path d="m13 11 6 5-6 5" stroke="#FFFFFF" stroke-width="1.8" fill="none" stroke-linecap="round" stroke-linejoin="round"/>
  <text x="16" y="20.4" text-anchor="middle" font-family="Arial, Helvetica, sans-serif" font-size="7" font-weight="700" fill="#FFFFFF">MON</text>
</svg>
  <text x="730" y="588" text-anchor="middle" font-family="var(--font)" font-size="12" font-weight="600" fill="var(--node-text)">Cloud Monitoring</text>
</g>
</svg>