<svg xmlns="http://www.w3.org/2000/svg" width="1695" height="648" viewBox="0 0 1695 648" role="img">
<style>
:root {
  --bg: #0F172A;
  --node-bg: #1E293B;
  --node-border: #334155;
  --node-text: #F1F5F9;
  --edge-color: #475569;
  --edge-label: #CBD5E1;
  --accent: #818CF8;
  --font: 'Inter', sans-serif;
}
.diagra-node { filter: drop-shadow(0 10px 18px rgba(15, 23, 42, 0.10)); }
.diagra-edge { stroke-linecap: round; }
</style>
<defs>
  <marker id="arrow" markerWidth="10" markerHeight="10" refX="8" refY="3" orient="auto" markerUnits="strokeWidth">
    <path d="M0,0 L0,6 L9,3 z" fill="var(--edge-color)"/>
  </marker>
</defs>
<rect width="100%" height="100%" fill="var(--bg)"/>

<g transform="translate(0, 0)">
<g class="diagra-edge-label">
  <path id="edge-1" class="diagra-edge" d="M 200 232 L 402 232" stroke="var(--edge-color)" stroke-width="1.7" fill="none" marker-end="url(#arrow)"/>
  <rect x="280.5" y="210" width="52" height="16" rx="2" fill="var(--bg)" opacity="0.85"/>
  <text x="306.5" y="220" text-anchor="middle" font-family="var(--font)" font-size="10" font-weight="600" fill="var(--edge-label)">HTTPS</text>
</g>
<g class="diagra-edge-label">
  <path id="edge-2" class="diagra-edge" d="M 584 232 L 764 232" stroke="var(--edge-color)" stroke-width="1.7" fill="none" marker-end="url(#arrow)"/>
  <rect x="626" y="242" width="65" height="16" rx="2" fill="var(--bg)" opacity="0.85"/>
  <text x="658.5" y="252" text-anchor="middle" font-family="var(--font)" font-size="10" font-weight="600" fill="var(--edge-label)">Ingress</text>
</g>
<g class="diagra-edge-label">
  <path id="edge-3" class="diagra-edge" d="M 884 232 C 992.9 232, 1017.1 84, 1126 84" stroke="var(--edge-color)" stroke-width="1.7" fill="none" marker-end="url(#arrow)"/>
  <rect x="959.25" y="136" width="100" height="16" rx="2" fill="var(--bg)" opacity="0.85"/>
  <text x="1009.25" y="146" text-anchor="middle" font-family="var(--font)" font-size="10" font-weight="600" fill="var(--edge-label)">Route Orders</text>
</g>
<g class="diagra-edge-label">
  <path id="edge-4" class="diagra-edge" d="M 884 232 L 1126 232" stroke="var(--edge-color)" stroke-width="1.7" fill="none" marker-end="url(#arrow)"/>
  <rect x="956" y="274" width="114" height="16" rx="2" fill="var(--bg)" opacity="0.85"/>
  <text x="1013" y="284" text-anchor="middle" font-family="var(--font)" font-size="10" font-weight="600" fill="var(--edge-label)">Route Payments</text>
</g>
<g class="diagra-edge-label">
  <path id="edge-5" class="diagra-edge" d="M 884 232 C 992.9 232, 1017.1 380, 1126 380" stroke="var(--edge-color)" stroke-width="1.7" fill="none" marker-end="url(#arrow)"/>
  <rect x="954.5" y="300" width="121" height="16" rx="2" fill="var(--bg)" opacity="0.85"/>
  <text x="1015" y="310" text-anchor="middle" font-family="var(--font)" font-size="10" font-weight="600" fill="var(--edge-label)">Route Inventory</text>
</g>
<g class="diagra-edge-label">
  <path id="edge-6" class="diagra-edge" d="M 1263 84 L 1488 84" stroke="var(--edge-color)" stroke-width="1.7" fill="none" marker-end="url(#arrow)"/>
  <rect x="1339.75" y="62" width="79" height="16" rx="2" fill="var(--bg)" opacity="0.85"/>
  <text x="1379.25" y="72" text-anchor="middle" font-family="var(--font)" font-size="10" font-weight="600" fill="var(--edge-label)">Owns Data</text>
</g>
<g class="diagra-edge-label">
  <path id="edge-7" class="diagra-edge" d="M 1278 232 L 1488 232" stroke="var(--edge-color)" stroke-width="1.7" fill="none" marker-end="url(#arrow)"/>
  <rect x="1347.25" y="322" width="79" height="16" rx="2" fill="var(--bg)" opacity="0.85"/>
  <text x="1386.75" y="332" text-anchor="middle" font-family="var(--font)" font-size="10" font-weight="600" fill="var(--edge-label)">Owns Data</text>
</g>
<g class="diagra-edge-label">
  <path id="edge-8" class="diagra-edge" d="M 1263 84 C 1364.25 84, 1386.75 380, 1488 380" stroke="var(--edge-color)" stroke-width="1.7" fill="none" marker-end="url(#arrow)"/>
  <rect x="1324.25" y="354" width="114" height="16" rx="2" fill="var(--bg)" opacity="0.85"/>
  <text x="1381.25" y="364" text-anchor="middle" font-family="var(--font)" font-size="10" font-weight="600" fill="var(--edge-label)">Publish Events</text>
</g>
<g class="diagra-edge-label">
  <path id="edge-9" class="diagra-edge" d="M 1278 232 C 1372.5 232, 1393.5 380, 1488 380" stroke="var(--edge-color)" stroke-width="1.7" fill="none" marker-end="url(#arrow)"/>
  <rect x="1328" y="380" width="114" height="16" rx="2" fill="var(--bg)" opacity="0.85"/>
  <text x="1385" y="390" text-anchor="middle" font-family="var(--font)" font-size="10" font-weight="600" fill="var(--edge-label)">Consume Events</text>
</g>
<g class="diagra-edge-label">
  <path id="edge-10" class="diagra-edge" d="M 824 276 C 872 276, 792 520, 840 520" stroke="var(--edge-color)" stroke-width="1" fill="none" marker-end="url(#arrow)" stroke-dasharray="6 5" opacity="0.4"/>
  <rect x="771.5" y="408" width="121" height="16" rx="2" fill="var(--bg)" opacity="0.85"/>
  <text x="832" y="418" text-anchor="middle" font-family="var(--font)" font-size="10" font-weight="600" fill="var(--edge-label)">Cluster Metrics</text>
</g>
<g class="diagra-edge-label">
  <path id="edge-11" class="diagra-edge" d="M 1194.5 128 C 1242.5 128, 1138 520, 1186 520" stroke="var(--edge-color)" stroke-width="1" fill="none" marker-end="url(#arrow)" stroke-dasharray="6 5" opacity="0.4"/>
  <rect x="1143.75" y="430" width="93" height="16" rx="2" fill="var(--bg)" opacity="0.85"/>
  <text x="1190.25" y="440" text-anchor="middle" font-family="var(--font)" font-size="10" font-weight="600" fill="var(--edge-label)">Trace Spans</text>
</g>
<g class="diagra-edge-label">
  <path id="edge-12" class="diagra-edge" d="M 1202 276 C 1250 276, 1138 520, 1186 520" stroke="var(--edge-color)" stroke-width="1" fill="none" marker-end="url(#arrow)" stroke-dasharray="6 5" opacity="0.4"/>
  <rect x="1147.5" y="456" width="93" height="16" rx="2" fill="var(--bg)" opacity="0.85"/>
  <text x="1194" y="466" text-anchor="middle" font-family="var(--font)" font-size="10" font-weight="600" fill="var(--edge-label)">Trace Spans</text>
</g>
<circle r="4" fill="var(--accent)" opacity="0.9">
  <animateMotion dur="1.5s" begin="0s" repeatCount="indefinite">
    <mpath href="#edge-1"/>
  </animateMotion>
</circle>
<circle r="4" fill="var(--accent)" opacity="0.9">
  <animateMotion dur="1.5s" begin="0.2s" repeatCount="indefinite">
    <mpath href="#edge-2"/>
  </animateMotion>
</circle>
<circle r="4" fill="var(--accent)" opacity="0.9">
  <animateMotion dur="1.5s" begin="0.4s" repeatCount="indefinite">
    <mpath href="#edge-3"/>
  </animateMotion>
</circle>
<circle r="4" fill="var(--accent)" opacity="0.9">
  <animateMotion dur="1.5s" begin="0.6000000000000001s" repeatCount="indefinite">
    <mpath href="#edge-4"/>
  </animateMotion>
</circle>
<circle r="4" fill="var(--accent)" opacity="0.9">
  <animateMotion dur="1.5s" begin="0.8s" repeatCount="indefinite">
    <mpath href="#edge-5"/>
  </animateMotion>
</circle>
<circle r="4" fill="var(--accent)" opacity="0.9">
  <animateMotion dur="1.5s" begin="1s" repeatCount="indefinite">
    <mpath href="#edge-6"/>
  </animateMotion>
</circle>
<circle r="4" fill="var(--accent)" opacity="0.9">
  <animateMotion dur="1.5s" begin="1.2000000000000002s" repeatCount="indefinite">
    <mpath href="#edge-7"/>
  </animateMotion>
</circle>
<circle r="4" fill="var(--accent)" opacity="0.9">
  <animateMotion dur="1.5s" begin="1.4000000000000001s" repeatCount="indefinite">
    <mpath href="#edge-8"/>
  </animateMotion>
</circle>
<circle r="4" fill="var(--accent)" opacity="0.9">
  <animateMotion dur="1.5s" begin="1.6s" repeatCount="indefinite">
    <mpath href="#edge-9"/>
  </animateMotion>
</circle>
<circle r="4" fill="var(--accent)" opacity="0.9">
  <animateMotion dur="1.5s" begin="1.8s" repeatCount="indefinite">
    <mpath href="#edge-10"/>
  </animateMotion>
</circle>
<circle r="4" fill="var(--accent)" opacity="0.9">
  <animateMotion dur="1.5s" begin="2s" repeatCount="indefinite">
    <mpath href="#edge-11"/>
  </animateMotion>
</circle>
<circle r="4" fill="var(--accent)" opacity="0.9">
  <animateMotion dur="1.5s" begin="2.2s" repeatCount="indefinite">
    <mpath href="#edge-12"/>
  </animateMotion>
</circle>
<g id="node-Users" class="diagra-node" data-icon="generic-browser">
  <rect x="40" y="188" width="160" height="88" rx="8" fill="var(--node-bg)" stroke="var(--node-border)"/>
  <svg x="104" y="200" width="32" height="32" viewBox="0 0 32 32" role="img" aria-label="browser"><rect x="4" y="6" width="24" height="20" rx="3" fill="#64748B"/><path d="M4 12h24" stroke="#fff" stroke-width="2"/><circle cx="9" cy="9" r="1" fill="#fff"/><circle cx="13" cy="9" r="1" fill="#fff"/></svg>

  <text x="120" y="256" text-anchor="middle" font-family="var(--font)" font-size="12" font-weight="600" fill="var(--node-text)">Application Users</text>
</g>
<g id="node-LoadBalancer" class="diagra-node" data-icon="gcp-loadbalancing">
  <rect x="402" y="188" width="182" height="88" rx="8" fill="var(--node-bg)" stroke="var(--node-border)"/>
  <svg x="477" y="200" width="32" height="32" viewBox="0 0 32 32" role="img" aria-label="Cloud Load Balancing">
  <path d="M9.5 25.8h13.3a6.1 6.1 0 0 0 .8-12.1 8.4 8.4 0 0 0-16.1-1.9A7.2 7.2 0 0 0 9.5 25.8Z" fill="#4285F4"/>
  <path d="M7 12h18v8H7z" fill="#77a7f7" opacity="0.95"/><path d="M10 16h12M18 12l4 4-4 4" stroke="#FFFFFF" stroke-width="1.5" fill="none" stroke-linecap="round" stroke-linejoin="round"/>
  <text x="16" y="20.4" text-anchor="middle" font-family="Arial, Helvetica, sans-serif" font-size="9" font-weight="700" fill="#FFFFFF">LB</text>
</svg>
  <text x="493" y="256" text-anchor="middle" font-family="var(--font)" font-size="12" font-weight="600" fill="var(--node-text)">Cloud Load Balancing</text>
</g>
<g id="node-GKE" class="diagra-node" data-icon="gcp-gke">
  <rect x="764" y="188" width="120" height="88" rx="8" fill="var(--node-bg)" stroke="var(--node-border)"/>
  <svg x="808" y="200" width="32" height="32" viewBox="0 0 32 32" role="img" aria-label="Google Kubernetes Engine">
  <path d="M9.5 25.8h13.3a6.1 6.1 0 0 0 .8-12.1 8.4 8.4 0 0 0-16.1-1.9A7.2 7.2 0 0 0 9.5 25.8Z" fill="#4285F4"/>
  <path d="M8 10h16v12H8z" fill="#77a7f7" opacity="0.95"/><path d="M11 13h3M16 13h3M21 13h2M11 17h3M16 17h3M21 17h2" stroke="#FFFFFF" stroke-width="1.2" stroke-linecap="round"/>
  <text x="16" y="20.4" text-anchor="middle" font-family="Arial, Helvetica, sans-serif" font-size="7" font-weight="700" fill="#FFFFFF">GKE</text>
</svg>
  <text x="824" y="256" text-anchor="middle" font-family="var(--font)" font-size="12" font-weight="600" fill="var(--node-text)">GKE Cluster</text>
</g>
<g id="node-Orders" class="diagra-node" data-icon="gcp-cloudrun">
  <rect x="1126" y="40" width="137" height="88" rx="8" fill="var(--node-bg)" stroke="var(--node-border)"/>
  <svg x="1178.5" y="52" width="32" height="32" viewBox="0 0 32 32" role="img" aria-label="Cloud Run">
  <path d="M9.5 25.8h13.3a6.1 6.1 0 0 0 .8-12.1 8.4 8.4 0 0 0-16.1-1.9A7.2 7.2 0 0 0 9.5 25.8Z" fill="#4285F4"/>
  <path d="M8 10h16v12H8z" fill="#77a7f7" opacity="0.95"/><path d="M11 13h3M16 13h3M21 13h2M11 17h3M16 17h3M21 17h2" stroke="#FFFFFF" stroke-width="1.2" stroke-linecap="round"/>
  <text x="16" y="20.4" text-anchor="middle" font-family="Arial, Helvetica, sans-serif" font-size="7" font-weight="700" fill="#FFFFFF">RUN</text>
</svg>
  <text x="1194.5" y="108" text-anchor="middle" font-family="var(--font)" font-size="12" font-weight="600" fill="var(--node-text)">Orders Service</text>
</g>
<g id="node-Payments" class="diagra-node" data-icon="gcp-cloudrun">
  <rect x="1126" y="188" width="152" height="88" rx="8" fill="var(--node-bg)" stroke="var(--node-border)"/>
  <svg x="1186" y="200" width="32" height="32" viewBox="0 0 32 32" role="img" aria-label="Cloud Run">
  <path d="M9.5 25.8h13.3a6.1 6.1 0 0 0 .8-12.1 8.4 8.4 0 0 0-16.1-1.9A7.2 7.2 0 0 0 9.5 25.8Z" fill="#4285F4"/>
  <path d="M8 10h16v12H8z" fill="#77a7f7" opacity="0.95"/><path d="M11 13h3M16 13h3M21 13h2M11 17h3M16 17h3M21 17h2" stroke="#FFFFFF" stroke-width="1.2" stroke-linecap="round"/>
  <text x="16" y="20.4" text-anchor="middle" font-family="Arial, Helvetica, sans-serif" font-size="7" font-weight="700" fill="#FFFFFF">RUN</text>
</svg>
  <text x="1202" y="256" text-anchor="middle" font-family="var(--font)" font-size="12" font-weight="600" fill="var(--node-text)">Payments Service</text>
</g>
<g id="node-Inventory" class="diagra-node" data-icon="gcp-cloudrun">
  <rect x="1126" y="336" width="160" height="88" rx="8" fill="var(--node-bg)" stroke="var(--node-border)"/>
  <svg x="1190" y="348" width="32" height="32" viewBox="0 0 32 32" role="img" aria-label="Cloud Run">
  <path d="M9.5 25.8h13.3a6.1 6.1 0 0 0 .8-12.1 8.4 8.4 0 0 0-16.1-1.9A7.2 7.2 0 0 0 9.5 25.8Z" fill="#4285F4"/>
  <path d="M8 10h16v12H8z" fill="#77a7f7" opacity="0.95"/><path d="M11 13h3M16 13h3M21 13h2M11 17h3M16 17h3M21 17h2" stroke="#FFFFFF" stroke-width="1.2" stroke-linecap="round"/>
  <text x="16" y="20.4" text-anchor="middle" font-family="Arial, Helvetica, sans-serif" font-size="7" font-weight="700" fill="#FFFFFF">RUN</text>
</svg>
  <text x="1206" y="404" text-anchor="middle" font-family="var(--font)" font-size="12" font-weight="600" fill="var(--node-text)">Inventory Service</text>
</g>
<g id="node-OrdersDB" class="diagra-node" data-icon="gcp-firestore">
  <rect x="1488" y="40" width="152" height="88" rx="8" fill="var(--node-bg)" stroke="var(--node-border)"/>
  <svg x="1548" y="52" width="32" height="32" viewBox="0 0 32 32" role="img" aria-label="Firestore">
  <path d="M9.5 25.8h13.3a6.1 6.1 0 0 0 .8-12.1 8.4 8.4 0 0 0-16.1-1.9A7.2 7.2 0 0 0 9.5 25.8Z" fill="#4285F4"/>
  <ellipse cx="16" cy="9" rx="8.5" ry="3.4" fill="#77a7f7"/><path d="M7.5 9v12c0 1.9 3.8 3.4 8.5 3.4s8.5-1.5 8.5-3.4V9" fill="#77a7f7"/><path d="M7.5 15c0 1.9 3.8 3.4 8.5 3.4s8.5-1.5 8.5-3.4" stroke="#FFFFFF" stroke-width="1.2" fill="none"/>
  <text x="16" y="20.4" text-anchor="middle" font-family="Arial, Helvetica, sans-serif" font-size="9" font-weight="700" fill="#FFFFFF">FS</text>
</svg>
  <text x="1564" y="108" text-anchor="middle" font-family="var(--font)" font-size="12" font-weight="600" fill="var(--node-text)">Orders Firestore</text>
</g>
<g id="node-PaymentsDB" class="diagra-node" data-icon="gcp-firestore">
  <rect x="1488" y="188" width="167" height="88" rx="8" fill="var(--node-bg)" stroke="var(--node-border)"/>
  <svg x="1555.5" y="200" width="32" height="32" viewBox="0 0 32 32" role="img" aria-label="Firestore">
  <path d="M9.5 25.8h13.3a6.1 6.1 0 0 0 .8-12.1 8.4 8.4 0 0 0-16.1-1.9A7.2 7.2 0 0 0 9.5 25.8Z" fill="#4285F4"/>
  <ellipse cx="16" cy="9" rx="8.5" ry="3.4" fill="#77a7f7"/><path d="M7.5 9v12c0 1.9 3.8 3.4 8.5 3.4s8.5-1.5 8.5-3.4V9" fill="#77a7f7"/><path d="M7.5 15c0 1.9 3.8 3.4 8.5 3.4s8.5-1.5 8.5-3.4" stroke="#FFFFFF" stroke-width="1.2" fill="none"/>
  <text x="16" y="20.4" text-anchor="middle" font-family="Arial, Helvetica, sans-serif" font-size="9" font-weight="700" fill="#FFFFFF">FS</text>
</svg>
  <text x="1571.5" y="256" text-anchor="middle" font-family="var(--font)" font-size="12" font-weight="600" fill="var(--node-text)">Payments Firestore</text>
</g>
<g id="node-PubSub" class="diagra-node" data-icon="gcp-pubsub">
  <rect x="1488" y="336" width="160" height="88" rx="8" fill="var(--node-bg)" stroke="var(--node-border)"/>
  <svg x="1552" y="348" width="32" height="32" viewBox="0 0 32 32" role="img" aria-label="Pub/Sub">
  <path d="M9.5 25.8h13.3a6.1 6.1 0 0 0 .8-12.1 8.4 8.4 0 0 0-16.1-1.9A7.2 7.2 0 0 0 9.5 25.8Z" fill="#4285F4"/>
  <path d="M16 6.8 25.2 16 16 25.2 6.8 16 16 6.8Z" fill="#77a7f7" opacity="0.95"/><path d="m13 11 6 5-6 5" stroke="#FFFFFF" stroke-width="1.8" fill="none" stroke-linecap="round" stroke-linejoin="round"/>
  <text x="16" y="20.4" text-anchor="middle" font-family="Arial, Helvetica, sans-serif" font-size="9" font-weight="700" fill="#FFFFFF">PS</text>
</svg>
  <text x="1568" y="404" text-anchor="middle" font-family="var(--font)" font-size="12" font-weight="600" fill="var(--node-text)">Pub/Sub Messaging</text>
</g>
<g id="node-Monitoring" class="diagra-node" data-icon="gcp-monitoring">
  <rect x="764" y="520" width="152" height="88" rx="8" fill="var(--node-bg)" stroke="var(--node-border)"/>
  <svg x="824" y="532" width="32" height="32" viewBox="0 0 32 32" role="img" aria-label="Cloud Monitoring">
  <path d="M9.5 25.8h13.3a6.1 6.1 0 0 0 .8-12.1 8.4 8.4 0 0 0-16.1-1.9A7.2 7.2 0 0 0 9.5 25.8Z" fill="#4285F4"/>
  <path d="M16 6.8 25.2 16 16 25.2 6.8 16 16 6.8Z" fill="#77a7f7" opacity="0.95"/><path d="m13 11 6 5-6 5" stroke="#FFFFFF" stroke-width="1.8" fill="none" stroke-linecap="round" stroke-linejoin="round"/>
  <text x="16" y="20.4" text-anchor="middle" font-family="Arial, Helvetica, sans-serif" font-size="7" font-weight="700" fill="#FFFFFF">MON</text>
</svg>
  <text x="840" y="588" text-anchor="middle" font-family="var(--font)" font-size="12" font-weight="600" fill="var(--node-text)">Cloud Monitoring</text>
</g>
<g id="node-Trace" class="diagra-node" data-icon="gcp-logging">
  <rect x="1126" y="520" width="120" height="88" rx="8" fill="var(--node-bg)" stroke="var(--node-border)"/>
  <svg x="1170" y="532" width="32" height="32" viewBox="0 0 32 32" role="img" aria-label="Cloud Logging">
  <path d="M9.5 25.8h13.3a6.1 6.1 0 0 0 .8-12.1 8.4 8.4 0 0 0-16.1-1.9A7.2 7.2 0 0 0 9.5 25.8Z" fill="#4285F4"/>
  <path d="M16 6.8 25.2 16 16 25.2 6.8 16 16 6.8Z" fill="#77a7f7" opacity="0.95"/><path d="m13 11 6 5-6 5" stroke="#FFFFFF" stroke-width="1.8" fill="none" stroke-linecap="round" stroke-linejoin="round"/>
  <text x="16" y="20.4" text-anchor="middle" font-family="Arial, Helvetica, sans-serif" font-size="7" font-weight="700" fill="#FFFFFF">LOG</text>
</svg>
  <text x="1186" y="588" text-anchor="middle" font-family="var(--font)" font-size="12" font-weight="600" fill="var(--node-text)">Cloud Trace</text>
</g>
</g>
</svg>