<svg xmlns="http://www.w3.org/2000/svg" width="1540" height="648" viewBox="0 0 1540 648" role="img">
<style>
:root {
  --bg: #0F172A;
  --node-bg: #1E293B;
  --node-border: #334155;
  --node-text: #F1F5F9;
  --edge-color: #475569;
  --edge-label: #CBD5E1;
  --accent: #818CF8;
  --font: 'Inter', sans-serif;
}
.diagra-node { filter: drop-shadow(0 10px 18px rgba(15, 23, 42, 0.10)); }
.diagra-edge { stroke-linecap: round; }
</style>
<defs>
  <marker id="arrow" markerWidth="10" markerHeight="10" refX="8" refY="3" orient="auto" markerUnits="strokeWidth">
    <path d="M0,0 L0,6 L9,3 z" fill="var(--edge-color)"/>
  </marker>
</defs>
<rect width="100%" height="100%" fill="var(--bg)"/>
<g class="diagra-edge-label">
  <path id="edge-1" class="diagra-edge" d="M 172 232 L 352 232" stroke="var(--edge-color)" stroke-width="1.7" fill="none" marker-end="url(#arrow)"/>
  <rect x="240" y="212" width="44" height="16" rx="4" fill="var(--bg)" opacity="0.9"/>
  <text x="262" y="224" text-anchor="middle" font-family="var(--font)" font-size="10" font-weight="600" fill="var(--edge-label)">HTTPS</text>
</g>
<g class="diagra-edge-label">
  <path id="edge-2" class="diagra-edge" d="M 484 232 L 664 232" stroke="var(--edge-color)" stroke-width="1.7" fill="none" marker-end="url(#arrow)"/>
  <rect x="545.5" y="244" width="57" height="16" rx="4" fill="var(--bg)" opacity="0.9"/>
  <text x="574" y="256" text-anchor="middle" font-family="var(--font)" font-size="10" font-weight="600" fill="var(--edge-label)">Ingress</text>
</g>
<g class="diagra-edge-label">
  <path id="edge-3" class="diagra-edge" d="M 796 232 C 877 232, 895 84, 976 84" stroke="var(--edge-color)" stroke-width="1.7" fill="none" marker-end="url(#arrow)"/>
  <rect x="840" y="138" width="92" height="16" rx="4" fill="var(--bg)" opacity="0.9"/>
  <text x="886" y="150" text-anchor="middle" font-family="var(--font)" font-size="10" font-weight="600" fill="var(--edge-label)">Route Orders</text>
</g>
<g class="diagra-edge-label">
  <path id="edge-4" class="diagra-edge" d="M 796 232 L 976 232" stroke="var(--edge-color)" stroke-width="1.7" fill="none" marker-end="url(#arrow)"/>
  <rect x="833" y="276" width="106" height="16" rx="4" fill="var(--bg)" opacity="0.9"/>
  <text x="886" y="288" text-anchor="middle" font-family="var(--font)" font-size="10" font-weight="600" fill="var(--edge-label)">Route Payments</text>
</g>
<g class="diagra-edge-label">
  <path id="edge-5" class="diagra-edge" d="M 796 232 C 877 232, 895 380, 976 380" stroke="var(--edge-color)" stroke-width="1.7" fill="none" marker-end="url(#arrow)"/>
  <rect x="829.5" y="302" width="113" height="16" rx="4" fill="var(--bg)" opacity="0.9"/>
  <text x="886" y="314" text-anchor="middle" font-family="var(--font)" font-size="10" font-weight="600" fill="var(--edge-label)">Route Inventory</text>
</g>
<g class="diagra-edge-label">
  <path id="edge-6" class="diagra-edge" d="M 1108 84 L 1288 84" stroke="var(--edge-color)" stroke-width="1.7" fill="none" marker-end="url(#arrow)"/>
  <rect x="1162.5" y="64" width="71" height="16" rx="4" fill="var(--bg)" opacity="0.9"/>
  <text x="1198" y="76" text-anchor="middle" font-family="var(--font)" font-size="10" font-weight="600" fill="var(--edge-label)">Owns Data</text>
</g>
<g class="diagra-edge-label">
  <path id="edge-7" class="diagra-edge" d="M 1108 232 L 1288 232" stroke="var(--edge-color)" stroke-width="1.7" fill="none" marker-end="url(#arrow)"/>
  <rect x="1162.5" y="324" width="71" height="16" rx="4" fill="var(--bg)" opacity="0.9"/>
  <text x="1198" y="336" text-anchor="middle" font-family="var(--font)" font-size="10" font-weight="600" fill="var(--edge-label)">Owns Data</text>
</g>
<g class="diagra-edge-label">
  <path id="edge-8" class="diagra-edge" d="M 1108 84 C 1189 84, 1207 380, 1288 380" stroke="var(--edge-color)" stroke-width="1.7" fill="none" marker-end="url(#arrow)"/>
  <rect x="1145" y="356" width="106" height="16" rx="4" fill="var(--bg)" opacity="0.9"/>
  <text x="1198" y="368" text-anchor="middle" font-family="var(--font)" font-size="10" font-weight="600" fill="var(--edge-label)">Publish Events</text>
</g>
<g class="diagra-edge-label">
  <path id="edge-9" class="diagra-edge" d="M 1108 232 C 1189 232, 1207 380, 1288 380" stroke="var(--edge-color)" stroke-width="1.7" fill="none" marker-end="url(#arrow)"/>
  <rect x="1145" y="382" width="106" height="16" rx="4" fill="var(--bg)" opacity="0.9"/>
  <text x="1198" y="394" text-anchor="middle" font-family="var(--font)" font-size="10" font-weight="600" fill="var(--edge-label)">Consume Events</text>
</g>
<g class="diagra-edge-label">
  <path id="edge-10" class="diagra-edge" d="M 730 276 C 778 276, 682 520, 730 520" stroke="var(--edge-color)" stroke-width="1" fill="none" marker-end="url(#arrow)" stroke-dasharray="6 5" opacity="0.4"/>
  <rect x="673.5" y="410" width="113" height="16" rx="4" fill="var(--bg)" opacity="0.9"/>
  <text x="730" y="422" text-anchor="middle" font-family="var(--font)" font-size="10" font-weight="600" fill="var(--edge-label)">Cluster Metrics</text>
</g>
<g class="diagra-edge-label">
  <path id="edge-11" class="diagra-edge" d="M 1042 128 C 1090 128, 994 520, 1042 520" stroke="var(--edge-color)" stroke-width="1" fill="none" marker-end="url(#arrow)" stroke-dasharray="6 5" opacity="0.4"/>
  <rect x="999.5" y="432" width="85" height="16" rx="4" fill="var(--bg)" opacity="0.9"/>
  <text x="1042" y="444" text-anchor="middle" font-family="var(--font)" font-size="10" font-weight="600" fill="var(--edge-label)">Trace Spans</text>
</g>
<g class="diagra-edge-label">
  <path id="edge-12" class="diagra-edge" d="M 1042 276 C 1090 276, 994 520, 1042 520" stroke="var(--edge-color)" stroke-width="1" fill="none" marker-end="url(#arrow)" stroke-dasharray="6 5" opacity="0.4"/>
  <rect x="999.5" y="458" width="85" height="16" rx="4" fill="var(--bg)" opacity="0.9"/>
  <text x="1042" y="470" text-anchor="middle" font-family="var(--font)" font-size="10" font-weight="600" fill="var(--edge-label)">Trace Spans</text>
</g>
<circle r="4" fill="var(--accent)" opacity="0.9">
  <animateMotion dur="1.5s" begin="0s" repeatCount="indefinite">
    <mpath href="#edge-1"/>
  </animateMotion>
</circle>
<circle r="4" fill="var(--accent)" opacity="0.9">
  <animateMotion dur="1.5s" begin="0.2s" repeatCount="indefinite">
    <mpath href="#edge-2"/>
  </animateMotion>
</circle>
<circle r="4" fill="var(--accent)" opacity="0.9">
  <animateMotion dur="1.5s" begin="0.4s" repeatCount="indefinite">
    <mpath href="#edge-3"/>
  </animateMotion>
</circle>
<circle r="4" fill="var(--accent)" opacity="0.9">
  <animateMotion dur="1.5s" begin="0.6000000000000001s" repeatCount="indefinite">
    <mpath href="#edge-4"/>
  </animateMotion>
</circle>
<circle r="4" fill="var(--accent)" opacity="0.9">
  <animateMotion dur="1.5s" begin="0.8s" repeatCount="indefinite">
    <mpath href="#edge-5"/>
  </animateMotion>
</circle>
<circle r="4" fill="var(--accent)" opacity="0.9">
  <animateMotion dur="1.5s" begin="1s" repeatCount="indefinite">
    <mpath href="#edge-6"/>
  </animateMotion>
</circle>
<circle r="4" fill="var(--accent)" opacity="0.9">
  <animateMotion dur="1.5s" begin="1.2000000000000002s" repeatCount="indefinite">
    <mpath href="#edge-7"/>
  </animateMotion>
</circle>
<circle r="4" fill="var(--accent)" opacity="0.9">
  <animateMotion dur="1.5s" begin="1.4000000000000001s" repeatCount="indefinite">
    <mpath href="#edge-8"/>
  </animateMotion>
</circle>
<circle r="4" fill="var(--accent)" opacity="0.9">
  <animateMotion dur="1.5s" begin="1.6s" repeatCount="indefinite">
    <mpath href="#edge-9"/>
  </animateMotion>
</circle>
<circle r="4" fill="var(--accent)" opacity="0.9">
  <animateMotion dur="1.5s" begin="1.8s" repeatCount="indefinite">
    <mpath href="#edge-10"/>
  </animateMotion>
</circle>
<circle r="4" fill="var(--accent)" opacity="0.9">
  <animateMotion dur="1.5s" begin="2s" repeatCount="indefinite">
    <mpath href="#edge-11"/>
  </animateMotion>
</circle>
<circle r="4" fill="var(--accent)" opacity="0.9">
  <animateMotion dur="1.5s" begin="2.2s" repeatCount="indefinite">
    <mpath href="#edge-12"/>
  </animateMotion>
</circle>
<g id="node-Users" class="diagra-node" data-icon="generic-browser">
  <rect x="40" y="188" width="132" height="88" rx="8" fill="var(--node-bg)" stroke="var(--node-border)"/>
  <svg x="90" y="200" width="32" height="32" viewBox="0 0 32 32" role="img" aria-label="browser"><rect x="4" y="6" width="24" height="20" rx="3" fill="#64748B"/><path d="M4 12h24" stroke="#fff" stroke-width="2"/><circle cx="9" cy="9" r="1" fill="#fff"/><circle cx="13" cy="9" r="1" fill="#fff"/></svg>

  <text x="106" y="256" text-anchor="middle" font-family="var(--font)" font-size="12" font-weight="600" fill="var(--node-text)">Application Users</text>
</g>
<g id="node-LoadBalancer" class="diagra-node" data-icon="gcp-loadbalancing">
  <rect x="352" y="188" width="132" height="88" rx="8" fill="var(--node-bg)" stroke="var(--node-border)"/>
  <svg x="402" y="200" width="32" height="32" viewBox="0 0 32 32" role="img" aria-label="Cloud Load Balancing">
  <path d="M9.5 25.8h13.3a6.1 6.1 0 0 0 .8-12.1 8.4 8.4 0 0 0-16.1-1.9A7.2 7.2 0 0 0 9.5 25.8Z" fill="#4285F4"/>
  <path d="M7 12h18v8H7z" fill="#77a7f7" opacity="0.95"/><path d="M10 16h12M18 12l4 4-4 4" stroke="#FFFFFF" stroke-width="1.5" fill="none" stroke-linecap="round" stroke-linejoin="round"/>
  <text x="16" y="20.4" text-anchor="middle" font-family="Arial, Helvetica, sans-serif" font-size="9" font-weight="700" fill="#FFFFFF">LB</text>
</svg>
  <text x="418" y="256" text-anchor="middle" font-family="var(--font)" font-size="12" font-weight="600" fill="var(--node-text)">Cloud Load Balancing</text>
</g>
<g id="node-GKE" class="diagra-node" data-icon="gcp-gke">
  <rect x="664" y="188" width="132" height="88" rx="8" fill="var(--node-bg)" stroke="var(--node-border)"/>
  <svg x="714" y="200" width="32" height="32" viewBox="0 0 32 32" role="img" aria-label="Google Kubernetes Engine">
  <path d="M9.5 25.8h13.3a6.1 6.1 0 0 0 .8-12.1 8.4 8.4 0 0 0-16.1-1.9A7.2 7.2 0 0 0 9.5 25.8Z" fill="#4285F4"/>
  <path d="M8 10h16v12H8z" fill="#77a7f7" opacity="0.95"/><path d="M11 13h3M16 13h3M21 13h2M11 17h3M16 17h3M21 17h2" stroke="#FFFFFF" stroke-width="1.2" stroke-linecap="round"/>
  <text x="16" y="20.4" text-anchor="middle" font-family="Arial, Helvetica, sans-serif" font-size="7" font-weight="700" fill="#FFFFFF">GKE</text>
</svg>
  <text x="730" y="256" text-anchor="middle" font-family="var(--font)" font-size="12" font-weight="600" fill="var(--node-text)">GKE Cluster</text>
</g>
<g id="node-Orders" class="diagra-node" data-icon="gcp-cloudrun">
  <rect x="976" y="40" width="132" height="88" rx="8" fill="var(--node-bg)" stroke="var(--node-border)"/>
  <svg x="1026" y="52" width="32" height="32" viewBox="0 0 32 32" role="img" aria-label="Cloud Run">
  <path d="M9.5 25.8h13.3a6.1 6.1 0 0 0 .8-12.1 8.4 8.4 0 0 0-16.1-1.9A7.2 7.2 0 0 0 9.5 25.8Z" fill="#4285F4"/>
  <path d="M8 10h16v12H8z" fill="#77a7f7" opacity="0.95"/><path d="M11 13h3M16 13h3M21 13h2M11 17h3M16 17h3M21 17h2" stroke="#FFFFFF" stroke-width="1.2" stroke-linecap="round"/>
  <text x="16" y="20.4" text-anchor="middle" font-family="Arial, Helvetica, sans-serif" font-size="7" font-weight="700" fill="#FFFFFF">RUN</text>
</svg>
  <text x="1042" y="108" text-anchor="middle" font-family="var(--font)" font-size="12" font-weight="600" fill="var(--node-text)">Orders Service</text>
</g>
<g id="node-Payments" class="diagra-node" data-icon="gcp-cloudrun">
  <rect x="976" y="188" width="132" height="88" rx="8" fill="var(--node-bg)" stroke="var(--node-border)"/>
  <svg x="1026" y="200" width="32" height="32" viewBox="0 0 32 32" role="img" aria-label="Cloud Run">
  <path d="M9.5 25.8h13.3a6.1 6.1 0 0 0 .8-12.1 8.4 8.4 0 0 0-16.1-1.9A7.2 7.2 0 0 0 9.5 25.8Z" fill="#4285F4"/>
  <path d="M8 10h16v12H8z" fill="#77a7f7" opacity="0.95"/><path d="M11 13h3M16 13h3M21 13h2M11 17h3M16 17h3M21 17h2" stroke="#FFFFFF" stroke-width="1.2" stroke-linecap="round"/>
  <text x="16" y="20.4" text-anchor="middle" font-family="Arial, Helvetica, sans-serif" font-size="7" font-weight="700" fill="#FFFFFF">RUN</text>
</svg>
  <text x="1042" y="256" text-anchor="middle" font-family="var(--font)" font-size="12" font-weight="600" fill="var(--node-text)">Payments Service</text>
</g>
<g id="node-Inventory" class="diagra-node" data-icon="gcp-cloudrun">
  <rect x="976" y="336" width="132" height="88" rx="8" fill="var(--node-bg)" stroke="var(--node-border)"/>
  <svg x="1026" y="348" width="32" height="32" viewBox="0 0 32 32" role="img" aria-label="Cloud Run">
  <path d="M9.5 25.8h13.3a6.1 6.1 0 0 0 .8-12.1 8.4 8.4 0 0 0-16.1-1.9A7.2 7.2 0 0 0 9.5 25.8Z" fill="#4285F4"/>
  <path d="M8 10h16v12H8z" fill="#77a7f7" opacity="0.95"/><path d="M11 13h3M16 13h3M21 13h2M11 17h3M16 17h3M21 17h2" stroke="#FFFFFF" stroke-width="1.2" stroke-linecap="round"/>
  <text x="16" y="20.4" text-anchor="middle" font-family="Arial, Helvetica, sans-serif" font-size="7" font-weight="700" fill="#FFFFFF">RUN</text>
</svg>
  <text x="1042" y="404" text-anchor="middle" font-family="var(--font)" font-size="12" font-weight="600" fill="var(--node-text)">Inventory Service</text>
</g>
<g id="node-OrdersDB" class="diagra-node" data-icon="gcp-firestore">
  <rect x="1288" y="40" width="132" height="88" rx="8" fill="var(--node-bg)" stroke="var(--node-border)"/>
  <svg x="1338" y="52" width="32" height="32" viewBox="0 0 32 32" role="img" aria-label="Firestore">
  <path d="M9.5 25.8h13.3a6.1 6.1 0 0 0 .8-12.1 8.4 8.4 0 0 0-16.1-1.9A7.2 7.2 0 0 0 9.5 25.8Z" fill="#4285F4"/>
  <ellipse cx="16" cy="9" rx="8.5" ry="3.4" fill="#77a7f7"/><path d="M7.5 9v12c0 1.9 3.8 3.4 8.5 3.4s8.5-1.5 8.5-3.4V9" fill="#77a7f7"/><path d="M7.5 15c0 1.9 3.8 3.4 8.5 3.4s8.5-1.5 8.5-3.4" stroke="#FFFFFF" stroke-width="1.2" fill="none"/>
  <text x="16" y="20.4" text-anchor="middle" font-family="Arial, Helvetica, sans-serif" font-size="9" font-weight="700" fill="#FFFFFF">FS</text>
</svg>
  <text x="1354" y="108" text-anchor="middle" font-family="var(--font)" font-size="12" font-weight="600" fill="var(--node-text)">Orders Firestore</text>
</g>
<g id="node-PaymentsDB" class="diagra-node" data-icon="gcp-firestore">
  <rect x="1288" y="188" width="132" height="88" rx="8" fill="var(--node-bg)" stroke="var(--node-border)"/>
  <svg x="1338" y="200" width="32" height="32" viewBox="0 0 32 32" role="img" aria-label="Firestore">
  <path d="M9.5 25.8h13.3a6.1 6.1 0 0 0 .8-12.1 8.4 8.4 0 0 0-16.1-1.9A7.2 7.2 0 0 0 9.5 25.8Z" fill="#4285F4"/>
  <ellipse cx="16" cy="9" rx="8.5" ry="3.4" fill="#77a7f7"/><path d="M7.5 9v12c0 1.9 3.8 3.4 8.5 3.4s8.5-1.5 8.5-3.4V9" fill="#77a7f7"/><path d="M7.5 15c0 1.9 3.8 3.4 8.5 3.4s8.5-1.5 8.5-3.4" stroke="#FFFFFF" stroke-width="1.2" fill="none"/>
  <text x="16" y="20.4" text-anchor="middle" font-family="Arial, Helvetica, sans-serif" font-size="9" font-weight="700" fill="#FFFFFF">FS</text>
</svg>
  <text x="1354" y="256" text-anchor="middle" font-family="var(--font)" font-size="12" font-weight="600" fill="var(--node-text)">Payments Firestore</text>
</g>
<g id="node-PubSub" class="diagra-node" data-icon="gcp-pubsub">
  <rect x="1288" y="336" width="132" height="88" rx="8" fill="var(--node-bg)" stroke="var(--node-border)"/>
  <svg x="1338" y="348" width="32" height="32" viewBox="0 0 32 32" role="img" aria-label="Pub/Sub">
  <path d="M9.5 25.8h13.3a6.1 6.1 0 0 0 .8-12.1 8.4 8.4 0 0 0-16.1-1.9A7.2 7.2 0 0 0 9.5 25.8Z" fill="#4285F4"/>
  <path d="M16 6.8 25.2 16 16 25.2 6.8 16 16 6.8Z" fill="#77a7f7" opacity="0.95"/><path d="m13 11 6 5-6 5" stroke="#FFFFFF" stroke-width="1.8" fill="none" stroke-linecap="round" stroke-linejoin="round"/>
  <text x="16" y="20.4" text-anchor="middle" font-family="Arial, Helvetica, sans-serif" font-size="9" font-weight="700" fill="#FFFFFF">PS</text>
</svg>
  <text x="1354" y="404" text-anchor="middle" font-family="var(--font)" font-size="12" font-weight="600" fill="var(--node-text)">Pub/Sub Messaging</text>
</g>
<g id="node-Monitoring" class="diagra-node" data-icon="gcp-monitoring">
  <rect x="664" y="520" width="132" height="88" rx="8" fill="var(--node-bg)" stroke="var(--node-border)"/>
  <svg x="714" y="532" width="32" height="32" viewBox="0 0 32 32" role="img" aria-label="Cloud Monitoring">
  <path d="M9.5 25.8h13.3a6.1 6.1 0 0 0 .8-12.1 8.4 8.4 0 0 0-16.1-1.9A7.2 7.2 0 0 0 9.5 25.8Z" fill="#4285F4"/>
  <path d="M16 6.8 25.2 16 16 25.2 6.8 16 16 6.8Z" fill="#77a7f7" opacity="0.95"/><path d="m13 11 6 5-6 5" stroke="#FFFFFF" stroke-width="1.8" fill="none" stroke-linecap="round" stroke-linejoin="round"/>
  <text x="16" y="20.4" text-anchor="middle" font-family="Arial, Helvetica, sans-serif" font-size="7" font-weight="700" fill="#FFFFFF">MON</text>
</svg>
  <text x="730" y="588" text-anchor="middle" font-family="var(--font)" font-size="12" font-weight="600" fill="var(--node-text)">Cloud Monitoring</text>
</g>
<g id="node-Trace" class="diagra-node" data-icon="gcp-logging">
  <rect x="976" y="520" width="132" height="88" rx="8" fill="var(--node-bg)" stroke="var(--node-border)"/>
  <svg x="1026" y="532" width="32" height="32" viewBox="0 0 32 32" role="img" aria-label="Cloud Logging">
  <path d="M9.5 25.8h13.3a6.1 6.1 0 0 0 .8-12.1 8.4 8.4 0 0 0-16.1-1.9A7.2 7.2 0 0 0 9.5 25.8Z" fill="#4285F4"/>
  <path d="M16 6.8 25.2 16 16 25.2 6.8 16 16 6.8Z" fill="#77a7f7" opacity="0.95"/><path d="m13 11 6 5-6 5" stroke="#FFFFFF" stroke-width="1.8" fill="none" stroke-linecap="round" stroke-linejoin="round"/>
  <text x="16" y="20.4" text-anchor="middle" font-family="Arial, Helvetica, sans-serif" font-size="7" font-weight="700" fill="#FFFFFF">LOG</text>
</svg>
  <text x="1042" y="588" text-anchor="middle" font-family="var(--font)" font-size="12" font-weight="600" fill="var(--node-text)">Cloud Trace</text>
</g>
</svg>