<svg xmlns="http://www.w3.org/2000/svg" width="2871" height="550" viewBox="0 0 2871 550" role="img">
<style>
:root {
  --bg: #0F172A;
  --node-bg: #1E293B;
  --node-border: #334155;
  --node-text: #F1F5F9;
  --edge-color: #475569;
  --edge-label: #CBD5E1;
  --accent: #818CF8;
  --font: 'Inter', sans-serif;
}
.diagra-node { filter: drop-shadow(0 10px 18px rgba(15, 23, 42, 0.10)); }
.diagra-edge { stroke-linecap: round; }
</style>
<defs>
  <marker id="arrow" markerWidth="10" markerHeight="10" refX="8" refY="3" orient="auto" markerUnits="strokeWidth">
    <path d="M0,0 L0,6 L9,3 z" fill="var(--edge-color)"/>
  </marker>
</defs>
<rect width="100%" height="100%" fill="var(--bg)"/>
<text x="24" y="28" font-family="var(--font)" font-size="18" font-weight="700" fill="var(--node-text)">RAG Pipeline</text>
<text x="24" y="50" font-family="var(--font)" font-size="12" font-weight="400" fill="var(--edge-label)">Retrieval Augmented Generation</text>
<line x1="24" y1="58" x2="2847" y2="58" stroke="var(--node-border)" stroke-width="0.5"/>
<g transform="translate(0, 70)">
<g class="diagra-edge-label">
  <path id="edge-1" class="diagra-edge" d="M 160 84 L 417 84" stroke="var(--edge-color)" stroke-width="1.7" fill="none" marker-end="url(#arrow)"/>
  <rect x="232.25" y="62" width="121" height="16" rx="2" fill="var(--bg)" opacity="0.85"/>
  <text x="292.75" y="72" text-anchor="middle" font-family="var(--font)" font-size="10" font-weight="600" fill="var(--edge-label)">Submit Question</text>
</g>
<g class="diagra-edge-label">
  <path id="edge-2" class="diagra-edge" d="M 554 84 C 831.6500000000001 84, 893.3499999999999 158, 1171 158" stroke="var(--edge-color)" stroke-width="1.7" fill="none" marker-end="url(#arrow)"/>
  <rect x="811" y="99" width="107" height="16" rx="2" fill="var(--bg)" opacity="0.85"/>
  <text x="864.5" y="109" text-anchor="middle" font-family="var(--font)" font-size="10" font-weight="600" fill="var(--edge-label)">Vector Search</text>
</g>
<g class="diagra-edge-label">
  <path id="edge-3" class="diagra-edge" d="M 1316 158 L 1548 158" stroke="var(--edge-color)" stroke-width="1.7" fill="none" marker-end="url(#arrow)"/>
  <rect x="1391" y="136" width="93" height="16" rx="2" fill="var(--bg)" opacity="0.85"/>
  <text x="1437.5" y="146" text-anchor="middle" font-family="var(--font)" font-size="10" font-weight="600" fill="var(--edge-label)">Top Matches</text>
</g>
<g class="diagra-edge-label">
  <path id="edge-4" class="diagra-edge" d="M 1715 158 L 1925 158" stroke="var(--edge-color)" stroke-width="1.7" fill="none" marker-end="url(#arrow)"/>
  <rect x="1754" y="168" width="121" height="16" rx="2" fill="var(--bg)" opacity="0.85"/>
  <text x="1814.5" y="178" text-anchor="middle" font-family="var(--font)" font-size="10" font-weight="600" fill="var(--edge-label)">Relevant Chunks</text>
</g>
<g class="diagra-edge-label">
  <path id="edge-5" class="diagra-edge" d="M 2070 158 C 2174.4 158, 2197.6 167, 2302 167" stroke="var(--edge-color)" stroke-width="1.7" fill="none" marker-end="url(#arrow)"/>
  <rect x="2142" y="188.5" width="114" height="16" rx="2" fill="var(--bg)" opacity="0.85"/>
  <text x="2199" y="198.5" text-anchor="middle" font-family="var(--font)" font-size="10" font-weight="600" fill="var(--edge-label)">Prompt Context</text>
</g>
<g class="diagra-edge-label">
  <path id="edge-6" class="diagra-edge" d="M 2499 167 C 2580 167, 2598 158, 2679 158" stroke="var(--edge-color)" stroke-width="1.7" fill="none" marker-end="url(#arrow)"/>
  <rect x="2548.75" y="220.5" width="58" height="16" rx="2" fill="var(--bg)" opacity="0.85"/>
  <text x="2577.75" y="230.5" text-anchor="middle" font-family="var(--font)" font-size="10" font-weight="600" fill="var(--edge-label)">Answer</text>
</g>
<g class="diagra-edge-label">
  <path id="edge-7" class="diagra-edge" d="M 207 232 L 417 232" stroke="var(--edge-color)" stroke-width="1.7" fill="none" marker-end="url(#arrow)"/>
  <rect x="254.75" y="242" width="107" height="16" rx="2" fill="var(--bg)" opacity="0.85"/>
  <text x="308.25" y="252" text-anchor="middle" font-family="var(--font)" font-size="10" font-weight="600" fill="var(--edge-label)">Raw Documents</text>
</g>
<g class="diagra-edge-label">
  <path id="edge-8" class="diagra-edge" d="M 569 232 C 670.25 232, 692.75 158, 794 158" stroke="var(--edge-color)" stroke-width="1.7" fill="none" marker-end="url(#arrow)"/>
  <rect x="658.25" y="269" width="58" height="16" rx="2" fill="var(--bg)" opacity="0.85"/>
  <text x="687.25" y="279" text-anchor="middle" font-family="var(--font)" font-size="10" font-weight="600" fill="var(--edge-label)">Chunks</text>
</g>
<g class="diagra-edge-label">
  <path id="edge-9" class="diagra-edge" d="M 969 158 L 1171 158" stroke="var(--edge-color)" stroke-width="1.7" fill="none" marker-end="url(#arrow)"/>
  <rect x="998.5" y="296" width="128" height="16" rx="2" fill="var(--bg)" opacity="0.85"/>
  <text x="1062.5" y="306" text-anchor="middle" font-family="var(--font)" font-size="10" font-weight="600" fill="var(--edge-label)">Store Embeddings</text>
</g>
<circle r="4" fill="var(--accent)" opacity="0.9">
  <animateMotion dur="1.5s" begin="0s" repeatCount="indefinite">
    <mpath href="#edge-1"/>
  </animateMotion>
</circle>
<circle r="4" fill="var(--accent)" opacity="0.9">
  <animateMotion dur="1.5s" begin="0.2s" repeatCount="indefinite">
    <mpath href="#edge-2"/>
  </animateMotion>
</circle>
<circle r="4" fill="var(--accent)" opacity="0.9">
  <animateMotion dur="1.5s" begin="0.4s" repeatCount="indefinite">
    <mpath href="#edge-3"/>
  </animateMotion>
</circle>
<circle r="4" fill="var(--accent)" opacity="0.9">
  <animateMotion dur="1.5s" begin="0.6000000000000001s" repeatCount="indefinite">
    <mpath href="#edge-4"/>
  </animateMotion>
</circle>
<circle r="4" fill="var(--accent)" opacity="0.9">
  <animateMotion dur="1.5s" begin="0.8s" repeatCount="indefinite">
    <mpath href="#edge-5"/>
  </animateMotion>
</circle>
<circle r="4" fill="var(--accent)" opacity="0.9">
  <animateMotion dur="1.5s" begin="1s" repeatCount="indefinite">
    <mpath href="#edge-6"/>
  </animateMotion>
</circle>
<circle r="4" fill="var(--accent)" opacity="0.9">
  <animateMotion dur="1.5s" begin="1.2000000000000002s" repeatCount="indefinite">
    <mpath href="#edge-7"/>
  </animateMotion>
</circle>
<circle r="4" fill="var(--accent)" opacity="0.9">
  <animateMotion dur="1.5s" begin="1.4000000000000001s" repeatCount="indefinite">
    <mpath href="#edge-8"/>
  </animateMotion>
</circle>
<circle r="4" fill="var(--accent)" opacity="0.9">
  <animateMotion dur="1.5s" begin="1.6s" repeatCount="indefinite">
    <mpath href="#edge-9"/>
  </animateMotion>
</circle>
<g id="node-User" class="diagra-node" data-icon="generic-user">
  <rect x="40" y="40" width="120" height="88" rx="8" fill="var(--node-bg)" stroke="var(--node-border)"/>
  <svg x="84" y="52" width="32" height="32" viewBox="0 0 32 32" role="img" aria-label="user"><circle cx="16" cy="11" r="6" fill="#64748B"/><path d="M6 28c1.4-6 5-9 10-9s8.6 3 10 9" fill="#64748B"/></svg>

  <text x="100" y="108" text-anchor="middle" font-family="var(--font)" font-size="12" font-weight="600" fill="var(--node-text)">User Query</text>
</g>
<g id="node-QueryEmbedder" class="diagra-node" data-icon="generic-api">
  <rect x="417" y="40" width="137" height="88" rx="8" fill="var(--node-bg)" stroke="var(--node-border)"/>
  <svg x="469.5" y="52" width="32" height="32" viewBox="0 0 32 32" role="img" aria-label="api"><rect x="4" y="7" width="24" height="18" rx="4" fill="#64748B"/><text x="16" y="20" text-anchor="middle" font-family="Arial" font-size="9" font-weight="700" fill="#fff">API</text></svg>

  <text x="485.5" y="108" text-anchor="middle" font-family="var(--font)" font-size="12" font-weight="600" fill="var(--node-text)">Query Embedder</text>
</g>
<g id="node-VectorDB" class="diagra-node" data-icon="generic-database">
  <rect x="1171" y="114" width="145" height="88" rx="8" fill="var(--node-bg)" stroke="var(--node-border)"/>
  <svg x="1227.5" y="126" width="32" height="32" viewBox="0 0 32 32" role="img" aria-label="database"><ellipse cx="16" cy="8" rx="10" ry="4" fill="#64748B"/><path d="M6 8v14c0 2.2 4.5 4 10 4s10-1.8 10-4V8" fill="#64748B"/><path d="M6 15c0 2.2 4.5 4 10 4s10-1.8 10-4" stroke="#fff" stroke-width="1.8" fill="none"/></svg>

  <text x="1243.5" y="182" text-anchor="middle" font-family="var(--font)" font-size="12" font-weight="600" fill="var(--node-text)">Vector Database</text>
</g>
<g id="node-Retriever" class="diagra-node" data-icon="generic-server">
  <rect x="1548" y="114" width="167" height="88" rx="8" fill="var(--node-bg)" stroke="var(--node-border)"/>
  <svg x="1615.5" y="126" width="32" height="32" viewBox="0 0 32 32" role="img" aria-label="server"><rect x="5" y="6" width="22" height="20" rx="3" fill="#64748B"/><path d="M9 12h14M9 18h14" stroke="#fff" stroke-width="2"/><circle cx="11" cy="23" r="1.5" fill="#fff"/></svg>

  <text x="1631.5" y="182" text-anchor="middle" font-family="var(--font)" font-size="12" font-weight="600" fill="var(--node-text)">Document Retriever</text>
</g>
<g id="node-Context" class="diagra-node" data-icon="generic-server">
  <rect x="1925" y="114" width="145" height="88" rx="8" fill="var(--node-bg)" stroke="var(--node-border)"/>
  <svg x="1981.5" y="126" width="32" height="32" viewBox="0 0 32 32" role="img" aria-label="server"><rect x="5" y="6" width="22" height="20" rx="3" fill="#64748B"/><path d="M9 12h14M9 18h14" stroke="#fff" stroke-width="2"/><circle cx="11" cy="23" r="1.5" fill="#fff"/></svg>

  <text x="1997.5" y="182" text-anchor="middle" font-family="var(--font)" font-size="12" font-weight="600" fill="var(--node-text)">Context Builder</text>
</g>
<g id="node-LLM" class="diagra-node" data-icon="generic-api">
  <rect x="2302" y="114" width="197" height="106" rx="8" fill="var(--node-bg)" stroke="var(--node-border)"/>
  <svg x="2384.5" y="126" width="32" height="32" viewBox="0 0 32 32" role="img" aria-label="api"><rect x="4" y="7" width="24" height="18" rx="4" fill="#64748B"/><text x="16" y="20" text-anchor="middle" font-family="Arial" font-size="9" font-weight="700" fill="#fff">API</text></svg>

  <text text-anchor="middle" font-family="var(--font)" font-size="12" font-weight="600" fill="var(--node-text)">
  <tspan x="2400.5" y="176">LLM Response</tspan>
  <tspan x="2400.5" dy="18">Generator</tspan>
</text>
</g>
<g id="node-Response" class="diagra-node" data-icon="generic-user">
  <rect x="2679" y="114" width="152" height="88" rx="8" fill="var(--node-bg)" stroke="var(--node-border)"/>
  <svg x="2739" y="126" width="32" height="32" viewBox="0 0 32 32" role="img" aria-label="user"><circle cx="16" cy="11" r="6" fill="#64748B"/><path d="M6 28c1.4-6 5-9 10-9s8.6 3 10 9" fill="#64748B"/></svg>

  <text x="2755" y="182" text-anchor="middle" font-family="var(--font)" font-size="12" font-weight="600" fill="var(--node-text)">Response to User</text>
</g>
<g id="node-Ingestion" class="diagra-node" data-icon="generic-server">
  <rect x="40" y="188" width="167" height="88" rx="8" fill="var(--node-bg)" stroke="var(--node-border)"/>
  <svg x="107.5" y="200" width="32" height="32" viewBox="0 0 32 32" role="img" aria-label="server"><rect x="5" y="6" width="22" height="20" rx="3" fill="#64748B"/><path d="M9 12h14M9 18h14" stroke="#fff" stroke-width="2"/><circle cx="11" cy="23" r="1.5" fill="#fff"/></svg>

  <text x="123.5" y="256" text-anchor="middle" font-family="var(--font)" font-size="12" font-weight="600" fill="var(--node-text)">Document Ingestion</text>
</g>
<g id="node-Chunker" class="diagra-node" data-icon="generic-server">
  <rect x="417" y="188" width="152" height="88" rx="8" fill="var(--node-bg)" stroke="var(--node-border)"/>
  <svg x="477" y="200" width="32" height="32" viewBox="0 0 32 32" role="img" aria-label="server"><rect x="5" y="6" width="22" height="20" rx="3" fill="#64748B"/><path d="M9 12h14M9 18h14" stroke="#fff" stroke-width="2"/><circle cx="11" cy="23" r="1.5" fill="#fff"/></svg>

  <text x="493" y="256" text-anchor="middle" font-family="var(--font)" font-size="12" font-weight="600" fill="var(--node-text)">Document Chunker</text>
</g>
<g id="node-Embedder" class="diagra-node" data-icon="generic-api">
  <rect x="794" y="114" width="175" height="88" rx="8" fill="var(--node-bg)" stroke="var(--node-border)"/>
  <svg x="865.5" y="126" width="32" height="32" viewBox="0 0 32 32" role="img" aria-label="api"><rect x="4" y="7" width="24" height="18" rx="4" fill="#64748B"/><text x="16" y="20" text-anchor="middle" font-family="Arial" font-size="9" font-weight="700" fill="#fff">API</text></svg>

  <text x="881.5" y="182" text-anchor="middle" font-family="var(--font)" font-size="12" font-weight="600" fill="var(--node-text)">Embedding Generator</text>
</g>
</g>
</svg>