<svg xmlns="http://www.w3.org/2000/svg" width="1400" height="960" viewBox="0 0 1400 960" role="img">
<style>
:root {
  --bg: #FFFFFF;
  --node-bg: #F8F9FA;
  --node-border: #E2E8F0;
  --node-text: #1A202C;
  --edge-color: #94A3B8;
  --edge-label: #64748B;
  --accent: #6366F1;
  --font: 'Inter', sans-serif;
}
.diagra-node { filter: drop-shadow(0 10px 18px rgba(15, 23, 42, 0.10)); }
.diagra-edge { stroke-linecap: round; }
</style>
<defs>
  <marker id="arrow" markerWidth="10" markerHeight="10" refX="8" refY="3" orient="auto" markerUnits="strokeWidth">
    <path d="M0,0 L0,6 L9,3 z" fill="var(--edge-color)"/>
  </marker>
</defs>
<rect width="100%" height="100%" fill="var(--bg)"/>
<g class="diagra-edge-label">
  <path id="edge-1" class="diagra-edge" d="M 172 158 C 253 158, 271 232, 352 232" stroke="var(--edge-color)" stroke-width="1.7" fill="none" marker-end="url(#arrow)"/>
  <rect x="240" y="175" width="44" height="16" rx="4" fill="var(--bg)" opacity="0.9"/>
  <text x="262" y="187" text-anchor="middle" font-family="var(--font)" font-size="10" font-weight="600" fill="var(--edge-label)">HTTPS</text>
</g>
<g class="diagra-edge-label">
  <path id="edge-2" class="diagra-edge" d="M 484 232 L 664 232" stroke="var(--edge-color)" stroke-width="1.7" fill="none" marker-end="url(#arrow)"/>
  <rect x="535" y="212" width="78" height="16" rx="4" fill="var(--bg)" opacity="0.9"/>
  <text x="574" y="224" text-anchor="middle" font-family="var(--font)" font-size="10" font-weight="600" fill="var(--edge-label)">Orders API</text>
</g>
<g class="diagra-edge-label">
  <path id="edge-3" class="diagra-edge" d="M 484 232 C 565 232, 583 380, 664 380" stroke="var(--edge-color)" stroke-width="1.7" fill="none" marker-end="url(#arrow)"/>
  <rect x="528" y="286" width="92" height="16" rx="4" fill="var(--bg)" opacity="0.9"/>
  <text x="574" y="298" text-anchor="middle" font-family="var(--font)" font-size="10" font-weight="600" fill="var(--edge-label)">Payments API</text>
</g>
<g class="diagra-edge-label">
  <path id="edge-4" class="diagra-edge" d="M 484 232 C 565 232, 583 84, 664 84" stroke="var(--edge-color)" stroke-width="1.7" fill="none" marker-end="url(#arrow)"/>
  <rect x="524.5" y="138" width="99" height="16" rx="4" fill="var(--bg)" opacity="0.9"/>
  <text x="574" y="150" text-anchor="middle" font-family="var(--font)" font-size="10" font-weight="600" fill="var(--edge-label)">Inventory API</text>
</g>
<g class="diagra-edge-label">
  <path id="edge-5" class="diagra-edge" d="M 796 232 C 877 232, 895 84, 976 84" stroke="var(--edge-color)" stroke-width="1.7" fill="none" marker-end="url(#arrow)"/>
  <rect x="833" y="234" width="106" height="16" rx="4" fill="var(--bg)" opacity="0.9"/>
  <text x="886" y="246" text-anchor="middle" font-family="var(--font)" font-size="10" font-weight="600" fill="var(--edge-label)">Persist Orders</text>
</g>
<g class="diagra-edge-label">
  <path id="edge-6" class="diagra-edge" d="M 796 380 L 976 380" stroke="var(--edge-color)" stroke-width="1.7" fill="none" marker-end="url(#arrow)"/>
  <rect x="826" y="360" width="120" height="16" rx="4" fill="var(--bg)" opacity="0.9"/>
  <text x="886" y="372" text-anchor="middle" font-family="var(--font)" font-size="10" font-weight="600" fill="var(--edge-label)">Persist Payments</text>
</g>
<g class="diagra-edge-label">
  <path id="edge-7" class="diagra-edge" d="M 796 232 L 976 232" stroke="var(--edge-color)" stroke-width="1.7" fill="none" marker-end="url(#arrow)"/>
  <rect x="833" y="260" width="106" height="16" rx="4" fill="var(--bg)" opacity="0.9"/>
  <text x="886" y="272" text-anchor="middle" font-family="var(--font)" font-size="10" font-weight="600" fill="var(--edge-label)">Publish Events</text>
</g>
<g class="diagra-edge-label">
  <path id="edge-8" class="diagra-edge" d="M 796 380 C 877 380, 895 232, 976 232" stroke="var(--edge-color)" stroke-width="1.7" fill="none" marker-end="url(#arrow)"/>
  <rect x="833" y="318" width="106" height="16" rx="4" fill="var(--bg)" opacity="0.9"/>
  <text x="886" y="330" text-anchor="middle" font-family="var(--font)" font-size="10" font-weight="600" fill="var(--edge-label)">Publish Events</text>
</g>
<g class="diagra-edge-label">
  <path id="edge-9" class="diagra-edge" d="M 172 306 C 393.4 306, 442.6 232, 664 232" stroke="var(--edge-color)" stroke-width="1.7" fill="none" marker-end="url(#arrow)"/>
  <rect x="361.5" y="393" width="113" height="16" rx="4" fill="var(--bg)" opacity="0.9"/>
  <text x="418" y="405" text-anchor="middle" font-family="var(--font)" font-size="10" font-weight="600" fill="var(--edge-label)">Runtime Secrets</text>
</g>
<g class="diagra-edge-label">
  <path id="edge-10" class="diagra-edge" d="M 172 306 C 393.4 306, 442.6 380, 664 380" stroke="var(--edge-color)" stroke-width="1.7" fill="none" marker-end="url(#arrow)"/>
  <rect x="361.5" y="339" width="113" height="16" rx="4" fill="var(--bg)" opacity="0.9"/>
  <text x="418" y="351" text-anchor="middle" font-family="var(--font)" font-size="10" font-weight="600" fill="var(--edge-label)">Runtime Secrets</text>
</g>
<g class="diagra-edge-label">
  <path id="edge-11" class="diagra-edge" d="M 1042 276 C 1135.6 276, 740.4 520, 834 520" stroke="var(--edge-color)" stroke-width="1" fill="none" marker-end="url(#arrow)" stroke-dasharray="6 5" opacity="0.4"/>
  <rect x="888.5" y="426" width="99" height="16" rx="4" fill="var(--bg)" opacity="0.9"/>
  <text x="938" y="438" text-anchor="middle" font-family="var(--font)" font-size="10" font-weight="600" fill="var(--edge-label)">Queue Metrics</text>
</g>
<g class="diagra-edge-label">
  <path id="edge-12" class="diagra-edge" d="M 730 276 C 778 276, 786 520, 834 520" stroke="var(--edge-color)" stroke-width="1" fill="none" marker-end="url(#arrow)" stroke-dasharray="6 5" opacity="0.4"/>
  <rect x="722" y="458" width="120" height="16" rx="4" fill="var(--bg)" opacity="0.9"/>
  <text x="782" y="470" text-anchor="middle" font-family="var(--font)" font-size="10" font-weight="600" fill="var(--edge-label)">Function Metrics</text>
</g>
<g class="diagra-edge-label">
  <path id="edge-13" class="diagra-edge" d="M 730 424 C 778 424, 786 520, 834 520" stroke="var(--edge-color)" stroke-width="1" fill="none" marker-end="url(#arrow)" stroke-dasharray="6 5" opacity="0.4"/>
  <rect x="722" y="484" width="120" height="16" rx="4" fill="var(--bg)" opacity="0.9"/>
  <text x="782" y="496" text-anchor="middle" font-family="var(--font)" font-size="10" font-weight="600" fill="var(--edge-label)">Function Metrics</text>
</g>
<circle r="4" fill="var(--accent)" opacity="0.9">
  <animateMotion dur="1.5s" begin="0s" repeatCount="indefinite">
    <mpath href="#edge-1"/>
  </animateMotion>
</circle>
<circle r="4" fill="var(--accent)" opacity="0.9">
  <animateMotion dur="1.5s" begin="0.2s" repeatCount="indefinite">
    <mpath href="#edge-2"/>
  </animateMotion>
</circle>
<circle r="4" fill="var(--accent)" opacity="0.9">
  <animateMotion dur="1.5s" begin="0.4s" repeatCount="indefinite">
    <mpath href="#edge-3"/>
  </animateMotion>
</circle>
<circle r="4" fill="var(--accent)" opacity="0.9">
  <animateMotion dur="1.5s" begin="0.6000000000000001s" repeatCount="indefinite">
    <mpath href="#edge-4"/>
  </animateMotion>
</circle>
<circle r="4" fill="var(--accent)" opacity="0.9">
  <animateMotion dur="1.5s" begin="0.8s" repeatCount="indefinite">
    <mpath href="#edge-5"/>
  </animateMotion>
</circle>
<circle r="4" fill="var(--accent)" opacity="0.9">
  <animateMotion dur="1.5s" begin="1s" repeatCount="indefinite">
    <mpath href="#edge-6"/>
  </animateMotion>
</circle>
<circle r="4" fill="var(--accent)" opacity="0.9">
  <animateMotion dur="1.5s" begin="1.2000000000000002s" repeatCount="indefinite">
    <mpath href="#edge-7"/>
  </animateMotion>
</circle>
<circle r="4" fill="var(--accent)" opacity="0.9">
  <animateMotion dur="1.5s" begin="1.4000000000000001s" repeatCount="indefinite">
    <mpath href="#edge-8"/>
  </animateMotion>
</circle>
<circle r="4" fill="var(--accent)" opacity="0.9">
  <animateMotion dur="1.5s" begin="1.6s" repeatCount="indefinite">
    <mpath href="#edge-9"/>
  </animateMotion>
</circle>
<circle r="4" fill="var(--accent)" opacity="0.9">
  <animateMotion dur="1.5s" begin="1.8s" repeatCount="indefinite">
    <mpath href="#edge-10"/>
  </animateMotion>
</circle>
<circle r="4" fill="var(--accent)" opacity="0.9">
  <animateMotion dur="1.5s" begin="2s" repeatCount="indefinite">
    <mpath href="#edge-11"/>
  </animateMotion>
</circle>
<circle r="4" fill="var(--accent)" opacity="0.9">
  <animateMotion dur="1.5s" begin="2.2s" repeatCount="indefinite">
    <mpath href="#edge-12"/>
  </animateMotion>
</circle>
<circle r="4" fill="var(--accent)" opacity="0.9">
  <animateMotion dur="1.5s" begin="2.4000000000000004s" repeatCount="indefinite">
    <mpath href="#edge-13"/>
  </animateMotion>
</circle>
<g id="node-Clients" class="diagra-node" data-icon="generic-browser">
  <rect x="40" y="114" width="132" height="88" rx="8" fill="var(--node-bg)" stroke="var(--node-border)"/>
  <svg x="90" y="126" width="32" height="32" viewBox="0 0 32 32" role="img" aria-label="browser"><rect x="4" y="6" width="24" height="20" rx="3" fill="#64748B"/><path d="M4 12h24" stroke="#fff" stroke-width="2"/><circle cx="9" cy="9" r="1" fill="#fff"/><circle cx="13" cy="9" r="1" fill="#fff"/></svg>

  <text x="106" y="182" text-anchor="middle" font-family="var(--font)" font-size="12" font-weight="600" fill="var(--node-text)">Client Applications</text>
</g>
<g id="node-APIM" class="diagra-node" data-icon="azure-apim">
  <rect x="352" y="188" width="132" height="88" rx="8" fill="var(--node-bg)" stroke="var(--node-border)"/>
  <svg x="402" y="200" width="32" height="32" viewBox="0 0 32 32" role="img" aria-label="Azure API Management">
  <rect x="4" y="4" width="24" height="24" rx="5" fill="#0078D4"/>
  <path d="M7.5 11h17v10h-17z" fill="#479ee0" opacity="0.9"/><path d="M11 16h10" stroke="#FFFFFF" stroke-width="1.8" stroke-linecap="round"/>
  <text x="16" y="20.4" text-anchor="middle" font-family="Arial, Helvetica, sans-serif" font-size="7" font-weight="700" fill="#FFFFFF">API</text>
</svg>
  <text x="418" y="256" text-anchor="middle" font-family="var(--font)" font-size="12" font-weight="600" fill="var(--node-text)">API Management</text>
</g>
<g id="node-OrdersFn" class="diagra-node" data-icon="azure-functions">
  <rect x="664" y="188" width="132" height="88" rx="8" fill="var(--node-bg)" stroke="var(--node-border)"/>
  <svg x="714" y="200" width="32" height="32" viewBox="0 0 32 32" role="img" aria-label="Azure Functions">
  <rect x="4" y="4" width="24" height="24" rx="5" fill="#0078D4"/>
  <rect x="8" y="8" width="16" height="16" rx="3" fill="#479ee0" opacity="0.95"/><path d="M11 6v4M16 6v4M21 6v4M11 22v4M16 22v4M21 22v4" stroke="#FFFFFF" stroke-width="1.1"/>
  <text x="16" y="20.4" text-anchor="middle" font-family="Arial, Helvetica, sans-serif" font-size="9" font-weight="700" fill="#FFFFFF">FN</text>
</svg>
  <text x="730" y="256" text-anchor="middle" font-family="var(--font)" font-size="12" font-weight="600" fill="var(--node-text)">Orders Function</text>
</g>
<g id="node-PaymentsFn" class="diagra-node" data-icon="azure-functions">
  <rect x="664" y="336" width="132" height="88" rx="8" fill="var(--node-bg)" stroke="var(--node-border)"/>
  <svg x="714" y="348" width="32" height="32" viewBox="0 0 32 32" role="img" aria-label="Azure Functions">
  <rect x="4" y="4" width="24" height="24" rx="5" fill="#0078D4"/>
  <rect x="8" y="8" width="16" height="16" rx="3" fill="#479ee0" opacity="0.95"/><path d="M11 6v4M16 6v4M21 6v4M11 22v4M16 22v4M21 22v4" stroke="#FFFFFF" stroke-width="1.1"/>
  <text x="16" y="20.4" text-anchor="middle" font-family="Arial, Helvetica, sans-serif" font-size="9" font-weight="700" fill="#FFFFFF">FN</text>
</svg>
  <text x="730" y="404" text-anchor="middle" font-family="var(--font)" font-size="12" font-weight="600" fill="var(--node-text)">Payments Function</text>
</g>
<g id="node-InventoryFn" class="diagra-node" data-icon="azure-functions">
  <rect x="664" y="40" width="132" height="88" rx="8" fill="var(--node-bg)" stroke="var(--node-border)"/>
  <svg x="714" y="52" width="32" height="32" viewBox="0 0 32 32" role="img" aria-label="Azure Functions">
  <rect x="4" y="4" width="24" height="24" rx="5" fill="#0078D4"/>
  <rect x="8" y="8" width="16" height="16" rx="3" fill="#479ee0" opacity="0.95"/><path d="M11 6v4M16 6v4M21 6v4M11 22v4M16 22v4M21 22v4" stroke="#FFFFFF" stroke-width="1.1"/>
  <text x="16" y="20.4" text-anchor="middle" font-family="Arial, Helvetica, sans-serif" font-size="9" font-weight="700" fill="#FFFFFF">FN</text>
</svg>
  <text x="730" y="108" text-anchor="middle" font-family="var(--font)" font-size="12" font-weight="600" fill="var(--node-text)">Inventory Function</text>
</g>
<g id="node-ServiceBus" class="diagra-node" data-icon="azure-servicebus">
  <rect x="976" y="188" width="132" height="88" rx="8" fill="var(--node-bg)" stroke="var(--node-border)"/>
  <svg x="1026" y="200" width="32" height="32" viewBox="0 0 32 32" role="img" aria-label="Azure Service Bus">
  <rect x="4" y="4" width="24" height="24" rx="5" fill="#0078D4"/>
  <rect x="8" y="8" width="16" height="4.5" rx="2" fill="#479ee0"/><rect x="8" y="14" width="16" height="4.5" rx="2" fill="#479ee0"/><rect x="8" y="20" width="16" height="4.5" rx="2" fill="#479ee0"/>
  <text x="16" y="20.4" text-anchor="middle" font-family="Arial, Helvetica, sans-serif" font-size="9" font-weight="700" fill="#FFFFFF">SB</text>
</svg>
  <text x="1042" y="256" text-anchor="middle" font-family="var(--font)" font-size="12" font-weight="600" fill="var(--node-text)">Service Bus Topic</text>
</g>
<g id="node-OrdersDB" class="diagra-node" data-icon="azure-cosmosdb">
  <rect x="976" y="40" width="132" height="88" rx="8" fill="var(--node-bg)" stroke="var(--node-border)"/>
  <svg x="1026" y="52" width="32" height="32" viewBox="0 0 32 32" role="img" aria-label="Azure Cosmos DB">
  <rect x="4" y="4" width="24" height="24" rx="5" fill="#0078D4"/>
  <ellipse cx="16" cy="9" rx="8.5" ry="3.4" fill="#479ee0"/><path d="M7.5 9v12c0 1.9 3.8 3.4 8.5 3.4s8.5-1.5 8.5-3.4V9" fill="#479ee0"/><path d="M7.5 15c0 1.9 3.8 3.4 8.5 3.4s8.5-1.5 8.5-3.4" stroke="#FFFFFF" stroke-width="1.2" fill="none"/>
  <text x="16" y="20.4" text-anchor="middle" font-family="Arial, Helvetica, sans-serif" font-size="7" font-weight="700" fill="#FFFFFF">CDB</text>
</svg>
  <text x="1042" y="108" text-anchor="middle" font-family="var(--font)" font-size="12" font-weight="600" fill="var(--node-text)">Orders Cosmos DB</text>
</g>
<g id="node-PaymentsDB" class="diagra-node" data-icon="azure-cosmosdb">
  <rect x="976" y="336" width="132" height="88" rx="8" fill="var(--node-bg)" stroke="var(--node-border)"/>
  <svg x="1026" y="348" width="32" height="32" viewBox="0 0 32 32" role="img" aria-label="Azure Cosmos DB">
  <rect x="4" y="4" width="24" height="24" rx="5" fill="#0078D4"/>
  <ellipse cx="16" cy="9" rx="8.5" ry="3.4" fill="#479ee0"/><path d="M7.5 9v12c0 1.9 3.8 3.4 8.5 3.4s8.5-1.5 8.5-3.4V9" fill="#479ee0"/><path d="M7.5 15c0 1.9 3.8 3.4 8.5 3.4s8.5-1.5 8.5-3.4" stroke="#FFFFFF" stroke-width="1.2" fill="none"/>
  <text x="16" y="20.4" text-anchor="middle" font-family="Arial, Helvetica, sans-serif" font-size="7" font-weight="700" fill="#FFFFFF">CDB</text>
</svg>
  <text x="1042" y="404" text-anchor="middle" font-family="var(--font)" font-size="12" font-weight="600" fill="var(--node-text)">Payments Cosmos DB</text>
</g>
<g id="node-KeyVault" class="diagra-node" data-icon="azure-keyvault">
  <rect x="40" y="262" width="132" height="88" rx="8" fill="var(--node-bg)" stroke="var(--node-border)"/>
  <svg x="90" y="274" width="32" height="32" viewBox="0 0 32 32" role="img" aria-label="Azure Key Vault">
  <rect x="4" y="4" width="24" height="24" rx="5" fill="#0078D4"/>
  <path d="M16 7 23 10v5.6c0 4-2.7 7-7 9.4-4.3-2.4-7-5.4-7-9.4V10l7-3Z" fill="#479ee0" opacity="0.95"/><path d="M13 16.5 15.2 19 20 13.5" stroke="#FFFFFF" stroke-width="1.7" fill="none" stroke-linecap="round" stroke-linejoin="round"/>
  <text x="16" y="20.4" text-anchor="middle" font-family="Arial, Helvetica, sans-serif" font-size="9" font-weight="700" fill="#FFFFFF">KV</text>
</svg>
  <text x="106" y="330" text-anchor="middle" font-family="var(--font)" font-size="12" font-weight="600" fill="var(--node-text)">Key Vault Secrets</text>
</g>
<g id="node-Monitor" class="diagra-node" data-icon="azure-monitor">
  <rect x="768" y="520" width="132" height="88" rx="8" fill="var(--node-bg)" stroke="var(--node-border)"/>
  <svg x="818" y="532" width="32" height="32" viewBox="0 0 32 32" role="img" aria-label="Azure Monitor">
  <rect x="4" y="4" width="24" height="24" rx="5" fill="#0078D4"/>
  <path d="M16 6.8 25.2 16 16 25.2 6.8 16 16 6.8Z" fill="#479ee0" opacity="0.95"/><path d="m13 11 6 5-6 5" stroke="#FFFFFF" stroke-width="1.8" fill="none" stroke-linecap="round" stroke-linejoin="round"/>
  <text x="16" y="20.4" text-anchor="middle" font-family="Arial, Helvetica, sans-serif" font-size="7" font-weight="700" fill="#FFFFFF">MON</text>
</svg>
  <text x="834" y="588" text-anchor="middle" font-family="var(--font)" font-size="12" font-weight="600" fill="var(--node-text)">Azure Monitor</text>
</g>
</svg>