<svg xmlns="http://www.w3.org/2000/svg" width="1400" height="960" viewBox="0 0 1400 960" role="img">
<style>
:root {
  --bg: #FFFFFF;
  --node-bg: #F8F9FA;
  --node-border: #E2E8F0;
  --node-text: #1A202C;
  --edge-color: #94A3B8;
  --edge-label: #64748B;
  --accent: #6366F1;
  --font: 'Inter', sans-serif;
}
.diagra-node { filter: drop-shadow(0 10px 18px rgba(15, 23, 42, 0.10)); }
.diagra-edge { stroke-linecap: round; }
</style>
<defs>
  <marker id="arrow" markerWidth="10" markerHeight="10" refX="8" refY="3" orient="auto" markerUnits="strokeWidth">
    <path d="M0,0 L0,6 L9,3 z" fill="var(--edge-color)"/>
  </marker>
</defs>
<rect width="100%" height="100%" fill="var(--bg)"/>

<g transform="translate(0, 0)">
<g class="diagra-edge-label">
  <path id="edge-1" class="diagra-edge" d="M 215 158 C 296 158, 314 232, 395 232" stroke="var(--edge-color)" stroke-width="1.7" fill="none" marker-end="url(#arrow)"/>
  <rect x="269.5" y="173" width="52" height="16" rx="2" fill="var(--bg)" opacity="0.85"/>
  <text x="295.5" y="183" text-anchor="middle" font-family="var(--font)" font-size="10" font-weight="600" fill="var(--edge-label)">HTTPS</text>
</g>
<g class="diagra-edge-label">
  <path id="edge-2" class="diagra-edge" d="M 532 232 L 750 232" stroke="var(--edge-color)" stroke-width="1.7" fill="none" marker-end="url(#arrow)"/>
  <rect x="600" y="210" width="86" height="16" rx="2" fill="var(--bg)" opacity="0.85"/>
  <text x="643" y="220" text-anchor="middle" font-family="var(--font)" font-size="10" font-weight="600" fill="var(--edge-label)">Orders API</text>
</g>
<g class="diagra-edge-label">
  <path id="edge-3" class="diagra-edge" d="M 532 232 C 630.1 232, 651.9 380, 750 380" stroke="var(--edge-color)" stroke-width="1.7" fill="none" marker-end="url(#arrow)"/>
  <rect x="596.75" y="284" width="100" height="16" rx="2" fill="var(--bg)" opacity="0.85"/>
  <text x="646.75" y="294" text-anchor="middle" font-family="var(--font)" font-size="10" font-weight="600" fill="var(--edge-label)">Payments API</text>
</g>
<g class="diagra-edge-label">
  <path id="edge-4" class="diagra-edge" d="M 532 232 C 630.1 232, 651.9 84, 750 84" stroke="var(--edge-color)" stroke-width="1.7" fill="none" marker-end="url(#arrow)"/>
  <rect x="595" y="136" width="107" height="16" rx="2" fill="var(--bg)" opacity="0.85"/>
  <text x="648.5" y="146" text-anchor="middle" font-family="var(--font)" font-size="10" font-weight="600" fill="var(--edge-label)">Inventory API</text>
</g>
<g class="diagra-edge-label">
  <path id="edge-5" class="diagra-edge" d="M 895 232 C 989.5 232, 1010.5 84, 1105 84" stroke="var(--edge-color)" stroke-width="1.7" fill="none" marker-end="url(#arrow)"/>
  <rect x="944.75" y="232" width="114" height="16" rx="2" fill="var(--bg)" opacity="0.85"/>
  <text x="1001.75" y="242" text-anchor="middle" font-family="var(--font)" font-size="10" font-weight="600" fill="var(--edge-label)">Persist Orders</text>
</g>
<g class="diagra-edge-label">
  <path id="edge-6" class="diagra-edge" d="M 910 380 L 1105 380" stroke="var(--edge-color)" stroke-width="1.7" fill="none" marker-end="url(#arrow)"/>
  <rect x="945.25" y="358" width="128" height="16" rx="2" fill="var(--bg)" opacity="0.85"/>
  <text x="1009.25" y="368" text-anchor="middle" font-family="var(--font)" font-size="10" font-weight="600" fill="var(--edge-label)">Persist Payments</text>
</g>
<g class="diagra-edge-label">
  <path id="edge-7" class="diagra-edge" d="M 895 232 L 1105 232" stroke="var(--edge-color)" stroke-width="1.7" fill="none" marker-end="url(#arrow)"/>
  <rect x="946.75" y="258" width="114" height="16" rx="2" fill="var(--bg)" opacity="0.85"/>
  <text x="1003.75" y="268" text-anchor="middle" font-family="var(--font)" font-size="10" font-weight="600" fill="var(--edge-label)">Publish Events</text>
</g>
<g class="diagra-edge-label">
  <path id="edge-8" class="diagra-edge" d="M 910 380 C 997.75 380, 1017.25 232, 1105 232" stroke="var(--edge-color)" stroke-width="1.7" fill="none" marker-end="url(#arrow)"/>
  <rect x="950.5" y="316" width="114" height="16" rx="2" fill="var(--bg)" opacity="0.85"/>
  <text x="1007.5" y="326" text-anchor="middle" font-family="var(--font)" font-size="10" font-weight="600" fill="var(--edge-label)">Publish Events</text>
</g>
<g class="diagra-edge-label">
  <path id="edge-9" class="diagra-edge" d="M 200 306 C 447.5 306, 502.5 232, 750 232" stroke="var(--edge-color)" stroke-width="1.7" fill="none" marker-end="url(#arrow)"/>
  <rect x="410.75" y="391" width="121" height="16" rx="2" fill="var(--bg)" opacity="0.85"/>
  <text x="471.25" y="401" text-anchor="middle" font-family="var(--font)" font-size="10" font-weight="600" fill="var(--edge-label)">Runtime Secrets</text>
</g>
<g class="diagra-edge-label">
  <path id="edge-10" class="diagra-edge" d="M 200 306 C 447.5 306, 502.5 380, 750 380" stroke="var(--edge-color)" stroke-width="1.7" fill="none" marker-end="url(#arrow)"/>
  <rect x="414.5" y="337" width="121" height="16" rx="2" fill="var(--bg)" opacity="0.85"/>
  <text x="475" y="347" text-anchor="middle" font-family="var(--font)" font-size="10" font-weight="600" fill="var(--edge-label)">Runtime Secrets</text>
</g>
<g class="diagra-edge-label">
  <path id="edge-11" class="diagra-edge" d="M 1185 276 C 1298.25 276, 820.0833333333334 520, 933.3333333333334 520" stroke="var(--edge-color)" stroke-width="1" fill="none" marker-end="url(#arrow)" stroke-dasharray="6 5" opacity="0.4"/>
  <rect x="1005.6666666666667" y="440" width="107" height="16" rx="2" fill="var(--bg)" opacity="0.85"/>
  <text x="1059.1666666666667" y="450" text-anchor="middle" font-family="var(--font)" font-size="10" font-weight="600" fill="var(--edge-label)">Queue Metrics</text>
</g>
<g class="diagra-edge-label">
  <path id="edge-12" class="diagra-edge" d="M 822.5 276 C 872.375 276, 883.4583333333334 520, 933.3333333333334 520" stroke="var(--edge-color)" stroke-width="1" fill="none" marker-end="url(#arrow)" stroke-dasharray="6 5" opacity="0.4"/>
  <rect x="813.9166666666667" y="472" width="128" height="16" rx="2" fill="var(--bg)" opacity="0.85"/>
  <text x="877.9166666666667" y="482" text-anchor="middle" font-family="var(--font)" font-size="10" font-weight="600" fill="var(--edge-label)">Function Metrics</text>
</g>
<g class="diagra-edge-label">
  <path id="edge-13" class="diagra-edge" d="M 830 424 C 878 424, 885.3333333333334 520, 933.3333333333334 520" stroke="var(--edge-color)" stroke-width="1" fill="none" marker-end="url(#arrow)" stroke-dasharray="6 5" opacity="0.4"/>
  <rect x="817.6666666666667" y="498" width="128" height="16" rx="2" fill="var(--bg)" opacity="0.85"/>
  <text x="881.6666666666667" y="508" text-anchor="middle" font-family="var(--font)" font-size="10" font-weight="600" fill="var(--edge-label)">Function Metrics</text>
</g>
<circle r="4" fill="var(--accent)" opacity="0.9">
  <animateMotion dur="1.5s" begin="0s" repeatCount="indefinite">
    <mpath href="#edge-1"/>
  </animateMotion>
</circle>
<circle r="4" fill="var(--accent)" opacity="0.9">
  <animateMotion dur="1.5s" begin="0.2s" repeatCount="indefinite">
    <mpath href="#edge-2"/>
  </animateMotion>
</circle>
<circle r="4" fill="var(--accent)" opacity="0.9">
  <animateMotion dur="1.5s" begin="0.4s" repeatCount="indefinite">
    <mpath href="#edge-3"/>
  </animateMotion>
</circle>
<circle r="4" fill="var(--accent)" opacity="0.9">
  <animateMotion dur="1.5s" begin="0.6000000000000001s" repeatCount="indefinite">
    <mpath href="#edge-4"/>
  </animateMotion>
</circle>
<circle r="4" fill="var(--accent)" opacity="0.9">
  <animateMotion dur="1.5s" begin="0.8s" repeatCount="indefinite">
    <mpath href="#edge-5"/>
  </animateMotion>
</circle>
<circle r="4" fill="var(--accent)" opacity="0.9">
  <animateMotion dur="1.5s" begin="1s" repeatCount="indefinite">
    <mpath href="#edge-6"/>
  </animateMotion>
</circle>
<circle r="4" fill="var(--accent)" opacity="0.9">
  <animateMotion dur="1.5s" begin="1.2000000000000002s" repeatCount="indefinite">
    <mpath href="#edge-7"/>
  </animateMotion>
</circle>
<circle r="4" fill="var(--accent)" opacity="0.9">
  <animateMotion dur="1.5s" begin="1.4000000000000001s" repeatCount="indefinite">
    <mpath href="#edge-8"/>
  </animateMotion>
</circle>
<circle r="4" fill="var(--accent)" opacity="0.9">
  <animateMotion dur="1.5s" begin="1.6s" repeatCount="indefinite">
    <mpath href="#edge-9"/>
  </animateMotion>
</circle>
<circle r="4" fill="var(--accent)" opacity="0.9">
  <animateMotion dur="1.5s" begin="1.8s" repeatCount="indefinite">
    <mpath href="#edge-10"/>
  </animateMotion>
</circle>
<circle r="4" fill="var(--accent)" opacity="0.9">
  <animateMotion dur="1.5s" begin="2s" repeatCount="indefinite">
    <mpath href="#edge-11"/>
  </animateMotion>
</circle>
<circle r="4" fill="var(--accent)" opacity="0.9">
  <animateMotion dur="1.5s" begin="2.2s" repeatCount="indefinite">
    <mpath href="#edge-12"/>
  </animateMotion>
</circle>
<circle r="4" fill="var(--accent)" opacity="0.9">
  <animateMotion dur="1.5s" begin="2.4000000000000004s" repeatCount="indefinite">
    <mpath href="#edge-13"/>
  </animateMotion>
</circle>
<g id="node-Clients" class="diagra-node" data-icon="generic-browser">
  <rect x="40" y="114" width="175" height="88" rx="8" fill="var(--node-bg)" stroke="var(--node-border)"/>
  <svg x="111.5" y="126" width="32" height="32" viewBox="0 0 32 32" role="img" aria-label="browser"><rect x="4" y="6" width="24" height="20" rx="3" fill="#64748B"/><path d="M4 12h24" stroke="#fff" stroke-width="2"/><circle cx="9" cy="9" r="1" fill="#fff"/><circle cx="13" cy="9" r="1" fill="#fff"/></svg>

  <text x="127.5" y="182" text-anchor="middle" font-family="var(--font)" font-size="12" font-weight="600" fill="var(--node-text)">Client Applications</text>
</g>
<g id="node-APIM" class="diagra-node" data-icon="azure-apim">
  <rect x="395" y="188" width="137" height="88" rx="8" fill="var(--node-bg)" stroke="var(--node-border)"/>
  <svg x="447.5" y="200" width="32" height="32" viewBox="0 0 32 32" role="img" aria-label="Azure API Management">
  <rect x="4" y="4" width="24" height="24" rx="5" fill="#0078D4"/>
  <path d="M7.5 11h17v10h-17z" fill="#479ee0" opacity="0.9"/><path d="M11 16h10" stroke="#FFFFFF" stroke-width="1.8" stroke-linecap="round"/>
  <text x="16" y="20.4" text-anchor="middle" font-family="Arial, Helvetica, sans-serif" font-size="7" font-weight="700" fill="#FFFFFF">API</text>
</svg>
  <text x="463.5" y="256" text-anchor="middle" font-family="var(--font)" font-size="12" font-weight="600" fill="var(--node-text)">API Management</text>
</g>
<g id="node-OrdersFn" class="diagra-node" data-icon="azure-functions">
  <rect x="750" y="188" width="145" height="88" rx="8" fill="var(--node-bg)" stroke="var(--node-border)"/>
  <svg x="806.5" y="200" width="32" height="32" viewBox="0 0 32 32" role="img" aria-label="Azure Functions">
  <rect x="4" y="4" width="24" height="24" rx="5" fill="#0078D4"/>
  <rect x="8" y="8" width="16" height="16" rx="3" fill="#479ee0" opacity="0.95"/><path d="M11 6v4M16 6v4M21 6v4M11 22v4M16 22v4M21 22v4" stroke="#FFFFFF" stroke-width="1.1"/>
  <text x="16" y="20.4" text-anchor="middle" font-family="Arial, Helvetica, sans-serif" font-size="9" font-weight="700" fill="#FFFFFF">FN</text>
</svg>
  <text x="822.5" y="256" text-anchor="middle" font-family="var(--font)" font-size="12" font-weight="600" fill="var(--node-text)">Orders Function</text>
</g>
<g id="node-PaymentsFn" class="diagra-node" data-icon="azure-functions">
  <rect x="750" y="336" width="160" height="88" rx="8" fill="var(--node-bg)" stroke="var(--node-border)"/>
  <svg x="814" y="348" width="32" height="32" viewBox="0 0 32 32" role="img" aria-label="Azure Functions">
  <rect x="4" y="4" width="24" height="24" rx="5" fill="#0078D4"/>
  <rect x="8" y="8" width="16" height="16" rx="3" fill="#479ee0" opacity="0.95"/><path d="M11 6v4M16 6v4M21 6v4M11 22v4M16 22v4M21 22v4" stroke="#FFFFFF" stroke-width="1.1"/>
  <text x="16" y="20.4" text-anchor="middle" font-family="Arial, Helvetica, sans-serif" font-size="9" font-weight="700" fill="#FFFFFF">FN</text>
</svg>
  <text x="830" y="404" text-anchor="middle" font-family="var(--font)" font-size="12" font-weight="600" fill="var(--node-text)">Payments Function</text>
</g>
<g id="node-InventoryFn" class="diagra-node" data-icon="azure-functions">
  <rect x="750" y="40" width="167" height="88" rx="8" fill="var(--node-bg)" stroke="var(--node-border)"/>
  <svg x="817.5" y="52" width="32" height="32" viewBox="0 0 32 32" role="img" aria-label="Azure Functions">
  <rect x="4" y="4" width="24" height="24" rx="5" fill="#0078D4"/>
  <rect x="8" y="8" width="16" height="16" rx="3" fill="#479ee0" opacity="0.95"/><path d="M11 6v4M16 6v4M21 6v4M11 22v4M16 22v4M21 22v4" stroke="#FFFFFF" stroke-width="1.1"/>
  <text x="16" y="20.4" text-anchor="middle" font-family="Arial, Helvetica, sans-serif" font-size="9" font-weight="700" fill="#FFFFFF">FN</text>
</svg>
  <text x="833.5" y="108" text-anchor="middle" font-family="var(--font)" font-size="12" font-weight="600" fill="var(--node-text)">Inventory Function</text>
</g>
<g id="node-ServiceBus" class="diagra-node" data-icon="azure-servicebus">
  <rect x="1105" y="188" width="160" height="88" rx="8" fill="var(--node-bg)" stroke="var(--node-border)"/>
  <svg x="1169" y="200" width="32" height="32" viewBox="0 0 32 32" role="img" aria-label="Azure Service Bus">
  <rect x="4" y="4" width="24" height="24" rx="5" fill="#0078D4"/>
  <rect x="8" y="8" width="16" height="4.5" rx="2" fill="#479ee0"/><rect x="8" y="14" width="16" height="4.5" rx="2" fill="#479ee0"/><rect x="8" y="20" width="16" height="4.5" rx="2" fill="#479ee0"/>
  <text x="16" y="20.4" text-anchor="middle" font-family="Arial, Helvetica, sans-serif" font-size="9" font-weight="700" fill="#FFFFFF">SB</text>
</svg>
  <text x="1185" y="256" text-anchor="middle" font-family="var(--font)" font-size="12" font-weight="600" fill="var(--node-text)">Service Bus Topic</text>
</g>
<g id="node-OrdersDB" class="diagra-node" data-icon="azure-cosmosdb">
  <rect x="1105" y="40" width="152" height="88" rx="8" fill="var(--node-bg)" stroke="var(--node-border)"/>
  <svg x="1165" y="52" width="32" height="32" viewBox="0 0 32 32" role="img" aria-label="Azure Cosmos DB">
  <rect x="4" y="4" width="24" height="24" rx="5" fill="#0078D4"/>
  <ellipse cx="16" cy="9" rx="8.5" ry="3.4" fill="#479ee0"/><path d="M7.5 9v12c0 1.9 3.8 3.4 8.5 3.4s8.5-1.5 8.5-3.4V9" fill="#479ee0"/><path d="M7.5 15c0 1.9 3.8 3.4 8.5 3.4s8.5-1.5 8.5-3.4" stroke="#FFFFFF" stroke-width="1.2" fill="none"/>
  <text x="16" y="20.4" text-anchor="middle" font-family="Arial, Helvetica, sans-serif" font-size="7" font-weight="700" fill="#FFFFFF">CDB</text>
</svg>
  <text x="1181" y="108" text-anchor="middle" font-family="var(--font)" font-size="12" font-weight="600" fill="var(--node-text)">Orders Cosmos DB</text>
</g>
<g id="node-PaymentsDB" class="diagra-node" data-icon="azure-cosmosdb">
  <rect x="1105" y="336" width="167" height="88" rx="8" fill="var(--node-bg)" stroke="var(--node-border)"/>
  <svg x="1172.5" y="348" width="32" height="32" viewBox="0 0 32 32" role="img" aria-label="Azure Cosmos DB">
  <rect x="4" y="4" width="24" height="24" rx="5" fill="#0078D4"/>
  <ellipse cx="16" cy="9" rx="8.5" ry="3.4" fill="#479ee0"/><path d="M7.5 9v12c0 1.9 3.8 3.4 8.5 3.4s8.5-1.5 8.5-3.4V9" fill="#479ee0"/><path d="M7.5 15c0 1.9 3.8 3.4 8.5 3.4s8.5-1.5 8.5-3.4" stroke="#FFFFFF" stroke-width="1.2" fill="none"/>
  <text x="16" y="20.4" text-anchor="middle" font-family="Arial, Helvetica, sans-serif" font-size="7" font-weight="700" fill="#FFFFFF">CDB</text>
</svg>
  <text x="1188.5" y="404" text-anchor="middle" font-family="var(--font)" font-size="12" font-weight="600" fill="var(--node-text)">Payments Cosmos DB</text>
</g>
<g id="node-KeyVault" class="diagra-node" data-icon="azure-keyvault">
  <rect x="40" y="262" width="160" height="88" rx="8" fill="var(--node-bg)" stroke="var(--node-border)"/>
  <svg x="104" y="274" width="32" height="32" viewBox="0 0 32 32" role="img" aria-label="Azure Key Vault">
  <rect x="4" y="4" width="24" height="24" rx="5" fill="#0078D4"/>
  <path d="M16 7 23 10v5.6c0 4-2.7 7-7 9.4-4.3-2.4-7-5.4-7-9.4V10l7-3Z" fill="#479ee0" opacity="0.95"/><path d="M13 16.5 15.2 19 20 13.5" stroke="#FFFFFF" stroke-width="1.7" fill="none" stroke-linecap="round" stroke-linejoin="round"/>
  <text x="16" y="20.4" text-anchor="middle" font-family="Arial, Helvetica, sans-serif" font-size="9" font-weight="700" fill="#FFFFFF">KV</text>
</svg>
  <text x="120" y="330" text-anchor="middle" font-family="var(--font)" font-size="12" font-weight="600" fill="var(--node-text)">Key Vault Secrets</text>
</g>
<g id="node-Monitor" class="diagra-node" data-icon="azure-monitor">
  <rect x="868.3333333333334" y="520" width="130" height="88" rx="8" fill="var(--node-bg)" stroke="var(--node-border)"/>
  <svg x="917.3333333333334" y="532" width="32" height="32" viewBox="0 0 32 32" role="img" aria-label="Azure Monitor">
  <rect x="4" y="4" width="24" height="24" rx="5" fill="#0078D4"/>
  <path d="M16 6.8 25.2 16 16 25.2 6.8 16 16 6.8Z" fill="#479ee0" opacity="0.95"/><path d="m13 11 6 5-6 5" stroke="#FFFFFF" stroke-width="1.8" fill="none" stroke-linecap="round" stroke-linejoin="round"/>
  <text x="16" y="20.4" text-anchor="middle" font-family="Arial, Helvetica, sans-serif" font-size="7" font-weight="700" fill="#FFFFFF">MON</text>
</svg>
  <text x="933.3333333333334" y="588" text-anchor="middle" font-family="var(--font)" font-size="12" font-weight="600" fill="var(--node-text)">Azure Monitor</text>
</g>
</g>
</svg>