<svg xmlns="http://www.w3.org/2000/svg" width="2160" height="640" viewBox="0 0 2160 640" role="img">
<style>
:root {
  --bg: #0F172A;
  --node-bg: #1E293B;
  --node-border: #334155;
  --node-text: #F1F5F9;
  --edge-color: #475569;
  --edge-label: #CBD5E1;
  --accent: #818CF8;
  --font: 'Inter', sans-serif;
}
.diagra-node { filter: drop-shadow(0 10px 18px rgba(15, 23, 42, 0.10)); }
.diagra-edge { stroke-linecap: round; }
</style>
<defs>
  <marker id="arrow" markerWidth="10" markerHeight="10" refX="8" refY="3" orient="auto" markerUnits="strokeWidth">
    <path d="M0,0 L0,6 L9,3 z" fill="var(--edge-color)"/>
  </marker>
</defs>
<rect width="100%" height="100%" fill="var(--bg)"/>

<g transform="translate(0, 0)">
<g class="diagra-edge-label">
  <path id="edge-1" class="diagra-edge" d="M 215 84 C 312.65 84, 334.35 167, 432 167" stroke="var(--edge-color)" stroke-width="1.7" fill="none" marker-end="url(#arrow)"/>
  <rect x="286.25" y="103.5" width="93" height="16" rx="2" fill="var(--bg)" opacity="0.85"/>
  <text x="332.75" y="113.5" text-anchor="middle" font-family="var(--font)" font-size="10" font-weight="600" fill="var(--edge-label)">Push Images</text>
</g>
<g class="diagra-edge-label">
  <path id="edge-2" class="diagra-edge" d="M 644 167 C 725 167, 743 158, 824 158" stroke="var(--edge-color)" stroke-width="1.7" fill="none" marker-end="url(#arrow)"/>
  <rect x="664.5" y="140.5" width="93" height="16" rx="2" fill="var(--bg)" opacity="0.85"/>
  <text x="711" y="150.5" text-anchor="middle" font-family="var(--font)" font-size="10" font-weight="600" fill="var(--edge-label)">Pull Images</text>
</g>
<g class="diagra-edge-label">
  <path id="edge-3" class="diagra-edge" d="M 944 158 L 1216 158" stroke="var(--edge-color)" stroke-width="1.7" fill="none" marker-end="url(#arrow)"/>
  <rect x="1065.75" y="168" width="52" height="16" rx="2" fill="var(--bg)" opacity="0.85"/>
  <text x="1091.75" y="178" text-anchor="middle" font-family="var(--font)" font-size="10" font-weight="600" fill="var(--edge-label)">Hosts</text>
</g>
<g class="diagra-edge-label">
  <path id="edge-4" class="diagra-edge" d="M 1383 158 C 1484.25 158, 1506.75 84, 1608 84" stroke="var(--edge-color)" stroke-width="1.7" fill="none" marker-end="url(#arrow)"/>
  <rect x="1447.5" y="195" width="100" height="16" rx="2" fill="var(--bg)" opacity="0.85"/>
  <text x="1497.5" y="205" text-anchor="middle" font-family="var(--font)" font-size="10" font-weight="600" fill="var(--edge-label)">Route Orders</text>
</g>
<g class="diagra-edge-label">
  <path id="edge-5" class="diagra-edge" d="M 1383 158 C 1484.25 158, 1506.75 241, 1608 241" stroke="var(--edge-color)" stroke-width="1.7" fill="none" marker-end="url(#arrow)"/>
  <rect x="1444.25" y="225.5" width="114" height="16" rx="2" fill="var(--bg)" opacity="0.85"/>
  <text x="1501.25" y="235.5" text-anchor="middle" font-family="var(--font)" font-size="10" font-weight="600" fill="var(--edge-label)">Route Payments</text>
</g>
<g class="diagra-edge-label">
  <path id="edge-6" class="diagra-edge" d="M 185 232 C 825.35 232, 967.65 84, 1608 84" stroke="var(--edge-color)" stroke-width="1.7" fill="none" marker-end="url(#arrow)"/>
  <rect x="850.5" y="248" width="107" height="16" rx="2" fill="var(--bg)" opacity="0.85"/>
  <text x="904" y="258" text-anchor="middle" font-family="var(--font)" font-size="10" font-weight="600" fill="var(--edge-label)">Proxy Traffic</text>
</g>
<g class="diagra-edge-label">
  <path id="edge-7" class="diagra-edge" d="M 185 232 C 825.35 232, 967.65 241, 1608 241" stroke="var(--edge-color)" stroke-width="1.7" fill="none" marker-end="url(#arrow)"/>
  <rect x="854.25" y="278.5" width="107" height="16" rx="2" fill="var(--bg)" opacity="0.85"/>
  <text x="907.75" y="288.5" text-anchor="middle" font-family="var(--font)" font-size="10" font-weight="600" fill="var(--edge-label)">Proxy Traffic</text>
</g>
<g class="diagra-edge-label">
  <path id="edge-8" class="diagra-edge" d="M 1783 84 L 2000 84" stroke="var(--edge-color)" stroke-width="1.7" fill="none" marker-end="url(#arrow)"/>
  <rect x="1831.25" y="62" width="93" height="16" rx="2" fill="var(--bg)" opacity="0.85"/>
  <text x="1877.75" y="72" text-anchor="middle" font-family="var(--font)" font-size="10" font-weight="600" fill="var(--edge-label)">Orders Data</text>
</g>
<g class="diagra-edge-label">
  <path id="edge-9" class="diagra-edge" d="M 1798 241 C 1888.9 241, 1909.1 232, 2000 232" stroke="var(--edge-color)" stroke-width="1.7" fill="none" marker-end="url(#arrow)"/>
  <rect x="1824.5" y="310.5" width="114" height="16" rx="2" fill="var(--bg)" opacity="0.85"/>
  <text x="1881.5" y="320.5" text-anchor="middle" font-family="var(--font)" font-size="10" font-weight="600" fill="var(--edge-label)">Publish Events</text>
</g>
<g class="diagra-edge-label">
  <path id="edge-10" class="diagra-edge" d="M 824 158 C 941.9 158, 444.1 416, 562 416" stroke="var(--edge-color)" stroke-width="1" fill="none" marker-end="url(#arrow)" stroke-dasharray="6 5" opacity="0.4"/>
  <rect x="630" y="345" width="121" height="16" rx="2" fill="var(--bg)" opacity="0.85"/>
  <text x="690.5" y="355" text-anchor="middle" font-family="var(--font)" font-size="10" font-weight="600" fill="var(--edge-label)">Cluster Metrics</text>
</g>
<g class="diagra-edge-label">
  <path id="edge-11" class="diagra-edge" d="M 185 232 C 296.15 232, 320.85 416, 432 416" stroke="var(--edge-color)" stroke-width="1" fill="none" marker-end="url(#arrow)" stroke-dasharray="6 5" opacity="0.4"/>
  <rect x="247.75" y="366" width="114" height="16" rx="2" fill="var(--bg)" opacity="0.85"/>
  <text x="304.75" y="376" text-anchor="middle" font-family="var(--font)" font-size="10" font-weight="600" fill="var(--edge-label)">Mesh Telemetry</text>
</g>

<g id="node-Developers" class="diagra-node" data-icon="generic-user">
  <rect x="40" y="40" width="175" height="88" rx="8" fill="var(--node-bg)" stroke="var(--node-border)"/>
  <svg x="111.5" y="52" width="32" height="32" viewBox="0 0 32 32" role="img" aria-label="user"><circle cx="16" cy="11" r="6" fill="#64748B"/><path d="M6 28c1.4-6 5-9 10-9s8.6 3 10 9" fill="#64748B"/></svg>

  <text x="127.5" y="108" text-anchor="middle" font-family="var(--font)" font-size="12" font-weight="600" fill="var(--node-text)">Platform Developers</text>
</g>
<g id="node-ACR" class="diagra-node" data-icon="generic-server">
  <rect x="432" y="114" width="212" height="106" rx="8" fill="var(--node-bg)" stroke="var(--node-border)"/>
  <svg x="522" y="126" width="32" height="32" viewBox="0 0 32 32" role="img" aria-label="server"><rect x="5" y="6" width="22" height="20" rx="3" fill="#64748B"/><path d="M9 12h14M9 18h14" stroke="#fff" stroke-width="2"/><circle cx="11" cy="23" r="1.5" fill="#fff"/></svg>

  <text text-anchor="middle" font-family="var(--font)" font-size="12" font-weight="600" fill="var(--node-text)">
  <tspan x="538" y="176">Azure Container</tspan>
  <tspan x="538" dy="18">Registry</tspan>
</text>
</g>
<g id="node-AKS" class="diagra-node" data-icon="azure-aks">
  <rect x="824" y="114" width="120" height="88" rx="8" fill="var(--node-bg)" stroke="var(--node-border)"/>
  <svg x="868" y="126" width="32" height="32" viewBox="0 0 32 32" role="img" aria-label="Azure Kubernetes Service">
  <rect x="4" y="4" width="24" height="24" rx="5" fill="#0078D4"/>
  <path d="M8 10h16v12H8z" fill="#479ee0" opacity="0.95"/><path d="M11 13h3M16 13h3M21 13h2M11 17h3M16 17h3M21 17h2" stroke="#FFFFFF" stroke-width="1.2" stroke-linecap="round"/>
  <text x="16" y="20.4" text-anchor="middle" font-family="Arial, Helvetica, sans-serif" font-size="7" font-weight="700" fill="#FFFFFF">AKS</text>
</svg>
  <text x="884" y="182" text-anchor="middle" font-family="var(--font)" font-size="12" font-weight="600" fill="var(--node-text)">AKS Cluster</text>
</g>
<g id="node-Ingress" class="diagra-node" data-icon="generic-api">
  <rect x="1216" y="114" width="167" height="88" rx="8" fill="var(--node-bg)" stroke="var(--node-border)"/>
  <svg x="1283.5" y="126" width="32" height="32" viewBox="0 0 32 32" role="img" aria-label="api"><rect x="4" y="7" width="24" height="18" rx="4" fill="#64748B"/><text x="16" y="20" text-anchor="middle" font-family="Arial" font-size="9" font-weight="700" fill="#fff">API</text></svg>

  <text x="1299.5" y="182" text-anchor="middle" font-family="var(--font)" font-size="12" font-weight="600" fill="var(--node-text)">Ingress Controller</text>
</g>
<g id="node-Orders" class="diagra-node" data-icon="generic-server">
  <rect x="1608" y="40" width="175" height="88" rx="8" fill="var(--node-bg)" stroke="var(--node-border)"/>
  <svg x="1679.5" y="52" width="32" height="32" viewBox="0 0 32 32" role="img" aria-label="server"><rect x="5" y="6" width="22" height="20" rx="3" fill="#64748B"/><path d="M9 12h14M9 18h14" stroke="#fff" stroke-width="2"/><circle cx="11" cy="23" r="1.5" fill="#fff"/></svg>

  <text x="1695.5" y="108" text-anchor="middle" font-family="var(--font)" font-size="12" font-weight="600" fill="var(--node-text)">Orders Microservice</text>
</g>
<g id="node-Payments" class="diagra-node" data-icon="generic-server">
  <rect x="1608" y="188" width="190" height="106" rx="8" fill="var(--node-bg)" stroke="var(--node-border)"/>
  <svg x="1687" y="200" width="32" height="32" viewBox="0 0 32 32" role="img" aria-label="server"><rect x="5" y="6" width="22" height="20" rx="3" fill="#64748B"/><path d="M9 12h14M9 18h14" stroke="#fff" stroke-width="2"/><circle cx="11" cy="23" r="1.5" fill="#fff"/></svg>

  <text text-anchor="middle" font-family="var(--font)" font-size="12" font-weight="600" fill="var(--node-text)">
  <tspan x="1703" y="250">Payments</tspan>
  <tspan x="1703" dy="18">Microservice</tspan>
</text>
</g>
<g id="node-Sidecar" class="diagra-node" data-icon="generic-server">
  <rect x="40" y="188" width="145" height="88" rx="8" fill="var(--node-bg)" stroke="var(--node-border)"/>
  <svg x="96.5" y="200" width="32" height="32" viewBox="0 0 32 32" role="img" aria-label="server"><rect x="5" y="6" width="22" height="20" rx="3" fill="#64748B"/><path d="M9 12h14M9 18h14" stroke="#fff" stroke-width="2"/><circle cx="11" cy="23" r="1.5" fill="#fff"/></svg>

  <text x="112.5" y="256" text-anchor="middle" font-family="var(--font)" font-size="12" font-weight="600" fill="var(--node-text)">Sidecar Proxies</text>
</g>
<g id="node-Cosmos" class="diagra-node" data-icon="azure-cosmosdb">
  <rect x="2000" y="40" width="120" height="88" rx="8" fill="var(--node-bg)" stroke="var(--node-border)"/>
  <svg x="2044" y="52" width="32" height="32" viewBox="0 0 32 32" role="img" aria-label="Azure Cosmos DB">
  <rect x="4" y="4" width="24" height="24" rx="5" fill="#0078D4"/>
  <ellipse cx="16" cy="9" rx="8.5" ry="3.4" fill="#479ee0"/><path d="M7.5 9v12c0 1.9 3.8 3.4 8.5 3.4s8.5-1.5 8.5-3.4V9" fill="#479ee0"/><path d="M7.5 15c0 1.9 3.8 3.4 8.5 3.4s8.5-1.5 8.5-3.4" stroke="#FFFFFF" stroke-width="1.2" fill="none"/>
  <text x="16" y="20.4" text-anchor="middle" font-family="Arial, Helvetica, sans-serif" font-size="7" font-weight="700" fill="#FFFFFF">CDB</text>
</svg>
  <text x="2060" y="108" text-anchor="middle" font-family="var(--font)" font-size="12" font-weight="600" fill="var(--node-text)">Cosmos DB</text>
</g>
<g id="node-ServiceBus" class="diagra-node" data-icon="azure-servicebus">
  <rect x="2000" y="188" width="120" height="88" rx="8" fill="var(--node-bg)" stroke="var(--node-border)"/>
  <svg x="2044" y="200" width="32" height="32" viewBox="0 0 32 32" role="img" aria-label="Azure Service Bus">
  <rect x="4" y="4" width="24" height="24" rx="5" fill="#0078D4"/>
  <rect x="8" y="8" width="16" height="4.5" rx="2" fill="#479ee0"/><rect x="8" y="14" width="16" height="4.5" rx="2" fill="#479ee0"/><rect x="8" y="20" width="16" height="4.5" rx="2" fill="#479ee0"/>
  <text x="16" y="20.4" text-anchor="middle" font-family="Arial, Helvetica, sans-serif" font-size="9" font-weight="700" fill="#FFFFFF">SB</text>
</svg>
  <text x="2060" y="256" text-anchor="middle" font-family="var(--font)" font-size="12" font-weight="600" fill="var(--node-text)">Service Bus</text>
</g>
<g id="node-Monitor" class="diagra-node" data-icon="azure-monitor">
  <rect x="432" y="372" width="130" height="88" rx="8" fill="var(--node-bg)" stroke="var(--node-border)"/>
  <svg x="481" y="384" width="32" height="32" viewBox="0 0 32 32" role="img" aria-label="Azure Monitor">
  <rect x="4" y="4" width="24" height="24" rx="5" fill="#0078D4"/>
  <path d="M16 6.8 25.2 16 16 25.2 6.8 16 16 6.8Z" fill="#479ee0" opacity="0.95"/><path d="m13 11 6 5-6 5" stroke="#FFFFFF" stroke-width="1.8" fill="none" stroke-linecap="round" stroke-linejoin="round"/>
  <text x="16" y="20.4" text-anchor="middle" font-family="Arial, Helvetica, sans-serif" font-size="7" font-weight="700" fill="#FFFFFF">MON</text>
</svg>
  <text x="497" y="440" text-anchor="middle" font-family="var(--font)" font-size="12" font-weight="600" fill="var(--node-text)">Azure Monitor</text>
</g>
</g>
</svg>