<svg xmlns="http://www.w3.org/2000/svg" width="1408" height="960" viewBox="0 0 1408 960" role="img">
<style>
:root {
  --bg: #0F172A;
  --node-bg: #1E293B;
  --node-border: #334155;
  --node-text: #F1F5F9;
  --edge-color: #475569;
  --edge-label: #CBD5E1;
  --accent: #818CF8;
  --font: 'Inter', sans-serif;
}
.diagra-node { filter: drop-shadow(0 10px 18px rgba(15, 23, 42, 0.10)); }
.diagra-edge { stroke-linecap: round; }
</style>
<defs>
  <marker id="arrow" markerWidth="10" markerHeight="10" refX="8" refY="3" orient="auto" markerUnits="strokeWidth">
    <path d="M0,0 L0,6 L9,3 z" fill="var(--edge-color)"/>
  </marker>
</defs>
<rect width="100%" height="100%" fill="var(--bg)"/>

<g transform="translate(0, 0)">
<g class="diagra-edge-label">
  <path id="edge-1" class="diagra-edge" d="M 177 158 C 285 158, 309 232, 417 232" stroke="var(--edge-color)" stroke-width="1.7" fill="none" marker-end="url(#arrow)"/>
  <rect x="247" y="173" width="100" height="16" rx="2" fill="var(--bg)" opacity="0.85"/>
  <text x="297" y="183" text-anchor="middle" font-family="var(--font)" font-size="10" font-weight="600" fill="var(--edge-label)">Chat Request</text>
</g>
<g class="diagra-edge-label">
  <path id="edge-2" class="diagra-edge" d="M 554 232 C 662 232, 686 241, 794 241" stroke="var(--edge-color)" stroke-width="1.7" fill="none" marker-end="url(#arrow)"/>
  <rect x="618" y="214.5" width="142" height="16" rx="2" fill="var(--bg)" opacity="0.85"/>
  <text x="689" y="224.5" text-anchor="middle" font-family="var(--font)" font-size="10" font-weight="600" fill="var(--edge-label)">Authorized Request</text>
</g>
<g class="diagra-edge-label">
  <path id="edge-3" class="diagra-edge" d="M 237 315 C 657.3 315, 750.7 380, 1171 380" stroke="var(--edge-color)" stroke-width="1.7" fill="none" marker-end="url(#arrow)"/>
  <rect x="630.5" y="325.5" width="121" height="16" rx="2" fill="var(--bg)" opacity="0.85"/>
  <text x="691" y="335.5" text-anchor="middle" font-family="var(--font)" font-size="10" font-weight="600" fill="var(--edge-label)">Indexed Content</text>
</g>
<g class="diagra-edge-label">
  <path id="edge-4" class="diagra-edge" d="M 991 241 C 1072 241, 1090 380, 1171 380" stroke="var(--edge-color)" stroke-width="1.7" fill="none" marker-end="url(#arrow)"/>
  <rect x="1004" y="288.5" width="128" height="16" rx="2" fill="var(--bg)" opacity="0.85"/>
  <text x="1068" y="298.5" text-anchor="middle" font-family="var(--font)" font-size="10" font-weight="600" fill="var(--edge-label)">Retrieve Context</text>
</g>
<g class="diagra-edge-label">
  <path id="edge-5" class="diagra-edge" d="M 991 241 C 1072 241, 1090 84, 1171 84" stroke="var(--edge-color)" stroke-width="1.7" fill="none" marker-end="url(#arrow)"/>
  <rect x="1002.75" y="140.5" width="149" height="16" rx="2" fill="var(--bg)" opacity="0.85"/>
  <text x="1077.25" y="150.5" text-anchor="middle" font-family="var(--font)" font-size="10" font-weight="600" fill="var(--edge-label)">Prompt with Context</text>
</g>
<g class="diagra-edge-label">
  <path id="edge-6" class="diagra-edge" d="M 991 241 L 1171 241" stroke="var(--edge-color)" stroke-width="1.7" fill="none" marker-end="url(#arrow)"/>
  <rect x="1010" y="235" width="142" height="16" rx="2" fill="var(--bg)" opacity="0.85"/>
  <text x="1081" y="245" text-anchor="middle" font-family="var(--font)" font-size="10" font-weight="600" fill="var(--edge-label)">Store Conversation</text>
</g>
<g class="diagra-edge-label">
  <path id="edge-7" class="diagra-edge" d="M 892.5 294 C 962.25 294, 977.75 520, 1047.5 520" stroke="var(--edge-color)" stroke-width="1" fill="none" marker-end="url(#arrow)" stroke-dasharray="6 5" opacity="0.4"/>
  <rect x="930.5" y="380.5" width="79" height="16" rx="2" fill="var(--bg)" opacity="0.85"/>
  <text x="970" y="390.5" text-anchor="middle" font-family="var(--font)" font-size="10" font-weight="600" fill="var(--edge-label)">Telemetry</text>
</g>
<g class="diagra-edge-label">
  <path id="edge-8" class="diagra-edge" d="M 1262 128 C 1358.525 128, 950.975 520, 1047.5 520" stroke="var(--edge-color)" stroke-width="1" fill="none" marker-end="url(#arrow)" stroke-dasharray="6 5" opacity="0.4"/>
  <rect x="1101.25" y="430" width="107" height="16" rx="2" fill="var(--bg)" opacity="0.85"/>
  <text x="1154.75" y="440" text-anchor="middle" font-family="var(--font)" font-size="10" font-weight="600" fill="var(--edge-label)">Usage Metrics</text>
</g>
<circle r="4" fill="var(--accent)" opacity="0.9">
  <animateMotion dur="1.5s" begin="0s" repeatCount="indefinite">
    <mpath href="#edge-1"/>
  </animateMotion>
</circle>
<circle r="4" fill="var(--accent)" opacity="0.9">
  <animateMotion dur="1.5s" begin="0.2s" repeatCount="indefinite">
    <mpath href="#edge-2"/>
  </animateMotion>
</circle>
<circle r="4" fill="var(--accent)" opacity="0.9">
  <animateMotion dur="1.5s" begin="0.4s" repeatCount="indefinite">
    <mpath href="#edge-3"/>
  </animateMotion>
</circle>
<circle r="4" fill="var(--accent)" opacity="0.9">
  <animateMotion dur="1.5s" begin="0.6000000000000001s" repeatCount="indefinite">
    <mpath href="#edge-4"/>
  </animateMotion>
</circle>
<circle r="4" fill="var(--accent)" opacity="0.9">
  <animateMotion dur="1.5s" begin="0.8s" repeatCount="indefinite">
    <mpath href="#edge-5"/>
  </animateMotion>
</circle>
<circle r="4" fill="var(--accent)" opacity="0.9">
  <animateMotion dur="1.5s" begin="1s" repeatCount="indefinite">
    <mpath href="#edge-6"/>
  </animateMotion>
</circle>
<circle r="4" fill="var(--accent)" opacity="0.9">
  <animateMotion dur="1.5s" begin="1.2000000000000002s" repeatCount="indefinite">
    <mpath href="#edge-7"/>
  </animateMotion>
</circle>
<circle r="4" fill="var(--accent)" opacity="0.9">
  <animateMotion dur="1.5s" begin="1.4000000000000001s" repeatCount="indefinite">
    <mpath href="#edge-8"/>
  </animateMotion>
</circle>
<g id="node-Apps" class="diagra-node" data-icon="generic-browser">
  <rect x="40" y="114" width="137" height="88" rx="8" fill="var(--node-bg)" stroke="var(--node-border)"/>
  <svg x="92.5" y="126" width="32" height="32" viewBox="0 0 32 32" role="img" aria-label="browser"><rect x="4" y="6" width="24" height="20" rx="3" fill="#64748B"/><path d="M4 12h24" stroke="#fff" stroke-width="2"/><circle cx="9" cy="9" r="1" fill="#fff"/><circle cx="13" cy="9" r="1" fill="#fff"/></svg>

  <text x="108.5" y="182" text-anchor="middle" font-family="var(--font)" font-size="12" font-weight="600" fill="var(--node-text)">AI Client Apps</text>
</g>
<g id="node-APIM" class="diagra-node" data-icon="azure-apim">
  <rect x="417" y="188" width="137" height="88" rx="8" fill="var(--node-bg)" stroke="var(--node-border)"/>
  <svg x="469.5" y="200" width="32" height="32" viewBox="0 0 32 32" role="img" aria-label="Azure API Management">
  <rect x="4" y="4" width="24" height="24" rx="5" fill="#0078D4"/>
  <path d="M7.5 11h17v10h-17z" fill="#479ee0" opacity="0.9"/><path d="M11 16h10" stroke="#FFFFFF" stroke-width="1.8" stroke-linecap="round"/>
  <text x="16" y="20.4" text-anchor="middle" font-family="Arial, Helvetica, sans-serif" font-size="7" font-weight="700" fill="#FFFFFF">API</text>
</svg>
  <text x="485.5" y="256" text-anchor="middle" font-family="var(--font)" font-size="12" font-weight="600" fill="var(--node-text)">API Management</text>
</g>
<g id="node-Orchestrator" class="diagra-node" data-icon="azure-functions">
  <rect x="794" y="188" width="197" height="106" rx="8" fill="var(--node-bg)" stroke="var(--node-border)"/>
  <svg x="876.5" y="200" width="32" height="32" viewBox="0 0 32 32" role="img" aria-label="Azure Functions">
  <rect x="4" y="4" width="24" height="24" rx="5" fill="#0078D4"/>
  <rect x="8" y="8" width="16" height="16" rx="3" fill="#479ee0" opacity="0.95"/><path d="M11 6v4M16 6v4M21 6v4M11 22v4M16 22v4M21 22v4" stroke="#FFFFFF" stroke-width="1.1"/>
  <text x="16" y="20.4" text-anchor="middle" font-family="Arial, Helvetica, sans-serif" font-size="9" font-weight="700" fill="#FFFFFF">FN</text>
</svg>
  <text text-anchor="middle" font-family="var(--font)" font-size="12" font-weight="600" fill="var(--node-text)">
  <tspan x="892.5" y="250">Functions</tspan>
  <tspan x="892.5" dy="18">Orchestrator</tspan>
</text>
</g>
<g id="node-Blob" class="diagra-node" data-icon="azure-blobstorage">
  <rect x="40" y="262" width="197" height="106" rx="8" fill="var(--node-bg)" stroke="var(--node-border)"/>
  <svg x="122.5" y="274" width="32" height="32" viewBox="0 0 32 32" role="img" aria-label="Azure Blob Storage">
  <rect x="4" y="4" width="24" height="24" rx="5" fill="#0078D4"/>
  <path d="M16 6 25 11v10l-9 5-9-5V11l9-5Z" fill="#479ee0" opacity="0.95"/><path d="M10 13h12M10 18h12" stroke="#FFFFFF" stroke-width="1.4" stroke-linecap="round"/>
  <text x="16" y="20.4" text-anchor="middle" font-family="Arial, Helvetica, sans-serif" font-size="7" font-weight="700" fill="#FFFFFF">BLB</text>
</svg>
  <text text-anchor="middle" font-family="var(--font)" font-size="12" font-weight="600" fill="var(--node-text)">
  <tspan x="138.5" y="324">Blob Storage</tspan>
  <tspan x="138.5" dy="18">Documents</tspan>
</text>
</g>
<g id="node-Search" class="diagra-node" data-icon="generic-database">
  <rect x="1171" y="336" width="145" height="88" rx="8" fill="var(--node-bg)" stroke="var(--node-border)"/>
  <svg x="1227.5" y="348" width="32" height="32" viewBox="0 0 32 32" role="img" aria-label="database"><ellipse cx="16" cy="8" rx="10" ry="4" fill="#64748B"/><path d="M6 8v14c0 2.2 4.5 4 10 4s10-1.8 10-4V8" fill="#64748B"/><path d="M6 15c0 2.2 4.5 4 10 4s10-1.8 10-4" stroke="#fff" stroke-width="1.8" fill="none"/></svg>

  <text x="1243.5" y="404" text-anchor="middle" font-family="var(--font)" font-size="12" font-weight="600" fill="var(--node-text)">Azure AI Search</text>
</g>
<g id="node-OpenAI" class="diagra-node" data-icon="generic-api">
  <rect x="1171" y="40" width="182" height="88" rx="8" fill="var(--node-bg)" stroke="var(--node-border)"/>
  <svg x="1246" y="52" width="32" height="32" viewBox="0 0 32 32" role="img" aria-label="api"><rect x="4" y="7" width="24" height="18" rx="4" fill="#64748B"/><text x="16" y="20" text-anchor="middle" font-family="Arial" font-size="9" font-weight="700" fill="#fff">API</text></svg>

  <text x="1262" y="108" text-anchor="middle" font-family="var(--font)" font-size="12" font-weight="600" fill="var(--node-text)">Azure OpenAI Service</text>
</g>
<g id="node-Cosmos" class="diagra-node" data-icon="azure-cosmosdb">
  <rect x="1171" y="188" width="197" height="106" rx="8" fill="var(--node-bg)" stroke="var(--node-border)"/>
  <svg x="1253.5" y="200" width="32" height="32" viewBox="0 0 32 32" role="img" aria-label="Azure Cosmos DB">
  <rect x="4" y="4" width="24" height="24" rx="5" fill="#0078D4"/>
  <ellipse cx="16" cy="9" rx="8.5" ry="3.4" fill="#479ee0"/><path d="M7.5 9v12c0 1.9 3.8 3.4 8.5 3.4s8.5-1.5 8.5-3.4V9" fill="#479ee0"/><path d="M7.5 15c0 1.9 3.8 3.4 8.5 3.4s8.5-1.5 8.5-3.4" stroke="#FFFFFF" stroke-width="1.2" fill="none"/>
  <text x="16" y="20.4" text-anchor="middle" font-family="Arial, Helvetica, sans-serif" font-size="7" font-weight="700" fill="#FFFFFF">CDB</text>
</svg>
  <text text-anchor="middle" font-family="var(--font)" font-size="12" font-weight="600" fill="var(--node-text)">
  <tspan x="1269.5" y="250">Cosmos DB Chat</tspan>
  <tspan x="1269.5" dy="18">History</tspan>
</text>
</g>
<g id="node-Monitor" class="diagra-node" data-icon="azure-monitor">
  <rect x="982.5" y="520" width="130" height="88" rx="8" fill="var(--node-bg)" stroke="var(--node-border)"/>
  <svg x="1031.5" y="532" width="32" height="32" viewBox="0 0 32 32" role="img" aria-label="Azure Monitor">
  <rect x="4" y="4" width="24" height="24" rx="5" fill="#0078D4"/>
  <path d="M16 6.8 25.2 16 16 25.2 6.8 16 16 6.8Z" fill="#479ee0" opacity="0.95"/><path d="m13 11 6 5-6 5" stroke="#FFFFFF" stroke-width="1.8" fill="none" stroke-linecap="round" stroke-linejoin="round"/>
  <text x="16" y="20.4" text-anchor="middle" font-family="Arial, Helvetica, sans-serif" font-size="7" font-weight="700" fill="#FFFFFF">MON</text>
</svg>
  <text x="1047.5" y="588" text-anchor="middle" font-family="var(--font)" font-size="12" font-weight="600" fill="var(--node-text)">Azure Monitor</text>
</g>
</g>
</svg>