<svg xmlns="http://www.w3.org/2000/svg" width="1930" height="640" viewBox="0 0 1930 640" role="img">
<style>
:root {
  --bg: #0F172A;
  --node-bg: #1E293B;
  --node-border: #334155;
  --node-text: #F1F5F9;
  --edge-color: #475569;
  --edge-label: #CBD5E1;
  --accent: #818CF8;
  --font: 'Inter', sans-serif;
}
.diagra-node { filter: drop-shadow(0 10px 18px rgba(15, 23, 42, 0.10)); }
.diagra-edge { stroke-linecap: round; }
</style>
<defs>
  <marker id="arrow" markerWidth="10" markerHeight="10" refX="8" refY="3" orient="auto" markerUnits="strokeWidth">
    <path d="M0,0 L0,6 L9,3 z" fill="var(--edge-color)"/>
  </marker>
</defs>
<rect width="100%" height="100%" fill="var(--bg)"/>

<g transform="translate(0, 0)">
<g class="diagra-edge-label">
  <path id="edge-1" class="diagra-edge" d="M 222 84 C 326.85 84, 350.15 158, 455 158" stroke="var(--edge-color)" stroke-width="1.7" fill="none" marker-end="url(#arrow)"/>
  <rect x="301.25" y="99" width="52" height="16" rx="2" fill="var(--bg)" opacity="0.85"/>
  <text x="327.25" y="109" text-anchor="middle" font-family="var(--font)" font-size="10" font-weight="600" fill="var(--edge-label)">HTTPS</text>
</g>
<g class="diagra-edge-label">
  <path id="edge-2" class="diagra-edge" d="M 592 158 L 870 158" stroke="var(--edge-color)" stroke-width="1.7" fill="none" marker-end="url(#arrow)"/>
  <rect x="688.25" y="136" width="93" height="16" rx="2" fill="var(--bg)" opacity="0.85"/>
  <text x="734.75" y="146" text-anchor="middle" font-family="var(--font)" font-size="10" font-weight="600" fill="var(--edge-label)">API Request</text>
</g>
<g class="diagra-edge-label">
  <path id="edge-3" class="diagra-edge" d="M 237 241 C 521.85 241, 585.15 158, 870 158" stroke="var(--edge-color)" stroke-width="1.7" fill="none" marker-end="url(#arrow)"/>
  <rect x="485.25" y="209.5" width="114" height="16" rx="2" fill="var(--bg)" opacity="0.85"/>
  <text x="542.25" y="219.5" text-anchor="middle" font-family="var(--font)" font-size="10" font-weight="600" fill="var(--edge-label)">JWT Authorizer</text>
</g>
<g class="diagra-edge-label">
  <path id="edge-4" class="diagra-edge" d="M 1022 158 L 1285 158" stroke="var(--edge-color)" stroke-width="1.7" fill="none" marker-end="url(#arrow)"/>
  <rect x="1132" y="168" width="58" height="16" rx="2" fill="var(--bg)" opacity="0.85"/>
  <text x="1161" y="178" text-anchor="middle" font-family="var(--font)" font-size="10" font-weight="600" fill="var(--edge-label)">Invoke</text>
</g>
<g class="diagra-edge-label">
  <path id="edge-5" class="diagra-edge" d="M 1467 158 C 1571.85 158, 1595.15 93, 1700 93" stroke="var(--edge-color)" stroke-width="1.7" fill="none" marker-end="url(#arrow)"/>
  <rect x="1504" y="231.5" width="163" height="16" rx="2" fill="var(--bg)" opacity="0.85"/>
  <text x="1585.5" y="241.5" text-anchor="middle" font-family="var(--font)" font-size="10" font-weight="600" fill="var(--edge-label)">Read and Write Orders</text>
</g>
<g class="diagra-edge-label">
  <path id="edge-6" class="diagra-edge" d="M 1467 158 C 1571.85 158, 1595.15 232, 1700 232" stroke="var(--edge-color)" stroke-width="1.7" fill="none" marker-end="url(#arrow)"/>
  <rect x="1537" y="189" width="93" height="16" rx="2" fill="var(--bg)" opacity="0.85"/>
  <text x="1583.5" y="199" text-anchor="middle" font-family="var(--font)" font-size="10" font-weight="600" fill="var(--edge-label)">Store Files</text>
</g>
<g class="diagra-edge-label">
  <path id="edge-7" class="diagra-edge" d="M 946 202 C 1058.05 202, 1082.95 372, 1195 372" stroke="var(--edge-color)" stroke-width="1" fill="none" marker-end="url(#arrow)" stroke-dasharray="6 5" opacity="0.4"/>
  <rect x="1024" y="269.5" width="93" height="16" rx="2" fill="var(--bg)" opacity="0.85"/>
  <text x="1070.5" y="279.5" text-anchor="middle" font-family="var(--font)" font-size="10" font-weight="600" fill="var(--edge-label)">Access Logs</text>
</g>
<g class="diagra-edge-label">
  <path id="edge-8" class="diagra-edge" d="M 1376 202 C 1457.45 202, 1113.55 372, 1195 372" stroke="var(--edge-color)" stroke-width="1" fill="none" marker-end="url(#arrow)" stroke-dasharray="6 5" opacity="0.4"/>
  <rect x="1232" y="301.5" width="107" height="16" rx="2" fill="var(--bg)" opacity="0.85"/>
  <text x="1285.5" y="311.5" text-anchor="middle" font-family="var(--font)" font-size="10" font-weight="600" fill="var(--edge-label)">Function Logs</text>
</g>
<g class="diagra-edge-label">
  <path id="edge-9" class="diagra-edge" d="M 1376 202 C 1432.925 202, 1445.575 372, 1502.5 372" stroke="var(--edge-color)" stroke-width="1" fill="none" marker-end="url(#arrow)" stroke-dasharray="6 5" opacity="0.4"/>
  <rect x="1382.25" y="333.5" width="114" height="16" rx="2" fill="var(--bg)" opacity="0.85"/>
  <text x="1439.25" y="343.5" text-anchor="middle" font-family="var(--font)" font-size="10" font-weight="600" fill="var(--edge-label)">Trace Segments</text>
</g>
<circle r="4" fill="var(--accent)" opacity="0.9">
  <animateMotion dur="1.5s" begin="0s" repeatCount="indefinite">
    <mpath href="#edge-1"/>
  </animateMotion>
</circle>
<circle r="4" fill="var(--accent)" opacity="0.9">
  <animateMotion dur="1.5s" begin="0.2s" repeatCount="indefinite">
    <mpath href="#edge-2"/>
  </animateMotion>
</circle>
<circle r="4" fill="var(--accent)" opacity="0.9">
  <animateMotion dur="1.5s" begin="0.4s" repeatCount="indefinite">
    <mpath href="#edge-3"/>
  </animateMotion>
</circle>
<circle r="4" fill="var(--accent)" opacity="0.9">
  <animateMotion dur="1.5s" begin="0.6000000000000001s" repeatCount="indefinite">
    <mpath href="#edge-4"/>
  </animateMotion>
</circle>
<circle r="4" fill="var(--accent)" opacity="0.9">
  <animateMotion dur="1.5s" begin="0.8s" repeatCount="indefinite">
    <mpath href="#edge-5"/>
  </animateMotion>
</circle>
<circle r="4" fill="var(--accent)" opacity="0.9">
  <animateMotion dur="1.5s" begin="1s" repeatCount="indefinite">
    <mpath href="#edge-6"/>
  </animateMotion>
</circle>
<circle r="4" fill="var(--accent)" opacity="0.9">
  <animateMotion dur="1.5s" begin="1.2000000000000002s" repeatCount="indefinite">
    <mpath href="#edge-7"/>
  </animateMotion>
</circle>
<circle r="4" fill="var(--accent)" opacity="0.9">
  <animateMotion dur="1.5s" begin="1.4000000000000001s" repeatCount="indefinite">
    <mpath href="#edge-8"/>
  </animateMotion>
</circle>
<circle r="4" fill="var(--accent)" opacity="0.9">
  <animateMotion dur="1.5s" begin="1.6s" repeatCount="indefinite">
    <mpath href="#edge-9"/>
  </animateMotion>
</circle>
<g id="node-Users" class="diagra-node" data-icon="generic-browser">
  <rect x="40" y="40" width="182" height="88" rx="8" fill="var(--node-bg)" stroke="var(--node-border)"/>
  <svg x="115" y="52" width="32" height="32" viewBox="0 0 32 32" role="img" aria-label="browser"><rect x="4" y="6" width="24" height="20" rx="3" fill="#64748B"/><path d="M4 12h24" stroke="#fff" stroke-width="2"/><circle cx="9" cy="9" r="1" fill="#fff"/><circle cx="13" cy="9" r="1" fill="#fff"/></svg>

  <text x="131" y="108" text-anchor="middle" font-family="var(--font)" font-size="12" font-weight="600" fill="var(--node-text)">Web and Mobile Users</text>
</g>
<g id="node-CloudFront" class="diagra-node" data-icon="aws-cloudfront">
  <rect x="455" y="114" width="137" height="88" rx="8" fill="var(--node-bg)" stroke="var(--node-border)"/>
  <svg x="507.5" y="126" width="32" height="32" viewBox="0 0 32 32" role="img" aria-label="Amazon CloudFront">
  <path d="M16 2.8 27.6 9.4v13.2L16 29.2 4.4 22.6V9.4L16 2.8Z" fill="#FF9900"/>
  <circle cx="16" cy="16" r="8.5" fill="#ffb647" opacity="0.9"/><path d="M8 16h16M16 8c2 2.4 3 5 3 8s-1 5.6-3 8M16 8c-2 2.4-3 5-3 8s1 5.6 3 8" stroke="#FFFFFF" stroke-width="1.1" fill="none"/>
  <text x="16" y="20.4" text-anchor="middle" font-family="Arial, Helvetica, sans-serif" font-size="9" font-weight="700" fill="#FFFFFF">CF</text>
</svg>
  <text x="523.5" y="182" text-anchor="middle" font-family="var(--font)" font-size="12" font-weight="600" fill="var(--node-text)">CloudFront CDN</text>
</g>
<g id="node-Cognito" class="diagra-node" data-icon="aws-cognito">
  <rect x="40" y="188" width="197" height="106" rx="8" fill="var(--node-bg)" stroke="var(--node-border)"/>
  <svg x="122.5" y="200" width="32" height="32" viewBox="0 0 32 32" role="img" aria-label="Amazon Cognito">
  <path d="M16 2.8 27.6 9.4v13.2L16 29.2 4.4 22.6V9.4L16 2.8Z" fill="#FF9900"/>
  <path d="M16 7.2 23 10v5.2c0 4.2-2.6 7.6-7 9.6-4.4-2-7-5.4-7-9.6V10l7-2.8Z" fill="#ffb647" opacity="0.95"/>
  <text x="16" y="20.4" text-anchor="middle" font-family="Arial, Helvetica, sans-serif" font-size="9" font-weight="700" fill="#FFFFFF">ID</text>
</svg>
  <text text-anchor="middle" font-family="var(--font)" font-size="12" font-weight="600" fill="var(--node-text)">
  <tspan x="138.5" y="250">Cognito</tspan>
  <tspan x="138.5" dy="18">Authentication</tspan>
</text>
</g>
<g id="node-APIGW" class="diagra-node" data-icon="aws-apigateway">
  <rect x="870" y="114" width="152" height="88" rx="8" fill="var(--node-bg)" stroke="var(--node-border)"/>
  <svg x="930" y="126" width="32" height="32" viewBox="0 0 32 32" role="img" aria-label="Amazon API Gateway">
  <path d="M16 2.8 27.6 9.4v13.2L16 29.2 4.4 22.6V9.4L16 2.8Z" fill="#FF9900"/>
  <path d="M7.5 11h17v10h-17z" fill="#ffb647" opacity="0.9"/><path d="M11 16h10" stroke="#FFFFFF" stroke-width="1.8" stroke-linecap="round"/>
  <text x="16" y="20.4" text-anchor="middle" font-family="Arial, Helvetica, sans-serif" font-size="7" font-weight="700" fill="#FFFFFF">API</text>
</svg>
  <text x="946" y="182" text-anchor="middle" font-family="var(--font)" font-size="12" font-weight="600" fill="var(--node-text)">REST API Gateway</text>
</g>
<g id="node-Lambda" class="diagra-node" data-icon="aws-lambda">
  <rect x="1285" y="114" width="182" height="88" rx="8" fill="var(--node-bg)" stroke="var(--node-border)"/>
  <svg x="1360" y="126" width="32" height="32" viewBox="0 0 32 32" role="img" aria-label="AWS Lambda">
  <path d="M16 2.8 27.6 9.4v13.2L16 29.2 4.4 22.6V9.4L16 2.8Z" fill="#FF9900"/>
  <rect x="8" y="8" width="16" height="16" rx="3" fill="#ffb647" opacity="0.95"/><path d="M11 6v4M16 6v4M21 6v4M11 22v4M16 22v4M21 22v4" stroke="#FFFFFF" stroke-width="1.1"/>
  <text x="16" y="20.4" text-anchor="middle" font-family="Arial, Helvetica, sans-serif" font-size="9" font-weight="700" fill="#FFFFFF">λ</text>
</svg>
  <text x="1376" y="182" text-anchor="middle" font-family="var(--font)" font-size="12" font-weight="600" fill="var(--node-text)">Order Service Lambda</text>
</g>
<g id="node-DynamoDB" class="diagra-node" data-icon="aws-dynamodb">
  <rect x="1700" y="40" width="190" height="106" rx="8" fill="var(--node-bg)" stroke="var(--node-border)"/>
  <svg x="1779" y="52" width="32" height="32" viewBox="0 0 32 32" role="img" aria-label="Amazon DynamoDB">
  <path d="M16 2.8 27.6 9.4v13.2L16 29.2 4.4 22.6V9.4L16 2.8Z" fill="#FF9900"/>
  <ellipse cx="16" cy="9" rx="8.5" ry="3.4" fill="#ffb647"/><path d="M7.5 9v12c0 1.9 3.8 3.4 8.5 3.4s8.5-1.5 8.5-3.4V9" fill="#ffb647"/><path d="M7.5 15c0 1.9 3.8 3.4 8.5 3.4s8.5-1.5 8.5-3.4" stroke="#FFFFFF" stroke-width="1.2" fill="none"/>
  <text x="16" y="20.4" text-anchor="middle" font-family="Arial, Helvetica, sans-serif" font-size="9" font-weight="700" fill="#FFFFFF">DB</text>
</svg>
  <text text-anchor="middle" font-family="var(--font)" font-size="12" font-weight="600" fill="var(--node-text)">
  <tspan x="1795" y="102">Orders DynamoDB</tspan>
  <tspan x="1795" dy="18">Table</tspan>
</text>
</g>
<g id="node-S3" class="diagra-node" data-icon="aws-s3">
  <rect x="1700" y="188" width="182" height="88" rx="8" fill="var(--node-bg)" stroke="var(--node-border)"/>
  <svg x="1775" y="200" width="32" height="32" viewBox="0 0 32 32" role="img" aria-label="Amazon S3">
  <path d="M16 2.8 27.6 9.4v13.2L16 29.2 4.4 22.6V9.4L16 2.8Z" fill="#FF9900"/>
  <path d="M16 6 25 11v10l-9 5-9-5V11l9-5Z" fill="#ffb647" opacity="0.95"/><path d="M10 13h12M10 18h12" stroke="#FFFFFF" stroke-width="1.4" stroke-linecap="round"/>
  <text x="16" y="20.4" text-anchor="middle" font-family="Arial, Helvetica, sans-serif" font-size="9" font-weight="700" fill="#FFFFFF">S3</text>
</svg>
  <text x="1791" y="256" text-anchor="middle" font-family="var(--font)" font-size="12" font-weight="600" fill="var(--node-text)">Invoice File Storage</text>
</g>
<g id="node-CloudWatch" class="diagra-node" data-icon="aws-cloudwatch">
  <rect x="1077.5" y="372" width="235" height="106" rx="8" fill="var(--node-bg)" stroke="var(--node-border)"/>
  <svg x="1179" y="384" width="32" height="32" viewBox="0 0 32 32" role="img" aria-label="Amazon CloudWatch">
  <path d="M16 2.8 27.6 9.4v13.2L16 29.2 4.4 22.6V9.4L16 2.8Z" fill="#FF9900"/>
  <path d="M16 6.8 25.2 16 16 25.2 6.8 16 16 6.8Z" fill="#ffb647" opacity="0.95"/><path d="m13 11 6 5-6 5" stroke="#FFFFFF" stroke-width="1.8" fill="none" stroke-linecap="round" stroke-linejoin="round"/>
  <text x="16" y="20.4" text-anchor="middle" font-family="Arial, Helvetica, sans-serif" font-size="9" font-weight="700" fill="#FFFFFF">CW</text>
</svg>
  <text text-anchor="middle" font-family="var(--font)" font-size="12" font-weight="600" fill="var(--node-text)">
  <tspan x="1195" y="434">CloudWatch Metrics</tspan>
  <tspan x="1195" dy="18">and Logs</tspan>
</text>
</g>
<g id="node-XRay" class="diagra-node" data-icon="generic-server">
  <rect x="1392.5" y="372" width="220" height="106" rx="8" fill="var(--node-bg)" stroke="var(--node-border)"/>
  <svg x="1486.5" y="384" width="32" height="32" viewBox="0 0 32 32" role="img" aria-label="server"><rect x="5" y="6" width="22" height="20" rx="3" fill="#64748B"/><path d="M9 12h14M9 18h14" stroke="#fff" stroke-width="2"/><circle cx="11" cy="23" r="1.5" fill="#fff"/></svg>

  <text text-anchor="middle" font-family="var(--font)" font-size="12" font-weight="600" fill="var(--node-text)">
  <tspan x="1502.5" y="434">X-Ray Distributed</tspan>
  <tspan x="1502.5" dy="18">Tracing</tspan>
</text>
</g>
</g>
</svg>