<svg xmlns="http://www.w3.org/2000/svg" width="1400" height="960" viewBox="0 0 1400 960" role="img">
<style>
:root {
  --bg: #0F172A;
  --node-bg: #1E293B;
  --node-border: #334155;
  --node-text: #F1F5F9;
  --edge-color: #475569;
  --edge-label: #CBD5E1;
  --accent: #818CF8;
  --font: 'Inter', sans-serif;
}
.diagra-node { filter: drop-shadow(0 10px 18px rgba(15, 23, 42, 0.10)); }
.diagra-edge { stroke-linecap: round; }
</style>
<defs>
  <marker id="arrow" markerWidth="10" markerHeight="10" refX="8" refY="3" orient="auto" markerUnits="strokeWidth">
    <path d="M0,0 L0,6 L9,3 z" fill="var(--edge-color)"/>
  </marker>
</defs>
<rect width="100%" height="100%" fill="var(--bg)"/>
<g class="diagra-edge-label">
  <path id="edge-1" class="diagra-edge" d="M 172 84 C 253 84, 271 232, 352 232" stroke="var(--edge-color)" stroke-width="1.7" fill="none" marker-end="url(#arrow)"/>
  <rect x="216" y="138" width="92" height="16" rx="4" fill="var(--bg)" opacity="0.9"/>
  <text x="262" y="150" text-anchor="middle" font-family="var(--font)" font-size="10" font-weight="600" fill="var(--edge-label)">OrderCreated</text>
</g>
<g class="diagra-edge-label">
  <path id="edge-2" class="diagra-edge" d="M 172 232 L 352 232" stroke="var(--edge-color)" stroke-width="1.7" fill="none" marker-end="url(#arrow)"/>
  <rect x="205.5" y="212" width="113" height="16" rx="4" fill="var(--bg)" opacity="0.9"/>
  <text x="262" y="224" text-anchor="middle" font-family="var(--font)" font-size="10" font-weight="600" fill="var(--edge-label)">PaymentCaptured</text>
</g>
<g class="diagra-edge-label">
  <path id="edge-3" class="diagra-edge" d="M 172 380 C 253 380, 271 232, 352 232" stroke="var(--edge-color)" stroke-width="1.7" fill="none" marker-end="url(#arrow)"/>
  <rect x="216" y="286" width="92" height="16" rx="4" fill="var(--bg)" opacity="0.9"/>
  <text x="262" y="298" text-anchor="middle" font-family="var(--font)" font-size="10" font-weight="600" fill="var(--edge-label)">StockChanged</text>
</g>
<g class="diagra-edge-label">
  <path id="edge-4" class="diagra-edge" d="M 484 232 C 565 232, 583 158, 664 158" stroke="var(--edge-color)" stroke-width="1.7" fill="none" marker-end="url(#arrow)"/>
  <rect x="514" y="175" width="120" height="16" rx="4" fill="var(--bg)" opacity="0.9"/>
  <text x="574" y="187" text-anchor="middle" font-family="var(--font)" font-size="10" font-weight="600" fill="var(--edge-label)">Notify Customers</text>
</g>
<g class="diagra-edge-label">
  <path id="edge-5" class="diagra-edge" d="M 484 232 C 565 232, 583 306, 664 306" stroke="var(--edge-color)" stroke-width="1.7" fill="none" marker-end="url(#arrow)"/>
  <rect x="535" y="249" width="78" height="16" rx="4" fill="var(--bg)" opacity="0.9"/>
  <text x="574" y="261" text-anchor="middle" font-family="var(--font)" font-size="10" font-weight="600" fill="var(--edge-label)">Queue Work</text>
</g>
<g class="diagra-edge-label">
  <path id="edge-6" class="diagra-edge" d="M 796 158 C 877 158, 895 84, 976 84" stroke="var(--edge-color)" stroke-width="1.7" fill="none" marker-end="url(#arrow)"/>
  <rect x="861" y="101" width="50" height="16" rx="4" fill="var(--bg)" opacity="0.9"/>
  <text x="886" y="113" text-anchor="middle" font-family="var(--font)" font-size="10" font-weight="600" fill="var(--edge-label)">Fanout</text>
</g>
<g class="diagra-edge-label">
  <path id="edge-7" class="diagra-edge" d="M 796 306 C 877 306, 895 380, 976 380" stroke="var(--edge-color)" stroke-width="1.7" fill="none" marker-end="url(#arrow)"/>
  <rect x="836.5" y="323" width="99" height="16" rx="4" fill="var(--bg)" opacity="0.9"/>
  <text x="886" y="335" text-anchor="middle" font-family="var(--font)" font-size="10" font-weight="600" fill="var(--edge-label)">Batch Consume</text>
</g>
<g class="diagra-edge-label">
  <path id="edge-8" class="diagra-edge" d="M 796 306 C 877 306, 895 232, 976 232" stroke="var(--edge-color)" stroke-width="1.7" fill="none" marker-end="url(#arrow)"/>
  <rect x="829.5" y="345" width="113" height="16" rx="4" fill="var(--bg)" opacity="0.9"/>
  <text x="886" y="357" text-anchor="middle" font-family="var(--font)" font-size="10" font-weight="600" fill="var(--edge-label)">Failed Messages</text>
</g>
<g class="diagra-edge-label">
  <path id="edge-9" class="diagra-edge" d="M 418 276 C 558.4 276, 589.6 520, 730 520" stroke="var(--edge-color)" stroke-width="1" fill="none" marker-end="url(#arrow)" stroke-dasharray="6 5" opacity="0.4"/>
  <rect x="528" y="378" width="92" height="16" rx="4" fill="var(--bg)" opacity="0.9"/>
  <text x="574" y="390" text-anchor="middle" font-family="var(--font)" font-size="10" font-weight="600" fill="var(--edge-label)">Rule Metrics</text>
</g>
<g class="diagra-edge-label">
  <path id="edge-10" class="diagra-edge" d="M 730 202 C 778 202, 682 520, 730 520" stroke="var(--edge-color)" stroke-width="1" fill="none" marker-end="url(#arrow)" stroke-dasharray="6 5" opacity="0.4"/>
  <rect x="670" y="405" width="120" height="16" rx="4" fill="var(--bg)" opacity="0.9"/>
  <text x="730" y="417" text-anchor="middle" font-family="var(--font)" font-size="10" font-weight="600" fill="var(--edge-label)">Delivery Metrics</text>
</g>
<g class="diagra-edge-label">
  <path id="edge-11" class="diagra-edge" d="M 730 350 C 778 350, 682 520, 730 520" stroke="var(--edge-color)" stroke-width="1" fill="none" marker-end="url(#arrow)" stroke-dasharray="6 5" opacity="0.4"/>
  <rect x="687.5" y="431" width="85" height="16" rx="4" fill="var(--bg)" opacity="0.9"/>
  <text x="730" y="443" text-anchor="middle" font-family="var(--font)" font-size="10" font-weight="600" fill="var(--edge-label)">Queue Depth</text>
</g>
<g class="diagra-edge-label">
  <path id="edge-12" class="diagra-edge" d="M 1042 276 C 1182.4 276, 589.6 520, 730 520" stroke="var(--edge-color)" stroke-width="1" fill="none" marker-end="url(#arrow)" stroke-dasharray="6 5" opacity="0.4"/>
  <rect x="861" y="458" width="50" height="16" rx="4" fill="var(--bg)" opacity="0.9"/>
  <text x="886" y="470" text-anchor="middle" font-family="var(--font)" font-size="10" font-weight="600" fill="var(--edge-label)">Alarms</text>
</g>
<circle r="4" fill="var(--accent)" opacity="0.9">
  <animateMotion dur="1.5s" begin="0s" repeatCount="indefinite">
    <mpath href="#edge-1"/>
  </animateMotion>
</circle>
<circle r="4" fill="var(--accent)" opacity="0.9">
  <animateMotion dur="1.5s" begin="0.2s" repeatCount="indefinite">
    <mpath href="#edge-2"/>
  </animateMotion>
</circle>
<circle r="4" fill="var(--accent)" opacity="0.9">
  <animateMotion dur="1.5s" begin="0.4s" repeatCount="indefinite">
    <mpath href="#edge-3"/>
  </animateMotion>
</circle>
<circle r="4" fill="var(--accent)" opacity="0.9">
  <animateMotion dur="1.5s" begin="0.6000000000000001s" repeatCount="indefinite">
    <mpath href="#edge-4"/>
  </animateMotion>
</circle>
<circle r="4" fill="var(--accent)" opacity="0.9">
  <animateMotion dur="1.5s" begin="0.8s" repeatCount="indefinite">
    <mpath href="#edge-5"/>
  </animateMotion>
</circle>
<circle r="4" fill="var(--accent)" opacity="0.9">
  <animateMotion dur="1.5s" begin="1s" repeatCount="indefinite">
    <mpath href="#edge-6"/>
  </animateMotion>
</circle>
<circle r="4" fill="var(--accent)" opacity="0.9">
  <animateMotion dur="1.5s" begin="1.2000000000000002s" repeatCount="indefinite">
    <mpath href="#edge-7"/>
  </animateMotion>
</circle>
<circle r="4" fill="var(--accent)" opacity="0.9">
  <animateMotion dur="1.5s" begin="1.4000000000000001s" repeatCount="indefinite">
    <mpath href="#edge-8"/>
  </animateMotion>
</circle>
<circle r="4" fill="var(--accent)" opacity="0.9">
  <animateMotion dur="1.5s" begin="1.6s" repeatCount="indefinite">
    <mpath href="#edge-9"/>
  </animateMotion>
</circle>
<circle r="4" fill="var(--accent)" opacity="0.9">
  <animateMotion dur="1.5s" begin="1.8s" repeatCount="indefinite">
    <mpath href="#edge-10"/>
  </animateMotion>
</circle>
<circle r="4" fill="var(--accent)" opacity="0.9">
  <animateMotion dur="1.5s" begin="2s" repeatCount="indefinite">
    <mpath href="#edge-11"/>
  </animateMotion>
</circle>
<circle r="4" fill="var(--accent)" opacity="0.9">
  <animateMotion dur="1.5s" begin="2.2s" repeatCount="indefinite">
    <mpath href="#edge-12"/>
  </animateMotion>
</circle>
<g id="node-Orders" class="diagra-node" data-icon="aws-lambda">
  <rect x="40" y="40" width="132" height="88" rx="8" fill="var(--node-bg)" stroke="var(--node-border)"/>
  <svg x="90" y="52" width="32" height="32" viewBox="0 0 32 32" role="img" aria-label="AWS Lambda">
  <path d="M16 2.8 27.6 9.4v13.2L16 29.2 4.4 22.6V9.4L16 2.8Z" fill="#FF9900"/>
  <rect x="8" y="8" width="16" height="16" rx="3" fill="#ffb647" opacity="0.95"/><path d="M11 6v4M16 6v4M21 6v4M11 22v4M16 22v4M21 22v4" stroke="#FFFFFF" stroke-width="1.1"/>
  <text x="16" y="20.4" text-anchor="middle" font-family="Arial, Helvetica, sans-serif" font-size="9" font-weight="700" fill="#FFFFFF">λ</text>
</svg>
  <text x="106" y="108" text-anchor="middle" font-family="var(--font)" font-size="12" font-weight="600" fill="var(--node-text)">Orders Service</text>
</g>
<g id="node-Payments" class="diagra-node" data-icon="aws-lambda">
  <rect x="40" y="188" width="132" height="88" rx="8" fill="var(--node-bg)" stroke="var(--node-border)"/>
  <svg x="90" y="200" width="32" height="32" viewBox="0 0 32 32" role="img" aria-label="AWS Lambda">
  <path d="M16 2.8 27.6 9.4v13.2L16 29.2 4.4 22.6V9.4L16 2.8Z" fill="#FF9900"/>
  <rect x="8" y="8" width="16" height="16" rx="3" fill="#ffb647" opacity="0.95"/><path d="M11 6v4M16 6v4M21 6v4M11 22v4M16 22v4M21 22v4" stroke="#FFFFFF" stroke-width="1.1"/>
  <text x="16" y="20.4" text-anchor="middle" font-family="Arial, Helvetica, sans-serif" font-size="9" font-weight="700" fill="#FFFFFF">λ</text>
</svg>
  <text x="106" y="256" text-anchor="middle" font-family="var(--font)" font-size="12" font-weight="600" fill="var(--node-text)">Payments Service</text>
</g>
<g id="node-Inventory" class="diagra-node" data-icon="aws-lambda">
  <rect x="40" y="336" width="132" height="88" rx="8" fill="var(--node-bg)" stroke="var(--node-border)"/>
  <svg x="90" y="348" width="32" height="32" viewBox="0 0 32 32" role="img" aria-label="AWS Lambda">
  <path d="M16 2.8 27.6 9.4v13.2L16 29.2 4.4 22.6V9.4L16 2.8Z" fill="#FF9900"/>
  <rect x="8" y="8" width="16" height="16" rx="3" fill="#ffb647" opacity="0.95"/><path d="M11 6v4M16 6v4M21 6v4M11 22v4M16 22v4M21 22v4" stroke="#FFFFFF" stroke-width="1.1"/>
  <text x="16" y="20.4" text-anchor="middle" font-family="Arial, Helvetica, sans-serif" font-size="9" font-weight="700" fill="#FFFFFF">λ</text>
</svg>
  <text x="106" y="404" text-anchor="middle" font-family="var(--font)" font-size="12" font-weight="600" fill="var(--node-text)">Inventory Service</text>
</g>
<g id="node-EventBridge" class="diagra-node" data-icon="aws-eventbridge">
  <rect x="352" y="188" width="132" height="88" rx="8" fill="var(--node-bg)" stroke="var(--node-border)"/>
  <svg x="402" y="200" width="32" height="32" viewBox="0 0 32 32" role="img" aria-label="Amazon EventBridge">
  <path d="M16 2.8 27.6 9.4v13.2L16 29.2 4.4 22.6V9.4L16 2.8Z" fill="#FF9900"/>
  <path d="M16 6.8 25.2 16 16 25.2 6.8 16 16 6.8Z" fill="#ffb647" opacity="0.95"/><path d="m13 11 6 5-6 5" stroke="#FFFFFF" stroke-width="1.8" fill="none" stroke-linecap="round" stroke-linejoin="round"/>
  <text x="16" y="20.4" text-anchor="middle" font-family="Arial, Helvetica, sans-serif" font-size="9" font-weight="700" fill="#FFFFFF">EV</text>
</svg>
  <text x="418" y="256" text-anchor="middle" font-family="var(--font)" font-size="12" font-weight="600" fill="var(--node-text)">EventBridge Event Bus</text>
</g>
<g id="node-SNS" class="diagra-node" data-icon="aws-sns">
  <rect x="664" y="114" width="132" height="88" rx="8" fill="var(--node-bg)" stroke="var(--node-border)"/>
  <svg x="714" y="126" width="32" height="32" viewBox="0 0 32 32" role="img" aria-label="Amazon SNS">
  <path d="M16 2.8 27.6 9.4v13.2L16 29.2 4.4 22.6V9.4L16 2.8Z" fill="#FF9900"/>
  <path d="M16 6.8 25.2 16 16 25.2 6.8 16 16 6.8Z" fill="#ffb647" opacity="0.95"/><path d="m13 11 6 5-6 5" stroke="#FFFFFF" stroke-width="1.8" fill="none" stroke-linecap="round" stroke-linejoin="round"/>
  <text x="16" y="20.4" text-anchor="middle" font-family="Arial, Helvetica, sans-serif" font-size="7" font-weight="700" fill="#FFFFFF">SNS</text>
</svg>
  <text x="730" y="182" text-anchor="middle" font-family="var(--font)" font-size="12" font-weight="600" fill="var(--node-text)">Customer Notification Topic</text>
</g>
<g id="node-SQS" class="diagra-node" data-icon="aws-sqs">
  <rect x="664" y="262" width="132" height="88" rx="8" fill="var(--node-bg)" stroke="var(--node-border)"/>
  <svg x="714" y="274" width="32" height="32" viewBox="0 0 32 32" role="img" aria-label="Amazon SQS">
  <path d="M16 2.8 27.6 9.4v13.2L16 29.2 4.4 22.6V9.4L16 2.8Z" fill="#FF9900"/>
  <rect x="8" y="8" width="16" height="4.5" rx="2" fill="#ffb647"/><rect x="8" y="14" width="16" height="4.5" rx="2" fill="#ffb647"/><rect x="8" y="20" width="16" height="4.5" rx="2" fill="#ffb647"/>
  <text x="16" y="20.4" text-anchor="middle" font-family="Arial, Helvetica, sans-serif" font-size="7" font-weight="700" fill="#FFFFFF">SQS</text>
</svg>
  <text x="730" y="330" text-anchor="middle" font-family="var(--font)" font-size="12" font-weight="600" fill="var(--node-text)">Fulfillment Queue</text>
</g>
<g id="node-DLQ" class="diagra-node" data-icon="aws-sqs">
  <rect x="976" y="188" width="132" height="88" rx="8" fill="var(--node-bg)" stroke="var(--node-border)"/>
  <svg x="1026" y="200" width="32" height="32" viewBox="0 0 32 32" role="img" aria-label="Amazon SQS">
  <path d="M16 2.8 27.6 9.4v13.2L16 29.2 4.4 22.6V9.4L16 2.8Z" fill="#FF9900"/>
  <rect x="8" y="8" width="16" height="4.5" rx="2" fill="#ffb647"/><rect x="8" y="14" width="16" height="4.5" rx="2" fill="#ffb647"/><rect x="8" y="20" width="16" height="4.5" rx="2" fill="#ffb647"/>
  <text x="16" y="20.4" text-anchor="middle" font-family="Arial, Helvetica, sans-serif" font-size="7" font-weight="700" fill="#FFFFFF">SQS</text>
</svg>
  <text x="1042" y="256" text-anchor="middle" font-family="var(--font)" font-size="12" font-weight="600" fill="var(--node-text)">Dead Letter Queue</text>
</g>
<g id="node-EmailWorker" class="diagra-node" data-icon="aws-lambda">
  <rect x="976" y="40" width="132" height="88" rx="8" fill="var(--node-bg)" stroke="var(--node-border)"/>
  <svg x="1026" y="52" width="32" height="32" viewBox="0 0 32 32" role="img" aria-label="AWS Lambda">
  <path d="M16 2.8 27.6 9.4v13.2L16 29.2 4.4 22.6V9.4L16 2.8Z" fill="#FF9900"/>
  <rect x="8" y="8" width="16" height="16" rx="3" fill="#ffb647" opacity="0.95"/><path d="M11 6v4M16 6v4M21 6v4M11 22v4M16 22v4M21 22v4" stroke="#FFFFFF" stroke-width="1.1"/>
  <text x="16" y="20.4" text-anchor="middle" font-family="Arial, Helvetica, sans-serif" font-size="9" font-weight="700" fill="#FFFFFF">λ</text>
</svg>
  <text x="1042" y="108" text-anchor="middle" font-family="var(--font)" font-size="12" font-weight="600" fill="var(--node-text)">Email Lambda Consumer</text>
</g>
<g id="node-FulfillmentWorker" class="diagra-node" data-icon="aws-lambda">
  <rect x="976" y="336" width="132" height="88" rx="8" fill="var(--node-bg)" stroke="var(--node-border)"/>
  <svg x="1026" y="348" width="32" height="32" viewBox="0 0 32 32" role="img" aria-label="AWS Lambda">
  <path d="M16 2.8 27.6 9.4v13.2L16 29.2 4.4 22.6V9.4L16 2.8Z" fill="#FF9900"/>
  <rect x="8" y="8" width="16" height="16" rx="3" fill="#ffb647" opacity="0.95"/><path d="M11 6v4M16 6v4M21 6v4M11 22v4M16 22v4M21 22v4" stroke="#FFFFFF" stroke-width="1.1"/>
  <text x="16" y="20.4" text-anchor="middle" font-family="Arial, Helvetica, sans-serif" font-size="9" font-weight="700" fill="#FFFFFF">λ</text>
</svg>
  <text x="1042" y="404" text-anchor="middle" font-family="var(--font)" font-size="12" font-weight="600" fill="var(--node-text)">Fulfillment Lambda Consumer</text>
</g>
<g id="node-CloudWatch" class="diagra-node" data-icon="aws-cloudwatch">
  <rect x="664" y="520" width="132" height="88" rx="8" fill="var(--node-bg)" stroke="var(--node-border)"/>
  <svg x="714" y="532" width="32" height="32" viewBox="0 0 32 32" role="img" aria-label="Amazon CloudWatch">
  <path d="M16 2.8 27.6 9.4v13.2L16 29.2 4.4 22.6V9.4L16 2.8Z" fill="#FF9900"/>
  <path d="M16 6.8 25.2 16 16 25.2 6.8 16 16 6.8Z" fill="#ffb647" opacity="0.95"/><path d="m13 11 6 5-6 5" stroke="#FFFFFF" stroke-width="1.8" fill="none" stroke-linecap="round" stroke-linejoin="round"/>
  <text x="16" y="20.4" text-anchor="middle" font-family="Arial, Helvetica, sans-serif" font-size="9" font-weight="700" fill="#FFFFFF">CW</text>
</svg>
  <text x="730" y="588" text-anchor="middle" font-family="var(--font)" font-size="12" font-weight="600" fill="var(--node-text)">CloudWatch Monitoring</text>
</g>
</svg>