<svg xmlns="http://www.w3.org/2000/svg" width="1560" height="960" viewBox="0 0 1560 960" role="img">
<style>
:root {
  --bg: #0F172A;
  --node-bg: #1E293B;
  --node-border: #334155;
  --node-text: #F1F5F9;
  --edge-color: #475569;
  --edge-label: #CBD5E1;
  --accent: #818CF8;
  --font: 'Inter', sans-serif;
}
.diagra-node { filter: drop-shadow(0 10px 18px rgba(15, 23, 42, 0.10)); }
.diagra-edge { stroke-linecap: round; }
</style>
<defs>
  <marker id="arrow" markerWidth="10" markerHeight="10" refX="8" refY="3" orient="auto" markerUnits="strokeWidth">
    <path d="M0,0 L0,6 L9,3 z" fill="var(--edge-color)"/>
  </marker>
</defs>
<rect width="100%" height="100%" fill="var(--bg)"/>

<g transform="translate(0, 0)">
<g class="diagra-edge-label">
  <path id="edge-1" class="diagra-edge" d="M 177 84 C 302.1 84, 329.9 241, 455 241" stroke="var(--edge-color)" stroke-width="1.7" fill="none" marker-end="url(#arrow)"/>
  <rect x="279.25" y="140.5" width="100" height="16" rx="2" fill="var(--bg)" opacity="0.85"/>
  <text x="329.25" y="150.5" text-anchor="middle" font-family="var(--font)" font-size="10" font-weight="600" fill="var(--edge-label)">OrderCreated</text>
</g>
<g class="diagra-edge-label">
  <path id="edge-2" class="diagra-edge" d="M 192 232 C 310.35 232, 336.65 241, 455 241" stroke="var(--edge-color)" stroke-width="1.7" fill="none" marker-end="url(#arrow)"/>
  <rect x="272.5" y="214.5" width="121" height="16" rx="2" fill="var(--bg)" opacity="0.85"/>
  <text x="333" y="224.5" text-anchor="middle" font-family="var(--font)" font-size="10" font-weight="600" fill="var(--edge-label)">PaymentCaptured</text>
</g>
<g class="diagra-edge-label">
  <path id="edge-3" class="diagra-edge" d="M 200 380 C 314.75 380, 340.25 241, 455 241" stroke="var(--edge-color)" stroke-width="1.7" fill="none" marker-end="url(#arrow)"/>
  <rect x="285" y="288.5" width="100" height="16" rx="2" fill="var(--bg)" opacity="0.85"/>
  <text x="335" y="298.5" text-anchor="middle" font-family="var(--font)" font-size="10" font-weight="600" fill="var(--edge-label)">StockChanged</text>
</g>
<g class="diagra-edge-label">
  <path id="edge-4" class="diagra-edge" d="M 645 241 C 746.25 241, 768.75 167, 870 167" stroke="var(--edge-color)" stroke-width="1.7" fill="none" marker-end="url(#arrow)"/>
  <rect x="704.75" y="182" width="128" height="16" rx="2" fill="var(--bg)" opacity="0.85"/>
  <text x="768.75" y="192" text-anchor="middle" font-family="var(--font)" font-size="10" font-weight="600" fill="var(--edge-label)">Notify Customers</text>
</g>
<g class="diagra-edge-label">
  <path id="edge-5" class="diagra-edge" d="M 645 241 C 746.25 241, 768.75 306, 870 306" stroke="var(--edge-color)" stroke-width="1.7" fill="none" marker-end="url(#arrow)"/>
  <rect x="707" y="251.5" width="86" height="16" rx="2" fill="var(--bg)" opacity="0.85"/>
  <text x="750" y="261.5" text-anchor="middle" font-family="var(--font)" font-size="10" font-weight="600" fill="var(--edge-label)">Queue Work</text>
</g>
<g class="diagra-edge-label">
  <path id="edge-6" class="diagra-edge" d="M 1105 167 C 1186 167, 1204 93, 1285 93" stroke="var(--edge-color)" stroke-width="1.7" fill="none" marker-end="url(#arrow)"/>
  <rect x="1154.75" y="108" width="58" height="16" rx="2" fill="var(--bg)" opacity="0.85"/>
  <text x="1183.75" y="118" text-anchor="middle" font-family="var(--font)" font-size="10" font-weight="600" fill="var(--edge-label)">Fanout</text>
</g>
<g class="diagra-edge-label">
  <path id="edge-7" class="diagra-edge" d="M 1030 306 C 1144.75 306, 1170.25 389, 1285 389" stroke="var(--edge-color)" stroke-width="1.7" fill="none" marker-end="url(#arrow)"/>
  <rect x="1122.75" y="325.5" width="107" height="16" rx="2" fill="var(--bg)" opacity="0.85"/>
  <text x="1176.25" y="335.5" text-anchor="middle" font-family="var(--font)" font-size="10" font-weight="600" fill="var(--edge-label)">Batch Consume</text>
</g>
<g class="diagra-edge-label">
  <path id="edge-8" class="diagra-edge" d="M 1030 306 C 1144.75 306, 1170.25 232, 1285 232" stroke="var(--edge-color)" stroke-width="1.7" fill="none" marker-end="url(#arrow)"/>
  <rect x="1097" y="359" width="121" height="16" rx="2" fill="var(--bg)" opacity="0.85"/>
  <text x="1157.5" y="369" text-anchor="middle" font-family="var(--font)" font-size="10" font-weight="600" fill="var(--edge-label)">Failed Messages</text>
</g>
<g class="diagra-edge-label">
  <path id="edge-9" class="diagra-edge" d="M 645 241 C 746.25 241, 768.75 573, 870 573" stroke="var(--edge-color)" stroke-width="1" fill="none" marker-end="url(#arrow)" stroke-dasharray="6 5" opacity="0.4"/>
  <rect x="707.5" y="385" width="100" height="16" rx="2" fill="var(--bg)" opacity="0.85"/>
  <text x="757.5" y="395" text-anchor="middle" font-family="var(--font)" font-size="10" font-weight="600" fill="var(--edge-label)">Rule Metrics</text>
</g>
<g class="diagra-edge-label">
  <path id="edge-10" class="diagra-edge" d="M 987.5 220 C 1035.5 220, 917 520, 965 520" stroke="var(--edge-color)" stroke-width="1" fill="none" marker-end="url(#arrow)" stroke-dasharray="6 5" opacity="0.4"/>
  <rect x="912.25" y="412" width="128" height="16" rx="2" fill="var(--bg)" opacity="0.85"/>
  <text x="976.25" y="422" text-anchor="middle" font-family="var(--font)" font-size="10" font-weight="600" fill="var(--edge-label)">Delivery Metrics</text>
</g>
<g class="diagra-edge-label">
  <path id="edge-11" class="diagra-edge" d="M 950 350 C 998 350, 917 520, 965 520" stroke="var(--edge-color)" stroke-width="1" fill="none" marker-end="url(#arrow)" stroke-dasharray="6 5" opacity="0.4"/>
  <rect x="911" y="433.5" width="93" height="16" rx="2" fill="var(--bg)" opacity="0.85"/>
  <text x="957.5" y="443.5" text-anchor="middle" font-family="var(--font)" font-size="10" font-weight="600" fill="var(--edge-label)">Queue Depth</text>
</g>
<g class="diagra-edge-label">
  <path id="edge-12" class="diagra-edge" d="M 1285 232 C 1386.25 232, 958.75 573, 1060 573" stroke="var(--edge-color)" stroke-width="1" fill="none" marker-end="url(#arrow)" stroke-dasharray="6 5" opacity="0.4"/>
  <rect x="1136" y="460.5" width="58" height="16" rx="2" fill="var(--bg)" opacity="0.85"/>
  <text x="1165" y="470.5" text-anchor="middle" font-family="var(--font)" font-size="10" font-weight="600" fill="var(--edge-label)">Alarms</text>
</g>
<circle r="4" fill="var(--accent)" opacity="0.9">
  <animateMotion dur="1.5s" begin="0s" repeatCount="indefinite">
    <mpath href="#edge-1"/>
  </animateMotion>
</circle>
<circle r="4" fill="var(--accent)" opacity="0.9">
  <animateMotion dur="1.5s" begin="0.2s" repeatCount="indefinite">
    <mpath href="#edge-2"/>
  </animateMotion>
</circle>
<circle r="4" fill="var(--accent)" opacity="0.9">
  <animateMotion dur="1.5s" begin="0.4s" repeatCount="indefinite">
    <mpath href="#edge-3"/>
  </animateMotion>
</circle>
<circle r="4" fill="var(--accent)" opacity="0.9">
  <animateMotion dur="1.5s" begin="0.6000000000000001s" repeatCount="indefinite">
    <mpath href="#edge-4"/>
  </animateMotion>
</circle>
<circle r="4" fill="var(--accent)" opacity="0.9">
  <animateMotion dur="1.5s" begin="0.8s" repeatCount="indefinite">
    <mpath href="#edge-5"/>
  </animateMotion>
</circle>
<circle r="4" fill="var(--accent)" opacity="0.9">
  <animateMotion dur="1.5s" begin="1s" repeatCount="indefinite">
    <mpath href="#edge-6"/>
  </animateMotion>
</circle>
<circle r="4" fill="var(--accent)" opacity="0.9">
  <animateMotion dur="1.5s" begin="1.2000000000000002s" repeatCount="indefinite">
    <mpath href="#edge-7"/>
  </animateMotion>
</circle>
<circle r="4" fill="var(--accent)" opacity="0.9">
  <animateMotion dur="1.5s" begin="1.4000000000000001s" repeatCount="indefinite">
    <mpath href="#edge-8"/>
  </animateMotion>
</circle>
<circle r="4" fill="var(--accent)" opacity="0.9">
  <animateMotion dur="1.5s" begin="1.6s" repeatCount="indefinite">
    <mpath href="#edge-9"/>
  </animateMotion>
</circle>
<circle r="4" fill="var(--accent)" opacity="0.9">
  <animateMotion dur="1.5s" begin="1.8s" repeatCount="indefinite">
    <mpath href="#edge-10"/>
  </animateMotion>
</circle>
<circle r="4" fill="var(--accent)" opacity="0.9">
  <animateMotion dur="1.5s" begin="2s" repeatCount="indefinite">
    <mpath href="#edge-11"/>
  </animateMotion>
</circle>
<circle r="4" fill="var(--accent)" opacity="0.9">
  <animateMotion dur="1.5s" begin="2.2s" repeatCount="indefinite">
    <mpath href="#edge-12"/>
  </animateMotion>
</circle>
<g id="node-Orders" class="diagra-node" data-icon="aws-lambda">
  <rect x="40" y="40" width="137" height="88" rx="8" fill="var(--node-bg)" stroke="var(--node-border)"/>
  <svg x="92.5" y="52" width="32" height="32" viewBox="0 0 32 32" role="img" aria-label="AWS Lambda">
  <path d="M16 2.8 27.6 9.4v13.2L16 29.2 4.4 22.6V9.4L16 2.8Z" fill="#FF9900"/>
  <rect x="8" y="8" width="16" height="16" rx="3" fill="#ffb647" opacity="0.95"/><path d="M11 6v4M16 6v4M21 6v4M11 22v4M16 22v4M21 22v4" stroke="#FFFFFF" stroke-width="1.1"/>
  <text x="16" y="20.4" text-anchor="middle" font-family="Arial, Helvetica, sans-serif" font-size="9" font-weight="700" fill="#FFFFFF">λ</text>
</svg>
  <text x="108.5" y="108" text-anchor="middle" font-family="var(--font)" font-size="12" font-weight="600" fill="var(--node-text)">Orders Service</text>
</g>
<g id="node-Payments" class="diagra-node" data-icon="aws-lambda">
  <rect x="40" y="188" width="152" height="88" rx="8" fill="var(--node-bg)" stroke="var(--node-border)"/>
  <svg x="100" y="200" width="32" height="32" viewBox="0 0 32 32" role="img" aria-label="AWS Lambda">
  <path d="M16 2.8 27.6 9.4v13.2L16 29.2 4.4 22.6V9.4L16 2.8Z" fill="#FF9900"/>
  <rect x="8" y="8" width="16" height="16" rx="3" fill="#ffb647" opacity="0.95"/><path d="M11 6v4M16 6v4M21 6v4M11 22v4M16 22v4M21 22v4" stroke="#FFFFFF" stroke-width="1.1"/>
  <text x="16" y="20.4" text-anchor="middle" font-family="Arial, Helvetica, sans-serif" font-size="9" font-weight="700" fill="#FFFFFF">λ</text>
</svg>
  <text x="116" y="256" text-anchor="middle" font-family="var(--font)" font-size="12" font-weight="600" fill="var(--node-text)">Payments Service</text>
</g>
<g id="node-Inventory" class="diagra-node" data-icon="aws-lambda">
  <rect x="40" y="336" width="160" height="88" rx="8" fill="var(--node-bg)" stroke="var(--node-border)"/>
  <svg x="104" y="348" width="32" height="32" viewBox="0 0 32 32" role="img" aria-label="AWS Lambda">
  <path d="M16 2.8 27.6 9.4v13.2L16 29.2 4.4 22.6V9.4L16 2.8Z" fill="#FF9900"/>
  <rect x="8" y="8" width="16" height="16" rx="3" fill="#ffb647" opacity="0.95"/><path d="M11 6v4M16 6v4M21 6v4M11 22v4M16 22v4M21 22v4" stroke="#FFFFFF" stroke-width="1.1"/>
  <text x="16" y="20.4" text-anchor="middle" font-family="Arial, Helvetica, sans-serif" font-size="9" font-weight="700" fill="#FFFFFF">λ</text>
</svg>
  <text x="120" y="404" text-anchor="middle" font-family="var(--font)" font-size="12" font-weight="600" fill="var(--node-text)">Inventory Service</text>
</g>
<g id="node-EventBridge" class="diagra-node" data-icon="aws-eventbridge">
  <rect x="455" y="188" width="190" height="106" rx="8" fill="var(--node-bg)" stroke="var(--node-border)"/>
  <svg x="534" y="200" width="32" height="32" viewBox="0 0 32 32" role="img" aria-label="Amazon EventBridge">
  <path d="M16 2.8 27.6 9.4v13.2L16 29.2 4.4 22.6V9.4L16 2.8Z" fill="#FF9900"/>
  <path d="M16 6.8 25.2 16 16 25.2 6.8 16 16 6.8Z" fill="#ffb647" opacity="0.95"/><path d="m13 11 6 5-6 5" stroke="#FFFFFF" stroke-width="1.8" fill="none" stroke-linecap="round" stroke-linejoin="round"/>
  <text x="16" y="20.4" text-anchor="middle" font-family="Arial, Helvetica, sans-serif" font-size="9" font-weight="700" fill="#FFFFFF">EV</text>
</svg>
  <text text-anchor="middle" font-family="var(--font)" font-size="12" font-weight="600" fill="var(--node-text)">
  <tspan x="550" y="250">EventBridge Event</tspan>
  <tspan x="550" dy="18">Bus</tspan>
</text>
</g>
<g id="node-SNS" class="diagra-node" data-icon="aws-sns">
  <rect x="870" y="114" width="235" height="106" rx="8" fill="var(--node-bg)" stroke="var(--node-border)"/>
  <svg x="971.5" y="126" width="32" height="32" viewBox="0 0 32 32" role="img" aria-label="Amazon SNS">
  <path d="M16 2.8 27.6 9.4v13.2L16 29.2 4.4 22.6V9.4L16 2.8Z" fill="#FF9900"/>
  <path d="M16 6.8 25.2 16 16 25.2 6.8 16 16 6.8Z" fill="#ffb647" opacity="0.95"/><path d="m13 11 6 5-6 5" stroke="#FFFFFF" stroke-width="1.8" fill="none" stroke-linecap="round" stroke-linejoin="round"/>
  <text x="16" y="20.4" text-anchor="middle" font-family="Arial, Helvetica, sans-serif" font-size="7" font-weight="700" fill="#FFFFFF">SNS</text>
</svg>
  <text text-anchor="middle" font-family="var(--font)" font-size="12" font-weight="600" fill="var(--node-text)">
  <tspan x="987.5" y="176">Customer</tspan>
  <tspan x="987.5" dy="18">Notification Topic</tspan>
</text>
</g>
<g id="node-SQS" class="diagra-node" data-icon="aws-sqs">
  <rect x="870" y="262" width="160" height="88" rx="8" fill="var(--node-bg)" stroke="var(--node-border)"/>
  <svg x="934" y="274" width="32" height="32" viewBox="0 0 32 32" role="img" aria-label="Amazon SQS">
  <path d="M16 2.8 27.6 9.4v13.2L16 29.2 4.4 22.6V9.4L16 2.8Z" fill="#FF9900"/>
  <rect x="8" y="8" width="16" height="4.5" rx="2" fill="#ffb647"/><rect x="8" y="14" width="16" height="4.5" rx="2" fill="#ffb647"/><rect x="8" y="20" width="16" height="4.5" rx="2" fill="#ffb647"/>
  <text x="16" y="20.4" text-anchor="middle" font-family="Arial, Helvetica, sans-serif" font-size="7" font-weight="700" fill="#FFFFFF">SQS</text>
</svg>
  <text x="950" y="330" text-anchor="middle" font-family="var(--font)" font-size="12" font-weight="600" fill="var(--node-text)">Fulfillment Queue</text>
</g>
<g id="node-DLQ" class="diagra-node" data-icon="aws-sqs">
  <rect x="1285" y="188" width="160" height="88" rx="8" fill="var(--node-bg)" stroke="var(--node-border)"/>
  <svg x="1349" y="200" width="32" height="32" viewBox="0 0 32 32" role="img" aria-label="Amazon SQS">
  <path d="M16 2.8 27.6 9.4v13.2L16 29.2 4.4 22.6V9.4L16 2.8Z" fill="#FF9900"/>
  <rect x="8" y="8" width="16" height="4.5" rx="2" fill="#ffb647"/><rect x="8" y="14" width="16" height="4.5" rx="2" fill="#ffb647"/><rect x="8" y="20" width="16" height="4.5" rx="2" fill="#ffb647"/>
  <text x="16" y="20.4" text-anchor="middle" font-family="Arial, Helvetica, sans-serif" font-size="7" font-weight="700" fill="#FFFFFF">SQS</text>
</svg>
  <text x="1365" y="256" text-anchor="middle" font-family="var(--font)" font-size="12" font-weight="600" fill="var(--node-text)">Dead Letter Queue</text>
</g>
<g id="node-EmailWorker" class="diagra-node" data-icon="aws-lambda">
  <rect x="1285" y="40" width="190" height="106" rx="8" fill="var(--node-bg)" stroke="var(--node-border)"/>
  <svg x="1364" y="52" width="32" height="32" viewBox="0 0 32 32" role="img" aria-label="AWS Lambda">
  <path d="M16 2.8 27.6 9.4v13.2L16 29.2 4.4 22.6V9.4L16 2.8Z" fill="#FF9900"/>
  <rect x="8" y="8" width="16" height="16" rx="3" fill="#ffb647" opacity="0.95"/><path d="M11 6v4M16 6v4M21 6v4M11 22v4M16 22v4M21 22v4" stroke="#FFFFFF" stroke-width="1.1"/>
  <text x="16" y="20.4" text-anchor="middle" font-family="Arial, Helvetica, sans-serif" font-size="9" font-weight="700" fill="#FFFFFF">λ</text>
</svg>
  <text text-anchor="middle" font-family="var(--font)" font-size="12" font-weight="600" fill="var(--node-text)">
  <tspan x="1380" y="102">Email Lambda</tspan>
  <tspan x="1380" dy="18">Consumer</tspan>
</text>
</g>
<g id="node-FulfillmentWorker" class="diagra-node" data-icon="aws-lambda">
  <rect x="1285" y="336" width="235" height="106" rx="8" fill="var(--node-bg)" stroke="var(--node-border)"/>
  <svg x="1386.5" y="348" width="32" height="32" viewBox="0 0 32 32" role="img" aria-label="AWS Lambda">
  <path d="M16 2.8 27.6 9.4v13.2L16 29.2 4.4 22.6V9.4L16 2.8Z" fill="#FF9900"/>
  <rect x="8" y="8" width="16" height="16" rx="3" fill="#ffb647" opacity="0.95"/><path d="M11 6v4M16 6v4M21 6v4M11 22v4M16 22v4M21 22v4" stroke="#FFFFFF" stroke-width="1.1"/>
  <text x="16" y="20.4" text-anchor="middle" font-family="Arial, Helvetica, sans-serif" font-size="9" font-weight="700" fill="#FFFFFF">λ</text>
</svg>
  <text text-anchor="middle" font-family="var(--font)" font-size="12" font-weight="600" fill="var(--node-text)">
  <tspan x="1402.5" y="398">Fulfillment Lambda</tspan>
  <tspan x="1402.5" dy="18">Consumer</tspan>
</text>
</g>
<g id="node-CloudWatch" class="diagra-node" data-icon="aws-cloudwatch">
  <rect x="870" y="520" width="190" height="106" rx="8" fill="var(--node-bg)" stroke="var(--node-border)"/>
  <svg x="949" y="532" width="32" height="32" viewBox="0 0 32 32" role="img" aria-label="Amazon CloudWatch">
  <path d="M16 2.8 27.6 9.4v13.2L16 29.2 4.4 22.6V9.4L16 2.8Z" fill="#FF9900"/>
  <path d="M16 6.8 25.2 16 16 25.2 6.8 16 16 6.8Z" fill="#ffb647" opacity="0.95"/><path d="m13 11 6 5-6 5" stroke="#FFFFFF" stroke-width="1.8" fill="none" stroke-linecap="round" stroke-linejoin="round"/>
  <text x="16" y="20.4" text-anchor="middle" font-family="Arial, Helvetica, sans-serif" font-size="9" font-weight="700" fill="#FFFFFF">CW</text>
</svg>
  <text text-anchor="middle" font-family="var(--font)" font-size="12" font-weight="600" fill="var(--node-text)">
  <tspan x="965" y="582">CloudWatch</tspan>
  <tspan x="965" dy="18">Monitoring</tspan>
</text>
</g>
</g>
</svg>