<svg xmlns="http://www.w3.org/2000/svg" width="1400" height="1600" viewBox="0 0 1400 1600" role="img">
<style>
:root {
  --bg: #0F172A;
  --node-bg: #1E293B;
  --node-border: #334155;
  --node-text: #F1F5F9;
  --edge-color: #475569;
  --edge-label: #CBD5E1;
  --accent: #818CF8;
  --font: 'Inter', sans-serif;
}
.diagra-node { filter: drop-shadow(0 10px 18px rgba(15, 23, 42, 0.10)); }
.diagra-edge { stroke-linecap: round; }
</style>
<defs>
  <marker id="arrow" markerWidth="10" markerHeight="10" refX="8" refY="3" orient="auto" markerUnits="strokeWidth">
    <path d="M0,0 L0,6 L9,3 z" fill="var(--edge-color)"/>
  </marker>
</defs>
<rect width="100%" height="100%" fill="var(--bg)"/>

<g transform="translate(0, 0)">
<g class="diagra-edge-label">
  <path id="edge-1" class="diagra-edge" d="M 135 146 C 183 146, 79.5 188, 127.5 188" stroke="var(--edge-color)" stroke-width="1.7" fill="none" marker-end="url(#arrow)"/>
  <rect x="67.25" y="156.5" width="128" height="16" rx="2" fill="var(--bg)" opacity="0.85"/>
  <text x="131.25" y="166.5" text-anchor="middle" font-family="var(--font)" font-size="10" font-weight="600" fill="var(--edge-label)">Streaming Events</text>
</g>
<g class="diagra-edge-label">
  <path id="edge-2" class="diagra-edge" d="M 135 146 C 183 146, 68 336, 116 336" stroke="var(--edge-color)" stroke-width="1.7" fill="none" marker-end="url(#arrow)"/>
  <rect x="79" y="278.5" width="93" height="16" rx="2" fill="var(--bg)" opacity="0.85"/>
  <text x="125.5" y="288.5" text-anchor="middle" font-family="var(--font)" font-size="10" font-weight="600" fill="var(--edge-label)">Batch Files</text>
</g>
<g class="diagra-edge-label">
  <path id="edge-3" class="diagra-edge" d="M 127.5 276 C 175.5 276, 68 336, 116 336" stroke="var(--edge-color)" stroke-width="1.7" fill="none" marker-end="url(#arrow)"/>
  <rect x="61.25" y="300" width="121" height="16" rx="2" fill="var(--bg)" opacity="0.85"/>
  <text x="121.75" y="310" text-anchor="middle" font-family="var(--font)" font-size="10" font-weight="600" fill="var(--edge-label)">Delivery Stream</text>
</g>
<g class="diagra-edge-label">
  <path id="edge-4" class="diagra-edge" d="M 116 424 C 164 424, 57 484, 105 484" stroke="var(--edge-color)" stroke-width="1.7" fill="none" marker-end="url(#arrow)"/>
  <rect x="36" y="432" width="149" height="16" rx="2" fill="var(--bg)" opacity="0.85"/>
  <text x="110.5" y="442" text-anchor="middle" font-family="var(--font)" font-size="10" font-weight="600" fill="var(--edge-label)">Crawl and Transform</text>
</g>
<g class="diagra-edge-label">
  <path id="edge-5" class="diagra-edge" d="M 105 572 C 153 572, 64.5 632, 112.5 632" stroke="var(--edge-color)" stroke-width="1.7" fill="none" marker-end="url(#arrow)"/>
  <rect x="48.25" y="580" width="121" height="16" rx="2" fill="var(--bg)" opacity="0.85"/>
  <text x="108.75" y="590" text-anchor="middle" font-family="var(--font)" font-size="10" font-weight="600" fill="var(--edge-label)">Curated Parquet</text>
</g>
<g class="diagra-edge-label">
  <path id="edge-6" class="diagra-edge" d="M 112.5 720 C 160.5 720, 75.5 780, 123.5 780" stroke="var(--edge-color)" stroke-width="1.7" fill="none" marker-end="url(#arrow)"/>
  <rect x="75" y="728" width="86" height="16" rx="2" fill="var(--bg)" opacity="0.85"/>
  <text x="118" y="738" text-anchor="middle" font-family="var(--font)" font-size="10" font-weight="600" fill="var(--edge-label)">Ad Hoc SQL</text>
</g>
<g class="diagra-edge-label">
  <path id="edge-7" class="diagra-edge" d="M 112.5 720 C 160.5 720, 75.5 928, 123.5 928" stroke="var(--edge-color)" stroke-width="1.7" fill="none" marker-end="url(#arrow)"/>
  <rect x="61" y="882" width="114" height="16" rx="2" fill="var(--bg)" opacity="0.85"/>
  <text x="118" y="892" text-anchor="middle" font-family="var(--font)" font-size="10" font-weight="600" fill="var(--edge-label)">Load Warehouse</text>
</g>
<g class="diagra-edge-label">
  <path id="edge-8" class="diagra-edge" d="M 123.5 1016 C 171.5 1016, 87 1076, 135 1076" stroke="var(--edge-color)" stroke-width="1.7" fill="none" marker-end="url(#arrow)"/>
  <rect x="61.75" y="1028.5" width="135" height="16" rx="2" fill="var(--bg)" opacity="0.85"/>
  <text x="129.25" y="1038.5" text-anchor="middle" font-family="var(--font)" font-size="10" font-weight="600" fill="var(--edge-label)">Training Features</text>
</g>
<g class="diagra-edge-label">
  <path id="edge-9" class="diagra-edge" d="M 123.5 868 C 171.5 868, 87 1224, 135 1224" stroke="var(--edge-color)" stroke-width="1.7" fill="none" marker-end="url(#arrow)"/>
  <rect x="86.25" y="1060.5" width="86" height="16" rx="2" fill="var(--bg)" opacity="0.85"/>
  <text x="129.25" y="1070.5" text-anchor="middle" font-family="var(--font)" font-size="10" font-weight="600" fill="var(--edge-label)">BI Queries</text>
</g>
<g class="diagra-edge-label">
  <path id="edge-10" class="diagra-edge" d="M 123.5 1016 C 171.5 1016, 87 1224, 135 1224" stroke="var(--edge-color)" stroke-width="1.7" fill="none" marker-end="url(#arrow)"/>
  <rect x="89.75" y="1198.5" width="79" height="16" rx="2" fill="var(--bg)" opacity="0.85"/>
  <text x="129.25" y="1208.5" text-anchor="middle" font-family="var(--font)" font-size="10" font-weight="600" fill="var(--edge-label)">BI Models</text>
</g>
<g class="diagra-edge-label">
  <path id="edge-11" class="diagra-edge" d="M 105 572 C 153 572, 79.5 1372, 127.5 1372" stroke="var(--edge-color)" stroke-width="1" fill="none" marker-end="url(#arrow)" stroke-dasharray="6 5" opacity="0.4"/>
  <rect x="69.75" y="1334" width="93" height="16" rx="2" fill="var(--bg)" opacity="0.85"/>
  <text x="116.25" y="1344" text-anchor="middle" font-family="var(--font)" font-size="10" font-weight="600" fill="var(--edge-label)">Job Metrics</text>
</g>
<g class="diagra-edge-label">
  <path id="edge-12" class="diagra-edge" d="M 127.5 276 C 175.5 276, 79.5 1372, 127.5 1372" stroke="var(--edge-color)" stroke-width="1" fill="none" marker-end="url(#arrow)" stroke-dasharray="6 5" opacity="0.4"/>
  <rect x="70.5" y="914" width="114" height="16" rx="2" fill="var(--bg)" opacity="0.85"/>
  <text x="127.5" y="924" text-anchor="middle" font-family="var(--font)" font-size="10" font-weight="600" fill="var(--edge-label)">Stream Metrics</text>
</g>
<circle r="4" fill="var(--accent)" opacity="0.9">
  <animateMotion dur="1.5s" begin="0s" repeatCount="indefinite">
    <mpath href="#edge-1"/>
  </animateMotion>
</circle>
<circle r="4" fill="var(--accent)" opacity="0.9">
  <animateMotion dur="1.5s" begin="0.2s" repeatCount="indefinite">
    <mpath href="#edge-2"/>
  </animateMotion>
</circle>
<circle r="4" fill="var(--accent)" opacity="0.9">
  <animateMotion dur="1.5s" begin="0.4s" repeatCount="indefinite">
    <mpath href="#edge-3"/>
  </animateMotion>
</circle>
<circle r="4" fill="var(--accent)" opacity="0.9">
  <animateMotion dur="1.5s" begin="0.6000000000000001s" repeatCount="indefinite">
    <mpath href="#edge-4"/>
  </animateMotion>
</circle>
<circle r="4" fill="var(--accent)" opacity="0.9">
  <animateMotion dur="1.5s" begin="0.8s" repeatCount="indefinite">
    <mpath href="#edge-5"/>
  </animateMotion>
</circle>
<circle r="4" fill="var(--accent)" opacity="0.9">
  <animateMotion dur="1.5s" begin="1s" repeatCount="indefinite">
    <mpath href="#edge-6"/>
  </animateMotion>
</circle>
<circle r="4" fill="var(--accent)" opacity="0.9">
  <animateMotion dur="1.5s" begin="1.2000000000000002s" repeatCount="indefinite">
    <mpath href="#edge-7"/>
  </animateMotion>
</circle>
<circle r="4" fill="var(--accent)" opacity="0.9">
  <animateMotion dur="1.5s" begin="1.4000000000000001s" repeatCount="indefinite">
    <mpath href="#edge-8"/>
  </animateMotion>
</circle>
<circle r="4" fill="var(--accent)" opacity="0.9">
  <animateMotion dur="1.5s" begin="1.6s" repeatCount="indefinite">
    <mpath href="#edge-9"/>
  </animateMotion>
</circle>
<circle r="4" fill="var(--accent)" opacity="0.9">
  <animateMotion dur="1.5s" begin="1.8s" repeatCount="indefinite">
    <mpath href="#edge-10"/>
  </animateMotion>
</circle>
<circle r="4" fill="var(--accent)" opacity="0.9">
  <animateMotion dur="1.5s" begin="2s" repeatCount="indefinite">
    <mpath href="#edge-11"/>
  </animateMotion>
</circle>
<circle r="4" fill="var(--accent)" opacity="0.9">
  <animateMotion dur="1.5s" begin="2.2s" repeatCount="indefinite">
    <mpath href="#edge-12"/>
  </animateMotion>
</circle>
<g id="node-Producers" class="diagra-node" data-icon="generic-server">
  <rect x="40" y="40" width="190" height="106" rx="8" fill="var(--node-bg)" stroke="var(--node-border)"/>
  <svg x="119" y="52" width="32" height="32" viewBox="0 0 32 32" role="img" aria-label="server"><rect x="5" y="6" width="22" height="20" rx="3" fill="#64748B"/><path d="M9 12h14M9 18h14" stroke="#fff" stroke-width="2"/><circle cx="11" cy="23" r="1.5" fill="#fff"/></svg>

  <text text-anchor="middle" font-family="var(--font)" font-size="12" font-weight="600" fill="var(--node-text)">
  <tspan x="135" y="102">Application</tspan>
  <tspan x="135" dy="18">Producers</tspan>
</text>
</g>
<g id="node-Kinesis" class="diagra-node" data-icon="aws-kinesis">
  <rect x="40" y="188" width="175" height="88" rx="8" fill="var(--node-bg)" stroke="var(--node-border)"/>
  <svg x="111.5" y="200" width="32" height="32" viewBox="0 0 32 32" role="img" aria-label="Amazon Kinesis">
  <path d="M16 2.8 27.6 9.4v13.2L16 29.2 4.4 22.6V9.4L16 2.8Z" fill="#FF9900"/>
  <path d="M16 6.8 25.2 16 16 25.2 6.8 16 16 6.8Z" fill="#ffb647" opacity="0.95"/><path d="m13 11 6 5-6 5" stroke="#FFFFFF" stroke-width="1.8" fill="none" stroke-linecap="round" stroke-linejoin="round"/>
  <text x="16" y="20.4" text-anchor="middle" font-family="Arial, Helvetica, sans-serif" font-size="7" font-weight="700" fill="#FFFFFF">KIN</text>
</svg>
  <text x="127.5" y="256" text-anchor="middle" font-family="var(--font)" font-size="12" font-weight="600" fill="var(--node-text)">Kinesis Data Stream</text>
</g>
<g id="node-RawS3" class="diagra-node" data-icon="aws-s3">
  <rect x="40" y="336" width="152" height="88" rx="8" fill="var(--node-bg)" stroke="var(--node-border)"/>
  <svg x="100" y="348" width="32" height="32" viewBox="0 0 32 32" role="img" aria-label="Amazon S3">
  <path d="M16 2.8 27.6 9.4v13.2L16 29.2 4.4 22.6V9.4L16 2.8Z" fill="#FF9900"/>
  <path d="M16 6 25 11v10l-9 5-9-5V11l9-5Z" fill="#ffb647" opacity="0.95"/><path d="M10 13h12M10 18h12" stroke="#FFFFFF" stroke-width="1.4" stroke-linecap="round"/>
  <text x="16" y="20.4" text-anchor="middle" font-family="Arial, Helvetica, sans-serif" font-size="9" font-weight="700" fill="#FFFFFF">S3</text>
</svg>
  <text x="116" y="404" text-anchor="middle" font-family="var(--font)" font-size="12" font-weight="600" fill="var(--node-text)">S3 Raw Data Lake</text>
</g>
<g id="node-Glue" class="diagra-node" data-icon="aws-glue">
  <rect x="40" y="484" width="130" height="88" rx="8" fill="var(--node-bg)" stroke="var(--node-border)"/>
  <svg x="89" y="496" width="32" height="32" viewBox="0 0 32 32" role="img" aria-label="AWS Glue">
  <path d="M16 2.8 27.6 9.4v13.2L16 29.2 4.4 22.6V9.4L16 2.8Z" fill="#FF9900"/>
  <path d="M16 6.8 25.2 16 16 25.2 6.8 16 16 6.8Z" fill="#ffb647" opacity="0.95"/><path d="m13 11 6 5-6 5" stroke="#FFFFFF" stroke-width="1.8" fill="none" stroke-linecap="round" stroke-linejoin="round"/>
  <text x="16" y="20.4" text-anchor="middle" font-family="Arial, Helvetica, sans-serif" font-size="9" font-weight="700" fill="#FFFFFF">GL</text>
</svg>
  <text x="105" y="552" text-anchor="middle" font-family="var(--font)" font-size="12" font-weight="600" fill="var(--node-text)">Glue ETL Jobs</text>
</g>
<g id="node-CuratedS3" class="diagra-node" data-icon="aws-s3">
  <rect x="40" y="632" width="145" height="88" rx="8" fill="var(--node-bg)" stroke="var(--node-border)"/>
  <svg x="96.5" y="644" width="32" height="32" viewBox="0 0 32 32" role="img" aria-label="Amazon S3">
  <path d="M16 2.8 27.6 9.4v13.2L16 29.2 4.4 22.6V9.4L16 2.8Z" fill="#FF9900"/>
  <path d="M16 6 25 11v10l-9 5-9-5V11l9-5Z" fill="#ffb647" opacity="0.95"/><path d="M10 13h12M10 18h12" stroke="#FFFFFF" stroke-width="1.4" stroke-linecap="round"/>
  <text x="16" y="20.4" text-anchor="middle" font-family="Arial, Helvetica, sans-serif" font-size="9" font-weight="700" fill="#FFFFFF">S3</text>
</svg>
  <text x="112.5" y="700" text-anchor="middle" font-family="var(--font)" font-size="12" font-weight="600" fill="var(--node-text)">S3 Curated Zone</text>
</g>
<g id="node-Athena" class="diagra-node" data-icon="aws-athena">
  <rect x="40" y="780" width="167" height="88" rx="8" fill="var(--node-bg)" stroke="var(--node-border)"/>
  <svg x="107.5" y="792" width="32" height="32" viewBox="0 0 32 32" role="img" aria-label="Amazon Athena">
  <path d="M16 2.8 27.6 9.4v13.2L16 29.2 4.4 22.6V9.4L16 2.8Z" fill="#FF9900"/>
  <ellipse cx="16" cy="9" rx="8.5" ry="3.4" fill="#ffb647"/><path d="M7.5 9v12c0 1.9 3.8 3.4 8.5 3.4s8.5-1.5 8.5-3.4V9" fill="#ffb647"/><path d="M7.5 15c0 1.9 3.8 3.4 8.5 3.4s8.5-1.5 8.5-3.4" stroke="#FFFFFF" stroke-width="1.2" fill="none"/>
  <text x="16" y="20.4" text-anchor="middle" font-family="Arial, Helvetica, sans-serif" font-size="9" font-weight="700" fill="#FFFFFF">AT</text>
</svg>
  <text x="123.5" y="848" text-anchor="middle" font-family="var(--font)" font-size="12" font-weight="600" fill="var(--node-text)">Athena Query Layer</text>
</g>
<g id="node-Redshift" class="diagra-node" data-icon="aws-redshift">
  <rect x="40" y="928" width="167" height="88" rx="8" fill="var(--node-bg)" stroke="var(--node-border)"/>
  <svg x="107.5" y="940" width="32" height="32" viewBox="0 0 32 32" role="img" aria-label="Amazon Redshift">
  <path d="M16 2.8 27.6 9.4v13.2L16 29.2 4.4 22.6V9.4L16 2.8Z" fill="#FF9900"/>
  <ellipse cx="16" cy="9" rx="8.5" ry="3.4" fill="#ffb647"/><path d="M7.5 9v12c0 1.9 3.8 3.4 8.5 3.4s8.5-1.5 8.5-3.4V9" fill="#ffb647"/><path d="M7.5 15c0 1.9 3.8 3.4 8.5 3.4s8.5-1.5 8.5-3.4" stroke="#FFFFFF" stroke-width="1.2" fill="none"/>
  <text x="16" y="20.4" text-anchor="middle" font-family="Arial, Helvetica, sans-serif" font-size="9" font-weight="700" fill="#FFFFFF">RS</text>
</svg>
  <text x="123.5" y="996" text-anchor="middle" font-family="var(--font)" font-size="12" font-weight="600" fill="var(--node-text)">Redshift Warehouse</text>
</g>
<g id="node-SageMaker" class="diagra-node" data-icon="aws-sagemaker">
  <rect x="40" y="1076" width="190" height="106" rx="8" fill="var(--node-bg)" stroke="var(--node-border)"/>
  <svg x="119" y="1088" width="32" height="32" viewBox="0 0 32 32" role="img" aria-label="Amazon SageMaker">
  <path d="M16 2.8 27.6 9.4v13.2L16 29.2 4.4 22.6V9.4L16 2.8Z" fill="#FF9900"/>
  <rect x="8" y="8" width="16" height="16" rx="3" fill="#ffb647" opacity="0.95"/><path d="M11 6v4M16 6v4M21 6v4M11 22v4M16 22v4M21 22v4" stroke="#FFFFFF" stroke-width="1.1"/>
  <text x="16" y="20.4" text-anchor="middle" font-family="Arial, Helvetica, sans-serif" font-size="9" font-weight="700" fill="#FFFFFF">SM</text>
</svg>
  <text text-anchor="middle" font-family="var(--font)" font-size="12" font-weight="600" fill="var(--node-text)">
  <tspan x="135" y="1138">SageMaker ML</tspan>
  <tspan x="135" dy="18">Training</tspan>
</text>
</g>
<g id="node-QuickSight" class="diagra-node" data-icon="generic-browser">
  <rect x="40" y="1224" width="190" height="106" rx="8" fill="var(--node-bg)" stroke="var(--node-border)"/>
  <svg x="119" y="1236" width="32" height="32" viewBox="0 0 32 32" role="img" aria-label="browser"><rect x="4" y="6" width="24" height="20" rx="3" fill="#64748B"/><path d="M4 12h24" stroke="#fff" stroke-width="2"/><circle cx="9" cy="9" r="1" fill="#fff"/><circle cx="13" cy="9" r="1" fill="#fff"/></svg>

  <text text-anchor="middle" font-family="var(--font)" font-size="12" font-weight="600" fill="var(--node-text)">
  <tspan x="135" y="1286">QuickSight</tspan>
  <tspan x="135" dy="18">Dashboards</tspan>
</text>
</g>
<g id="node-CloudWatch" class="diagra-node" data-icon="aws-cloudwatch">
  <rect x="40" y="1372" width="175" height="88" rx="8" fill="var(--node-bg)" stroke="var(--node-border)"/>
  <svg x="111.5" y="1384" width="32" height="32" viewBox="0 0 32 32" role="img" aria-label="Amazon CloudWatch">
  <path d="M16 2.8 27.6 9.4v13.2L16 29.2 4.4 22.6V9.4L16 2.8Z" fill="#FF9900"/>
  <path d="M16 6.8 25.2 16 16 25.2 6.8 16 16 6.8Z" fill="#ffb647" opacity="0.95"/><path d="m13 11 6 5-6 5" stroke="#FFFFFF" stroke-width="1.8" fill="none" stroke-linecap="round" stroke-linejoin="round"/>
  <text x="16" y="20.4" text-anchor="middle" font-family="Arial, Helvetica, sans-serif" font-size="9" font-weight="700" fill="#FFFFFF">CW</text>
</svg>
  <text x="127.5" y="1440" text-anchor="middle" font-family="var(--font)" font-size="12" font-weight="600" fill="var(--node-text)">Pipeline Monitoring</text>
</g>
</g>
</svg>