<svg xmlns="http://www.w3.org/2000/svg" width="3440" height="960" viewBox="0 0 3440 960" role="img">
<style>
:root {
  --bg: #FFFFFF;
  --node-bg: #F8F9FA;
  --node-border: #E2E8F0;
  --node-text: #1A202C;
  --edge-color: #94A3B8;
  --edge-label: #64748B;
  --accent: #6366F1;
  --font: 'Inter', sans-serif;
}
.diagra-node { filter: drop-shadow(0 10px 18px rgba(15, 23, 42, 0.10)); }
.diagra-edge { stroke-linecap: round; }
</style>
<defs>
  <marker id="arrow" markerWidth="10" markerHeight="10" refX="8" refY="3" orient="auto" markerUnits="strokeWidth">
    <path d="M0,0 L0,6 L9,3 z" fill="var(--edge-color)"/>
  </marker>
</defs>
<rect width="100%" height="100%" fill="var(--bg)"/>

<g transform="translate(0, 0)">
<g class="diagra-edge-label">
  <path id="edge-1" class="diagra-edge" d="M 160 84 C 286 84, 314 232, 440 232" stroke="var(--edge-color)" stroke-width="1.7" fill="none" marker-end="url(#arrow)"/>
  <rect x="257" y="136" width="86" height="16" rx="2" fill="var(--bg)" opacity="0.85"/>
  <text x="300" y="146" text-anchor="middle" font-family="var(--font)" font-size="10" font-weight="600" fill="var(--edge-label)">DNS Lookup</text>
</g>
<g class="diagra-edge-label">
  <path id="edge-2" class="diagra-edge" d="M 560 232 L 840 232" stroke="var(--edge-color)" stroke-width="1.7" fill="none" marker-end="url(#arrow)"/>
  <rect x="654.25" y="210" width="100" height="16" rx="2" fill="var(--bg)" opacity="0.85"/>
  <text x="704.25" y="220" text-anchor="middle" font-family="var(--font)" font-size="10" font-weight="600" fill="var(--edge-label)">Resolve Edge</text>
</g>
<g class="diagra-edge-label">
  <path id="edge-3" class="diagra-edge" d="M 977 232 C 1095.35 232, 1121.65 241, 1240 241" stroke="var(--edge-color)" stroke-width="1.7" fill="none" marker-end="url(#arrow)"/>
  <rect x="1079.25" y="230.5" width="100" height="16" rx="2" fill="var(--bg)" opacity="0.85"/>
  <text x="1129.25" y="240.5" text-anchor="middle" font-family="var(--font)" font-size="10" font-weight="600" fill="var(--edge-label)">HTTPS Origin</text>
</g>
<g class="diagra-edge-label">
  <path id="edge-4" class="diagra-edge" d="M 1460 241 C 1541 241, 1559 232, 1640 232" stroke="var(--edge-color)" stroke-width="1.7" fill="none" marker-end="url(#arrow)"/>
  <rect x="1475.75" y="262.5" width="107" height="16" rx="2" fill="var(--bg)" opacity="0.85"/>
  <text x="1529.25" y="272.5" text-anchor="middle" font-family="var(--font)" font-size="10" font-weight="600" fill="var(--edge-label)">Route Traffic</text>
</g>
<g class="diagra-edge-label">
  <path id="edge-5" class="diagra-edge" d="M 1777 232 L 2040 232" stroke="var(--edge-color)" stroke-width="1.7" fill="none" marker-end="url(#arrow)"/>
  <rect x="1843.5" y="290" width="149" height="16" rx="2" fill="var(--bg)" opacity="0.85"/>
  <text x="1918" y="300" text-anchor="middle" font-family="var(--font)" font-size="10" font-weight="600" fill="var(--edge-label)">Forward to Services</text>
</g>
<g class="diagra-edge-label">
  <path id="edge-6" class="diagra-edge" d="M 2215 232 L 2440 232" stroke="var(--edge-color)" stroke-width="1.7" fill="none" marker-end="url(#arrow)"/>
  <rect x="2301.5" y="322" width="52" height="16" rx="2" fill="var(--bg)" opacity="0.85"/>
  <text x="2327.5" y="332" text-anchor="middle" font-family="var(--font)" font-size="10" font-weight="600" fill="var(--edge-label)">Hosts</text>
</g>
<g class="diagra-edge-label">
  <path id="edge-7" class="diagra-edge" d="M 2615 232 L 2840 232" stroke="var(--edge-color)" stroke-width="1.7" fill="none" marker-end="url(#arrow)"/>
  <rect x="2673.25" y="354" width="86" height="16" rx="2" fill="var(--bg)" opacity="0.85"/>
  <text x="2716.25" y="364" text-anchor="middle" font-family="var(--font)" font-size="10" font-weight="600" fill="var(--edge-label)">Runs Tasks</text>
</g>
<g class="diagra-edge-label">
  <path id="edge-8" class="diagra-edge" d="M 207 380 C 1391.8500000000001 380, 1655.1499999999999 232, 2840 232" stroke="var(--edge-color)" stroke-width="1.7" fill="none" marker-end="url(#arrow)"/>
  <rect x="1467.75" y="380" width="93" height="16" rx="2" fill="var(--bg)" opacity="0.85"/>
  <text x="1514.25" y="390" text-anchor="middle" font-family="var(--font)" font-size="10" font-weight="600" fill="var(--edge-label)">Pull Images</text>
</g>
<g class="diagra-edge-label">
  <path id="edge-9" class="diagra-edge" d="M 2970 232 C 3091.5 232, 3118.5 158, 3240 158" stroke="var(--edge-color)" stroke-width="1.7" fill="none" marker-end="url(#arrow)"/>
  <rect x="3060.25" y="173" width="93" height="16" rx="2" fill="var(--bg)" opacity="0.85"/>
  <text x="3106.75" y="183" text-anchor="middle" font-family="var(--font)" font-size="10" font-weight="600" fill="var(--edge-label)">SQL Queries</text>
</g>
<g class="diagra-edge-label">
  <path id="edge-10" class="diagra-edge" d="M 2970 232 C 3091.5 232, 3118.5 306, 3240 306" stroke="var(--edge-color)" stroke-width="1.7" fill="none" marker-end="url(#arrow)"/>
  <rect x="3066" y="407" width="93" height="16" rx="2" fill="var(--bg)" opacity="0.85"/>
  <text x="3112.5" y="417" text-anchor="middle" font-family="var(--font)" font-size="10" font-weight="600" fill="var(--edge-label)">Cache Reads</text>
</g>
<g class="diagra-edge-label">
  <path id="edge-11" class="diagra-edge" d="M 177 232 L 1640 232" stroke="var(--edge-color)" stroke-width="1.7" fill="none" marker-end="url(#arrow)"/>
  <rect x="872.5" y="434" width="72" height="16" rx="2" fill="var(--bg)" opacity="0.85"/>
  <text x="908.5" y="444" text-anchor="middle" font-family="var(--font)" font-size="10" font-weight="600" fill="var(--edge-label)">Contains</text>
</g>
<g class="diagra-edge-label">
  <path id="edge-12" class="diagra-edge" d="M 177 232 L 2040 232" stroke="var(--edge-color)" stroke-width="1.7" fill="none" marker-end="url(#arrow)"/>
  <rect x="1082" y="466" width="72" height="16" rx="2" fill="var(--bg)" opacity="0.85"/>
  <text x="1118" y="476" text-anchor="middle" font-family="var(--font)" font-size="10" font-weight="600" fill="var(--edge-label)">Contains</text>
</g>
<g class="diagra-edge-label">
  <path id="edge-13" class="diagra-edge" d="M 2905 276 C 2953 276, 2894.5 520, 2942.5 520" stroke="var(--edge-color)" stroke-width="1" fill="none" marker-end="url(#arrow)" stroke-dasharray="6 5" opacity="0.4"/>
  <rect x="2859.75" y="492.5" width="128" height="16" rx="2" fill="var(--bg)" opacity="0.85"/>
  <text x="2923.75" y="502.5" text-anchor="middle" font-family="var(--font)" font-size="10" font-weight="600" fill="var(--edge-label)">Logs and Metrics</text>
</g>

<g id="node-Users" class="diagra-node" data-icon="generic-browser">
  <rect x="40" y="40" width="120" height="88" rx="8" fill="var(--node-bg)" stroke="var(--node-border)"/>
  <svg x="84" y="52" width="32" height="32" viewBox="0 0 32 32" role="img" aria-label="browser"><rect x="4" y="6" width="24" height="20" rx="3" fill="#64748B"/><path d="M4 12h24" stroke="#fff" stroke-width="2"/><circle cx="9" cy="9" r="1" fill="#fff"/><circle cx="13" cy="9" r="1" fill="#fff"/></svg>

  <text x="100" y="108" text-anchor="middle" font-family="var(--font)" font-size="12" font-weight="600" fill="var(--node-text)">Customers</text>
</g>
<g id="node-Route53" class="diagra-node" data-icon="aws-route53">
  <rect x="440" y="188" width="120" height="88" rx="8" fill="var(--node-bg)" stroke="var(--node-border)"/>
  <svg x="484" y="200" width="32" height="32" viewBox="0 0 32 32" role="img" aria-label="Amazon Route 53">
  <path d="M16 2.8 27.6 9.4v13.2L16 29.2 4.4 22.6V9.4L16 2.8Z" fill="#FF9900"/>
  <circle cx="10" cy="11" r="3" fill="#ffb647"/><circle cx="22" cy="11" r="3" fill="#ffb647"/><circle cx="16" cy="22" r="3" fill="#ffb647"/><path d="M12.5 12.5 15 19M19.5 12.5 17 19M13 11h6" stroke="#FFFFFF" stroke-width="1.3"/>
  <text x="16" y="20.4" text-anchor="middle" font-family="Arial, Helvetica, sans-serif" font-size="7" font-weight="700" fill="#FFFFFF">R53</text>
</svg>
  <text x="500" y="256" text-anchor="middle" font-family="var(--font)" font-size="12" font-weight="600" fill="var(--node-text)">Route53 DNS</text>
</g>
<g id="node-CloudFront" class="diagra-node" data-icon="aws-cloudfront">
  <rect x="840" y="188" width="137" height="88" rx="8" fill="var(--node-bg)" stroke="var(--node-border)"/>
  <svg x="892.5" y="200" width="32" height="32" viewBox="0 0 32 32" role="img" aria-label="Amazon CloudFront">
  <path d="M16 2.8 27.6 9.4v13.2L16 29.2 4.4 22.6V9.4L16 2.8Z" fill="#FF9900"/>
  <circle cx="16" cy="16" r="8.5" fill="#ffb647" opacity="0.9"/><path d="M8 16h16M16 8c2 2.4 3 5 3 8s-1 5.6-3 8M16 8c-2 2.4-3 5-3 8s1 5.6 3 8" stroke="#FFFFFF" stroke-width="1.1" fill="none"/>
  <text x="16" y="20.4" text-anchor="middle" font-family="Arial, Helvetica, sans-serif" font-size="9" font-weight="700" fill="#FFFFFF">CF</text>
</svg>
  <text x="908.5" y="256" text-anchor="middle" font-family="var(--font)" font-size="12" font-weight="600" fill="var(--node-text)">CloudFront CDN</text>
</g>
<g id="node-ELB" class="diagra-node" data-icon="aws-elb">
  <rect x="1240" y="188" width="220" height="106" rx="8" fill="var(--node-bg)" stroke="var(--node-border)"/>
  <svg x="1334" y="200" width="32" height="32" viewBox="0 0 32 32" role="img" aria-label="Elastic Load Balancing">
  <path d="M16 2.8 27.6 9.4v13.2L16 29.2 4.4 22.6V9.4L16 2.8Z" fill="#FF9900"/>
  <path d="M7 12h18v8H7z" fill="#ffb647" opacity="0.95"/><path d="M10 16h12M18 12l4 4-4 4" stroke="#FFFFFF" stroke-width="1.5" fill="none" stroke-linecap="round" stroke-linejoin="round"/>
  <text x="16" y="20.4" text-anchor="middle" font-family="Arial, Helvetica, sans-serif" font-size="7" font-weight="700" fill="#FFFFFF">ELB</text>
</svg>
  <text text-anchor="middle" font-family="var(--font)" font-size="12" font-weight="600" fill="var(--node-text)">
  <tspan x="1350" y="250">Application Load</tspan>
  <tspan x="1350" dy="18">Balancer</tspan>
</text>
</g>
<g id="node-VPC" class="diagra-node" data-icon="aws-vpc">
  <rect x="40" y="188" width="137" height="88" rx="8" fill="var(--node-bg)" stroke="var(--node-border)"/>
  <svg x="92.5" y="200" width="32" height="32" viewBox="0 0 32 32" role="img" aria-label="Amazon VPC">
  <path d="M16 2.8 27.6 9.4v13.2L16 29.2 4.4 22.6V9.4L16 2.8Z" fill="#FF9900"/>
  <circle cx="10" cy="11" r="3" fill="#ffb647"/><circle cx="22" cy="11" r="3" fill="#ffb647"/><circle cx="16" cy="22" r="3" fill="#ffb647"/><path d="M12.5 12.5 15 19M19.5 12.5 17 19M13 11h6" stroke="#FFFFFF" stroke-width="1.3"/>
  <text x="16" y="20.4" text-anchor="middle" font-family="Arial, Helvetica, sans-serif" font-size="7" font-weight="700" fill="#FFFFFF">VPC</text>
</svg>
  <text x="108.5" y="256" text-anchor="middle" font-family="var(--font)" font-size="12" font-weight="600" fill="var(--node-text)">Production VPC</text>
</g>
<g id="node-PublicSubnet" class="diagra-node" data-icon="aws-vpc">
  <rect x="1640" y="188" width="137" height="88" rx="8" fill="var(--node-bg)" stroke="var(--node-border)"/>
  <svg x="1692.5" y="200" width="32" height="32" viewBox="0 0 32 32" role="img" aria-label="Amazon VPC">
  <path d="M16 2.8 27.6 9.4v13.2L16 29.2 4.4 22.6V9.4L16 2.8Z" fill="#FF9900"/>
  <circle cx="10" cy="11" r="3" fill="#ffb647"/><circle cx="22" cy="11" r="3" fill="#ffb647"/><circle cx="16" cy="22" r="3" fill="#ffb647"/><path d="M12.5 12.5 15 19M19.5 12.5 17 19M13 11h6" stroke="#FFFFFF" stroke-width="1.3"/>
  <text x="16" y="20.4" text-anchor="middle" font-family="Arial, Helvetica, sans-serif" font-size="7" font-weight="700" fill="#FFFFFF">VPC</text>
</svg>
  <text x="1708.5" y="256" text-anchor="middle" font-family="var(--font)" font-size="12" font-weight="600" fill="var(--node-text)">Public Subnets</text>
</g>
<g id="node-PrivateSubnet" class="diagra-node" data-icon="aws-vpc">
  <rect x="2040" y="188" width="175" height="88" rx="8" fill="var(--node-bg)" stroke="var(--node-border)"/>
  <svg x="2111.5" y="200" width="32" height="32" viewBox="0 0 32 32" role="img" aria-label="Amazon VPC">
  <path d="M16 2.8 27.6 9.4v13.2L16 29.2 4.4 22.6V9.4L16 2.8Z" fill="#FF9900"/>
  <circle cx="10" cy="11" r="3" fill="#ffb647"/><circle cx="22" cy="11" r="3" fill="#ffb647"/><circle cx="16" cy="22" r="3" fill="#ffb647"/><path d="M12.5 12.5 15 19M19.5 12.5 17 19M13 11h6" stroke="#FFFFFF" stroke-width="1.3"/>
  <text x="16" y="20.4" text-anchor="middle" font-family="Arial, Helvetica, sans-serif" font-size="7" font-weight="700" fill="#FFFFFF">VPC</text>
</svg>
  <text x="2127.5" y="256" text-anchor="middle" font-family="var(--font)" font-size="12" font-weight="600" fill="var(--node-text)">Private App Subnets</text>
</g>
<g id="node-ECS" class="diagra-node" data-icon="aws-ecs">
  <rect x="2440" y="188" width="175" height="88" rx="8" fill="var(--node-bg)" stroke="var(--node-border)"/>
  <svg x="2511.5" y="200" width="32" height="32" viewBox="0 0 32 32" role="img" aria-label="Amazon ECS">
  <path d="M16 2.8 27.6 9.4v13.2L16 29.2 4.4 22.6V9.4L16 2.8Z" fill="#FF9900"/>
  <path d="M8 10h16v12H8z" fill="#ffb647" opacity="0.95"/><path d="M11 13h3M16 13h3M21 13h2M11 17h3M16 17h3M21 17h2" stroke="#FFFFFF" stroke-width="1.2" stroke-linecap="round"/>
  <text x="16" y="20.4" text-anchor="middle" font-family="Arial, Helvetica, sans-serif" font-size="7" font-weight="700" fill="#FFFFFF">ECS</text>
</svg>
  <text x="2527.5" y="256" text-anchor="middle" font-family="var(--font)" font-size="12" font-weight="600" fill="var(--node-text)">ECS Service Cluster</text>
</g>
<g id="node-Fargate" class="diagra-node" data-icon="aws-fargate">
  <rect x="2840" y="188" width="130" height="88" rx="8" fill="var(--node-bg)" stroke="var(--node-border)"/>
  <svg x="2889" y="200" width="32" height="32" viewBox="0 0 32 32" role="img" aria-label="AWS Fargate">
  <path d="M16 2.8 27.6 9.4v13.2L16 29.2 4.4 22.6V9.4L16 2.8Z" fill="#FF9900"/>
  <path d="M8 10h16v12H8z" fill="#ffb647" opacity="0.95"/><path d="M11 13h3M16 13h3M21 13h2M11 17h3M16 17h3M21 17h2" stroke="#FFFFFF" stroke-width="1.2" stroke-linecap="round"/>
  <text x="16" y="20.4" text-anchor="middle" font-family="Arial, Helvetica, sans-serif" font-size="9" font-weight="700" fill="#FFFFFF">FG</text>
</svg>
  <text x="2905" y="256" text-anchor="middle" font-family="var(--font)" font-size="12" font-weight="600" fill="var(--node-text)">Fargate Tasks</text>
</g>
<g id="node-Registry" class="diagra-node" data-icon="generic-server">
  <rect x="40" y="336" width="167" height="88" rx="8" fill="var(--node-bg)" stroke="var(--node-border)"/>
  <svg x="107.5" y="348" width="32" height="32" viewBox="0 0 32 32" role="img" aria-label="server"><rect x="5" y="6" width="22" height="20" rx="3" fill="#64748B"/><path d="M9 12h14M9 18h14" stroke="#fff" stroke-width="2"/><circle cx="11" cy="23" r="1.5" fill="#fff"/></svg>

  <text x="123.5" y="404" text-anchor="middle" font-family="var(--font)" font-size="12" font-weight="600" fill="var(--node-text)">Container Registry</text>
</g>
<g id="node-RDS" class="diagra-node" data-icon="aws-rds">
  <rect x="3240" y="114" width="137" height="88" rx="8" fill="var(--node-bg)" stroke="var(--node-border)"/>
  <svg x="3292.5" y="126" width="32" height="32" viewBox="0 0 32 32" role="img" aria-label="Amazon RDS">
  <path d="M16 2.8 27.6 9.4v13.2L16 29.2 4.4 22.6V9.4L16 2.8Z" fill="#FF9900"/>
  <ellipse cx="16" cy="9" rx="8.5" ry="3.4" fill="#ffb647"/><path d="M7.5 9v12c0 1.9 3.8 3.4 8.5 3.4s8.5-1.5 8.5-3.4V9" fill="#ffb647"/><path d="M7.5 15c0 1.9 3.8 3.4 8.5 3.4s8.5-1.5 8.5-3.4" stroke="#FFFFFF" stroke-width="1.2" fill="none"/>
  <text x="16" y="20.4" text-anchor="middle" font-family="Arial, Helvetica, sans-serif" font-size="7" font-weight="700" fill="#FFFFFF">RDS</text>
</svg>
  <text x="3308.5" y="182" text-anchor="middle" font-family="var(--font)" font-size="12" font-weight="600" fill="var(--node-text)">PostgreSQL RDS</text>
</g>
<g id="node-Cache" class="diagra-node" data-icon="generic-database">
  <rect x="3240" y="262" width="160" height="88" rx="8" fill="var(--node-bg)" stroke="var(--node-border)"/>
  <svg x="3304" y="274" width="32" height="32" viewBox="0 0 32 32" role="img" aria-label="database"><ellipse cx="16" cy="8" rx="10" ry="4" fill="#64748B"/><path d="M6 8v14c0 2.2 4.5 4 10 4s10-1.8 10-4V8" fill="#64748B"/><path d="M6 15c0 2.2 4.5 4 10 4s10-1.8 10-4" stroke="#fff" stroke-width="1.8" fill="none"/></svg>

  <text x="3320" y="330" text-anchor="middle" font-family="var(--font)" font-size="12" font-weight="600" fill="var(--node-text)">ElastiCache Redis</text>
</g>
<g id="node-CloudWatch" class="diagra-node" data-icon="aws-cloudwatch">
  <rect x="2840" y="520" width="205" height="106" rx="8" fill="var(--node-bg)" stroke="var(--node-border)"/>
  <svg x="2926.5" y="532" width="32" height="32" viewBox="0 0 32 32" role="img" aria-label="Amazon CloudWatch">
  <path d="M16 2.8 27.6 9.4v13.2L16 29.2 4.4 22.6V9.4L16 2.8Z" fill="#FF9900"/>
  <path d="M16 6.8 25.2 16 16 25.2 6.8 16 16 6.8Z" fill="#ffb647" opacity="0.95"/><path d="m13 11 6 5-6 5" stroke="#FFFFFF" stroke-width="1.8" fill="none" stroke-linecap="round" stroke-linejoin="round"/>
  <text x="16" y="20.4" text-anchor="middle" font-family="Arial, Helvetica, sans-serif" font-size="9" font-weight="700" fill="#FFFFFF">CW</text>
</svg>
  <text text-anchor="middle" font-family="var(--font)" font-size="12" font-weight="600" fill="var(--node-text)">
  <tspan x="2942.5" y="582">Container</tspan>
  <tspan x="2942.5" dy="18">Observability</tspan>
</text>
</g>
</g>
</svg>