<svg xmlns="http://www.w3.org/2000/svg" width="2708" height="960" viewBox="0 0 2708 960" role="img">
<style>
:root {
  --bg: #FFFFFF;
  --node-bg: #F8F9FA;
  --node-border: #E2E8F0;
  --node-text: #1A202C;
  --edge-color: #94A3B8;
  --edge-label: #64748B;
  --accent: #6366F1;
  --font: 'Inter', sans-serif;
}
.diagra-node { filter: drop-shadow(0 10px 18px rgba(15, 23, 42, 0.10)); }
.diagra-edge { stroke-linecap: round; }
</style>
<defs>
  <marker id="arrow" markerWidth="10" markerHeight="10" refX="8" refY="3" orient="auto" markerUnits="strokeWidth">
    <path d="M0,0 L0,6 L9,3 z" fill="var(--edge-color)"/>
  </marker>
</defs>
<rect width="100%" height="100%" fill="var(--bg)"/>
<g class="diagra-edge-label">
  <path id="edge-1" class="diagra-edge" d="M 172 84 C 253 84, 271 232, 352 232" stroke="var(--edge-color)" stroke-width="1.7" fill="none" marker-end="url(#arrow)"/>
  <rect x="223" y="138" width="78" height="16" rx="4" fill="var(--bg)" opacity="0.9"/>
  <text x="262" y="150" text-anchor="middle" font-family="var(--font)" font-size="10" font-weight="600" fill="var(--edge-label)">DNS Lookup</text>
</g>
<g class="diagra-edge-label">
  <path id="edge-2" class="diagra-edge" d="M 484 232 L 664 232" stroke="var(--edge-color)" stroke-width="1.7" fill="none" marker-end="url(#arrow)"/>
  <rect x="528" y="212" width="92" height="16" rx="4" fill="var(--bg)" opacity="0.9"/>
  <text x="574" y="224" text-anchor="middle" font-family="var(--font)" font-size="10" font-weight="600" fill="var(--edge-label)">Resolve Edge</text>
</g>
<g class="diagra-edge-label">
  <path id="edge-3" class="diagra-edge" d="M 796 232 L 976 232" stroke="var(--edge-color)" stroke-width="1.7" fill="none" marker-end="url(#arrow)"/>
  <rect x="840" y="244" width="92" height="16" rx="4" fill="var(--bg)" opacity="0.9"/>
  <text x="886" y="256" text-anchor="middle" font-family="var(--font)" font-size="10" font-weight="600" fill="var(--edge-label)">HTTPS Origin</text>
</g>
<g class="diagra-edge-label">
  <path id="edge-4" class="diagra-edge" d="M 1108 232 L 1288 232" stroke="var(--edge-color)" stroke-width="1.7" fill="none" marker-end="url(#arrow)"/>
  <rect x="1148.5" y="276" width="99" height="16" rx="4" fill="var(--bg)" opacity="0.9"/>
  <text x="1198" y="288" text-anchor="middle" font-family="var(--font)" font-size="10" font-weight="600" fill="var(--edge-label)">Route Traffic</text>
</g>
<g class="diagra-edge-label">
  <path id="edge-5" class="diagra-edge" d="M 1420 232 L 1600 232" stroke="var(--edge-color)" stroke-width="1.7" fill="none" marker-end="url(#arrow)"/>
  <rect x="1439.5" y="308" width="141" height="16" rx="4" fill="var(--bg)" opacity="0.9"/>
  <text x="1510" y="320" text-anchor="middle" font-family="var(--font)" font-size="10" font-weight="600" fill="var(--edge-label)">Forward to Services</text>
</g>
<g class="diagra-edge-label">
  <path id="edge-6" class="diagra-edge" d="M 1732 232 L 1912 232" stroke="var(--edge-color)" stroke-width="1.7" fill="none" marker-end="url(#arrow)"/>
  <rect x="1800" y="340" width="44" height="16" rx="4" fill="var(--bg)" opacity="0.9"/>
  <text x="1822" y="352" text-anchor="middle" font-family="var(--font)" font-size="10" font-weight="600" fill="var(--edge-label)">Hosts</text>
</g>
<g class="diagra-edge-label">
  <path id="edge-7" class="diagra-edge" d="M 2044 232 L 2224 232" stroke="var(--edge-color)" stroke-width="1.7" fill="none" marker-end="url(#arrow)"/>
  <rect x="2095" y="372" width="78" height="16" rx="4" fill="var(--bg)" opacity="0.9"/>
  <text x="2134" y="384" text-anchor="middle" font-family="var(--font)" font-size="10" font-weight="600" fill="var(--edge-label)">Runs Tasks</text>
</g>
<g class="diagra-edge-label">
  <path id="edge-8" class="diagra-edge" d="M 172 380 C 1095.4 380, 1300.6 232, 2224 232" stroke="var(--edge-color)" stroke-width="1.7" fill="none" marker-end="url(#arrow)"/>
  <rect x="1155.5" y="398" width="85" height="16" rx="4" fill="var(--bg)" opacity="0.9"/>
  <text x="1198" y="410" text-anchor="middle" font-family="var(--font)" font-size="10" font-weight="600" fill="var(--edge-label)">Pull Images</text>
</g>
<g class="diagra-edge-label">
  <path id="edge-9" class="diagra-edge" d="M 2356 232 C 2437 232, 2455 158, 2536 158" stroke="var(--edge-color)" stroke-width="1.7" fill="none" marker-end="url(#arrow)"/>
  <rect x="2403.5" y="175" width="85" height="16" rx="4" fill="var(--bg)" opacity="0.9"/>
  <text x="2446" y="187" text-anchor="middle" font-family="var(--font)" font-size="10" font-weight="600" fill="var(--edge-label)">SQL Queries</text>
</g>
<g class="diagra-edge-label">
  <path id="edge-10" class="diagra-edge" d="M 2356 232 C 2437 232, 2455 306, 2536 306" stroke="var(--edge-color)" stroke-width="1.7" fill="none" marker-end="url(#arrow)"/>
  <rect x="2403.5" y="425" width="85" height="16" rx="4" fill="var(--bg)" opacity="0.9"/>
  <text x="2446" y="437" text-anchor="middle" font-family="var(--font)" font-size="10" font-weight="600" fill="var(--edge-label)">Cache Reads</text>
</g>
<g class="diagra-edge-label">
  <path id="edge-11" class="diagra-edge" d="M 172 232 L 1288 232" stroke="var(--edge-color)" stroke-width="1.7" fill="none" marker-end="url(#arrow)"/>
  <rect x="698" y="452" width="64" height="16" rx="4" fill="var(--bg)" opacity="0.9"/>
  <text x="730" y="464" text-anchor="middle" font-family="var(--font)" font-size="10" font-weight="600" fill="var(--edge-label)">Contains</text>
</g>
<g class="diagra-edge-label">
  <path id="edge-12" class="diagra-edge" d="M 172 232 L 1600 232" stroke="var(--edge-color)" stroke-width="1.7" fill="none" marker-end="url(#arrow)"/>
  <rect x="854" y="484" width="64" height="16" rx="4" fill="var(--bg)" opacity="0.9"/>
  <text x="886" y="496" text-anchor="middle" font-family="var(--font)" font-size="10" font-weight="600" fill="var(--edge-label)">Contains</text>
</g>
<g class="diagra-edge-label">
  <path id="edge-13" class="diagra-edge" d="M 2290 276 C 2338 276, 2242 520, 2290 520" stroke="var(--edge-color)" stroke-width="1" fill="none" marker-end="url(#arrow)" stroke-dasharray="6 5" opacity="0.4"/>
  <rect x="2230" y="618" width="120" height="16" rx="4" fill="var(--bg)" opacity="0.9"/>
  <text x="2290" y="630" text-anchor="middle" font-family="var(--font)" font-size="10" font-weight="600" fill="var(--edge-label)">Logs and Metrics</text>
</g>

<g id="node-Users" class="diagra-node" data-icon="generic-browser">
  <rect x="40" y="40" width="132" height="88" rx="8" fill="var(--node-bg)" stroke="var(--node-border)"/>
  <svg x="90" y="52" width="32" height="32" viewBox="0 0 32 32" role="img" aria-label="browser"><rect x="4" y="6" width="24" height="20" rx="3" fill="#64748B"/><path d="M4 12h24" stroke="#fff" stroke-width="2"/><circle cx="9" cy="9" r="1" fill="#fff"/><circle cx="13" cy="9" r="1" fill="#fff"/></svg>

  <text x="106" y="108" text-anchor="middle" font-family="var(--font)" font-size="12" font-weight="600" fill="var(--node-text)">Customers</text>
</g>
<g id="node-Route53" class="diagra-node" data-icon="aws-route53">
  <rect x="352" y="188" width="132" height="88" rx="8" fill="var(--node-bg)" stroke="var(--node-border)"/>
  <svg x="402" y="200" width="32" height="32" viewBox="0 0 32 32" role="img" aria-label="Amazon Route 53">
  <path d="M16 2.8 27.6 9.4v13.2L16 29.2 4.4 22.6V9.4L16 2.8Z" fill="#FF9900"/>
  <circle cx="10" cy="11" r="3" fill="#ffb647"/><circle cx="22" cy="11" r="3" fill="#ffb647"/><circle cx="16" cy="22" r="3" fill="#ffb647"/><path d="M12.5 12.5 15 19M19.5 12.5 17 19M13 11h6" stroke="#FFFFFF" stroke-width="1.3"/>
  <text x="16" y="20.4" text-anchor="middle" font-family="Arial, Helvetica, sans-serif" font-size="7" font-weight="700" fill="#FFFFFF">R53</text>
</svg>
  <text x="418" y="256" text-anchor="middle" font-family="var(--font)" font-size="12" font-weight="600" fill="var(--node-text)">Route53 DNS</text>
</g>
<g id="node-CloudFront" class="diagra-node" data-icon="aws-cloudfront">
  <rect x="664" y="188" width="132" height="88" rx="8" fill="var(--node-bg)" stroke="var(--node-border)"/>
  <svg x="714" y="200" width="32" height="32" viewBox="0 0 32 32" role="img" aria-label="Amazon CloudFront">
  <path d="M16 2.8 27.6 9.4v13.2L16 29.2 4.4 22.6V9.4L16 2.8Z" fill="#FF9900"/>
  <circle cx="16" cy="16" r="8.5" fill="#ffb647" opacity="0.9"/><path d="M8 16h16M16 8c2 2.4 3 5 3 8s-1 5.6-3 8M16 8c-2 2.4-3 5-3 8s1 5.6 3 8" stroke="#FFFFFF" stroke-width="1.1" fill="none"/>
  <text x="16" y="20.4" text-anchor="middle" font-family="Arial, Helvetica, sans-serif" font-size="9" font-weight="700" fill="#FFFFFF">CF</text>
</svg>
  <text x="730" y="256" text-anchor="middle" font-family="var(--font)" font-size="12" font-weight="600" fill="var(--node-text)">CloudFront CDN</text>
</g>
<g id="node-ELB" class="diagra-node" data-icon="aws-elb">
  <rect x="976" y="188" width="132" height="88" rx="8" fill="var(--node-bg)" stroke="var(--node-border)"/>
  <svg x="1026" y="200" width="32" height="32" viewBox="0 0 32 32" role="img" aria-label="Elastic Load Balancing">
  <path d="M16 2.8 27.6 9.4v13.2L16 29.2 4.4 22.6V9.4L16 2.8Z" fill="#FF9900"/>
  <path d="M7 12h18v8H7z" fill="#ffb647" opacity="0.95"/><path d="M10 16h12M18 12l4 4-4 4" stroke="#FFFFFF" stroke-width="1.5" fill="none" stroke-linecap="round" stroke-linejoin="round"/>
  <text x="16" y="20.4" text-anchor="middle" font-family="Arial, Helvetica, sans-serif" font-size="7" font-weight="700" fill="#FFFFFF">ELB</text>
</svg>
  <text x="1042" y="256" text-anchor="middle" font-family="var(--font)" font-size="12" font-weight="600" fill="var(--node-text)">Application Load Balancer</text>
</g>
<g id="node-VPC" class="diagra-node" data-icon="aws-vpc">
  <rect x="40" y="188" width="132" height="88" rx="8" fill="var(--node-bg)" stroke="var(--node-border)"/>
  <svg x="90" y="200" width="32" height="32" viewBox="0 0 32 32" role="img" aria-label="Amazon VPC">
  <path d="M16 2.8 27.6 9.4v13.2L16 29.2 4.4 22.6V9.4L16 2.8Z" fill="#FF9900"/>
  <circle cx="10" cy="11" r="3" fill="#ffb647"/><circle cx="22" cy="11" r="3" fill="#ffb647"/><circle cx="16" cy="22" r="3" fill="#ffb647"/><path d="M12.5 12.5 15 19M19.5 12.5 17 19M13 11h6" stroke="#FFFFFF" stroke-width="1.3"/>
  <text x="16" y="20.4" text-anchor="middle" font-family="Arial, Helvetica, sans-serif" font-size="7" font-weight="700" fill="#FFFFFF">VPC</text>
</svg>
  <text x="106" y="256" text-anchor="middle" font-family="var(--font)" font-size="12" font-weight="600" fill="var(--node-text)">Production VPC</text>
</g>
<g id="node-PublicSubnet" class="diagra-node" data-icon="aws-vpc">
  <rect x="1288" y="188" width="132" height="88" rx="8" fill="var(--node-bg)" stroke="var(--node-border)"/>
  <svg x="1338" y="200" width="32" height="32" viewBox="0 0 32 32" role="img" aria-label="Amazon VPC">
  <path d="M16 2.8 27.6 9.4v13.2L16 29.2 4.4 22.6V9.4L16 2.8Z" fill="#FF9900"/>
  <circle cx="10" cy="11" r="3" fill="#ffb647"/><circle cx="22" cy="11" r="3" fill="#ffb647"/><circle cx="16" cy="22" r="3" fill="#ffb647"/><path d="M12.5 12.5 15 19M19.5 12.5 17 19M13 11h6" stroke="#FFFFFF" stroke-width="1.3"/>
  <text x="16" y="20.4" text-anchor="middle" font-family="Arial, Helvetica, sans-serif" font-size="7" font-weight="700" fill="#FFFFFF">VPC</text>
</svg>
  <text x="1354" y="256" text-anchor="middle" font-family="var(--font)" font-size="12" font-weight="600" fill="var(--node-text)">Public Subnets</text>
</g>
<g id="node-PrivateSubnet" class="diagra-node" data-icon="aws-vpc">
  <rect x="1600" y="188" width="132" height="88" rx="8" fill="var(--node-bg)" stroke="var(--node-border)"/>
  <svg x="1650" y="200" width="32" height="32" viewBox="0 0 32 32" role="img" aria-label="Amazon VPC">
  <path d="M16 2.8 27.6 9.4v13.2L16 29.2 4.4 22.6V9.4L16 2.8Z" fill="#FF9900"/>
  <circle cx="10" cy="11" r="3" fill="#ffb647"/><circle cx="22" cy="11" r="3" fill="#ffb647"/><circle cx="16" cy="22" r="3" fill="#ffb647"/><path d="M12.5 12.5 15 19M19.5 12.5 17 19M13 11h6" stroke="#FFFFFF" stroke-width="1.3"/>
  <text x="16" y="20.4" text-anchor="middle" font-family="Arial, Helvetica, sans-serif" font-size="7" font-weight="700" fill="#FFFFFF">VPC</text>
</svg>
  <text x="1666" y="256" text-anchor="middle" font-family="var(--font)" font-size="12" font-weight="600" fill="var(--node-text)">Private App Subnets</text>
</g>
<g id="node-ECS" class="diagra-node" data-icon="aws-ecs">
  <rect x="1912" y="188" width="132" height="88" rx="8" fill="var(--node-bg)" stroke="var(--node-border)"/>
  <svg x="1962" y="200" width="32" height="32" viewBox="0 0 32 32" role="img" aria-label="Amazon ECS">
  <path d="M16 2.8 27.6 9.4v13.2L16 29.2 4.4 22.6V9.4L16 2.8Z" fill="#FF9900"/>
  <path d="M8 10h16v12H8z" fill="#ffb647" opacity="0.95"/><path d="M11 13h3M16 13h3M21 13h2M11 17h3M16 17h3M21 17h2" stroke="#FFFFFF" stroke-width="1.2" stroke-linecap="round"/>
  <text x="16" y="20.4" text-anchor="middle" font-family="Arial, Helvetica, sans-serif" font-size="7" font-weight="700" fill="#FFFFFF">ECS</text>
</svg>
  <text x="1978" y="256" text-anchor="middle" font-family="var(--font)" font-size="12" font-weight="600" fill="var(--node-text)">ECS Service Cluster</text>
</g>
<g id="node-Fargate" class="diagra-node" data-icon="aws-fargate">
  <rect x="2224" y="188" width="132" height="88" rx="8" fill="var(--node-bg)" stroke="var(--node-border)"/>
  <svg x="2274" y="200" width="32" height="32" viewBox="0 0 32 32" role="img" aria-label="AWS Fargate">
  <path d="M16 2.8 27.6 9.4v13.2L16 29.2 4.4 22.6V9.4L16 2.8Z" fill="#FF9900"/>
  <path d="M8 10h16v12H8z" fill="#ffb647" opacity="0.95"/><path d="M11 13h3M16 13h3M21 13h2M11 17h3M16 17h3M21 17h2" stroke="#FFFFFF" stroke-width="1.2" stroke-linecap="round"/>
  <text x="16" y="20.4" text-anchor="middle" font-family="Arial, Helvetica, sans-serif" font-size="9" font-weight="700" fill="#FFFFFF">FG</text>
</svg>
  <text x="2290" y="256" text-anchor="middle" font-family="var(--font)" font-size="12" font-weight="600" fill="var(--node-text)">Fargate Tasks</text>
</g>
<g id="node-Registry" class="diagra-node" data-icon="generic-server">
  <rect x="40" y="336" width="132" height="88" rx="8" fill="var(--node-bg)" stroke="var(--node-border)"/>
  <svg x="90" y="348" width="32" height="32" viewBox="0 0 32 32" role="img" aria-label="server"><rect x="5" y="6" width="22" height="20" rx="3" fill="#64748B"/><path d="M9 12h14M9 18h14" stroke="#fff" stroke-width="2"/><circle cx="11" cy="23" r="1.5" fill="#fff"/></svg>

  <text x="106" y="404" text-anchor="middle" font-family="var(--font)" font-size="12" font-weight="600" fill="var(--node-text)">Container Registry</text>
</g>
<g id="node-RDS" class="diagra-node" data-icon="aws-rds">
  <rect x="2536" y="114" width="132" height="88" rx="8" fill="var(--node-bg)" stroke="var(--node-border)"/>
  <svg x="2586" y="126" width="32" height="32" viewBox="0 0 32 32" role="img" aria-label="Amazon RDS">
  <path d="M16 2.8 27.6 9.4v13.2L16 29.2 4.4 22.6V9.4L16 2.8Z" fill="#FF9900"/>
  <ellipse cx="16" cy="9" rx="8.5" ry="3.4" fill="#ffb647"/><path d="M7.5 9v12c0 1.9 3.8 3.4 8.5 3.4s8.5-1.5 8.5-3.4V9" fill="#ffb647"/><path d="M7.5 15c0 1.9 3.8 3.4 8.5 3.4s8.5-1.5 8.5-3.4" stroke="#FFFFFF" stroke-width="1.2" fill="none"/>
  <text x="16" y="20.4" text-anchor="middle" font-family="Arial, Helvetica, sans-serif" font-size="7" font-weight="700" fill="#FFFFFF">RDS</text>
</svg>
  <text x="2602" y="182" text-anchor="middle" font-family="var(--font)" font-size="12" font-weight="600" fill="var(--node-text)">PostgreSQL RDS</text>
</g>
<g id="node-Cache" class="diagra-node" data-icon="generic-database">
  <rect x="2536" y="262" width="132" height="88" rx="8" fill="var(--node-bg)" stroke="var(--node-border)"/>
  <svg x="2586" y="274" width="32" height="32" viewBox="0 0 32 32" role="img" aria-label="database"><ellipse cx="16" cy="8" rx="10" ry="4" fill="#64748B"/><path d="M6 8v14c0 2.2 4.5 4 10 4s10-1.8 10-4V8" fill="#64748B"/><path d="M6 15c0 2.2 4.5 4 10 4s10-1.8 10-4" stroke="#fff" stroke-width="1.8" fill="none"/></svg>

  <text x="2602" y="330" text-anchor="middle" font-family="var(--font)" font-size="12" font-weight="600" fill="var(--node-text)">ElastiCache Redis</text>
</g>
<g id="node-CloudWatch" class="diagra-node" data-icon="aws-cloudwatch">
  <rect x="2224" y="520" width="132" height="88" rx="8" fill="var(--node-bg)" stroke="var(--node-border)"/>
  <svg x="2274" y="532" width="32" height="32" viewBox="0 0 32 32" role="img" aria-label="Amazon CloudWatch">
  <path d="M16 2.8 27.6 9.4v13.2L16 29.2 4.4 22.6V9.4L16 2.8Z" fill="#FF9900"/>
  <path d="M16 6.8 25.2 16 16 25.2 6.8 16 16 6.8Z" fill="#ffb647" opacity="0.95"/><path d="m13 11 6 5-6 5" stroke="#FFFFFF" stroke-width="1.8" fill="none" stroke-linecap="round" stroke-linejoin="round"/>
  <text x="16" y="20.4" text-anchor="middle" font-family="Arial, Helvetica, sans-serif" font-size="9" font-weight="700" fill="#FFFFFF">CW</text>
</svg>
  <text x="2290" y="588" text-anchor="middle" font-family="var(--font)" font-size="12" font-weight="600" fill="var(--node-text)">Container Observability</text>
</g>
</svg>