<svg xmlns="http://www.w3.org/2000/svg" width="1810" height="960" viewBox="0 0 1810 960" role="img">
<style>
:root {
  --bg: #0F172A;
  --node-bg: #1E293B;
  --node-border: #334155;
  --node-text: #F1F5F9;
  --edge-color: #475569;
  --edge-label: #CBD5E1;
  --accent: #818CF8;
  --font: 'Inter', sans-serif;
}
.diagra-node { filter: drop-shadow(0 10px 18px rgba(15, 23, 42, 0.10)); }
.diagra-edge { stroke-linecap: round; }
</style>
<defs>
  <marker id="arrow" markerWidth="10" markerHeight="10" refX="8" refY="3" orient="auto" markerUnits="strokeWidth">
    <path d="M0,0 L0,6 L9,3 z" fill="var(--edge-color)"/>
  </marker>
</defs>
<rect width="100%" height="100%" fill="var(--bg)"/>

<g transform="translate(0, 0)">
<g class="diagra-edge-label">
  <path id="edge-1" class="diagra-edge" d="M 192 84 C 296.85 84, 320.15 380, 425 380" stroke="var(--edge-color)" stroke-width="1.7" fill="none" marker-end="url(#arrow)"/>
  <rect x="277" y="210" width="52" height="16" rx="2" fill="var(--bg)" opacity="0.85"/>
  <text x="303" y="220" text-anchor="middle" font-family="var(--font)" font-size="10" font-weight="600" fill="var(--edge-label)">HTTPS</text>
</g>
<g class="diagra-edge-label">
  <path id="edge-2" class="diagra-edge" d="M 555 380 C 669.75 380, 695.25 389, 810 389" stroke="var(--edge-color)" stroke-width="1.7" fill="none" marker-end="url(#arrow)"/>
  <rect x="637.25" y="362.5" width="128" height="16" rx="2" fill="var(--bg)" opacity="0.85"/>
  <text x="701.25" y="372.5" text-anchor="middle" font-family="var(--font)" font-size="10" font-weight="600" fill="var(--edge-label)">Allowed Requests</text>
</g>
<g class="diagra-edge-label">
  <path id="edge-3" class="diagra-edge" d="M 1015 389 C 1096 389, 1114 380, 1195 380" stroke="var(--edge-color)" stroke-width="1.7" fill="none" marker-end="url(#arrow)"/>
  <rect x="1038.5" y="394.5" width="114" height="16" rx="2" fill="var(--bg)" opacity="0.85"/>
  <text x="1095.5" y="404.5" text-anchor="middle" font-family="var(--font)" font-size="10" font-weight="600" fill="var(--edge-label)">Origin Request</text>
</g>
<g class="diagra-edge-label">
  <path id="edge-4" class="diagra-edge" d="M 200 232 C 647.75 232, 747.25 380, 1195 380" stroke="var(--edge-color)" stroke-width="1.7" fill="none" marker-end="url(#arrow)"/>
  <rect x="642.25" y="284" width="114" height="16" rx="2" fill="var(--bg)" opacity="0.85"/>
  <text x="699.25" y="294" text-anchor="middle" font-family="var(--font)" font-size="10" font-weight="600" fill="var(--edge-label)">JWT Validation</text>
</g>
<g class="diagra-edge-label">
  <path id="edge-5" class="diagra-edge" d="M 1362 380 C 1460.1 380, 1481.9 389, 1580 389" stroke="var(--edge-color)" stroke-width="1.7" fill="none" marker-end="url(#arrow)"/>
  <rect x="1447.75" y="426.5" width="58" height="16" rx="2" fill="var(--bg)" opacity="0.85"/>
  <text x="1476.75" y="436.5" text-anchor="middle" font-family="var(--font)" font-size="10" font-weight="600" fill="var(--edge-label)">Invoke</text>
</g>
<g class="diagra-edge-label">
  <path id="edge-6" class="diagra-edge" d="M 215 380 C 829.25 380, 965.75 389, 1580 389" stroke="var(--edge-color)" stroke-width="1.7" fill="none" marker-end="url(#arrow)"/>
  <rect x="816.25" y="458.5" width="170" height="16" rx="2" fill="var(--bg)" opacity="0.85"/>
  <text x="901.25" y="468.5" text-anchor="middle" font-family="var(--font)" font-size="10" font-weight="600" fill="var(--edge-label)">Least Privilege Access</text>
</g>
<g class="diagra-edge-label">
  <path id="edge-7" class="diagra-edge" d="M 215 528 C 829.25 528, 965.75 389, 1580 389" stroke="var(--edge-color)" stroke-width="1.7" fill="none" marker-end="url(#arrow)"/>
  <rect x="851.25" y="484.5" width="100" height="16" rx="2" fill="var(--bg)" opacity="0.85"/>
  <text x="901.25" y="494.5" text-anchor="middle" font-family="var(--font)" font-size="10" font-weight="600" fill="var(--edge-label)">Encrypt Data</text>
</g>
<g class="diagra-edge-label">
  <path id="edge-8" class="diagra-edge" d="M 185 676 C 812.75 676, 952.25 389, 1580 389" stroke="var(--edge-color)" stroke-width="1.7" fill="none" marker-end="url(#arrow)"/>
  <rect x="833.25" y="510.5" width="121" height="16" rx="2" fill="var(--bg)" opacity="0.85"/>
  <text x="893.75" y="520.5" text-anchor="middle" font-family="var(--font)" font-size="10" font-weight="600" fill="var(--edge-label)">Runtime Secrets</text>
</g>
<g class="diagra-edge-label">
  <path id="edge-9" class="diagra-edge" d="M 555 380 C 785.25 380, 836.4166666666665 860, 1066.6666666666665 860" stroke="var(--edge-color)" stroke-width="1" fill="none" marker-end="url(#arrow)" stroke-dasharray="6 5" opacity="0.4"/>
  <rect x="750.5833333333333" y="598" width="128" height="16" rx="2" fill="var(--bg)" opacity="0.85"/>
  <text x="814.5833333333333" y="608" text-anchor="middle" font-family="var(--font)" font-size="10" font-weight="600" fill="var(--edge-label)">Blocked Requests</text>
</g>
<g class="diagra-edge-label">
  <path id="edge-10" class="diagra-edge" d="M 1278.5 424 C 1341.2 424, 1076.4666666666665 816, 1139.1666666666665 816" stroke="var(--edge-color)" stroke-width="1" fill="none" marker-end="url(#arrow)" stroke-dasharray="6 5" opacity="0.4"/>
  <rect x="1165.8333333333333" y="630" width="86" height="16" rx="2" fill="var(--bg)" opacity="0.85"/>
  <text x="1208.8333333333333" y="640" text-anchor="middle" font-family="var(--font)" font-size="10" font-weight="600" fill="var(--edge-label)">Audit Logs</text>
</g>
<g class="diagra-edge-label">
  <path id="edge-11" class="diagra-edge" d="M 1580 389 C 1745.75 389, 1045.9166666666665 860, 1211.6666666666665 860" stroke="var(--edge-color)" stroke-width="1" fill="none" marker-end="url(#arrow)" stroke-dasharray="6 5" opacity="0.4"/>
  <rect x="1346.5833333333333" y="650.5" width="121" height="16" rx="2" fill="var(--bg)" opacity="0.85"/>
  <text x="1407.0833333333333" y="660.5" text-anchor="middle" font-family="var(--font)" font-size="10" font-weight="600" fill="var(--edge-label)">Security Events</text>
</g>

<g id="node-Internet" class="diagra-node" data-icon="generic-browser">
  <rect x="40" y="40" width="152" height="88" rx="8" fill="var(--node-bg)" stroke="var(--node-border)"/>
  <svg x="100" y="52" width="32" height="32" viewBox="0 0 32 32" role="img" aria-label="browser"><rect x="4" y="6" width="24" height="20" rx="3" fill="#64748B"/><path d="M4 12h24" stroke="#fff" stroke-width="2"/><circle cx="9" cy="9" r="1" fill="#fff"/><circle cx="13" cy="9" r="1" fill="#fff"/></svg>

  <text x="116" y="108" text-anchor="middle" font-family="var(--font)" font-size="12" font-weight="600" fill="var(--node-text)">Internet Clients</text>
</g>
<g id="node-WAF" class="diagra-node" data-icon="aws-waf">
  <rect x="425" y="336" width="130" height="88" rx="8" fill="var(--node-bg)" stroke="var(--node-border)"/>
  <svg x="474" y="348" width="32" height="32" viewBox="0 0 32 32" role="img" aria-label="AWS WAF">
  <path d="M16 2.8 27.6 9.4v13.2L16 29.2 4.4 22.6V9.4L16 2.8Z" fill="#FF9900"/>
  <path d="M16 7 23 10v5.6c0 4-2.7 7-7 9.4-4.3-2.4-7-5.4-7-9.4V10l7-3Z" fill="#ffb647" opacity="0.95"/><path d="M13 16.5 15.2 19 20 13.5" stroke="#FFFFFF" stroke-width="1.7" fill="none" stroke-linecap="round" stroke-linejoin="round"/>
  <text x="16" y="20.4" text-anchor="middle" font-family="Arial, Helvetica, sans-serif" font-size="7" font-weight="700" fill="#FFFFFF">WAF</text>
</svg>
  <text x="490" y="404" text-anchor="middle" font-family="var(--font)" font-size="12" font-weight="600" fill="var(--node-text)">AWS WAF Rules</text>
</g>
<g id="node-CloudFront" class="diagra-node" data-icon="aws-cloudfront">
  <rect x="810" y="336" width="205" height="106" rx="8" fill="var(--node-bg)" stroke="var(--node-border)"/>
  <svg x="896.5" y="348" width="32" height="32" viewBox="0 0 32 32" role="img" aria-label="Amazon CloudFront">
  <path d="M16 2.8 27.6 9.4v13.2L16 29.2 4.4 22.6V9.4L16 2.8Z" fill="#FF9900"/>
  <circle cx="16" cy="16" r="8.5" fill="#ffb647" opacity="0.9"/><path d="M8 16h16M16 8c2 2.4 3 5 3 8s-1 5.6-3 8M16 8c-2 2.4-3 5-3 8s1 5.6 3 8" stroke="#FFFFFF" stroke-width="1.1" fill="none"/>
  <text x="16" y="20.4" text-anchor="middle" font-family="Arial, Helvetica, sans-serif" font-size="9" font-weight="700" fill="#FFFFFF">CF</text>
</svg>
  <text text-anchor="middle" font-family="var(--font)" font-size="12" font-weight="600" fill="var(--node-text)">
  <tspan x="912.5" y="398">CloudFront</tspan>
  <tspan x="912.5" dy="18">Distribution</tspan>
</text>
</g>
<g id="node-APIGW" class="diagra-node" data-icon="aws-apigateway">
  <rect x="1195" y="336" width="167" height="88" rx="8" fill="var(--node-bg)" stroke="var(--node-border)"/>
  <svg x="1262.5" y="348" width="32" height="32" viewBox="0 0 32 32" role="img" aria-label="Amazon API Gateway">
  <path d="M16 2.8 27.6 9.4v13.2L16 29.2 4.4 22.6V9.4L16 2.8Z" fill="#FF9900"/>
  <path d="M7.5 11h17v10h-17z" fill="#ffb647" opacity="0.9"/><path d="M11 16h10" stroke="#FFFFFF" stroke-width="1.8" stroke-linecap="round"/>
  <text x="16" y="20.4" text-anchor="middle" font-family="Arial, Helvetica, sans-serif" font-size="7" font-weight="700" fill="#FFFFFF">API</text>
</svg>
  <text x="1278.5" y="404" text-anchor="middle" font-family="var(--font)" font-size="12" font-weight="600" fill="var(--node-text)">Secure API Gateway</text>
</g>
<g id="node-Cognito" class="diagra-node" data-icon="aws-cognito">
  <rect x="40" y="188" width="160" height="88" rx="8" fill="var(--node-bg)" stroke="var(--node-border)"/>
  <svg x="104" y="200" width="32" height="32" viewBox="0 0 32 32" role="img" aria-label="Amazon Cognito">
  <path d="M16 2.8 27.6 9.4v13.2L16 29.2 4.4 22.6V9.4L16 2.8Z" fill="#FF9900"/>
  <path d="M16 7.2 23 10v5.2c0 4.2-2.6 7.6-7 9.6-4.4-2-7-5.4-7-9.6V10l7-2.8Z" fill="#ffb647" opacity="0.95"/>
  <text x="16" y="20.4" text-anchor="middle" font-family="Arial, Helvetica, sans-serif" font-size="9" font-weight="700" fill="#FFFFFF">ID</text>
</svg>
  <text x="120" y="256" text-anchor="middle" font-family="var(--font)" font-size="12" font-weight="600" fill="var(--node-text)">Cognito User Pool</text>
</g>
<g id="node-Lambda" class="diagra-node" data-icon="aws-lambda">
  <rect x="1580" y="336" width="190" height="106" rx="8" fill="var(--node-bg)" stroke="var(--node-border)"/>
  <svg x="1659" y="348" width="32" height="32" viewBox="0 0 32 32" role="img" aria-label="AWS Lambda">
  <path d="M16 2.8 27.6 9.4v13.2L16 29.2 4.4 22.6V9.4L16 2.8Z" fill="#FF9900"/>
  <rect x="8" y="8" width="16" height="16" rx="3" fill="#ffb647" opacity="0.95"/><path d="M11 6v4M16 6v4M21 6v4M11 22v4M16 22v4M21 22v4" stroke="#FFFFFF" stroke-width="1.1"/>
  <text x="16" y="20.4" text-anchor="middle" font-family="Arial, Helvetica, sans-serif" font-size="9" font-weight="700" fill="#FFFFFF">λ</text>
</svg>
  <text text-anchor="middle" font-family="var(--font)" font-size="12" font-weight="600" fill="var(--node-text)">
  <tspan x="1675" y="398">Protected Lambda</tspan>
  <tspan x="1675" dy="18">APIs</tspan>
</text>
</g>
<g id="node-IAM" class="diagra-node" data-icon="aws-iam">
  <rect x="40" y="336" width="175" height="88" rx="8" fill="var(--node-bg)" stroke="var(--node-border)"/>
  <svg x="111.5" y="348" width="32" height="32" viewBox="0 0 32 32" role="img" aria-label="AWS IAM">
  <path d="M16 2.8 27.6 9.4v13.2L16 29.2 4.4 22.6V9.4L16 2.8Z" fill="#FF9900"/>
  <path d="M16 7 23 10v5.6c0 4-2.7 7-7 9.4-4.3-2.4-7-5.4-7-9.4V10l7-3Z" fill="#ffb647" opacity="0.95"/><path d="M13 16.5 15.2 19 20 13.5" stroke="#FFFFFF" stroke-width="1.7" fill="none" stroke-linecap="round" stroke-linejoin="round"/>
  <text x="16" y="20.4" text-anchor="middle" font-family="Arial, Helvetica, sans-serif" font-size="7" font-weight="700" fill="#FFFFFF">IAM</text>
</svg>
  <text x="127.5" y="404" text-anchor="middle" font-family="var(--font)" font-size="12" font-weight="600" fill="var(--node-text)">IAM Execution Roles</text>
</g>
<g id="node-KMS" class="diagra-node" data-icon="aws-kms">
  <rect x="40" y="484" width="175" height="88" rx="8" fill="var(--node-bg)" stroke="var(--node-border)"/>
  <svg x="111.5" y="496" width="32" height="32" viewBox="0 0 32 32" role="img" aria-label="AWS KMS">
  <path d="M16 2.8 27.6 9.4v13.2L16 29.2 4.4 22.6V9.4L16 2.8Z" fill="#FF9900"/>
  <path d="M16 7 23 10v5.6c0 4-2.7 7-7 9.4-4.3-2.4-7-5.4-7-9.4V10l7-3Z" fill="#ffb647" opacity="0.95"/><path d="M13 16.5 15.2 19 20 13.5" stroke="#FFFFFF" stroke-width="1.7" fill="none" stroke-linecap="round" stroke-linejoin="round"/>
  <text x="16" y="20.4" text-anchor="middle" font-family="Arial, Helvetica, sans-serif" font-size="7" font-weight="700" fill="#FFFFFF">KMS</text>
</svg>
  <text x="127.5" y="552" text-anchor="middle" font-family="var(--font)" font-size="12" font-weight="600" fill="var(--node-text)">KMS Encryption Keys</text>
</g>
<g id="node-Secrets" class="diagra-node" data-icon="aws-secretsmanager">
  <rect x="40" y="632" width="145" height="88" rx="8" fill="var(--node-bg)" stroke="var(--node-border)"/>
  <svg x="96.5" y="644" width="32" height="32" viewBox="0 0 32 32" role="img" aria-label="AWS Secrets Manager">
  <path d="M16 2.8 27.6 9.4v13.2L16 29.2 4.4 22.6V9.4L16 2.8Z" fill="#FF9900"/>
  <path d="M16 7 23 10v5.6c0 4-2.7 7-7 9.4-4.3-2.4-7-5.4-7-9.4V10l7-3Z" fill="#ffb647" opacity="0.95"/><path d="M13 16.5 15.2 19 20 13.5" stroke="#FFFFFF" stroke-width="1.7" fill="none" stroke-linecap="round" stroke-linejoin="round"/>
  <text x="16" y="20.4" text-anchor="middle" font-family="Arial, Helvetica, sans-serif" font-size="9" font-weight="700" fill="#FFFFFF">SM</text>
</svg>
  <text x="112.5" y="700" text-anchor="middle" font-family="var(--font)" font-size="12" font-weight="600" fill="var(--node-text)">Secrets Manager</text>
</g>
<g id="node-CloudWatch" class="diagra-node" data-icon="aws-cloudwatch">
  <rect x="1066.6666666666665" y="816" width="145" height="88" rx="8" fill="var(--node-bg)" stroke="var(--node-border)"/>
  <svg x="1123.1666666666665" y="828" width="32" height="32" viewBox="0 0 32 32" role="img" aria-label="Amazon CloudWatch">
  <path d="M16 2.8 27.6 9.4v13.2L16 29.2 4.4 22.6V9.4L16 2.8Z" fill="#FF9900"/>
  <path d="M16 6.8 25.2 16 16 25.2 6.8 16 16 6.8Z" fill="#ffb647" opacity="0.95"/><path d="m13 11 6 5-6 5" stroke="#FFFFFF" stroke-width="1.8" fill="none" stroke-linecap="round" stroke-linejoin="round"/>
  <text x="16" y="20.4" text-anchor="middle" font-family="Arial, Helvetica, sans-serif" font-size="9" font-weight="700" fill="#FFFFFF">CW</text>
</svg>
  <text x="1139.1666666666665" y="884" text-anchor="middle" font-family="var(--font)" font-size="12" font-weight="600" fill="var(--node-text)">Security Alerts</text>
</g>
</g>
</svg>