<svg xmlns="http://www.w3.org/2000/svg" width="980" height="1830" viewBox="0 0 980 1830" role="img">
<style>
:root {
  --bg: #0F172A;
  --node-bg: #1E293B;
  --node-border: #334155;
  --node-text: #F1F5F9;
  --edge-color: #475569;
  --edge-label: #CBD5E1;
  --accent: #818CF8;
  --font: 'Inter', sans-serif;
}
.diagra-node { filter: drop-shadow(0 10px 18px rgba(15, 23, 42, 0.10)); }
.diagra-edge { stroke-linecap: round; }
</style>
<defs>
  <marker id="arrow" markerWidth="10" markerHeight="10" refX="8" refY="3" orient="auto" markerUnits="strokeWidth">
    <path d="M0,0 L0,6 L9,3 z" fill="var(--edge-color)"/>
  </marker>
</defs>
<rect width="100%" height="100%" fill="var(--bg)"/>

<g transform="translate(0, 0)">
<g class="diagra-edge-label">
  <path id="edge-1" class="diagra-edge" d="M 101 128 C 229.25 128, 257.75 326, 386 326" stroke="var(--edge-color)" stroke-width="1.7" fill="none" marker-end="url(#arrow)"/>
  <rect x="204" y="209.5" width="79" height="16" rx="2" fill="var(--bg)" opacity="0.85"/>
  <text x="243.5" y="219.5" text-anchor="middle" font-family="var(--font)" font-size="10" font-weight="600" fill="var(--edge-label)">DNS Query</text>
</g>
<g class="diagra-edge-label">
  <path id="edge-2" class="diagra-edge" d="M 386 432 C 443.375 432, 201.125 612, 258.5 612" stroke="var(--edge-color)" stroke-width="1.7" fill="none" marker-end="url(#arrow)"/>
  <rect x="265.25" y="495.5" width="114" height="16" rx="2" fill="var(--bg)" opacity="0.85"/>
  <text x="322.25" y="505.5" text-anchor="middle" font-family="var(--font)" font-size="10" font-weight="600" fill="var(--edge-label)">Nearest Region</text>
</g>
<g class="diagra-edge-label">
  <path id="edge-3" class="diagra-edge" d="M 386 432 C 443.375 432, 456.125 612, 513.5 612" stroke="var(--edge-color)" stroke-width="1.7" fill="none" marker-end="url(#arrow)"/>
  <rect x="392.75" y="527.5" width="114" height="16" rx="2" fill="var(--bg)" opacity="0.85"/>
  <text x="449.75" y="537.5" text-anchor="middle" font-family="var(--font)" font-size="10" font-weight="600" fill="var(--edge-label)">Nearest Region</text>
</g>
<g class="diagra-edge-label">
  <path id="edge-4" class="diagra-edge" d="M 344.5 146 C 392.5 146, 210.5 612, 258.5 612" stroke="var(--edge-color)" stroke-width="1.7" fill="none" marker-end="url(#arrow)"/>
  <rect x="265.5" y="448.5" width="72" height="16" rx="2" fill="var(--bg)" opacity="0.85"/>
  <text x="301.5" y="458.5" text-anchor="middle" font-family="var(--font)" font-size="10" font-weight="600" fill="var(--edge-label)">Contains</text>
</g>
<g class="diagra-edge-label">
  <path id="edge-5" class="diagra-edge" d="M 258.5 700 C 306.5 700, 207 880, 255 880" stroke="var(--edge-color)" stroke-width="1.7" fill="none" marker-end="url(#arrow)"/>
  <rect x="224.25" y="768" width="65" height="16" rx="2" fill="var(--bg)" opacity="0.85"/>
  <text x="256.75" y="778" text-anchor="middle" font-family="var(--font)" font-size="10" font-weight="600" fill="var(--edge-label)">Request</text>
</g>
<g class="diagra-edge-label">
  <path id="edge-6" class="diagra-edge" d="M 255 968 C 303 968, 225.5 1148, 273.5 1148" stroke="var(--edge-color)" stroke-width="1.7" fill="none" marker-end="url(#arrow)"/>
  <rect x="235.25" y="1036" width="58" height="16" rx="2" fill="var(--bg)" opacity="0.85"/>
  <text x="264.25" y="1046" text-anchor="middle" font-family="var(--font)" font-size="10" font-weight="600" fill="var(--edge-label)">Invoke</text>
</g>
<g class="diagra-edge-label">
  <path id="edge-7" class="diagra-edge" d="M 273.5 1236 C 321.5 1236, 218 1416, 266 1416" stroke="var(--edge-color)" stroke-width="1.7" fill="none" marker-end="url(#arrow)"/>
  <rect x="212.75" y="1304" width="114" height="16" rx="2" fill="var(--bg)" opacity="0.85"/>
  <text x="269.75" y="1314" text-anchor="middle" font-family="var(--font)" font-size="10" font-weight="600" fill="var(--edge-label)">Read and Write</text>
</g>
<g class="diagra-edge-label">
  <path id="edge-8" class="diagra-edge" d="M 629.5 146 C 681.7 146, 461.3 612, 513.5 612" stroke="var(--edge-color)" stroke-width="1.7" fill="none" marker-end="url(#arrow)"/>
  <rect x="535.5" y="352.5" width="72" height="16" rx="2" fill="var(--bg)" opacity="0.85"/>
  <text x="571.5" y="362.5" text-anchor="middle" font-family="var(--font)" font-size="10" font-weight="600" fill="var(--edge-label)">Contains</text>
</g>
<g class="diagra-edge-label">
  <path id="edge-9" class="diagra-edge" d="M 513.5 700 C 561.5 700, 469 880, 517 880" stroke="var(--edge-color)" stroke-width="1.7" fill="none" marker-end="url(#arrow)"/>
  <rect x="482.75" y="800" width="65" height="16" rx="2" fill="var(--bg)" opacity="0.85"/>
  <text x="515.25" y="810" text-anchor="middle" font-family="var(--font)" font-size="10" font-weight="600" fill="var(--edge-label)">Request</text>
</g>
<g class="diagra-edge-label">
  <path id="edge-10" class="diagra-edge" d="M 517 968 C 565 968, 450.5 1148, 498.5 1148" stroke="var(--edge-color)" stroke-width="1.7" fill="none" marker-end="url(#arrow)"/>
  <rect x="478.75" y="1068" width="58" height="16" rx="2" fill="var(--bg)" opacity="0.85"/>
  <text x="507.75" y="1078" text-anchor="middle" font-family="var(--font)" font-size="10" font-weight="600" fill="var(--edge-label)">Invoke</text>
</g>
<g class="diagra-edge-label">
  <path id="edge-11" class="diagra-edge" d="M 498.5 1236 C 546.5 1236, 458 1416, 506 1416" stroke="var(--edge-color)" stroke-width="1.7" fill="none" marker-end="url(#arrow)"/>
  <rect x="445.25" y="1336" width="114" height="16" rx="2" fill="var(--bg)" opacity="0.85"/>
  <text x="502.25" y="1346" text-anchor="middle" font-family="var(--font)" font-size="10" font-weight="600" fill="var(--edge-label)">Read and Write</text>
</g>
<g class="diagra-edge-label">
  <path id="edge-12" class="diagra-edge" d="M 266 1504 C 320 1504, 332 1684, 386 1684" stroke="var(--edge-color)" stroke-width="1.7" fill="none" marker-end="url(#arrow)"/>
  <rect x="286.5" y="1576.5" width="79" height="16" rx="2" fill="var(--bg)" opacity="0.85"/>
  <text x="326" y="1586.5" text-anchor="middle" font-family="var(--font)" font-size="10" font-weight="600" fill="var(--edge-label)">Replicate</text>
</g>
<g class="diagra-edge-label">
  <path id="edge-13" class="diagra-edge" d="M 386 1684 C 440 1684, 452 1504, 506 1504" stroke="var(--edge-color)" stroke-width="1.7" fill="none" marker-end="url(#arrow)"/>
  <rect x="406.5" y="1608.5" width="79" height="16" rx="2" fill="var(--bg)" opacity="0.85"/>
  <text x="446" y="1618.5" text-anchor="middle" font-family="var(--font)" font-size="10" font-weight="600" fill="var(--edge-label)">Replicate</text>
</g>
<circle r="4" fill="var(--accent)" opacity="0.9">
  <animateMotion dur="1.5s" begin="0s" repeatCount="indefinite">
    <mpath href="#edge-1"/>
  </animateMotion>
</circle>
<circle r="4" fill="var(--accent)" opacity="0.9">
  <animateMotion dur="1.5s" begin="0.2s" repeatCount="indefinite">
    <mpath href="#edge-2"/>
  </animateMotion>
</circle>
<circle r="4" fill="var(--accent)" opacity="0.9">
  <animateMotion dur="1.5s" begin="0.4s" repeatCount="indefinite">
    <mpath href="#edge-3"/>
  </animateMotion>
</circle>
<circle r="4" fill="var(--accent)" opacity="0.9">
  <animateMotion dur="1.5s" begin="0.6000000000000001s" repeatCount="indefinite">
    <mpath href="#edge-4"/>
  </animateMotion>
</circle>
<circle r="4" fill="var(--accent)" opacity="0.9">
  <animateMotion dur="1.5s" begin="0.8s" repeatCount="indefinite">
    <mpath href="#edge-5"/>
  </animateMotion>
</circle>
<circle r="4" fill="var(--accent)" opacity="0.9">
  <animateMotion dur="1.5s" begin="1s" repeatCount="indefinite">
    <mpath href="#edge-6"/>
  </animateMotion>
</circle>
<circle r="4" fill="var(--accent)" opacity="0.9">
  <animateMotion dur="1.5s" begin="1.2000000000000002s" repeatCount="indefinite">
    <mpath href="#edge-7"/>
  </animateMotion>
</circle>
<circle r="4" fill="var(--accent)" opacity="0.9">
  <animateMotion dur="1.5s" begin="1.4000000000000001s" repeatCount="indefinite">
    <mpath href="#edge-8"/>
  </animateMotion>
</circle>
<circle r="4" fill="var(--accent)" opacity="0.9">
  <animateMotion dur="1.5s" begin="1.6s" repeatCount="indefinite">
    <mpath href="#edge-9"/>
  </animateMotion>
</circle>
<circle r="4" fill="var(--accent)" opacity="0.9">
  <animateMotion dur="1.5s" begin="1.8s" repeatCount="indefinite">
    <mpath href="#edge-10"/>
  </animateMotion>
</circle>
<circle r="4" fill="var(--accent)" opacity="0.9">
  <animateMotion dur="1.5s" begin="2s" repeatCount="indefinite">
    <mpath href="#edge-11"/>
  </animateMotion>
</circle>
<circle r="4" fill="var(--accent)" opacity="0.9">
  <animateMotion dur="1.5s" begin="2.2s" repeatCount="indefinite">
    <mpath href="#edge-12"/>
  </animateMotion>
</circle>
<circle r="4" fill="var(--accent)" opacity="0.9">
  <animateMotion dur="1.5s" begin="2.4000000000000004s" repeatCount="indefinite">
    <mpath href="#edge-13"/>
  </animateMotion>
</circle>
<g id="node-Users" class="diagra-node" data-icon="generic-browser">
  <rect x="40" y="40" width="122" height="88" rx="8" fill="var(--node-bg)" stroke="var(--node-border)"/>
  <svg x="85" y="52" width="32" height="32" viewBox="0 0 32 32" role="img" aria-label="browser"><rect x="4" y="6" width="24" height="20" rx="3" fill="#64748B"/><path d="M4 12h24" stroke="#fff" stroke-width="2"/><circle cx="9" cy="9" r="1" fill="#fff"/><circle cx="13" cy="9" r="1" fill="#fff"/></svg>

  <text x="101" y="108" text-anchor="middle" font-family="var(--font)" font-size="12" font-weight="600" fill="var(--node-text)">Global Users</text>
</g>
<g id="node-Route53" class="diagra-node" data-icon="aws-route53">
  <rect x="283.5" y="326" width="205" height="106" rx="8" fill="var(--node-bg)" stroke="var(--node-border)"/>
  <svg x="370" y="338" width="32" height="32" viewBox="0 0 32 32" role="img" aria-label="Amazon Route 53">
  <path d="M16 2.8 27.6 9.4v13.2L16 29.2 4.4 22.6V9.4L16 2.8Z" fill="#FF9900"/>
  <circle cx="10" cy="11" r="3" fill="#ffb647"/><circle cx="22" cy="11" r="3" fill="#ffb647"/><circle cx="16" cy="22" r="3" fill="#ffb647"/><path d="M12.5 12.5 15 19M19.5 12.5 17 19M13 11h6" stroke="#FFFFFF" stroke-width="1.3"/>
  <text x="16" y="20.4" text-anchor="middle" font-family="Arial, Helvetica, sans-serif" font-size="7" font-weight="700" fill="#FFFFFF">R53</text>
</svg>
  <text text-anchor="middle" font-family="var(--font)" font-size="12" font-weight="600" fill="var(--node-text)">
  <tspan x="386" y="388">Route53 Latency</tspan>
  <tspan x="386" dy="18">Routing</tspan>
</text>
</g>
<g id="node-RegionA" class="diagra-node" data-icon="aws-vpc">
  <rect x="242" y="40" width="205" height="106" rx="8" fill="var(--node-bg)" stroke="var(--node-border)"/>
  <svg x="328.5" y="52" width="32" height="32" viewBox="0 0 32 32" role="img" aria-label="Amazon VPC">
  <path d="M16 2.8 27.6 9.4v13.2L16 29.2 4.4 22.6V9.4L16 2.8Z" fill="#FF9900"/>
  <circle cx="10" cy="11" r="3" fill="#ffb647"/><circle cx="22" cy="11" r="3" fill="#ffb647"/><circle cx="16" cy="22" r="3" fill="#ffb647"/><path d="M12.5 12.5 15 19M19.5 12.5 17 19M13 11h6" stroke="#FFFFFF" stroke-width="1.3"/>
  <text x="16" y="20.4" text-anchor="middle" font-family="Arial, Helvetica, sans-serif" font-size="7" font-weight="700" fill="#FFFFFF">VPC</text>
</svg>
  <text text-anchor="middle" font-family="var(--font)" font-size="12" font-weight="600" fill="var(--node-text)">
  <tspan x="344.5" y="102">us-east-1 Active</tspan>
  <tspan x="344.5" dy="18">Region</tspan>
</text>
</g>
<g id="node-CloudFrontA" class="diagra-node" data-icon="aws-cloudfront">
  <rect x="171" y="612" width="175" height="88" rx="8" fill="var(--node-bg)" stroke="var(--node-border)"/>
  <svg x="242.5" y="624" width="32" height="32" viewBox="0 0 32 32" role="img" aria-label="Amazon CloudFront">
  <path d="M16 2.8 27.6 9.4v13.2L16 29.2 4.4 22.6V9.4L16 2.8Z" fill="#FF9900"/>
  <circle cx="16" cy="16" r="8.5" fill="#ffb647" opacity="0.9"/><path d="M8 16h16M16 8c2 2.4 3 5 3 8s-1 5.6-3 8M16 8c-2 2.4-3 5-3 8s1 5.6 3 8" stroke="#FFFFFF" stroke-width="1.1" fill="none"/>
  <text x="16" y="20.4" text-anchor="middle" font-family="Arial, Helvetica, sans-serif" font-size="9" font-weight="700" fill="#FFFFFF">CF</text>
</svg>
  <text x="258.5" y="680" text-anchor="middle" font-family="var(--font)" font-size="12" font-weight="600" fill="var(--node-text)">CloudFront Region A</text>
</g>
<g id="node-APIGWA" class="diagra-node" data-icon="aws-apigateway">
  <rect x="164" y="880" width="182" height="88" rx="8" fill="var(--node-bg)" stroke="var(--node-border)"/>
  <svg x="239" y="892" width="32" height="32" viewBox="0 0 32 32" role="img" aria-label="Amazon API Gateway">
  <path d="M16 2.8 27.6 9.4v13.2L16 29.2 4.4 22.6V9.4L16 2.8Z" fill="#FF9900"/>
  <path d="M7.5 11h17v10h-17z" fill="#ffb647" opacity="0.9"/><path d="M11 16h10" stroke="#FFFFFF" stroke-width="1.8" stroke-linecap="round"/>
  <text x="16" y="20.4" text-anchor="middle" font-family="Arial, Helvetica, sans-serif" font-size="7" font-weight="700" fill="#FFFFFF">API</text>
</svg>
  <text x="255" y="948" text-anchor="middle" font-family="var(--font)" font-size="12" font-weight="600" fill="var(--node-text)">API Gateway Region A</text>
</g>
<g id="node-LambdaA" class="diagra-node" data-icon="aws-lambda">
  <rect x="201" y="1148" width="145" height="88" rx="8" fill="var(--node-bg)" stroke="var(--node-border)"/>
  <svg x="257.5" y="1160" width="32" height="32" viewBox="0 0 32 32" role="img" aria-label="AWS Lambda">
  <path d="M16 2.8 27.6 9.4v13.2L16 29.2 4.4 22.6V9.4L16 2.8Z" fill="#FF9900"/>
  <rect x="8" y="8" width="16" height="16" rx="3" fill="#ffb647" opacity="0.95"/><path d="M11 6v4M16 6v4M21 6v4M11 22v4M16 22v4M21 22v4" stroke="#FFFFFF" stroke-width="1.1"/>
  <text x="16" y="20.4" text-anchor="middle" font-family="Arial, Helvetica, sans-serif" font-size="9" font-weight="700" fill="#FFFFFF">λ</text>
</svg>
  <text x="273.5" y="1216" text-anchor="middle" font-family="var(--font)" font-size="12" font-weight="600" fill="var(--node-text)">Lambda Region A</text>
</g>
<g id="node-DynamoA" class="diagra-node" data-icon="aws-dynamodb">
  <rect x="186" y="1416" width="160" height="88" rx="8" fill="var(--node-bg)" stroke="var(--node-border)"/>
  <svg x="250" y="1428" width="32" height="32" viewBox="0 0 32 32" role="img" aria-label="Amazon DynamoDB">
  <path d="M16 2.8 27.6 9.4v13.2L16 29.2 4.4 22.6V9.4L16 2.8Z" fill="#FF9900"/>
  <ellipse cx="16" cy="9" rx="8.5" ry="3.4" fill="#ffb647"/><path d="M7.5 9v12c0 1.9 3.8 3.4 8.5 3.4s8.5-1.5 8.5-3.4V9" fill="#ffb647"/><path d="M7.5 15c0 1.9 3.8 3.4 8.5 3.4s8.5-1.5 8.5-3.4" stroke="#FFFFFF" stroke-width="1.2" fill="none"/>
  <text x="16" y="20.4" text-anchor="middle" font-family="Arial, Helvetica, sans-serif" font-size="9" font-weight="700" fill="#FFFFFF">DB</text>
</svg>
  <text x="266" y="1484" text-anchor="middle" font-family="var(--font)" font-size="12" font-weight="600" fill="var(--node-text)">DynamoDB Region A</text>
</g>
<g id="node-RegionB" class="diagra-node" data-icon="aws-vpc">
  <rect x="527" y="40" width="205" height="106" rx="8" fill="var(--node-bg)" stroke="var(--node-border)"/>
  <svg x="613.5" y="52" width="32" height="32" viewBox="0 0 32 32" role="img" aria-label="Amazon VPC">
  <path d="M16 2.8 27.6 9.4v13.2L16 29.2 4.4 22.6V9.4L16 2.8Z" fill="#FF9900"/>
  <circle cx="10" cy="11" r="3" fill="#ffb647"/><circle cx="22" cy="11" r="3" fill="#ffb647"/><circle cx="16" cy="22" r="3" fill="#ffb647"/><path d="M12.5 12.5 15 19M19.5 12.5 17 19M13 11h6" stroke="#FFFFFF" stroke-width="1.3"/>
  <text x="16" y="20.4" text-anchor="middle" font-family="Arial, Helvetica, sans-serif" font-size="7" font-weight="700" fill="#FFFFFF">VPC</text>
</svg>
  <text text-anchor="middle" font-family="var(--font)" font-size="12" font-weight="600" fill="var(--node-text)">
  <tspan x="629.5" y="102">eu-west-1 Active</tspan>
  <tspan x="629.5" dy="18">Region</tspan>
</text>
</g>
<g id="node-CloudFrontB" class="diagra-node" data-icon="aws-cloudfront">
  <rect x="426" y="612" width="175" height="88" rx="8" fill="var(--node-bg)" stroke="var(--node-border)"/>
  <svg x="497.5" y="624" width="32" height="32" viewBox="0 0 32 32" role="img" aria-label="Amazon CloudFront">
  <path d="M16 2.8 27.6 9.4v13.2L16 29.2 4.4 22.6V9.4L16 2.8Z" fill="#FF9900"/>
  <circle cx="16" cy="16" r="8.5" fill="#ffb647" opacity="0.9"/><path d="M8 16h16M16 8c2 2.4 3 5 3 8s-1 5.6-3 8M16 8c-2 2.4-3 5-3 8s1 5.6 3 8" stroke="#FFFFFF" stroke-width="1.1" fill="none"/>
  <text x="16" y="20.4" text-anchor="middle" font-family="Arial, Helvetica, sans-serif" font-size="9" font-weight="700" fill="#FFFFFF">CF</text>
</svg>
  <text x="513.5" y="680" text-anchor="middle" font-family="var(--font)" font-size="12" font-weight="600" fill="var(--node-text)">CloudFront Region B</text>
</g>
<g id="node-APIGWB" class="diagra-node" data-icon="aws-apigateway">
  <rect x="426" y="880" width="182" height="88" rx="8" fill="var(--node-bg)" stroke="var(--node-border)"/>
  <svg x="501" y="892" width="32" height="32" viewBox="0 0 32 32" role="img" aria-label="Amazon API Gateway">
  <path d="M16 2.8 27.6 9.4v13.2L16 29.2 4.4 22.6V9.4L16 2.8Z" fill="#FF9900"/>
  <path d="M7.5 11h17v10h-17z" fill="#ffb647" opacity="0.9"/><path d="M11 16h10" stroke="#FFFFFF" stroke-width="1.8" stroke-linecap="round"/>
  <text x="16" y="20.4" text-anchor="middle" font-family="Arial, Helvetica, sans-serif" font-size="7" font-weight="700" fill="#FFFFFF">API</text>
</svg>
  <text x="517" y="948" text-anchor="middle" font-family="var(--font)" font-size="12" font-weight="600" fill="var(--node-text)">API Gateway Region B</text>
</g>
<g id="node-LambdaB" class="diagra-node" data-icon="aws-lambda">
  <rect x="426" y="1148" width="145" height="88" rx="8" fill="var(--node-bg)" stroke="var(--node-border)"/>
  <svg x="482.5" y="1160" width="32" height="32" viewBox="0 0 32 32" role="img" aria-label="AWS Lambda">
  <path d="M16 2.8 27.6 9.4v13.2L16 29.2 4.4 22.6V9.4L16 2.8Z" fill="#FF9900"/>
  <rect x="8" y="8" width="16" height="16" rx="3" fill="#ffb647" opacity="0.95"/><path d="M11 6v4M16 6v4M21 6v4M11 22v4M16 22v4M21 22v4" stroke="#FFFFFF" stroke-width="1.1"/>
  <text x="16" y="20.4" text-anchor="middle" font-family="Arial, Helvetica, sans-serif" font-size="9" font-weight="700" fill="#FFFFFF">λ</text>
</svg>
  <text x="498.5" y="1216" text-anchor="middle" font-family="var(--font)" font-size="12" font-weight="600" fill="var(--node-text)">Lambda Region B</text>
</g>
<g id="node-DynamoB" class="diagra-node" data-icon="aws-dynamodb">
  <rect x="426" y="1416" width="160" height="88" rx="8" fill="var(--node-bg)" stroke="var(--node-border)"/>
  <svg x="490" y="1428" width="32" height="32" viewBox="0 0 32 32" role="img" aria-label="Amazon DynamoDB">
  <path d="M16 2.8 27.6 9.4v13.2L16 29.2 4.4 22.6V9.4L16 2.8Z" fill="#FF9900"/>
  <ellipse cx="16" cy="9" rx="8.5" ry="3.4" fill="#ffb647"/><path d="M7.5 9v12c0 1.9 3.8 3.4 8.5 3.4s8.5-1.5 8.5-3.4V9" fill="#ffb647"/><path d="M7.5 15c0 1.9 3.8 3.4 8.5 3.4s8.5-1.5 8.5-3.4" stroke="#FFFFFF" stroke-width="1.2" fill="none"/>
  <text x="16" y="20.4" text-anchor="middle" font-family="Arial, Helvetica, sans-serif" font-size="9" font-weight="700" fill="#FFFFFF">DB</text>
</svg>
  <text x="506" y="1484" text-anchor="middle" font-family="var(--font)" font-size="12" font-weight="600" fill="var(--node-text)">DynamoDB Region B</text>
</g>
<g id="node-GlobalTables" class="diagra-node" data-icon="aws-dynamodb">
  <rect x="287.5" y="1684" width="197" height="106" rx="8" fill="var(--node-bg)" stroke="var(--node-border)"/>
  <svg x="370" y="1696" width="32" height="32" viewBox="0 0 32 32" role="img" aria-label="Amazon DynamoDB">
  <path d="M16 2.8 27.6 9.4v13.2L16 29.2 4.4 22.6V9.4L16 2.8Z" fill="#FF9900"/>
  <ellipse cx="16" cy="9" rx="8.5" ry="3.4" fill="#ffb647"/><path d="M7.5 9v12c0 1.9 3.8 3.4 8.5 3.4s8.5-1.5 8.5-3.4V9" fill="#ffb647"/><path d="M7.5 15c0 1.9 3.8 3.4 8.5 3.4s8.5-1.5 8.5-3.4" stroke="#FFFFFF" stroke-width="1.2" fill="none"/>
  <text x="16" y="20.4" text-anchor="middle" font-family="Arial, Helvetica, sans-serif" font-size="9" font-weight="700" fill="#FFFFFF">DB</text>
</svg>
  <text text-anchor="middle" font-family="var(--font)" font-size="12" font-weight="600" fill="var(--node-text)">
  <tspan x="386" y="1746">DynamoDB Global</tspan>
  <tspan x="386" dy="18">Tables</tspan>
</text>
</g>
</g>
</svg>