<svg xmlns="http://www.w3.org/2000/svg" width="1820" height="2080" viewBox="0 0 1820 2080" role="img">
<style>
:root {
  --bg: #0F172A;
  --node-bg: #1E293B;
  --node-border: #334155;
  --node-text: #F1F5F9;
  --edge-color: #475569;
  --edge-label: #CBD5E1;
  --accent: #818CF8;
  --font: 'Inter', sans-serif;
}
.diagra-node { filter: drop-shadow(0 10px 18px rgba(15, 23, 42, 0.10)); }
.diagra-edge { stroke-linecap: round; }
</style>
<defs>
  <marker id="arrow" markerWidth="10" markerHeight="10" refX="8" refY="3" orient="auto" markerUnits="strokeWidth">
    <path d="M0,0 L0,6 L9,3 z" fill="var(--edge-color)"/>
  </marker>
</defs>
<rect width="100%" height="100%" fill="var(--bg)"/>
<g class="diagra-edge-label">
  <path id="edge-1" class="diagra-edge" d="M 106 128 C 154 128, 58 188, 106 188" stroke="var(--edge-color)" stroke-width="1.7" fill="none" marker-end="url(#arrow)"/>
  <rect x="70.5" y="138" width="71" height="16" rx="4" fill="var(--bg)" opacity="0.9"/>
  <text x="106" y="150" text-anchor="middle" font-family="var(--font)" font-size="10" font-weight="600" fill="var(--edge-label)">DNS Query</text>
</g>
<g class="diagra-edge-label">
  <path id="edge-2" class="diagra-edge" d="M 106 276 C 154 276, 58 484, 106 484" stroke="var(--edge-color)" stroke-width="1.7" fill="none" marker-end="url(#arrow)"/>
  <rect x="53" y="424" width="106" height="16" rx="4" fill="var(--bg)" opacity="0.9"/>
  <text x="106" y="436" text-anchor="middle" font-family="var(--font)" font-size="10" font-weight="600" fill="var(--edge-label)">Nearest Region</text>
</g>
<g class="diagra-edge-label">
  <path id="edge-3" class="diagra-edge" d="M 106 276 C 154 276, 58 1224, 106 1224" stroke="var(--edge-color)" stroke-width="1.7" fill="none" marker-end="url(#arrow)"/>
  <rect x="53" y="730" width="106" height="16" rx="4" fill="var(--bg)" opacity="0.9"/>
  <text x="106" y="742" text-anchor="middle" font-family="var(--font)" font-size="10" font-weight="600" fill="var(--edge-label)">Nearest Region</text>
</g>
<g class="diagra-edge-label">
  <path id="edge-4" class="diagra-edge" d="M 106 424 C 154 424, 58 484, 106 484" stroke="var(--edge-color)" stroke-width="1.7" fill="none" marker-end="url(#arrow)"/>
  <rect x="74" y="450" width="64" height="16" rx="4" fill="var(--bg)" opacity="0.9"/>
  <text x="106" y="462" text-anchor="middle" font-family="var(--font)" font-size="10" font-weight="600" fill="var(--edge-label)">Contains</text>
</g>
<g class="diagra-edge-label">
  <path id="edge-5" class="diagra-edge" d="M 106 572 C 154 572, 58 632, 106 632" stroke="var(--edge-color)" stroke-width="1.7" fill="none" marker-end="url(#arrow)"/>
  <rect x="77.5" y="582" width="57" height="16" rx="4" fill="var(--bg)" opacity="0.9"/>
  <text x="106" y="594" text-anchor="middle" font-family="var(--font)" font-size="10" font-weight="600" fill="var(--edge-label)">Request</text>
</g>
<g class="diagra-edge-label">
  <path id="edge-6" class="diagra-edge" d="M 106 720 C 154 720, 58 780, 106 780" stroke="var(--edge-color)" stroke-width="1.7" fill="none" marker-end="url(#arrow)"/>
  <rect x="81" y="762" width="50" height="16" rx="4" fill="var(--bg)" opacity="0.9"/>
  <text x="106" y="774" text-anchor="middle" font-family="var(--font)" font-size="10" font-weight="600" fill="var(--edge-label)">Invoke</text>
</g>
<g class="diagra-edge-label">
  <path id="edge-7" class="diagra-edge" d="M 106 868 C 154 868, 58 928, 106 928" stroke="var(--edge-color)" stroke-width="1.7" fill="none" marker-end="url(#arrow)"/>
  <rect x="53" y="878" width="106" height="16" rx="4" fill="var(--bg)" opacity="0.9"/>
  <text x="106" y="890" text-anchor="middle" font-family="var(--font)" font-size="10" font-weight="600" fill="var(--edge-label)">Read and Write</text>
</g>
<g class="diagra-edge-label">
  <path id="edge-8" class="diagra-edge" d="M 106 1164 C 154 1164, 58 1224, 106 1224" stroke="var(--edge-color)" stroke-width="1.7" fill="none" marker-end="url(#arrow)"/>
  <rect x="74" y="1174" width="64" height="16" rx="4" fill="var(--bg)" opacity="0.9"/>
  <text x="106" y="1186" text-anchor="middle" font-family="var(--font)" font-size="10" font-weight="600" fill="var(--edge-label)">Contains</text>
</g>
<g class="diagra-edge-label">
  <path id="edge-9" class="diagra-edge" d="M 106 1312 C 154 1312, 58 1372, 106 1372" stroke="var(--edge-color)" stroke-width="1.7" fill="none" marker-end="url(#arrow)"/>
  <rect x="77.5" y="1322" width="57" height="16" rx="4" fill="var(--bg)" opacity="0.9"/>
  <text x="106" y="1334" text-anchor="middle" font-family="var(--font)" font-size="10" font-weight="600" fill="var(--edge-label)">Request</text>
</g>
<g class="diagra-edge-label">
  <path id="edge-10" class="diagra-edge" d="M 106 1460 C 154 1460, 58 1520, 106 1520" stroke="var(--edge-color)" stroke-width="1.7" fill="none" marker-end="url(#arrow)"/>
  <rect x="81" y="1470" width="50" height="16" rx="4" fill="var(--bg)" opacity="0.9"/>
  <text x="106" y="1482" text-anchor="middle" font-family="var(--font)" font-size="10" font-weight="600" fill="var(--edge-label)">Invoke</text>
</g>
<g class="diagra-edge-label">
  <path id="edge-11" class="diagra-edge" d="M 106 1608 C 154 1608, 58 1668, 106 1668" stroke="var(--edge-color)" stroke-width="1.7" fill="none" marker-end="url(#arrow)"/>
  <rect x="53" y="1618" width="106" height="16" rx="4" fill="var(--bg)" opacity="0.9"/>
  <text x="106" y="1630" text-anchor="middle" font-family="var(--font)" font-size="10" font-weight="600" fill="var(--edge-label)">Read and Write</text>
</g>
<g class="diagra-edge-label">
  <path id="edge-12" class="diagra-edge" d="M 106 1016 C 154 1016, 58 1816, 106 1816" stroke="var(--edge-color)" stroke-width="1.7" fill="none" marker-end="url(#arrow)"/>
  <rect x="70.5" y="1492" width="71" height="16" rx="4" fill="var(--bg)" opacity="0.9"/>
  <text x="106" y="1504" text-anchor="middle" font-family="var(--font)" font-size="10" font-weight="600" fill="var(--edge-label)">Replicate</text>
</g>
<g class="diagra-edge-label">
  <path id="edge-13" class="diagra-edge" d="M 106 1816 C 154 1816, 58 1756, 106 1756" stroke="var(--edge-color)" stroke-width="1.7" fill="none" marker-end="url(#arrow)"/>
  <rect x="70.5" y="1766" width="71" height="16" rx="4" fill="var(--bg)" opacity="0.9"/>
  <text x="106" y="1778" text-anchor="middle" font-family="var(--font)" font-size="10" font-weight="600" fill="var(--edge-label)">Replicate</text>
</g>
<circle r="4" fill="var(--accent)" opacity="0.9">
  <animateMotion dur="1.5s" begin="0s" repeatCount="indefinite">
    <mpath href="#edge-1"/>
  </animateMotion>
</circle>
<circle r="4" fill="var(--accent)" opacity="0.9">
  <animateMotion dur="1.5s" begin="0.2s" repeatCount="indefinite">
    <mpath href="#edge-2"/>
  </animateMotion>
</circle>
<circle r="4" fill="var(--accent)" opacity="0.9">
  <animateMotion dur="1.5s" begin="0.4s" repeatCount="indefinite">
    <mpath href="#edge-3"/>
  </animateMotion>
</circle>
<circle r="4" fill="var(--accent)" opacity="0.9">
  <animateMotion dur="1.5s" begin="0.6000000000000001s" repeatCount="indefinite">
    <mpath href="#edge-4"/>
  </animateMotion>
</circle>
<circle r="4" fill="var(--accent)" opacity="0.9">
  <animateMotion dur="1.5s" begin="0.8s" repeatCount="indefinite">
    <mpath href="#edge-5"/>
  </animateMotion>
</circle>
<circle r="4" fill="var(--accent)" opacity="0.9">
  <animateMotion dur="1.5s" begin="1s" repeatCount="indefinite">
    <mpath href="#edge-6"/>
  </animateMotion>
</circle>
<circle r="4" fill="var(--accent)" opacity="0.9">
  <animateMotion dur="1.5s" begin="1.2000000000000002s" repeatCount="indefinite">
    <mpath href="#edge-7"/>
  </animateMotion>
</circle>
<circle r="4" fill="var(--accent)" opacity="0.9">
  <animateMotion dur="1.5s" begin="1.4000000000000001s" repeatCount="indefinite">
    <mpath href="#edge-8"/>
  </animateMotion>
</circle>
<circle r="4" fill="var(--accent)" opacity="0.9">
  <animateMotion dur="1.5s" begin="1.6s" repeatCount="indefinite">
    <mpath href="#edge-9"/>
  </animateMotion>
</circle>
<circle r="4" fill="var(--accent)" opacity="0.9">
  <animateMotion dur="1.5s" begin="1.8s" repeatCount="indefinite">
    <mpath href="#edge-10"/>
  </animateMotion>
</circle>
<circle r="4" fill="var(--accent)" opacity="0.9">
  <animateMotion dur="1.5s" begin="2s" repeatCount="indefinite">
    <mpath href="#edge-11"/>
  </animateMotion>
</circle>
<circle r="4" fill="var(--accent)" opacity="0.9">
  <animateMotion dur="1.5s" begin="2.2s" repeatCount="indefinite">
    <mpath href="#edge-12"/>
  </animateMotion>
</circle>
<circle r="4" fill="var(--accent)" opacity="0.9">
  <animateMotion dur="1.5s" begin="2.4000000000000004s" repeatCount="indefinite">
    <mpath href="#edge-13"/>
  </animateMotion>
</circle>
<g id="node-Users" class="diagra-node" data-icon="generic-browser">
  <rect x="40" y="40" width="132" height="88" rx="8" fill="var(--node-bg)" stroke="var(--node-border)"/>
  <svg x="90" y="52" width="32" height="32" viewBox="0 0 32 32" role="img" aria-label="browser"><rect x="4" y="6" width="24" height="20" rx="3" fill="#64748B"/><path d="M4 12h24" stroke="#fff" stroke-width="2"/><circle cx="9" cy="9" r="1" fill="#fff"/><circle cx="13" cy="9" r="1" fill="#fff"/></svg>

  <text x="106" y="108" text-anchor="middle" font-family="var(--font)" font-size="12" font-weight="600" fill="var(--node-text)">Global Users</text>
</g>
<g id="node-Route53" class="diagra-node" data-icon="aws-route53">
  <rect x="40" y="188" width="132" height="88" rx="8" fill="var(--node-bg)" stroke="var(--node-border)"/>
  <svg x="90" y="200" width="32" height="32" viewBox="0 0 32 32" role="img" aria-label="Amazon Route 53">
  <path d="M16 2.8 27.6 9.4v13.2L16 29.2 4.4 22.6V9.4L16 2.8Z" fill="#FF9900"/>
  <circle cx="10" cy="11" r="3" fill="#ffb647"/><circle cx="22" cy="11" r="3" fill="#ffb647"/><circle cx="16" cy="22" r="3" fill="#ffb647"/><path d="M12.5 12.5 15 19M19.5 12.5 17 19M13 11h6" stroke="#FFFFFF" stroke-width="1.3"/>
  <text x="16" y="20.4" text-anchor="middle" font-family="Arial, Helvetica, sans-serif" font-size="7" font-weight="700" fill="#FFFFFF">R53</text>
</svg>
  <text x="106" y="256" text-anchor="middle" font-family="var(--font)" font-size="12" font-weight="600" fill="var(--node-text)">Route53 Latency Routing</text>
</g>
<g id="node-RegionA" class="diagra-node" data-icon="aws-vpc">
  <rect x="40" y="336" width="132" height="88" rx="8" fill="var(--node-bg)" stroke="var(--node-border)"/>
  <svg x="90" y="348" width="32" height="32" viewBox="0 0 32 32" role="img" aria-label="Amazon VPC">
  <path d="M16 2.8 27.6 9.4v13.2L16 29.2 4.4 22.6V9.4L16 2.8Z" fill="#FF9900"/>
  <circle cx="10" cy="11" r="3" fill="#ffb647"/><circle cx="22" cy="11" r="3" fill="#ffb647"/><circle cx="16" cy="22" r="3" fill="#ffb647"/><path d="M12.5 12.5 15 19M19.5 12.5 17 19M13 11h6" stroke="#FFFFFF" stroke-width="1.3"/>
  <text x="16" y="20.4" text-anchor="middle" font-family="Arial, Helvetica, sans-serif" font-size="7" font-weight="700" fill="#FFFFFF">VPC</text>
</svg>
  <text x="106" y="404" text-anchor="middle" font-family="var(--font)" font-size="12" font-weight="600" fill="var(--node-text)">us-east-1 Active Region</text>
</g>
<g id="node-CloudFrontA" class="diagra-node" data-icon="aws-cloudfront">
  <rect x="40" y="484" width="132" height="88" rx="8" fill="var(--node-bg)" stroke="var(--node-border)"/>
  <svg x="90" y="496" width="32" height="32" viewBox="0 0 32 32" role="img" aria-label="Amazon CloudFront">
  <path d="M16 2.8 27.6 9.4v13.2L16 29.2 4.4 22.6V9.4L16 2.8Z" fill="#FF9900"/>
  <circle cx="16" cy="16" r="8.5" fill="#ffb647" opacity="0.9"/><path d="M8 16h16M16 8c2 2.4 3 5 3 8s-1 5.6-3 8M16 8c-2 2.4-3 5-3 8s1 5.6 3 8" stroke="#FFFFFF" stroke-width="1.1" fill="none"/>
  <text x="16" y="20.4" text-anchor="middle" font-family="Arial, Helvetica, sans-serif" font-size="9" font-weight="700" fill="#FFFFFF">CF</text>
</svg>
  <text x="106" y="552" text-anchor="middle" font-family="var(--font)" font-size="12" font-weight="600" fill="var(--node-text)">CloudFront Region A</text>
</g>
<g id="node-APIGWA" class="diagra-node" data-icon="aws-apigateway">
  <rect x="40" y="632" width="132" height="88" rx="8" fill="var(--node-bg)" stroke="var(--node-border)"/>
  <svg x="90" y="644" width="32" height="32" viewBox="0 0 32 32" role="img" aria-label="Amazon API Gateway">
  <path d="M16 2.8 27.6 9.4v13.2L16 29.2 4.4 22.6V9.4L16 2.8Z" fill="#FF9900"/>
  <path d="M7.5 11h17v10h-17z" fill="#ffb647" opacity="0.9"/><path d="M11 16h10" stroke="#FFFFFF" stroke-width="1.8" stroke-linecap="round"/>
  <text x="16" y="20.4" text-anchor="middle" font-family="Arial, Helvetica, sans-serif" font-size="7" font-weight="700" fill="#FFFFFF">API</text>
</svg>
  <text x="106" y="700" text-anchor="middle" font-family="var(--font)" font-size="12" font-weight="600" fill="var(--node-text)">API Gateway Region A</text>
</g>
<g id="node-LambdaA" class="diagra-node" data-icon="aws-lambda">
  <rect x="40" y="780" width="132" height="88" rx="8" fill="var(--node-bg)" stroke="var(--node-border)"/>
  <svg x="90" y="792" width="32" height="32" viewBox="0 0 32 32" role="img" aria-label="AWS Lambda">
  <path d="M16 2.8 27.6 9.4v13.2L16 29.2 4.4 22.6V9.4L16 2.8Z" fill="#FF9900"/>
  <rect x="8" y="8" width="16" height="16" rx="3" fill="#ffb647" opacity="0.95"/><path d="M11 6v4M16 6v4M21 6v4M11 22v4M16 22v4M21 22v4" stroke="#FFFFFF" stroke-width="1.1"/>
  <text x="16" y="20.4" text-anchor="middle" font-family="Arial, Helvetica, sans-serif" font-size="9" font-weight="700" fill="#FFFFFF">λ</text>
</svg>
  <text x="106" y="848" text-anchor="middle" font-family="var(--font)" font-size="12" font-weight="600" fill="var(--node-text)">Lambda Region A</text>
</g>
<g id="node-DynamoA" class="diagra-node" data-icon="aws-dynamodb">
  <rect x="40" y="928" width="132" height="88" rx="8" fill="var(--node-bg)" stroke="var(--node-border)"/>
  <svg x="90" y="940" width="32" height="32" viewBox="0 0 32 32" role="img" aria-label="Amazon DynamoDB">
  <path d="M16 2.8 27.6 9.4v13.2L16 29.2 4.4 22.6V9.4L16 2.8Z" fill="#FF9900"/>
  <ellipse cx="16" cy="9" rx="8.5" ry="3.4" fill="#ffb647"/><path d="M7.5 9v12c0 1.9 3.8 3.4 8.5 3.4s8.5-1.5 8.5-3.4V9" fill="#ffb647"/><path d="M7.5 15c0 1.9 3.8 3.4 8.5 3.4s8.5-1.5 8.5-3.4" stroke="#FFFFFF" stroke-width="1.2" fill="none"/>
  <text x="16" y="20.4" text-anchor="middle" font-family="Arial, Helvetica, sans-serif" font-size="9" font-weight="700" fill="#FFFFFF">DB</text>
</svg>
  <text x="106" y="996" text-anchor="middle" font-family="var(--font)" font-size="12" font-weight="600" fill="var(--node-text)">DynamoDB Region A</text>
</g>
<g id="node-RegionB" class="diagra-node" data-icon="aws-vpc">
  <rect x="40" y="1076" width="132" height="88" rx="8" fill="var(--node-bg)" stroke="var(--node-border)"/>
  <svg x="90" y="1088" width="32" height="32" viewBox="0 0 32 32" role="img" aria-label="Amazon VPC">
  <path d="M16 2.8 27.6 9.4v13.2L16 29.2 4.4 22.6V9.4L16 2.8Z" fill="#FF9900"/>
  <circle cx="10" cy="11" r="3" fill="#ffb647"/><circle cx="22" cy="11" r="3" fill="#ffb647"/><circle cx="16" cy="22" r="3" fill="#ffb647"/><path d="M12.5 12.5 15 19M19.5 12.5 17 19M13 11h6" stroke="#FFFFFF" stroke-width="1.3"/>
  <text x="16" y="20.4" text-anchor="middle" font-family="Arial, Helvetica, sans-serif" font-size="7" font-weight="700" fill="#FFFFFF">VPC</text>
</svg>
  <text x="106" y="1144" text-anchor="middle" font-family="var(--font)" font-size="12" font-weight="600" fill="var(--node-text)">eu-west-1 Active Region</text>
</g>
<g id="node-CloudFrontB" class="diagra-node" data-icon="aws-cloudfront">
  <rect x="40" y="1224" width="132" height="88" rx="8" fill="var(--node-bg)" stroke="var(--node-border)"/>
  <svg x="90" y="1236" width="32" height="32" viewBox="0 0 32 32" role="img" aria-label="Amazon CloudFront">
  <path d="M16 2.8 27.6 9.4v13.2L16 29.2 4.4 22.6V9.4L16 2.8Z" fill="#FF9900"/>
  <circle cx="16" cy="16" r="8.5" fill="#ffb647" opacity="0.9"/><path d="M8 16h16M16 8c2 2.4 3 5 3 8s-1 5.6-3 8M16 8c-2 2.4-3 5-3 8s1 5.6 3 8" stroke="#FFFFFF" stroke-width="1.1" fill="none"/>
  <text x="16" y="20.4" text-anchor="middle" font-family="Arial, Helvetica, sans-serif" font-size="9" font-weight="700" fill="#FFFFFF">CF</text>
</svg>
  <text x="106" y="1292" text-anchor="middle" font-family="var(--font)" font-size="12" font-weight="600" fill="var(--node-text)">CloudFront Region B</text>
</g>
<g id="node-APIGWB" class="diagra-node" data-icon="aws-apigateway">
  <rect x="40" y="1372" width="132" height="88" rx="8" fill="var(--node-bg)" stroke="var(--node-border)"/>
  <svg x="90" y="1384" width="32" height="32" viewBox="0 0 32 32" role="img" aria-label="Amazon API Gateway">
  <path d="M16 2.8 27.6 9.4v13.2L16 29.2 4.4 22.6V9.4L16 2.8Z" fill="#FF9900"/>
  <path d="M7.5 11h17v10h-17z" fill="#ffb647" opacity="0.9"/><path d="M11 16h10" stroke="#FFFFFF" stroke-width="1.8" stroke-linecap="round"/>
  <text x="16" y="20.4" text-anchor="middle" font-family="Arial, Helvetica, sans-serif" font-size="7" font-weight="700" fill="#FFFFFF">API</text>
</svg>
  <text x="106" y="1440" text-anchor="middle" font-family="var(--font)" font-size="12" font-weight="600" fill="var(--node-text)">API Gateway Region B</text>
</g>
<g id="node-LambdaB" class="diagra-node" data-icon="aws-lambda">
  <rect x="40" y="1520" width="132" height="88" rx="8" fill="var(--node-bg)" stroke="var(--node-border)"/>
  <svg x="90" y="1532" width="32" height="32" viewBox="0 0 32 32" role="img" aria-label="AWS Lambda">
  <path d="M16 2.8 27.6 9.4v13.2L16 29.2 4.4 22.6V9.4L16 2.8Z" fill="#FF9900"/>
  <rect x="8" y="8" width="16" height="16" rx="3" fill="#ffb647" opacity="0.95"/><path d="M11 6v4M16 6v4M21 6v4M11 22v4M16 22v4M21 22v4" stroke="#FFFFFF" stroke-width="1.1"/>
  <text x="16" y="20.4" text-anchor="middle" font-family="Arial, Helvetica, sans-serif" font-size="9" font-weight="700" fill="#FFFFFF">λ</text>
</svg>
  <text x="106" y="1588" text-anchor="middle" font-family="var(--font)" font-size="12" font-weight="600" fill="var(--node-text)">Lambda Region B</text>
</g>
<g id="node-DynamoB" class="diagra-node" data-icon="aws-dynamodb">
  <rect x="40" y="1668" width="132" height="88" rx="8" fill="var(--node-bg)" stroke="var(--node-border)"/>
  <svg x="90" y="1680" width="32" height="32" viewBox="0 0 32 32" role="img" aria-label="Amazon DynamoDB">
  <path d="M16 2.8 27.6 9.4v13.2L16 29.2 4.4 22.6V9.4L16 2.8Z" fill="#FF9900"/>
  <ellipse cx="16" cy="9" rx="8.5" ry="3.4" fill="#ffb647"/><path d="M7.5 9v12c0 1.9 3.8 3.4 8.5 3.4s8.5-1.5 8.5-3.4V9" fill="#ffb647"/><path d="M7.5 15c0 1.9 3.8 3.4 8.5 3.4s8.5-1.5 8.5-3.4" stroke="#FFFFFF" stroke-width="1.2" fill="none"/>
  <text x="16" y="20.4" text-anchor="middle" font-family="Arial, Helvetica, sans-serif" font-size="9" font-weight="700" fill="#FFFFFF">DB</text>
</svg>
  <text x="106" y="1736" text-anchor="middle" font-family="var(--font)" font-size="12" font-weight="600" fill="var(--node-text)">DynamoDB Region B</text>
</g>
<g id="node-GlobalTables" class="diagra-node" data-icon="aws-dynamodb">
  <rect x="40" y="1816" width="132" height="88" rx="8" fill="var(--node-bg)" stroke="var(--node-border)"/>
  <svg x="90" y="1828" width="32" height="32" viewBox="0 0 32 32" role="img" aria-label="Amazon DynamoDB">
  <path d="M16 2.8 27.6 9.4v13.2L16 29.2 4.4 22.6V9.4L16 2.8Z" fill="#FF9900"/>
  <ellipse cx="16" cy="9" rx="8.5" ry="3.4" fill="#ffb647"/><path d="M7.5 9v12c0 1.9 3.8 3.4 8.5 3.4s8.5-1.5 8.5-3.4V9" fill="#ffb647"/><path d="M7.5 15c0 1.9 3.8 3.4 8.5 3.4s8.5-1.5 8.5-3.4" stroke="#FFFFFF" stroke-width="1.2" fill="none"/>
  <text x="16" y="20.4" text-anchor="middle" font-family="Arial, Helvetica, sans-serif" font-size="9" font-weight="700" fill="#FFFFFF">DB</text>
</svg>
  <text x="106" y="1884" text-anchor="middle" font-family="var(--font)" font-size="12" font-weight="600" fill="var(--node-text)">DynamoDB Global Tables</text>
</g>
</svg>