<svg xmlns="http://www.w3.org/2000/svg" width="2345" height="960" viewBox="0 0 2345 960" role="img">
<style>
:root {
  --bg: #0F172A;
  --node-bg: #1E293B;
  --node-border: #334155;
  --node-text: #F1F5F9;
  --edge-color: #475569;
  --edge-label: #CBD5E1;
  --accent: #818CF8;
  --font: 'Inter', sans-serif;
}
.diagra-node { filter: drop-shadow(0 10px 18px rgba(15, 23, 42, 0.10)); }
.diagra-edge { stroke-linecap: round; }
</style>
<defs>
  <marker id="arrow" markerWidth="10" markerHeight="10" refX="8" refY="3" orient="auto" markerUnits="strokeWidth">
    <path d="M0,0 L0,6 L9,3 z" fill="var(--edge-color)"/>
  </marker>
</defs>
<rect width="100%" height="100%" fill="var(--bg)"/>

<g transform="translate(0, 0)">
<g class="diagra-edge-label">
  <path id="edge-1" class="diagra-edge" d="M 275 315 C 356 315, 374 306, 455 306" stroke="var(--edge-color)" stroke-width="1.7" fill="none" marker-end="url(#arrow)"/>
  <rect x="282.75" y="288.5" width="107" height="16" rx="2" fill="var(--bg)" opacity="0.85"/>
  <text x="336.25" y="298.5" text-anchor="middle" font-family="var(--font)" font-size="10" font-weight="600" fill="var(--edge-label)">HTTPS Request</text>
</g>
<g class="diagra-edge-label">
  <path id="edge-2" class="diagra-edge" d="M 575 306 L 870 306" stroke="var(--edge-color)" stroke-width="1.7" fill="none" marker-end="url(#arrow)"/>
  <rect x="693.5" y="316" width="58" height="16" rx="2" fill="var(--bg)" opacity="0.85"/>
  <text x="722.5" y="326" text-anchor="middle" font-family="var(--font)" font-size="10" font-weight="600" fill="var(--edge-label)">Invoke</text>
</g>
<g class="diagra-edge-label">
  <path id="edge-3" class="diagra-edge" d="M 990 306 C 1122.75 306, 1152.25 380, 1285 380" stroke="var(--edge-color)" stroke-width="1.7" fill="none" marker-end="url(#arrow)"/>
  <rect x="1087.5" y="337" width="100" height="16" rx="2" fill="var(--bg)" opacity="0.85"/>
  <text x="1137.5" y="347" text-anchor="middle" font-family="var(--font)" font-size="10" font-weight="600" fill="var(--edge-label)">Read / Write</text>
</g>
<g class="diagra-edge-label">
  <path id="edge-4" class="diagra-edge" d="M 990 306 C 1122.75 306, 1152.25 232, 1285 232" stroke="var(--edge-color)" stroke-width="1.7" fill="none" marker-end="url(#arrow)"/>
  <rect x="1084" y="247" width="107" height="16" rx="2" fill="var(--bg)" opacity="0.85"/>
  <text x="1137.5" y="257" text-anchor="middle" font-family="var(--font)" font-size="10" font-weight="600" fill="var(--edge-label)">Publish Event</text>
</g>
<g class="diagra-edge-label">
  <path id="edge-5" class="diagra-edge" d="M 1405 232 L 1700 232" stroke="var(--edge-color)" stroke-width="1.7" fill="none" marker-end="url(#arrow)"/>
  <rect x="1506" y="210" width="93" height="16" rx="2" fill="var(--bg)" opacity="0.85"/>
  <text x="1552.5" y="220" text-anchor="middle" font-family="var(--font)" font-size="10" font-weight="600" fill="var(--edge-label)">Route Event</text>
</g>
<g class="diagra-edge-label">
  <path id="edge-6" class="diagra-edge" d="M 1405 232 C 1537.75 232, 1567.25 380, 1700 380" stroke="var(--edge-color)" stroke-width="1.7" fill="none" marker-end="url(#arrow)"/>
  <rect x="1513" y="364" width="79" height="16" rx="2" fill="var(--bg)" opacity="0.85"/>
  <text x="1552.5" y="374" text-anchor="middle" font-family="var(--font)" font-size="10" font-weight="600" fill="var(--edge-label)">Async Job</text>
</g>
<g class="diagra-edge-label">
  <path id="edge-7" class="diagra-edge" d="M 1820 232 C 1952.75 232, 1982.25 241, 2115 241" stroke="var(--edge-color)" stroke-width="1.7" fill="none" marker-end="url(#arrow)"/>
  <rect x="1956" y="390.5" width="58" height="16" rx="2" fill="var(--bg)" opacity="0.85"/>
  <text x="1985" y="400.5" text-anchor="middle" font-family="var(--font)" font-size="10" font-weight="600" fill="var(--edge-label)">Notify</text>
</g>
<g class="diagra-edge-label">
  <path id="edge-8" class="diagra-edge" d="M 1820 232 C 1952.75 232, 1982.25 84, 2115 84" stroke="var(--edge-color)" stroke-width="1.7" fill="none" marker-end="url(#arrow)"/>
  <rect x="1950.5" y="136" width="65" height="16" rx="2" fill="var(--bg)" opacity="0.85"/>
  <text x="1983" y="146" text-anchor="middle" font-family="var(--font)" font-size="10" font-weight="600" fill="var(--edge-label)">Trigger</text>
</g>
<g class="diagra-edge-label">
  <path id="edge-9" class="diagra-edge" d="M 1820 380 C 1952.75 380, 1982.25 528, 2115 528" stroke="var(--edge-color)" stroke-width="1.7" fill="none" marker-end="url(#arrow)"/>
  <rect x="1950.5" y="432" width="65" height="16" rx="2" fill="var(--bg)" opacity="0.85"/>
  <text x="1983" y="442" text-anchor="middle" font-family="var(--font)" font-size="10" font-weight="600" fill="var(--edge-label)">Process</text>
</g>
<g class="diagra-edge-label">
  <path id="edge-10" class="diagra-edge" d="M 1820 380 L 2115 380" stroke="var(--edge-color)" stroke-width="1.7" fill="none" marker-end="url(#arrow)"/>
  <rect x="1920.5" y="454" width="114" height="16" rx="2" fill="var(--bg)" opacity="0.85"/>
  <text x="1977.5" y="464" text-anchor="middle" font-family="var(--font)" font-size="10" font-weight="600" fill="var(--edge-label)">Failed Retries</text>
</g>
<g class="diagra-edge-label">
  <path id="edge-11" class="diagra-edge" d="M 575 306 C 925.625 306, 1003.5416666666665 712, 1354.1666666666665 712" stroke="var(--edge-color)" stroke-width="1" fill="none" marker-end="url(#arrow)" stroke-dasharray="6 5" opacity="0.4"/>
  <rect x="907.5833333333333" y="487" width="114" height="16" rx="2" fill="var(--bg)" opacity="0.85"/>
  <text x="964.5833333333333" y="497" text-anchor="middle" font-family="var(--font)" font-size="10" font-weight="600" fill="var(--edge-label)">Logs / Metrics</text>
</g>
<g class="diagra-edge-label">
  <path id="edge-12" class="diagra-edge" d="M 990 306 C 1153.875 306, 1190.2916666666665 712, 1354.1666666666665 712" stroke="var(--edge-color)" stroke-width="1" fill="none" marker-end="url(#arrow)" stroke-dasharray="6 5" opacity="0.4"/>
  <rect x="1115.0833333333333" y="519" width="114" height="16" rx="2" fill="var(--bg)" opacity="0.85"/>
  <text x="1172.0833333333333" y="529" text-anchor="middle" font-family="var(--font)" font-size="10" font-weight="600" fill="var(--edge-label)">Logs / Metrics</text>
</g>
<g class="diagra-edge-label">
  <path id="edge-13" class="diagra-edge" d="M 1345 276 C 1393 276, 1366.1666666666665 668, 1414.1666666666665 668" stroke="var(--edge-color)" stroke-width="1" fill="none" marker-end="url(#arrow)" stroke-dasharray="6 5" opacity="0.4"/>
  <rect x="1329.5833333333333" y="546" width="100" height="16" rx="2" fill="var(--bg)" opacity="0.85"/>
  <text x="1379.5833333333333" y="556" text-anchor="middle" font-family="var(--font)" font-size="10" font-weight="600" fill="var(--edge-label)">Rule Metrics</text>
</g>
<g class="diagra-edge-label">
  <path id="edge-14" class="diagra-edge" d="M 1760 276 C 1915.625 276, 1258.5416666666665 668, 1414.1666666666665 668" stroke="var(--edge-color)" stroke-width="1" fill="none" marker-end="url(#arrow)" stroke-dasharray="6 5" opacity="0.4"/>
  <rect x="1523.0833333333333" y="578" width="128" height="16" rx="2" fill="var(--bg)" opacity="0.85"/>
  <text x="1587.0833333333333" y="588" text-anchor="middle" font-family="var(--font)" font-size="10" font-weight="600" fill="var(--edge-label)">Delivery Metrics</text>
</g>
<g class="diagra-edge-label">
  <path id="edge-15" class="diagra-edge" d="M 1700 380 C 1801.625 380, 1372.5416666666665 712, 1474.1666666666665 712" stroke="var(--edge-color)" stroke-width="1" fill="none" marker-end="url(#arrow)" stroke-dasharray="6 5" opacity="0.4"/>
  <rect x="1533.5833333333333" y="604" width="107" height="16" rx="2" fill="var(--bg)" opacity="0.85"/>
  <text x="1587.0833333333333" y="614" text-anchor="middle" font-family="var(--font)" font-size="10" font-weight="600" fill="var(--edge-label)">Queue Metrics</text>
</g>
<g class="diagra-edge-label">
  <path id="edge-16" class="diagra-edge" d="M 2115 380 C 2403.375 380, 1185.7916666666665 712, 1474.1666666666665 712" stroke="var(--edge-color)" stroke-width="1" fill="none" marker-end="url(#arrow)" stroke-dasharray="6 5" opacity="0.4"/>
  <rect x="1747.5833333333333" y="636" width="114" height="16" rx="2" fill="var(--bg)" opacity="0.85"/>
  <text x="1804.5833333333333" y="646" text-anchor="middle" font-family="var(--font)" font-size="10" font-weight="600" fill="var(--edge-label)">Failure Alerts</text>
</g>
<g class="diagra-edge-label">
  <path id="edge-17" class="diagra-edge" d="M 515 350 C 608.375 350, 629.125 668, 722.5 668" stroke="var(--edge-color)" stroke-width="1" fill="none" marker-end="url(#arrow)" stroke-dasharray="6 5" opacity="0.4"/>
  <rect x="592.75" y="663" width="52" height="16" rx="2" fill="var(--bg)" opacity="0.85"/>
  <text x="618.75" y="673" text-anchor="middle" font-family="var(--font)" font-size="10" font-weight="600" fill="var(--edge-label)">Trace</text>
</g>
<g class="diagra-edge-label">
  <path id="edge-18" class="diagra-edge" d="M 930 350 C 1023.375 350, 629.125 668, 722.5 668" stroke="var(--edge-color)" stroke-width="1" fill="none" marker-end="url(#arrow)" stroke-dasharray="6 5" opacity="0.4"/>
  <rect x="800.25" y="695" width="52" height="16" rx="2" fill="var(--bg)" opacity="0.85"/>
  <text x="826.25" y="705" text-anchor="middle" font-family="var(--font)" font-size="10" font-weight="600" fill="var(--edge-label)">Trace</text>
</g>
<circle r="4" fill="var(--accent)" opacity="0.9">
  <animateMotion dur="1.5s" begin="0s" repeatCount="indefinite">
    <mpath href="#edge-1"/>
  </animateMotion>
</circle>
<circle r="4" fill="var(--accent)" opacity="0.9">
  <animateMotion dur="1.5s" begin="0.2s" repeatCount="indefinite">
    <mpath href="#edge-2"/>
  </animateMotion>
</circle>
<circle r="4" fill="var(--accent)" opacity="0.9">
  <animateMotion dur="1.5s" begin="0.4s" repeatCount="indefinite">
    <mpath href="#edge-3"/>
  </animateMotion>
</circle>
<circle r="4" fill="var(--accent)" opacity="0.9">
  <animateMotion dur="1.5s" begin="0.6000000000000001s" repeatCount="indefinite">
    <mpath href="#edge-4"/>
  </animateMotion>
</circle>
<circle r="4" fill="var(--accent)" opacity="0.9">
  <animateMotion dur="1.5s" begin="0.8s" repeatCount="indefinite">
    <mpath href="#edge-5"/>
  </animateMotion>
</circle>
<circle r="4" fill="var(--accent)" opacity="0.9">
  <animateMotion dur="1.5s" begin="1s" repeatCount="indefinite">
    <mpath href="#edge-6"/>
  </animateMotion>
</circle>
<circle r="4" fill="var(--accent)" opacity="0.9">
  <animateMotion dur="1.5s" begin="1.2000000000000002s" repeatCount="indefinite">
    <mpath href="#edge-7"/>
  </animateMotion>
</circle>
<circle r="4" fill="var(--accent)" opacity="0.9">
  <animateMotion dur="1.5s" begin="1.4000000000000001s" repeatCount="indefinite">
    <mpath href="#edge-8"/>
  </animateMotion>
</circle>
<circle r="4" fill="var(--accent)" opacity="0.9">
  <animateMotion dur="1.5s" begin="1.6s" repeatCount="indefinite">
    <mpath href="#edge-9"/>
  </animateMotion>
</circle>
<circle r="4" fill="var(--accent)" opacity="0.9">
  <animateMotion dur="1.5s" begin="1.8s" repeatCount="indefinite">
    <mpath href="#edge-10"/>
  </animateMotion>
</circle>
<circle r="4" fill="var(--accent)" opacity="0.9">
  <animateMotion dur="1.5s" begin="2s" repeatCount="indefinite">
    <mpath href="#edge-11"/>
  </animateMotion>
</circle>
<circle r="4" fill="var(--accent)" opacity="0.9">
  <animateMotion dur="1.5s" begin="2.2s" repeatCount="indefinite">
    <mpath href="#edge-12"/>
  </animateMotion>
</circle>
<circle r="4" fill="var(--accent)" opacity="0.9">
  <animateMotion dur="1.5s" begin="2.4000000000000004s" repeatCount="indefinite">
    <mpath href="#edge-13"/>
  </animateMotion>
</circle>
<circle r="4" fill="var(--accent)" opacity="0.9">
  <animateMotion dur="1.5s" begin="2.6s" repeatCount="indefinite">
    <mpath href="#edge-14"/>
  </animateMotion>
</circle>
<circle r="4" fill="var(--accent)" opacity="0.9">
  <animateMotion dur="1.5s" begin="2.8000000000000003s" repeatCount="indefinite">
    <mpath href="#edge-15"/>
  </animateMotion>
</circle>
<circle r="4" fill="var(--accent)" opacity="0.9">
  <animateMotion dur="1.5s" begin="3s" repeatCount="indefinite">
    <mpath href="#edge-16"/>
  </animateMotion>
</circle>
<circle r="4" fill="var(--accent)" opacity="0.9">
  <animateMotion dur="1.5s" begin="3.2s" repeatCount="indefinite">
    <mpath href="#edge-17"/>
  </animateMotion>
</circle>
<circle r="4" fill="var(--accent)" opacity="0.9">
  <animateMotion dur="1.5s" begin="3.4000000000000004s" repeatCount="indefinite">
    <mpath href="#edge-18"/>
  </animateMotion>
</circle>
<g id="node-Client" class="diagra-node" data-icon="generic-browser">
  <rect x="40" y="262" width="235" height="106" rx="8" fill="var(--node-bg)" stroke="var(--node-border)"/>
  <svg x="141.5" y="274" width="32" height="32" viewBox="0 0 32 32" role="img" aria-label="browser"><rect x="4" y="6" width="24" height="20" rx="3" fill="#64748B"/><path d="M4 12h24" stroke="#fff" stroke-width="2"/><circle cx="9" cy="9" r="1" fill="#fff"/><circle cx="13" cy="9" r="1" fill="#fff"/></svg>

  <text text-anchor="middle" font-family="var(--font)" font-size="12" font-weight="600" fill="var(--node-text)">
  <tspan x="157.5" y="324">Web / Mobile /</tspan>
  <tspan x="157.5" dy="18">Partner Apps</tspan>
</text>
</g>
<g id="node-APIGW" class="diagra-node" data-icon="aws-apigateway">
  <rect x="455" y="262" width="120" height="88" rx="8" fill="var(--node-bg)" stroke="var(--node-border)"/>
  <svg x="499" y="274" width="32" height="32" viewBox="0 0 32 32" role="img" aria-label="Amazon API Gateway">
  <path d="M16 2.8 27.6 9.4v13.2L16 29.2 4.4 22.6V9.4L16 2.8Z" fill="#FF9900"/>
  <path d="M7.5 11h17v10h-17z" fill="#ffb647" opacity="0.9"/><path d="M11 16h10" stroke="#FFFFFF" stroke-width="1.8" stroke-linecap="round"/>
  <text x="16" y="20.4" text-anchor="middle" font-family="Arial, Helvetica, sans-serif" font-size="7" font-weight="700" fill="#FFFFFF">API</text>
</svg>
  <text x="515" y="330" text-anchor="middle" font-family="var(--font)" font-size="12" font-weight="600" fill="var(--node-text)">API Gateway</text>
</g>
<g id="node-Lambda" class="diagra-node" data-icon="aws-lambda">
  <rect x="870" y="262" width="120" height="88" rx="8" fill="var(--node-bg)" stroke="var(--node-border)"/>
  <svg x="914" y="274" width="32" height="32" viewBox="0 0 32 32" role="img" aria-label="AWS Lambda">
  <path d="M16 2.8 27.6 9.4v13.2L16 29.2 4.4 22.6V9.4L16 2.8Z" fill="#FF9900"/>
  <rect x="8" y="8" width="16" height="16" rx="3" fill="#ffb647" opacity="0.95"/><path d="M11 6v4M16 6v4M21 6v4M11 22v4M16 22v4M21 22v4" stroke="#FFFFFF" stroke-width="1.1"/>
  <text x="16" y="20.4" text-anchor="middle" font-family="Arial, Helvetica, sans-serif" font-size="9" font-weight="700" fill="#FFFFFF">λ</text>
</svg>
  <text x="930" y="330" text-anchor="middle" font-family="var(--font)" font-size="12" font-weight="600" fill="var(--node-text)">Lambda</text>
</g>
<g id="node-EventBridge" class="diagra-node" data-icon="aws-eventbridge">
  <rect x="1285" y="188" width="120" height="88" rx="8" fill="var(--node-bg)" stroke="var(--node-border)"/>
  <svg x="1329" y="200" width="32" height="32" viewBox="0 0 32 32" role="img" aria-label="Amazon EventBridge">
  <path d="M16 2.8 27.6 9.4v13.2L16 29.2 4.4 22.6V9.4L16 2.8Z" fill="#FF9900"/>
  <path d="M16 6.8 25.2 16 16 25.2 6.8 16 16 6.8Z" fill="#ffb647" opacity="0.95"/><path d="m13 11 6 5-6 5" stroke="#FFFFFF" stroke-width="1.8" fill="none" stroke-linecap="round" stroke-linejoin="round"/>
  <text x="16" y="20.4" text-anchor="middle" font-family="Arial, Helvetica, sans-serif" font-size="9" font-weight="700" fill="#FFFFFF">EV</text>
</svg>
  <text x="1345" y="256" text-anchor="middle" font-family="var(--font)" font-size="12" font-weight="600" fill="var(--node-text)">EventBridge</text>
</g>
<g id="node-SNS" class="diagra-node" data-icon="aws-sns">
  <rect x="1700" y="188" width="120" height="88" rx="8" fill="var(--node-bg)" stroke="var(--node-border)"/>
  <svg x="1744" y="200" width="32" height="32" viewBox="0 0 32 32" role="img" aria-label="Amazon SNS">
  <path d="M16 2.8 27.6 9.4v13.2L16 29.2 4.4 22.6V9.4L16 2.8Z" fill="#FF9900"/>
  <path d="M16 6.8 25.2 16 16 25.2 6.8 16 16 6.8Z" fill="#ffb647" opacity="0.95"/><path d="m13 11 6 5-6 5" stroke="#FFFFFF" stroke-width="1.8" fill="none" stroke-linecap="round" stroke-linejoin="round"/>
  <text x="16" y="20.4" text-anchor="middle" font-family="Arial, Helvetica, sans-serif" font-size="7" font-weight="700" fill="#FFFFFF">SNS</text>
</svg>
  <text x="1760" y="256" text-anchor="middle" font-family="var(--font)" font-size="12" font-weight="600" fill="var(--node-text)">SNS</text>
</g>
<g id="node-DynamoDB" class="diagra-node" data-icon="aws-dynamodb">
  <rect x="1285" y="336" width="120" height="88" rx="8" fill="var(--node-bg)" stroke="var(--node-border)"/>
  <svg x="1329" y="348" width="32" height="32" viewBox="0 0 32 32" role="img" aria-label="Amazon DynamoDB">
  <path d="M16 2.8 27.6 9.4v13.2L16 29.2 4.4 22.6V9.4L16 2.8Z" fill="#FF9900"/>
  <ellipse cx="16" cy="9" rx="8.5" ry="3.4" fill="#ffb647"/><path d="M7.5 9v12c0 1.9 3.8 3.4 8.5 3.4s8.5-1.5 8.5-3.4V9" fill="#ffb647"/><path d="M7.5 15c0 1.9 3.8 3.4 8.5 3.4s8.5-1.5 8.5-3.4" stroke="#FFFFFF" stroke-width="1.2" fill="none"/>
  <text x="16" y="20.4" text-anchor="middle" font-family="Arial, Helvetica, sans-serif" font-size="9" font-weight="700" fill="#FFFFFF">DB</text>
</svg>
  <text x="1345" y="404" text-anchor="middle" font-family="var(--font)" font-size="12" font-weight="600" fill="var(--node-text)">DynamoDB</text>
</g>
<g id="node-SQS" class="diagra-node" data-icon="aws-sqs">
  <rect x="1700" y="336" width="120" height="88" rx="8" fill="var(--node-bg)" stroke="var(--node-border)"/>
  <svg x="1744" y="348" width="32" height="32" viewBox="0 0 32 32" role="img" aria-label="Amazon SQS">
  <path d="M16 2.8 27.6 9.4v13.2L16 29.2 4.4 22.6V9.4L16 2.8Z" fill="#FF9900"/>
  <rect x="8" y="8" width="16" height="4.5" rx="2" fill="#ffb647"/><rect x="8" y="14" width="16" height="4.5" rx="2" fill="#ffb647"/><rect x="8" y="20" width="16" height="4.5" rx="2" fill="#ffb647"/>
  <text x="16" y="20.4" text-anchor="middle" font-family="Arial, Helvetica, sans-serif" font-size="7" font-weight="700" fill="#FFFFFF">SQS</text>
</svg>
  <text x="1760" y="404" text-anchor="middle" font-family="var(--font)" font-size="12" font-weight="600" fill="var(--node-text)">SQS Queue</text>
</g>
<g id="node-DLQ" class="diagra-node" data-icon="aws-sqs">
  <rect x="2115" y="336" width="160" height="88" rx="8" fill="var(--node-bg)" stroke="var(--node-border)"/>
  <svg x="2179" y="348" width="32" height="32" viewBox="0 0 32 32" role="img" aria-label="Amazon SQS">
  <path d="M16 2.8 27.6 9.4v13.2L16 29.2 4.4 22.6V9.4L16 2.8Z" fill="#FF9900"/>
  <rect x="8" y="8" width="16" height="4.5" rx="2" fill="#ffb647"/><rect x="8" y="14" width="16" height="4.5" rx="2" fill="#ffb647"/><rect x="8" y="20" width="16" height="4.5" rx="2" fill="#ffb647"/>
  <text x="16" y="20.4" text-anchor="middle" font-family="Arial, Helvetica, sans-serif" font-size="7" font-weight="700" fill="#FFFFFF">SQS</text>
</svg>
  <text x="2195" y="404" text-anchor="middle" font-family="var(--font)" font-size="12" font-weight="600" fill="var(--node-text)">Dead Letter Queue</text>
</g>
<g id="node-Consumer1" class="diagra-node" data-icon="generic-server">
  <rect x="2115" y="40" width="182" height="88" rx="8" fill="var(--node-bg)" stroke="var(--node-border)"/>
  <svg x="2190" y="52" width="32" height="32" viewBox="0 0 32 32" role="img" aria-label="server"><rect x="5" y="6" width="22" height="20" rx="3" fill="#64748B"/><path d="M9 12h14M9 18h14" stroke="#fff" stroke-width="2"/><circle cx="11" cy="23" r="1.5" fill="#fff"/></svg>

  <text x="2206" y="108" text-anchor="middle" font-family="var(--font)" font-size="12" font-weight="600" fill="var(--node-text)">Downstream Service A</text>
</g>
<g id="node-Consumer2" class="diagra-node" data-icon="generic-server">
  <rect x="2115" y="484" width="182" height="88" rx="8" fill="var(--node-bg)" stroke="var(--node-border)"/>
  <svg x="2190" y="496" width="32" height="32" viewBox="0 0 32 32" role="img" aria-label="server"><rect x="5" y="6" width="22" height="20" rx="3" fill="#64748B"/><path d="M9 12h14M9 18h14" stroke="#fff" stroke-width="2"/><circle cx="11" cy="23" r="1.5" fill="#fff"/></svg>

  <text x="2206" y="552" text-anchor="middle" font-family="var(--font)" font-size="12" font-weight="600" fill="var(--node-text)">Downstream Service B</text>
</g>
<g id="node-Email" class="diagra-node" data-icon="generic-api">
  <rect x="2115" y="188" width="190" height="106" rx="8" fill="var(--node-bg)" stroke="var(--node-border)"/>
  <svg x="2194" y="200" width="32" height="32" viewBox="0 0 32 32" role="img" aria-label="api"><rect x="4" y="7" width="24" height="18" rx="4" fill="#64748B"/><text x="16" y="20" text-anchor="middle" font-family="Arial" font-size="9" font-weight="700" fill="#fff">API</text></svg>

  <text text-anchor="middle" font-family="var(--font)" font-size="12" font-weight="600" fill="var(--node-text)">
  <tspan x="2210" y="250">Email / SMS /</tspan>
  <tspan x="2210" dy="18">Webhook</tspan>
</text>
</g>
<g id="node-CloudWatch" class="diagra-node" data-icon="aws-cloudwatch">
  <rect x="1354.1666666666665" y="668" width="120" height="88" rx="8" fill="var(--node-bg)" stroke="var(--node-border)"/>
  <svg x="1398.1666666666665" y="680" width="32" height="32" viewBox="0 0 32 32" role="img" aria-label="Amazon CloudWatch">
  <path d="M16 2.8 27.6 9.4v13.2L16 29.2 4.4 22.6V9.4L16 2.8Z" fill="#FF9900"/>
  <path d="M16 6.8 25.2 16 16 25.2 6.8 16 16 6.8Z" fill="#ffb647" opacity="0.95"/><path d="m13 11 6 5-6 5" stroke="#FFFFFF" stroke-width="1.8" fill="none" stroke-linecap="round" stroke-linejoin="round"/>
  <text x="16" y="20.4" text-anchor="middle" font-family="Arial, Helvetica, sans-serif" font-size="9" font-weight="700" fill="#FFFFFF">CW</text>
</svg>
  <text x="1414.1666666666665" y="736" text-anchor="middle" font-family="var(--font)" font-size="12" font-weight="600" fill="var(--node-text)">CloudWatch</text>
</g>
<g id="node-XRay" class="diagra-node" data-icon="aws-xray">
  <rect x="662.5" y="668" width="120" height="88" rx="8" fill="var(--node-bg)" stroke="var(--node-border)"/>
  <svg x="706.5" y="680" width="32" height="32" viewBox="0 0 32 32" role="img" aria-label="aws-xray"><rect x="3" y="3" width="26" height="26" rx="6" fill="#FF9900"/><text x="16" y="20" text-anchor="middle" font-family="Arial, sans-serif" font-size="10" font-weight="700" fill="#fff">XR</text></svg>
  <text x="722.5" y="736" text-anchor="middle" font-family="var(--font)" font-size="12" font-weight="600" fill="var(--node-text)">X-Ray</text>
</g>
</g>
</svg>