<svg xmlns="http://www.w3.org/2000/svg" width="1540" height="1120" viewBox="0 0 1540 1120" role="img">
<style>
:root {
  --bg: #0F172A;
  --node-bg: #1E293B;
  --node-border: #334155;
  --node-text: #F1F5F9;
  --edge-color: #475569;
  --edge-label: #CBD5E1;
  --accent: #818CF8;
  --font: 'Inter', sans-serif;
}
.diagra-node { filter: drop-shadow(0 10px 18px rgba(15, 23, 42, 0.10)); }
.diagra-edge { stroke-linecap: round; }
</style>
<defs>
  <marker id="arrow" markerWidth="10" markerHeight="10" refX="8" refY="3" orient="auto" markerUnits="strokeWidth">
    <path d="M0,0 L0,6 L9,3 z" fill="var(--edge-color)"/>
  </marker>
</defs>
<rect width="100%" height="100%" fill="var(--bg)"/>
<g class="diagra-edge-label">
  <path id="edge-1" class="diagra-edge" d="M 172 306 L 352 306" stroke="var(--edge-color)" stroke-width="1.7" fill="none" marker-end="url(#arrow)"/>
  <rect x="240" y="286" width="44" height="16" rx="4" fill="var(--bg)" opacity="0.9"/>
  <text x="262" y="298" text-anchor="middle" font-family="var(--font)" font-size="10" font-weight="600" fill="var(--edge-label)">HTTPS</text>
</g>
<g class="diagra-edge-label">
  <path id="edge-2" class="diagra-edge" d="M 484 306 C 565 306, 583 158, 664 158" stroke="var(--edge-color)" stroke-width="1.7" fill="none" marker-end="url(#arrow)"/>
  <rect x="528" y="212" width="92" height="16" rx="4" fill="var(--bg)" opacity="0.9"/>
  <text x="574" y="224" text-anchor="middle" font-family="var(--font)" font-size="10" font-weight="600" fill="var(--edge-label)">Authenticate</text>
</g>
<g class="diagra-edge-label">
  <path id="edge-3" class="diagra-edge" d="M 484 306 L 664 306" stroke="var(--edge-color)" stroke-width="1.7" fill="none" marker-end="url(#arrow)"/>
  <rect x="538.5" y="318" width="71" height="16" rx="4" fill="var(--bg)" opacity="0.9"/>
  <text x="574" y="330" text-anchor="middle" font-family="var(--font)" font-size="10" font-weight="600" fill="var(--edge-label)">Users API</text>
</g>
<g class="diagra-edge-label">
  <path id="edge-4" class="diagra-edge" d="M 484 306 C 565 306, 583 454, 664 454" stroke="var(--edge-color)" stroke-width="1.7" fill="none" marker-end="url(#arrow)"/>
  <rect x="535" y="360" width="78" height="16" rx="4" fill="var(--bg)" opacity="0.9"/>
  <text x="574" y="372" text-anchor="middle" font-family="var(--font)" font-size="10" font-weight="600" fill="var(--edge-label)">Orders API</text>
</g>
<g class="diagra-edge-label">
  <path id="edge-5" class="diagra-edge" d="M 796 454 C 877 454, 895 232, 976 232" stroke="var(--edge-color)" stroke-width="1.7" fill="none" marker-end="url(#arrow)"/>
  <rect x="833" y="339" width="106" height="16" rx="4" fill="var(--bg)" opacity="0.9"/>
  <text x="886" y="351" text-anchor="middle" font-family="var(--font)" font-size="10" font-weight="600" fill="var(--edge-label)">Charge Payment</text>
</g>
<g class="diagra-edge-label">
  <path id="edge-6" class="diagra-edge" d="M 796 454 C 877 454, 895 528, 976 528" stroke="var(--edge-color)" stroke-width="1.7" fill="none" marker-end="url(#arrow)"/>
  <rect x="833" y="471" width="106" height="16" rx="4" fill="var(--bg)" opacity="0.9"/>
  <text x="886" y="483" text-anchor="middle" font-family="var(--font)" font-size="10" font-weight="600" fill="var(--edge-label)">Publish Events</text>
</g>
<g class="diagra-edge-label">
  <path id="edge-7" class="diagra-edge" d="M 1108 528 C 1189 528, 1207 380, 1288 380" stroke="var(--edge-color)" stroke-width="1.7" fill="none" marker-end="url(#arrow)"/>
  <rect x="1141.5" y="434" width="113" height="16" rx="4" fill="var(--bg)" opacity="0.9"/>
  <text x="1198" y="446" text-anchor="middle" font-family="var(--font)" font-size="10" font-weight="600" fill="var(--edge-label)">Notify Customer</text>
</g>
<g class="diagra-edge-label">
  <path id="edge-8" class="diagra-edge" d="M 796 306 C 877 306, 895 84, 976 84" stroke="var(--edge-color)" stroke-width="1.7" fill="none" marker-end="url(#arrow)"/>
  <rect x="864" y="175" width="44" height="16" rx="4" fill="var(--bg)" opacity="0.9"/>
  <text x="886" y="187" text-anchor="middle" font-family="var(--font)" font-size="10" font-weight="600" fill="var(--edge-label)">Owns</text>
</g>
<g class="diagra-edge-label">
  <path id="edge-9" class="diagra-edge" d="M 796 454 C 877 454, 895 380, 976 380" stroke="var(--edge-color)" stroke-width="1.7" fill="none" marker-end="url(#arrow)"/>
  <rect x="864" y="397" width="44" height="16" rx="4" fill="var(--bg)" opacity="0.9"/>
  <text x="886" y="409" text-anchor="middle" font-family="var(--font)" font-size="10" font-weight="600" fill="var(--edge-label)">Owns</text>
</g>
<g class="diagra-edge-label">
  <path id="edge-10" class="diagra-edge" d="M 1108 232 L 1288 232" stroke="var(--edge-color)" stroke-width="1.7" fill="none" marker-end="url(#arrow)"/>
  <rect x="1176" y="244" width="44" height="16" rx="4" fill="var(--bg)" opacity="0.9"/>
  <text x="1198" y="256" text-anchor="middle" font-family="var(--font)" font-size="10" font-weight="600" fill="var(--edge-label)">Owns</text>
</g>
<circle r="4" fill="var(--accent)" opacity="0.9">
  <animateMotion dur="1.5s" begin="0s" repeatCount="indefinite">
    <mpath href="#edge-1"/>
  </animateMotion>
</circle>
<circle r="4" fill="var(--accent)" opacity="0.9">
  <animateMotion dur="1.5s" begin="0.2s" repeatCount="indefinite">
    <mpath href="#edge-2"/>
  </animateMotion>
</circle>
<circle r="4" fill="var(--accent)" opacity="0.9">
  <animateMotion dur="1.5s" begin="0.4s" repeatCount="indefinite">
    <mpath href="#edge-3"/>
  </animateMotion>
</circle>
<circle r="4" fill="var(--accent)" opacity="0.9">
  <animateMotion dur="1.5s" begin="0.6000000000000001s" repeatCount="indefinite">
    <mpath href="#edge-4"/>
  </animateMotion>
</circle>
<circle r="4" fill="var(--accent)" opacity="0.9">
  <animateMotion dur="1.5s" begin="0.8s" repeatCount="indefinite">
    <mpath href="#edge-5"/>
  </animateMotion>
</circle>
<circle r="4" fill="var(--accent)" opacity="0.9">
  <animateMotion dur="1.5s" begin="1s" repeatCount="indefinite">
    <mpath href="#edge-6"/>
  </animateMotion>
</circle>
<circle r="4" fill="var(--accent)" opacity="0.9">
  <animateMotion dur="1.5s" begin="1.2000000000000002s" repeatCount="indefinite">
    <mpath href="#edge-7"/>
  </animateMotion>
</circle>
<circle r="4" fill="var(--accent)" opacity="0.9">
  <animateMotion dur="1.5s" begin="1.4000000000000001s" repeatCount="indefinite">
    <mpath href="#edge-8"/>
  </animateMotion>
</circle>
<circle r="4" fill="var(--accent)" opacity="0.9">
  <animateMotion dur="1.5s" begin="1.6s" repeatCount="indefinite">
    <mpath href="#edge-9"/>
  </animateMotion>
</circle>
<circle r="4" fill="var(--accent)" opacity="0.9">
  <animateMotion dur="1.5s" begin="1.8s" repeatCount="indefinite">
    <mpath href="#edge-10"/>
  </animateMotion>
</circle>
<g id="node-Clients" class="diagra-node" data-icon="generic-browser">
  <rect x="40" y="262" width="132" height="88" rx="8" fill="var(--node-bg)" stroke="var(--node-border)"/>
  <svg x="90" y="274" width="32" height="32" viewBox="0 0 32 32" role="img" aria-label="browser"><rect x="4" y="6" width="24" height="20" rx="3" fill="#64748B"/><path d="M4 12h24" stroke="#fff" stroke-width="2"/><circle cx="9" cy="9" r="1" fill="#fff"/><circle cx="13" cy="9" r="1" fill="#fff"/></svg>

  <text x="106" y="330" text-anchor="middle" font-family="var(--font)" font-size="12" font-weight="600" fill="var(--node-text)">Client Apps</text>
</g>
<g id="node-Gateway" class="diagra-node" data-icon="generic-api">
  <rect x="352" y="262" width="132" height="88" rx="8" fill="var(--node-bg)" stroke="var(--node-border)"/>
  <svg x="402" y="274" width="32" height="32" viewBox="0 0 32 32" role="img" aria-label="api"><rect x="4" y="7" width="24" height="18" rx="4" fill="#64748B"/><text x="16" y="20" text-anchor="middle" font-family="Arial" font-size="9" font-weight="700" fill="#fff">API</text></svg>

  <text x="418" y="330" text-anchor="middle" font-family="var(--font)" font-size="12" font-weight="600" fill="var(--node-text)">API Gateway</text>
</g>
<g id="node-Auth" class="diagra-node" data-icon="generic-server">
  <rect x="664" y="114" width="132" height="88" rx="8" fill="var(--node-bg)" stroke="var(--node-border)"/>
  <svg x="714" y="126" width="32" height="32" viewBox="0 0 32 32" role="img" aria-label="server"><rect x="5" y="6" width="22" height="20" rx="3" fill="#64748B"/><path d="M9 12h14M9 18h14" stroke="#fff" stroke-width="2"/><circle cx="11" cy="23" r="1.5" fill="#fff"/></svg>

  <text x="730" y="182" text-anchor="middle" font-family="var(--font)" font-size="12" font-weight="600" fill="var(--node-text)">Auth Service</text>
</g>
<g id="node-Users" class="diagra-node" data-icon="generic-server">
  <rect x="664" y="262" width="132" height="88" rx="8" fill="var(--node-bg)" stroke="var(--node-border)"/>
  <svg x="714" y="274" width="32" height="32" viewBox="0 0 32 32" role="img" aria-label="server"><rect x="5" y="6" width="22" height="20" rx="3" fill="#64748B"/><path d="M9 12h14M9 18h14" stroke="#fff" stroke-width="2"/><circle cx="11" cy="23" r="1.5" fill="#fff"/></svg>

  <text x="730" y="330" text-anchor="middle" font-family="var(--font)" font-size="12" font-weight="600" fill="var(--node-text)">User Service</text>
</g>
<g id="node-Orders" class="diagra-node" data-icon="generic-server">
  <rect x="664" y="410" width="132" height="88" rx="8" fill="var(--node-bg)" stroke="var(--node-border)"/>
  <svg x="714" y="422" width="32" height="32" viewBox="0 0 32 32" role="img" aria-label="server"><rect x="5" y="6" width="22" height="20" rx="3" fill="#64748B"/><path d="M9 12h14M9 18h14" stroke="#fff" stroke-width="2"/><circle cx="11" cy="23" r="1.5" fill="#fff"/></svg>

  <text x="730" y="478" text-anchor="middle" font-family="var(--font)" font-size="12" font-weight="600" fill="var(--node-text)">Order Service</text>
</g>
<g id="node-Payments" class="diagra-node" data-icon="generic-server">
  <rect x="976" y="188" width="132" height="88" rx="8" fill="var(--node-bg)" stroke="var(--node-border)"/>
  <svg x="1026" y="200" width="32" height="32" viewBox="0 0 32 32" role="img" aria-label="server"><rect x="5" y="6" width="22" height="20" rx="3" fill="#64748B"/><path d="M9 12h14M9 18h14" stroke="#fff" stroke-width="2"/><circle cx="11" cy="23" r="1.5" fill="#fff"/></svg>

  <text x="1042" y="256" text-anchor="middle" font-family="var(--font)" font-size="12" font-weight="600" fill="var(--node-text)">Payment Service</text>
</g>
<g id="node-Notifications" class="diagra-node" data-icon="generic-server">
  <rect x="1288" y="336" width="132" height="88" rx="8" fill="var(--node-bg)" stroke="var(--node-border)"/>
  <svg x="1338" y="348" width="32" height="32" viewBox="0 0 32 32" role="img" aria-label="server"><rect x="5" y="6" width="22" height="20" rx="3" fill="#64748B"/><path d="M9 12h14M9 18h14" stroke="#fff" stroke-width="2"/><circle cx="11" cy="23" r="1.5" fill="#fff"/></svg>

  <text x="1354" y="404" text-anchor="middle" font-family="var(--font)" font-size="12" font-weight="600" fill="var(--node-text)">Notification Service</text>
</g>
<g id="node-UserDB" class="diagra-node" data-icon="generic-database">
  <rect x="976" y="40" width="132" height="88" rx="8" fill="var(--node-bg)" stroke="var(--node-border)"/>
  <svg x="1026" y="52" width="32" height="32" viewBox="0 0 32 32" role="img" aria-label="database"><ellipse cx="16" cy="8" rx="10" ry="4" fill="#64748B"/><path d="M6 8v14c0 2.2 4.5 4 10 4s10-1.8 10-4V8" fill="#64748B"/><path d="M6 15c0 2.2 4.5 4 10 4s10-1.8 10-4" stroke="#fff" stroke-width="1.8" fill="none"/></svg>

  <text x="1042" y="108" text-anchor="middle" font-family="var(--font)" font-size="12" font-weight="600" fill="var(--node-text)">User Database</text>
</g>
<g id="node-OrderDB" class="diagra-node" data-icon="generic-database">
  <rect x="976" y="336" width="132" height="88" rx="8" fill="var(--node-bg)" stroke="var(--node-border)"/>
  <svg x="1026" y="348" width="32" height="32" viewBox="0 0 32 32" role="img" aria-label="database"><ellipse cx="16" cy="8" rx="10" ry="4" fill="#64748B"/><path d="M6 8v14c0 2.2 4.5 4 10 4s10-1.8 10-4V8" fill="#64748B"/><path d="M6 15c0 2.2 4.5 4 10 4s10-1.8 10-4" stroke="#fff" stroke-width="1.8" fill="none"/></svg>

  <text x="1042" y="404" text-anchor="middle" font-family="var(--font)" font-size="12" font-weight="600" fill="var(--node-text)">Order Database</text>
</g>
<g id="node-PaymentDB" class="diagra-node" data-icon="generic-database">
  <rect x="1288" y="188" width="132" height="88" rx="8" fill="var(--node-bg)" stroke="var(--node-border)"/>
  <svg x="1338" y="200" width="32" height="32" viewBox="0 0 32 32" role="img" aria-label="database"><ellipse cx="16" cy="8" rx="10" ry="4" fill="#64748B"/><path d="M6 8v14c0 2.2 4.5 4 10 4s10-1.8 10-4V8" fill="#64748B"/><path d="M6 15c0 2.2 4.5 4 10 4s10-1.8 10-4" stroke="#fff" stroke-width="1.8" fill="none"/></svg>

  <text x="1354" y="256" text-anchor="middle" font-family="var(--font)" font-size="12" font-weight="600" fill="var(--node-text)">Payment Database</text>
</g>
<g id="node-Queue" class="diagra-node" data-icon="generic-queue">
  <rect x="976" y="484" width="132" height="88" rx="8" fill="var(--node-bg)" stroke="var(--node-border)"/>
  <svg x="1026" y="496" width="32" height="32" viewBox="0 0 32 32" role="img" aria-label="queue"><rect x="6" y="7" width="20" height="5" rx="2" fill="#64748B"/><rect x="6" y="14" width="20" height="5" rx="2" fill="#64748B"/><rect x="6" y="21" width="20" height="5" rx="2" fill="#64748B"/></svg>

  <text x="1042" y="552" text-anchor="middle" font-family="var(--font)" font-size="12" font-weight="600" fill="var(--node-text)">Message Queue</text>
</g>
</svg>