<svg xmlns="http://www.w3.org/2000/svg" width="1710" height="1120" viewBox="0 0 1710 1120" role="img">
<style>
:root {
  --bg: #0F172A;
  --node-bg: #1E293B;
  --node-border: #334155;
  --node-text: #F1F5F9;
  --edge-color: #475569;
  --edge-label: #CBD5E1;
  --accent: #818CF8;
  --font: 'Inter', sans-serif;
}
.diagra-node { filter: drop-shadow(0 10px 18px rgba(15, 23, 42, 0.10)); }
.diagra-edge { stroke-linecap: round; }
</style>
<defs>
  <marker id="arrow" markerWidth="10" markerHeight="10" refX="8" refY="3" orient="auto" markerUnits="strokeWidth">
    <path d="M0,0 L0,6 L9,3 z" fill="var(--edge-color)"/>
  </marker>
</defs>
<rect width="100%" height="100%" fill="var(--bg)"/>

<g transform="translate(0, 0)">
<g class="diagra-edge-label">
  <path id="edge-1" class="diagra-edge" d="M 160 306 L 402 306" stroke="var(--edge-color)" stroke-width="1.7" fill="none" marker-end="url(#arrow)"/>
  <rect x="255" y="284" width="52" height="16" rx="2" fill="var(--bg)" opacity="0.85"/>
  <text x="281" y="294" text-anchor="middle" font-family="var(--font)" font-size="10" font-weight="600" fill="var(--edge-label)">HTTPS</text>
</g>
<g class="diagra-edge-label">
  <path id="edge-2" class="diagra-edge" d="M 522 306 C 630.9 306, 655.1 158, 764 158" stroke="var(--edge-color)" stroke-width="1.7" fill="none" marker-end="url(#arrow)"/>
  <rect x="593.5" y="210" width="100" height="16" rx="2" fill="var(--bg)" opacity="0.85"/>
  <text x="643.5" y="220" text-anchor="middle" font-family="var(--font)" font-size="10" font-weight="600" fill="var(--edge-label)">Authenticate</text>
</g>
<g class="diagra-edge-label">
  <path id="edge-3" class="diagra-edge" d="M 522 306 L 764 306" stroke="var(--edge-color)" stroke-width="1.7" fill="none" marker-end="url(#arrow)"/>
  <rect x="604" y="316" width="79" height="16" rx="2" fill="var(--bg)" opacity="0.85"/>
  <text x="643.5" y="326" text-anchor="middle" font-family="var(--font)" font-size="10" font-weight="600" fill="var(--edge-label)">Users API</text>
</g>
<g class="diagra-edge-label">
  <path id="edge-4" class="diagra-edge" d="M 522 306 C 630.9 306, 655.1 454, 764 454" stroke="var(--edge-color)" stroke-width="1.7" fill="none" marker-end="url(#arrow)"/>
  <rect x="602.5" y="358" width="86" height="16" rx="2" fill="var(--bg)" opacity="0.85"/>
  <text x="645.5" y="368" text-anchor="middle" font-family="var(--font)" font-size="10" font-weight="600" fill="var(--edge-label)">Orders API</text>
</g>
<g class="diagra-edge-label">
  <path id="edge-5" class="diagra-edge" d="M 894 454 C 998.4 454, 1021.6 232, 1126 232" stroke="var(--edge-color)" stroke-width="1.7" fill="none" marker-end="url(#arrow)"/>
  <rect x="956.75" y="337" width="114" height="16" rx="2" fill="var(--bg)" opacity="0.85"/>
  <text x="1013.75" y="347" text-anchor="middle" font-family="var(--font)" font-size="10" font-weight="600" fill="var(--edge-label)">Charge Payment</text>
</g>
<g class="diagra-edge-label">
  <path id="edge-6" class="diagra-edge" d="M 894 454 C 998.4 454, 1021.6 528, 1126 528" stroke="var(--edge-color)" stroke-width="1.7" fill="none" marker-end="url(#arrow)"/>
  <rect x="953" y="469" width="114" height="16" rx="2" fill="var(--bg)" opacity="0.85"/>
  <text x="1010" y="479" text-anchor="middle" font-family="var(--font)" font-size="10" font-weight="600" fill="var(--edge-label)">Publish Events</text>
</g>
<g class="diagra-edge-label">
  <path id="edge-7" class="diagra-edge" d="M 1256 528 C 1360.4 528, 1383.6 380, 1488 380" stroke="var(--edge-color)" stroke-width="1.7" fill="none" marker-end="url(#arrow)"/>
  <rect x="1324.5" y="432" width="121" height="16" rx="2" fill="var(--bg)" opacity="0.85"/>
  <text x="1385" y="442" text-anchor="middle" font-family="var(--font)" font-size="10" font-weight="600" fill="var(--edge-label)">Notify Customer</text>
</g>
<g class="diagra-edge-label">
  <path id="edge-8" class="diagra-edge" d="M 886 306 C 994 306, 1018 84, 1126 84" stroke="var(--edge-color)" stroke-width="1.7" fill="none" marker-end="url(#arrow)"/>
  <rect x="982" y="173" width="52" height="16" rx="2" fill="var(--bg)" opacity="0.85"/>
  <text x="1008" y="183" text-anchor="middle" font-family="var(--font)" font-size="10" font-weight="600" fill="var(--edge-label)">Owns</text>
</g>
<g class="diagra-edge-label">
  <path id="edge-9" class="diagra-edge" d="M 894 454 C 998.4 454, 1021.6 380, 1126 380" stroke="var(--edge-color)" stroke-width="1.7" fill="none" marker-end="url(#arrow)"/>
  <rect x="985.75" y="395" width="52" height="16" rx="2" fill="var(--bg)" opacity="0.85"/>
  <text x="1011.75" y="405" text-anchor="middle" font-family="var(--font)" font-size="10" font-weight="600" fill="var(--edge-label)">Owns</text>
</g>
<g class="diagra-edge-label">
  <path id="edge-10" class="diagra-edge" d="M 1271 232 L 1488 232" stroke="var(--edge-color)" stroke-width="1.7" fill="none" marker-end="url(#arrow)"/>
  <rect x="1355.25" y="242" width="52" height="16" rx="2" fill="var(--bg)" opacity="0.85"/>
  <text x="1381.25" y="252" text-anchor="middle" font-family="var(--font)" font-size="10" font-weight="600" fill="var(--edge-label)">Owns</text>
</g>
<circle r="4" fill="var(--accent)" opacity="0.9">
  <animateMotion dur="1.5s" begin="0s" repeatCount="indefinite">
    <mpath href="#edge-1"/>
  </animateMotion>
</circle>
<circle r="4" fill="var(--accent)" opacity="0.9">
  <animateMotion dur="1.5s" begin="0.2s" repeatCount="indefinite">
    <mpath href="#edge-2"/>
  </animateMotion>
</circle>
<circle r="4" fill="var(--accent)" opacity="0.9">
  <animateMotion dur="1.5s" begin="0.4s" repeatCount="indefinite">
    <mpath href="#edge-3"/>
  </animateMotion>
</circle>
<circle r="4" fill="var(--accent)" opacity="0.9">
  <animateMotion dur="1.5s" begin="0.6000000000000001s" repeatCount="indefinite">
    <mpath href="#edge-4"/>
  </animateMotion>
</circle>
<circle r="4" fill="var(--accent)" opacity="0.9">
  <animateMotion dur="1.5s" begin="0.8s" repeatCount="indefinite">
    <mpath href="#edge-5"/>
  </animateMotion>
</circle>
<circle r="4" fill="var(--accent)" opacity="0.9">
  <animateMotion dur="1.5s" begin="1s" repeatCount="indefinite">
    <mpath href="#edge-6"/>
  </animateMotion>
</circle>
<circle r="4" fill="var(--accent)" opacity="0.9">
  <animateMotion dur="1.5s" begin="1.2000000000000002s" repeatCount="indefinite">
    <mpath href="#edge-7"/>
  </animateMotion>
</circle>
<circle r="4" fill="var(--accent)" opacity="0.9">
  <animateMotion dur="1.5s" begin="1.4000000000000001s" repeatCount="indefinite">
    <mpath href="#edge-8"/>
  </animateMotion>
</circle>
<circle r="4" fill="var(--accent)" opacity="0.9">
  <animateMotion dur="1.5s" begin="1.6s" repeatCount="indefinite">
    <mpath href="#edge-9"/>
  </animateMotion>
</circle>
<circle r="4" fill="var(--accent)" opacity="0.9">
  <animateMotion dur="1.5s" begin="1.8s" repeatCount="indefinite">
    <mpath href="#edge-10"/>
  </animateMotion>
</circle>
<g id="node-Clients" class="diagra-node" data-icon="generic-browser">
  <rect x="40" y="262" width="120" height="88" rx="8" fill="var(--node-bg)" stroke="var(--node-border)"/>
  <svg x="84" y="274" width="32" height="32" viewBox="0 0 32 32" role="img" aria-label="browser"><rect x="4" y="6" width="24" height="20" rx="3" fill="#64748B"/><path d="M4 12h24" stroke="#fff" stroke-width="2"/><circle cx="9" cy="9" r="1" fill="#fff"/><circle cx="13" cy="9" r="1" fill="#fff"/></svg>

  <text x="100" y="330" text-anchor="middle" font-family="var(--font)" font-size="12" font-weight="600" fill="var(--node-text)">Client Apps</text>
</g>
<g id="node-Gateway" class="diagra-node" data-icon="generic-api">
  <rect x="402" y="262" width="120" height="88" rx="8" fill="var(--node-bg)" stroke="var(--node-border)"/>
  <svg x="446" y="274" width="32" height="32" viewBox="0 0 32 32" role="img" aria-label="api"><rect x="4" y="7" width="24" height="18" rx="4" fill="#64748B"/><text x="16" y="20" text-anchor="middle" font-family="Arial" font-size="9" font-weight="700" fill="#fff">API</text></svg>

  <text x="462" y="330" text-anchor="middle" font-family="var(--font)" font-size="12" font-weight="600" fill="var(--node-text)">API Gateway</text>
</g>
<g id="node-Auth" class="diagra-node" data-icon="generic-server">
  <rect x="764" y="114" width="122" height="88" rx="8" fill="var(--node-bg)" stroke="var(--node-border)"/>
  <svg x="809" y="126" width="32" height="32" viewBox="0 0 32 32" role="img" aria-label="server"><rect x="5" y="6" width="22" height="20" rx="3" fill="#64748B"/><path d="M9 12h14M9 18h14" stroke="#fff" stroke-width="2"/><circle cx="11" cy="23" r="1.5" fill="#fff"/></svg>

  <text x="825" y="182" text-anchor="middle" font-family="var(--font)" font-size="12" font-weight="600" fill="var(--node-text)">Auth Service</text>
</g>
<g id="node-Users" class="diagra-node" data-icon="generic-server">
  <rect x="764" y="262" width="122" height="88" rx="8" fill="var(--node-bg)" stroke="var(--node-border)"/>
  <svg x="809" y="274" width="32" height="32" viewBox="0 0 32 32" role="img" aria-label="server"><rect x="5" y="6" width="22" height="20" rx="3" fill="#64748B"/><path d="M9 12h14M9 18h14" stroke="#fff" stroke-width="2"/><circle cx="11" cy="23" r="1.5" fill="#fff"/></svg>

  <text x="825" y="330" text-anchor="middle" font-family="var(--font)" font-size="12" font-weight="600" fill="var(--node-text)">User Service</text>
</g>
<g id="node-Orders" class="diagra-node" data-icon="generic-server">
  <rect x="764" y="410" width="130" height="88" rx="8" fill="var(--node-bg)" stroke="var(--node-border)"/>
  <svg x="813" y="422" width="32" height="32" viewBox="0 0 32 32" role="img" aria-label="server"><rect x="5" y="6" width="22" height="20" rx="3" fill="#64748B"/><path d="M9 12h14M9 18h14" stroke="#fff" stroke-width="2"/><circle cx="11" cy="23" r="1.5" fill="#fff"/></svg>

  <text x="829" y="478" text-anchor="middle" font-family="var(--font)" font-size="12" font-weight="600" fill="var(--node-text)">Order Service</text>
</g>
<g id="node-Payments" class="diagra-node" data-icon="generic-server">
  <rect x="1126" y="188" width="145" height="88" rx="8" fill="var(--node-bg)" stroke="var(--node-border)"/>
  <svg x="1182.5" y="200" width="32" height="32" viewBox="0 0 32 32" role="img" aria-label="server"><rect x="5" y="6" width="22" height="20" rx="3" fill="#64748B"/><path d="M9 12h14M9 18h14" stroke="#fff" stroke-width="2"/><circle cx="11" cy="23" r="1.5" fill="#fff"/></svg>

  <text x="1198.5" y="256" text-anchor="middle" font-family="var(--font)" font-size="12" font-weight="600" fill="var(--node-text)">Payment Service</text>
</g>
<g id="node-Notifications" class="diagra-node" data-icon="generic-server">
  <rect x="1488" y="336" width="182" height="88" rx="8" fill="var(--node-bg)" stroke="var(--node-border)"/>
  <svg x="1563" y="348" width="32" height="32" viewBox="0 0 32 32" role="img" aria-label="server"><rect x="5" y="6" width="22" height="20" rx="3" fill="#64748B"/><path d="M9 12h14M9 18h14" stroke="#fff" stroke-width="2"/><circle cx="11" cy="23" r="1.5" fill="#fff"/></svg>

  <text x="1579" y="404" text-anchor="middle" font-family="var(--font)" font-size="12" font-weight="600" fill="var(--node-text)">Notification Service</text>
</g>
<g id="node-UserDB" class="diagra-node" data-icon="generic-database">
  <rect x="1126" y="40" width="130" height="88" rx="8" fill="var(--node-bg)" stroke="var(--node-border)"/>
  <svg x="1175" y="52" width="32" height="32" viewBox="0 0 32 32" role="img" aria-label="database"><ellipse cx="16" cy="8" rx="10" ry="4" fill="#64748B"/><path d="M6 8v14c0 2.2 4.5 4 10 4s10-1.8 10-4V8" fill="#64748B"/><path d="M6 15c0 2.2 4.5 4 10 4s10-1.8 10-4" stroke="#fff" stroke-width="1.8" fill="none"/></svg>

  <text x="1191" y="108" text-anchor="middle" font-family="var(--font)" font-size="12" font-weight="600" fill="var(--node-text)">User Database</text>
</g>
<g id="node-OrderDB" class="diagra-node" data-icon="generic-database">
  <rect x="1126" y="336" width="137" height="88" rx="8" fill="var(--node-bg)" stroke="var(--node-border)"/>
  <svg x="1178.5" y="348" width="32" height="32" viewBox="0 0 32 32" role="img" aria-label="database"><ellipse cx="16" cy="8" rx="10" ry="4" fill="#64748B"/><path d="M6 8v14c0 2.2 4.5 4 10 4s10-1.8 10-4V8" fill="#64748B"/><path d="M6 15c0 2.2 4.5 4 10 4s10-1.8 10-4" stroke="#fff" stroke-width="1.8" fill="none"/></svg>

  <text x="1194.5" y="404" text-anchor="middle" font-family="var(--font)" font-size="12" font-weight="600" fill="var(--node-text)">Order Database</text>
</g>
<g id="node-PaymentDB" class="diagra-node" data-icon="generic-database">
  <rect x="1488" y="188" width="152" height="88" rx="8" fill="var(--node-bg)" stroke="var(--node-border)"/>
  <svg x="1548" y="200" width="32" height="32" viewBox="0 0 32 32" role="img" aria-label="database"><ellipse cx="16" cy="8" rx="10" ry="4" fill="#64748B"/><path d="M6 8v14c0 2.2 4.5 4 10 4s10-1.8 10-4V8" fill="#64748B"/><path d="M6 15c0 2.2 4.5 4 10 4s10-1.8 10-4" stroke="#fff" stroke-width="1.8" fill="none"/></svg>

  <text x="1564" y="256" text-anchor="middle" font-family="var(--font)" font-size="12" font-weight="600" fill="var(--node-text)">Payment Database</text>
</g>
<g id="node-Queue" class="diagra-node" data-icon="generic-queue">
  <rect x="1126" y="484" width="130" height="88" rx="8" fill="var(--node-bg)" stroke="var(--node-border)"/>
  <svg x="1175" y="496" width="32" height="32" viewBox="0 0 32 32" role="img" aria-label="queue"><rect x="6" y="7" width="20" height="5" rx="2" fill="#64748B"/><rect x="6" y="14" width="20" height="5" rx="2" fill="#64748B"/><rect x="6" y="21" width="20" height="5" rx="2" fill="#64748B"/></svg>

  <text x="1191" y="552" text-anchor="middle" font-family="var(--font)" font-size="12" font-weight="600" fill="var(--node-text)">Message Queue</text>
</g>
</g>
</svg>