<svg xmlns="http://www.w3.org/2000/svg" width="980" height="3152" viewBox="0 0 980 3152" role="img">
<style>
:root {
  --bg: #0F172A;
  --node-bg: #1E293B;
  --node-border: #334155;
  --node-text: #F1F5F9;
  --edge-color: #475569;
  --edge-label: #CBD5E1;
  --accent: #818CF8;
  --font: 'Inter', sans-serif;
}
.diagra-node { filter: drop-shadow(0 10px 18px rgba(15, 23, 42, 0.10)); }
.diagra-edge { stroke-linecap: round; }
</style>
<defs>
  <marker id="arrow" markerWidth="10" markerHeight="10" refX="8" refY="3" orient="auto" markerUnits="strokeWidth">
    <path d="M0,0 L0,6 L9,3 z" fill="context-stroke"/>
  </marker>
</defs>
<rect width="100%" height="100%" fill="var(--bg)"/>

<g transform="translate(0, 0)">
<g class="diagra-edge-label">
  <path id="edge-1" class="diagra-edge" d="M 135 146 C 183 146, 87 326, 135 326" stroke="#2DD4BF" stroke-width="1.7" fill="none" marker-end="url(#arrow)"/>
  <rect x="99" y="209.5" width="72" height="16" rx="2" fill="var(--bg)" opacity="0.85"/>
  <text x="135" y="219.5" text-anchor="middle" font-family="var(--font)" font-size="10" font-weight="600" fill="#CCFBF1">Git Push</text>
</g>
<g class="diagra-edge-label">
  <path id="edge-2" class="diagra-edge" d="M 135 414 C 183 414, 87 594, 135 594" stroke="#60A5FA" stroke-width="1.7" fill="none" marker-end="url(#arrow)"/>
  <rect x="102.5" y="482" width="65" height="16" rx="2" fill="var(--bg)" opacity="0.85"/>
  <text x="135" y="492" text-anchor="middle" font-family="var(--font)" font-size="10" font-weight="600" fill="#DBEAFE">Webhook</text>
</g>
<g class="diagra-edge-label">
  <path id="edge-3" class="diagra-edge" d="M 135 682 C 183 682, 87 862, 135 862" stroke="#818CF8" stroke-width="1.7" fill="none" marker-end="url(#arrow)"/>
  <rect x="102.5" y="750" width="65" height="16" rx="2" fill="var(--bg)" opacity="0.85"/>
  <text x="135" y="760" text-anchor="middle" font-family="var(--font)" font-size="10" font-weight="600" fill="#E0E7FF">Compile</text>
</g>
<g class="diagra-edge-label">
  <path id="edge-4" class="diagra-edge" d="M 135 950 C 183 950, 87 1130, 135 1130" stroke="#4ADE80" stroke-width="1.7" fill="none" marker-end="url(#arrow)"/>
  <rect x="78" y="1018" width="114" height="16" rx="2" fill="var(--bg)" opacity="0.85"/>
  <text x="135" y="1028" text-anchor="middle" font-family="var(--font)" font-size="10" font-weight="600" fill="#DCFCE7">Run Unit Tests</text>
</g>
<g class="diagra-edge-label">
  <path id="edge-5" class="diagra-edge" d="M 135 1218 C 183 1218, 87 1398, 135 1398" stroke="#FBBF24" stroke-width="1.7" fill="none" marker-end="url(#arrow)"/>
  <rect x="81.5" y="1286" width="107" height="16" rx="2" fill="var(--bg)" opacity="0.85"/>
  <text x="135" y="1296" text-anchor="middle" font-family="var(--font)" font-size="10" font-weight="600" fill="#FEF3C7">Scan Artifact</text>
</g>
<g class="diagra-edge-label">
  <path id="edge-6" class="diagra-edge" d="M 135 1486 C 183 1486, 87 1666, 135 1666" stroke="#38BDF8" stroke-width="1.7" fill="none" marker-end="url(#arrow)"/>
  <rect x="88.5" y="1554" width="93" height="16" rx="2" fill="var(--bg)" opacity="0.85"/>
  <text x="135" y="1564" text-anchor="middle" font-family="var(--font)" font-size="10" font-weight="600" fill="#E0F2FE">Build Image</text>
</g>
<g class="diagra-edge-label">
  <path id="edge-7" class="diagra-edge" d="M 135 1754 C 183 1754, 87 1934, 135 1934" stroke="#C084FC" stroke-width="1.7" fill="none" marker-end="url(#arrow)"/>
  <rect x="92" y="1822" width="86" height="16" rx="2" fill="var(--bg)" opacity="0.85"/>
  <text x="135" y="1832" text-anchor="middle" font-family="var(--font)" font-size="10" font-weight="600" fill="#F3E8FF">Push Image</text>
</g>
<g class="diagra-edge-label">
  <path id="edge-8" class="diagra-edge" d="M 135 2022 C 183 2022, 87 2202, 135 2202" stroke="#FB923C" stroke-width="1.7" fill="none" marker-end="url(#arrow)"/>
  <rect x="71" y="2090" width="128" height="16" rx="2" fill="var(--bg)" opacity="0.85"/>
  <text x="135" y="2100" text-anchor="middle" font-family="var(--font)" font-size="10" font-weight="600" fill="#FFEDD5">Deploy Candidate</text>
</g>
<g class="diagra-edge-label">
  <path id="edge-9" class="diagra-edge" d="M 135 2290 C 183 2290, 87 2470, 135 2470" stroke="#A3E635" stroke-width="1.7" fill="none" marker-end="url(#arrow)"/>
  <rect x="99" y="2358" width="72" height="16" rx="2" fill="var(--bg)" opacity="0.85"/>
  <text x="135" y="2368" text-anchor="middle" font-family="var(--font)" font-size="10" font-weight="600" fill="#ECFCCB">Validate</text>
</g>
<g class="diagra-edge-label">
  <path id="edge-10" class="diagra-edge" d="M 135 2558 C 183 2558, 87 2738, 135 2738" stroke="#F87171" stroke-width="1.7" fill="none" marker-end="url(#arrow)"/>
  <rect x="102.5" y="2626" width="65" height="16" rx="2" fill="var(--bg)" opacity="0.85"/>
  <text x="135" y="2636" text-anchor="middle" font-family="var(--font)" font-size="10" font-weight="600" fill="#FEE2E2">Promote</text>
</g>
<g class="diagra-edge-label">
  <path id="edge-11" class="diagra-edge" d="M 135 2826 C 183 2826, 87 3006, 135 3006" stroke="#A5B4FC" stroke-width="1.7" fill="none" marker-end="url(#arrow)"/>
  <rect x="102.5" y="2898.5" width="65" height="16" rx="2" fill="var(--bg)" opacity="0.85"/>
  <text x="135" y="2908.5" text-anchor="middle" font-family="var(--font)" font-size="10" font-weight="600" fill="#E0E7FF">Metrics</text>
</g>
<circle r="4" fill="var(--accent)" opacity="0.9">
  <animateMotion dur="1.5s" begin="0s" repeatCount="indefinite">
    <mpath href="#edge-1"/>
  </animateMotion>
</circle>
<circle r="4" fill="var(--accent)" opacity="0.9">
  <animateMotion dur="1.5s" begin="0.2s" repeatCount="indefinite">
    <mpath href="#edge-2"/>
  </animateMotion>
</circle>
<circle r="4" fill="var(--accent)" opacity="0.9">
  <animateMotion dur="1.5s" begin="0.4s" repeatCount="indefinite">
    <mpath href="#edge-3"/>
  </animateMotion>
</circle>
<circle r="4" fill="var(--accent)" opacity="0.9">
  <animateMotion dur="1.5s" begin="0.6000000000000001s" repeatCount="indefinite">
    <mpath href="#edge-4"/>
  </animateMotion>
</circle>
<circle r="4" fill="var(--accent)" opacity="0.9">
  <animateMotion dur="1.5s" begin="0.8s" repeatCount="indefinite">
    <mpath href="#edge-5"/>
  </animateMotion>
</circle>
<circle r="4" fill="var(--accent)" opacity="0.9">
  <animateMotion dur="1.5s" begin="1s" repeatCount="indefinite">
    <mpath href="#edge-6"/>
  </animateMotion>
</circle>
<circle r="4" fill="var(--accent)" opacity="0.9">
  <animateMotion dur="1.5s" begin="1.2000000000000002s" repeatCount="indefinite">
    <mpath href="#edge-7"/>
  </animateMotion>
</circle>
<circle r="4" fill="var(--accent)" opacity="0.9">
  <animateMotion dur="1.5s" begin="1.4000000000000001s" repeatCount="indefinite">
    <mpath href="#edge-8"/>
  </animateMotion>
</circle>
<circle r="4" fill="var(--accent)" opacity="0.9">
  <animateMotion dur="1.5s" begin="1.6s" repeatCount="indefinite">
    <mpath href="#edge-9"/>
  </animateMotion>
</circle>
<circle r="4" fill="var(--accent)" opacity="0.9">
  <animateMotion dur="1.5s" begin="1.8s" repeatCount="indefinite">
    <mpath href="#edge-10"/>
  </animateMotion>
</circle>
<circle r="4" fill="var(--accent)" opacity="0.9">
  <animateMotion dur="1.5s" begin="2s" repeatCount="indefinite">
    <mpath href="#edge-11"/>
  </animateMotion>
</circle>
<g id="node-Developer" class="diagra-node" data-icon="generic-user">
  <rect x="40" y="40" width="190" height="106" rx="8" fill="#0F766E" stroke="#2DD4BF"/>
  <svg x="119" y="52" width="32" height="32" viewBox="0 0 32 32" role="img" aria-label="user"><circle cx="16" cy="11" r="6" fill="#64748B"/><path d="M6 28c1.4-6 5-9 10-9s8.6 3 10 9" fill="#64748B"/></svg>

  <text text-anchor="middle" font-family="var(--font)" font-size="12" font-weight="600" fill="#ECFEFF">
  <tspan x="135" y="102">Developer Pushes</tspan>
  <tspan x="135" dy="18">Code</tspan>
</text>
</g>
<g id="node-GitHub" class="diagra-node" data-icon="generic-server">
  <rect x="55" y="326" width="160" height="88" rx="8" fill="#1E293B" stroke="#94A3B8"/>
  <svg x="119" y="338" width="32" height="32" viewBox="0 0 32 32" role="img" aria-label="server"><rect x="5" y="6" width="22" height="20" rx="3" fill="#64748B"/><path d="M9 12h14M9 18h14" stroke="#fff" stroke-width="2"/><circle cx="11" cy="23" r="1.5" fill="#fff"/></svg>

  <text x="135" y="394" text-anchor="middle" font-family="var(--font)" font-size="12" font-weight="600" fill="#F8FAFC">GitHub Repository</text>
</g>
<g id="node-Runner" class="diagra-node" data-icon="generic-server">
  <rect x="75" y="594" width="120" height="88" rx="8" fill="#1D4ED8" stroke="#60A5FA"/>
  <svg x="119" y="606" width="32" height="32" viewBox="0 0 32 32" role="img" aria-label="server"><rect x="5" y="6" width="22" height="20" rx="3" fill="#64748B"/><path d="M9 12h14M9 18h14" stroke="#fff" stroke-width="2"/><circle cx="11" cy="23" r="1.5" fill="#fff"/></svg>

  <text x="135" y="662" text-anchor="middle" font-family="var(--font)" font-size="12" font-weight="600" fill="#EFF6FF">CI Runner</text>
</g>
<g id="node-Build" class="diagra-node" data-icon="generic-server">
  <rect x="75" y="862" width="120" height="88" rx="8" fill="#4338CA" stroke="#818CF8"/>
  <svg x="119" y="874" width="32" height="32" viewBox="0 0 32 32" role="img" aria-label="server"><rect x="5" y="6" width="22" height="20" rx="3" fill="#64748B"/><path d="M9 12h14M9 18h14" stroke="#fff" stroke-width="2"/><circle cx="11" cy="23" r="1.5" fill="#fff"/></svg>

  <text x="135" y="930" text-anchor="middle" font-family="var(--font)" font-size="12" font-weight="600" fill="#EEF2FF">Build Stage</text>
</g>
<g id="node-Tests" class="diagra-node" data-icon="generic-server">
  <rect x="75" y="1130" width="120" height="88" rx="8" fill="#166534" stroke="#4ADE80"/>
  <svg x="119" y="1142" width="32" height="32" viewBox="0 0 32 32" role="img" aria-label="server"><rect x="5" y="6" width="22" height="20" rx="3" fill="#64748B"/><path d="M9 12h14M9 18h14" stroke="#fff" stroke-width="2"/><circle cx="11" cy="23" r="1.5" fill="#fff"/></svg>

  <text x="135" y="1198" text-anchor="middle" font-family="var(--font)" font-size="12" font-weight="600" fill="#F0FDF4">Test Stage</text>
</g>
<g id="node-Security" class="diagra-node" data-icon="generic-server">
  <rect x="70" y="1398" width="130" height="88" rx="8" fill="#92400E" stroke="#FBBF24"/>
  <svg x="119" y="1410" width="32" height="32" viewBox="0 0 32 32" role="img" aria-label="server"><rect x="5" y="6" width="22" height="20" rx="3" fill="#64748B"/><path d="M9 12h14M9 18h14" stroke="#fff" stroke-width="2"/><circle cx="11" cy="23" r="1.5" fill="#fff"/></svg>

  <text x="135" y="1466" text-anchor="middle" font-family="var(--font)" font-size="12" font-weight="600" fill="#FFFBEB">Security Scan</text>
</g>
<g id="node-Docker" class="diagra-node" data-icon="generic-server">
  <rect x="74" y="1666" width="122" height="88" rx="8" fill="#075985" stroke="#38BDF8"/>
  <svg x="119" y="1678" width="32" height="32" viewBox="0 0 32 32" role="img" aria-label="server"><rect x="5" y="6" width="22" height="20" rx="3" fill="#64748B"/><path d="M9 12h14M9 18h14" stroke="#fff" stroke-width="2"/><circle cx="11" cy="23" r="1.5" fill="#fff"/></svg>

  <text x="135" y="1734" text-anchor="middle" font-family="var(--font)" font-size="12" font-weight="600" fill="#F0F9FF">Docker Build</text>
</g>
<g id="node-Registry" class="diagra-node" data-icon="generic-server">
  <rect x="51.5" y="1934" width="167" height="88" rx="8" fill="#6D28D9" stroke="#C084FC"/>
  <svg x="119" y="1946" width="32" height="32" viewBox="0 0 32 32" role="img" aria-label="server"><rect x="5" y="6" width="22" height="20" rx="3" fill="#64748B"/><path d="M9 12h14M9 18h14" stroke="#fff" stroke-width="2"/><circle cx="11" cy="23" r="1.5" fill="#fff"/></svg>

  <text x="135" y="2002" text-anchor="middle" font-family="var(--font)" font-size="12" font-weight="600" fill="#FAF5FF">Container Registry</text>
</g>
<g id="node-Staging" class="diagra-node" data-icon="generic-server">
  <rect x="55" y="2202" width="160" height="88" rx="8" fill="#7C2D12" stroke="#FB923C"/>
  <svg x="119" y="2214" width="32" height="32" viewBox="0 0 32 32" role="img" aria-label="server"><rect x="5" y="6" width="22" height="20" rx="3" fill="#64748B"/><path d="M9 12h14M9 18h14" stroke="#fff" stroke-width="2"/><circle cx="11" cy="23" r="1.5" fill="#fff"/></svg>

  <text x="135" y="2270" text-anchor="middle" font-family="var(--font)" font-size="12" font-weight="600" fill="#FFF7ED">Deploy to Staging</text>
</g>
<g id="node-Integration" class="diagra-node" data-icon="generic-server">
  <rect x="55" y="2470" width="160" height="88" rx="8" fill="#365314" stroke="#A3E635"/>
  <svg x="119" y="2482" width="32" height="32" viewBox="0 0 32 32" role="img" aria-label="server"><rect x="5" y="6" width="22" height="20" rx="3" fill="#64748B"/><path d="M9 12h14M9 18h14" stroke="#fff" stroke-width="2"/><circle cx="11" cy="23" r="1.5" fill="#fff"/></svg>

  <text x="135" y="2538" text-anchor="middle" font-family="var(--font)" font-size="12" font-weight="600" fill="#F7FEE7">Integration Tests</text>
</g>
<g id="node-Production" class="diagra-node" data-icon="generic-server">
  <rect x="44" y="2738" width="182" height="88" rx="8" fill="#991B1B" stroke="#F87171"/>
  <svg x="119" y="2750" width="32" height="32" viewBox="0 0 32 32" role="img" aria-label="server"><rect x="5" y="6" width="22" height="20" rx="3" fill="#64748B"/><path d="M9 12h14M9 18h14" stroke="#fff" stroke-width="2"/><circle cx="11" cy="23" r="1.5" fill="#fff"/></svg>

  <text x="135" y="2806" text-anchor="middle" font-family="var(--font)" font-size="12" font-weight="600" fill="#FEF2F2">Deploy to Production</text>
</g>
<g id="node-Monitoring" class="diagra-node" data-icon="generic-server">
  <rect x="40" y="3006" width="190" height="106" rx="8" fill="#312E81" stroke="#A5B4FC"/>
  <svg x="119" y="3018" width="32" height="32" viewBox="0 0 32 32" role="img" aria-label="server"><rect x="5" y="6" width="22" height="20" rx="3" fill="#64748B"/><path d="M9 12h14M9 18h14" stroke="#fff" stroke-width="2"/><circle cx="11" cy="23" r="1.5" fill="#fff"/></svg>

  <text text-anchor="middle" font-family="var(--font)" font-size="12" font-weight="600" fill="#EEF2FF">
  <tspan x="135" y="3068">Production</tspan>
  <tspan x="135" dy="18">Monitoring</tspan>
</text>
</g>
</g>
</svg>