<svg xmlns="http://www.w3.org/2000/svg" width="1962" height="640" viewBox="0 0 1962 640" role="img">
<style>
:root {
  --bg: #0F172A;
  --node-bg: #1E293B;
  --node-border: #334155;
  --node-text: #F1F5F9;
  --edge-color: #475569;
  --edge-label: #CBD5E1;
  --accent: #818CF8;
  --font: 'Inter', sans-serif;
}
.diagra-node { filter: drop-shadow(0 10px 18px rgba(15, 23, 42, 0.10)); }
.diagra-edge { stroke-linecap: round; }
</style>
<defs>
  <marker id="arrow" markerWidth="10" markerHeight="10" refX="8" refY="3" orient="auto" markerUnits="strokeWidth">
    <path d="M0,0 L0,6 L9,3 z" fill="context-stroke"/>
  </marker>
</defs>
<rect width="100%" height="100%" fill="var(--bg)"/>

<g transform="translate(0, 0)">
<g id="subgraph-platform" class="diagra-subgraph">
  <rect x="350" y="8" width="1572" height="478" rx="8" fill="#0F172A" opacity="0.18" stroke="#64748B" stroke-width="1.2" stroke-dasharray="8 6"/>
  <text x="366" y="34" font-family="var(--font)" font-size="12" font-weight="700" fill="#CBD5E1">Production Platform</text>
</g>
<g id="subgraph-ops" class="diagra-subgraph">
  <rect x="690" y="324" width="860" height="162" rx="8" fill="#7C2D12" opacity="0.18" stroke="#FB923C" stroke-width="1.2" stroke-dasharray="8 6"/>
  <text x="706" y="350" font-family="var(--font)" font-size="12" font-weight="700" fill="#FFEDD5">Observability</text>
</g>
<g id="subgraph-processing" class="diagra-subgraph">
  <rect x="1030" y="66" width="560" height="162" rx="8" fill="#6D28D9" opacity="0.18" stroke="#C084FC" stroke-width="1.2" stroke-dasharray="8 6"/>
  <text x="1046" y="92" font-family="var(--font)" font-size="12" font-weight="700" fill="#F3E8FF">Processing</text>
</g>
<g id="subgraph-app" class="diagra-subgraph">
  <rect x="350" y="66" width="520" height="162" rx="8" fill="#1D4ED8" opacity="0.18" stroke="#60A5FA" stroke-width="1.2" stroke-dasharray="8 6"/>
  <text x="366" y="92" font-family="var(--font)" font-size="12" font-weight="700" fill="#DBEAFE">Application Services</text>
</g>
<g id="subgraph-data" class="diagra-subgraph">
  <rect x="1710" y="8" width="212" height="294" rx="8" fill="#166534" opacity="0.18" stroke="#4ADE80" stroke-width="1.2" stroke-dasharray="8 6"/>
  <text x="1726" y="34" font-family="var(--font)" font-size="12" font-weight="700" fill="#DCFCE7">Data Layer</text>
</g>
<g class="diagra-edge-label">
  <path id="edge-1" class="diagra-edge" d="M 160 158 L 380 158" stroke="#38BDF8" stroke-width="1.7" fill="none" marker-end="url(#arrow)"/>
  <rect x="244" y="136" width="52" height="16" rx="2" fill="var(--bg)" opacity="0.85"/>
  <text x="270" y="146" text-anchor="middle" font-family="var(--font)" font-size="10" font-weight="600" fill="#E0F2FE">HTTPS</text>
</g>
<g class="diagra-edge-label">
  <path id="edge-2" class="diagra-edge" d="M 500 158 L 720 158" stroke="#818CF8" stroke-width="1.7" fill="none" marker-end="url(#arrow)"/>
  <rect x="584" y="168" width="52" height="16" rx="2" fill="var(--bg)" opacity="0.85"/>
  <text x="610" y="178" text-anchor="middle" font-family="var(--font)" font-size="10" font-weight="600" fill="#E0E7FF">Route</text>
</g>
<g class="diagra-edge-label">
  <path id="edge-3" class="diagra-edge" d="M 840 158 L 1060 158" stroke="#4ADE80" stroke-width="1.7" fill="none" marker-end="url(#arrow)"/>
  <rect x="917.5" y="200" width="65" height="16" rx="2" fill="var(--bg)" opacity="0.85"/>
  <text x="950" y="210" text-anchor="middle" font-family="var(--font)" font-size="10" font-weight="600" fill="#DCFCE7">Enqueue</text>
</g>
<g class="diagra-edge-label">
  <path id="edge-4" class="diagra-edge" d="M 1180 158 L 1400 158" stroke="#C084FC" stroke-width="1.7" fill="none" marker-end="url(#arrow)"/>
  <rect x="1267.5" y="232" width="65" height="16" rx="2" fill="var(--bg)" opacity="0.85"/>
  <text x="1300" y="242" text-anchor="middle" font-family="var(--font)" font-size="10" font-weight="600" fill="#F3E8FF">Process</text>
</g>
<g class="diagra-edge-label">
  <path id="edge-5" class="diagra-edge" d="M 1560 158 C 1641 158, 1659 84, 1740 84" stroke="var(--edge-color)" stroke-width="1.7" fill="none" marker-end="url(#arrow)"/>
  <rect x="1598" y="99" width="100" height="16" rx="2" fill="var(--bg)" opacity="0.85"/>
  <text x="1648" y="109" text-anchor="middle" font-family="var(--font)" font-size="10" font-weight="600" fill="var(--edge-label)">Read / Write</text>
</g>
<g class="diagra-edge-label">
  <path id="edge-6" class="diagra-edge" d="M 1560 158 C 1641 158, 1659 232, 1740 232" stroke="var(--edge-color)" stroke-width="1.7" fill="none" marker-end="url(#arrow)"/>
  <rect x="1597.75" y="253" width="93" height="16" rx="2" fill="var(--bg)" opacity="0.85"/>
  <text x="1644.25" y="263" text-anchor="middle" font-family="var(--font)" font-size="10" font-weight="600" fill="var(--edge-label)">Store Files</text>
</g>
<g class="diagra-edge-label">
  <path id="edge-7" class="diagra-edge" d="M 780 202 C 828 202, 732 372, 780 372" stroke="var(--edge-color)" stroke-width="1" fill="none" marker-end="url(#arrow)" stroke-dasharray="6 5" opacity="0.4"/>
  <rect x="730" y="281" width="100" height="16" rx="2" fill="var(--bg)" opacity="0.85"/>
  <text x="780" y="291" text-anchor="middle" font-family="var(--font)" font-size="10" font-weight="600" fill="var(--edge-label)">Emit Metrics</text>
</g>
<g class="diagra-edge-label">
  <path id="edge-8" class="diagra-edge" d="M 1480 202 C 1528 202, 1412 372, 1460 372" stroke="var(--edge-color)" stroke-width="1" fill="none" marker-end="url(#arrow)" stroke-dasharray="6 5" opacity="0.4"/>
  <rect x="1427" y="313" width="86" height="16" rx="2" fill="var(--bg)" opacity="0.85"/>
  <text x="1470" y="323" text-anchor="middle" font-family="var(--font)" font-size="10" font-weight="600" fill="var(--edge-label)">Write Logs</text>
</g>
<circle r="4" fill="var(--accent)" opacity="0.9">
  <animateMotion dur="1.5s" begin="0s" repeatCount="indefinite">
    <mpath href="#edge-1"/>
  </animateMotion>
</circle>
<circle r="4" fill="var(--accent)" opacity="0.9">
  <animateMotion dur="1.5s" begin="0.2s" repeatCount="indefinite">
    <mpath href="#edge-2"/>
  </animateMotion>
</circle>
<circle r="4" fill="var(--accent)" opacity="0.9">
  <animateMotion dur="1.5s" begin="0.4s" repeatCount="indefinite">
    <mpath href="#edge-3"/>
  </animateMotion>
</circle>
<circle r="4" fill="var(--accent)" opacity="0.9">
  <animateMotion dur="1.5s" begin="0.6000000000000001s" repeatCount="indefinite">
    <mpath href="#edge-4"/>
  </animateMotion>
</circle>
<circle r="4" fill="var(--accent)" opacity="0.9">
  <animateMotion dur="1.5s" begin="0.8s" repeatCount="indefinite">
    <mpath href="#edge-5"/>
  </animateMotion>
</circle>
<circle r="4" fill="var(--accent)" opacity="0.9">
  <animateMotion dur="1.5s" begin="1s" repeatCount="indefinite">
    <mpath href="#edge-6"/>
  </animateMotion>
</circle>
<circle r="4" fill="var(--accent)" opacity="0.9">
  <animateMotion dur="1.5s" begin="1.2000000000000002s" repeatCount="indefinite">
    <mpath href="#edge-7"/>
  </animateMotion>
</circle>
<circle r="4" fill="var(--accent)" opacity="0.9">
  <animateMotion dur="1.5s" begin="1.4000000000000001s" repeatCount="indefinite">
    <mpath href="#edge-8"/>
  </animateMotion>
</circle>
<g id="node-Users" class="diagra-node" data-icon="generic-user">
  <rect x="40" y="114" width="120" height="88" rx="8" fill="var(--node-bg)" stroke="var(--node-border)"/>
  <svg x="84" y="126" width="32" height="32" viewBox="0 0 32 32" role="img" aria-label="user"><circle cx="16" cy="11" r="6" fill="#64748B"/><path d="M6 28c1.4-6 5-9 10-9s8.6 3 10 9" fill="#64748B"/></svg>

  <text x="100" y="182" text-anchor="middle" font-family="var(--font)" font-size="12" font-weight="600" fill="var(--node-text)">Users</text>
</g>
<g id="node-Gateway" class="diagra-node" data-icon="generic-api">
  <rect x="380" y="114" width="120" height="88" rx="8" fill="#075985" stroke="#38BDF8"/>
  <svg x="424" y="126" width="32" height="32" viewBox="0 0 32 32" role="img" aria-label="api"><rect x="4" y="7" width="24" height="18" rx="4" fill="#64748B"/><text x="16" y="20" text-anchor="middle" font-family="Arial" font-size="9" font-weight="700" fill="#fff">API</text></svg>

  <text x="440" y="182" text-anchor="middle" font-family="var(--font)" font-size="12" font-weight="600" fill="#F0F9FF">API Gateway</text>
</g>
<g id="node-Web" class="diagra-node" data-icon="generic-server">
  <rect x="720" y="114" width="120" height="88" rx="8" fill="#4338CA" stroke="#818CF8"/>
  <svg x="764" y="126" width="32" height="32" viewBox="0 0 32 32" role="img" aria-label="server"><rect x="5" y="6" width="22" height="20" rx="3" fill="#64748B"/><path d="M9 12h14M9 18h14" stroke="#fff" stroke-width="2"/><circle cx="11" cy="23" r="1.5" fill="#fff"/></svg>

  <text x="780" y="182" text-anchor="middle" font-family="var(--font)" font-size="12" font-weight="600" fill="#EEF2FF">Web Service</text>
</g>
<g id="node-Queue" class="diagra-node" data-icon="generic-queue">
  <rect x="1060" y="114" width="120" height="88" rx="8" fill="var(--node-bg)" stroke="var(--node-border)"/>
  <svg x="1104" y="126" width="32" height="32" viewBox="0 0 32 32" role="img" aria-label="queue"><rect x="6" y="7" width="20" height="5" rx="2" fill="#64748B"/><rect x="6" y="14" width="20" height="5" rx="2" fill="#64748B"/><rect x="6" y="21" width="20" height="5" rx="2" fill="#64748B"/></svg>

  <text x="1120" y="182" text-anchor="middle" font-family="var(--font)" font-size="12" font-weight="600" fill="var(--node-text)">Job Queue</text>
</g>
<g id="node-Worker" class="diagra-node" data-icon="generic-server">
  <rect x="1400" y="114" width="160" height="88" rx="8" fill="#6D28D9" stroke="#C084FC"/>
  <svg x="1464" y="126" width="32" height="32" viewBox="0 0 32 32" role="img" aria-label="server"><rect x="5" y="6" width="22" height="20" rx="3" fill="#64748B"/><path d="M9 12h14M9 18h14" stroke="#fff" stroke-width="2"/><circle cx="11" cy="23" r="1.5" fill="#fff"/></svg>

  <text x="1480" y="182" text-anchor="middle" font-family="var(--font)" font-size="12" font-weight="600" fill="#FAF5FF">Background Worker</text>
</g>
<g id="node-Database" class="diagra-node" data-icon="generic-database">
  <rect x="1740" y="40" width="152" height="88" rx="8" fill="#14532D" stroke="#22C55E"/>
  <svg x="1800" y="52" width="32" height="32" viewBox="0 0 32 32" role="img" aria-label="database"><ellipse cx="16" cy="8" rx="10" ry="4" fill="#64748B"/><path d="M6 8v14c0 2.2 4.5 4 10 4s10-1.8 10-4V8" fill="#64748B"/><path d="M6 15c0 2.2 4.5 4 10 4s10-1.8 10-4" stroke="#fff" stroke-width="1.8" fill="none"/></svg>

  <text x="1816" y="108" text-anchor="middle" font-family="var(--font)" font-size="12" font-weight="600" fill="#F0FDF4">Primary Database</text>
</g>
<g id="node-ObjectStore" class="diagra-node" data-icon="generic-cloud">
  <rect x="1740" y="188" width="137" height="88" rx="8" fill="var(--node-bg)" stroke="var(--node-border)"/>
  <svg x="1792.5" y="200" width="32" height="32" viewBox="0 0 32 32" role="img" aria-label="cloud"><path d="M10 25h14a6 6 0 0 0 0-12 9 9 0 0 0-17-1 6.5 6.5 0 0 0 3 13Z" fill="#64748B"/></svg>

  <text x="1808.5" y="256" text-anchor="middle" font-family="var(--font)" font-size="12" font-weight="600" fill="var(--node-text)">Object Storage</text>
</g>
<g id="node-Metrics" class="diagra-node" data-icon="generic-server">
  <rect x="720" y="372" width="120" height="88" rx="8" fill="var(--node-bg)" stroke="var(--node-border)"/>
  <svg x="764" y="384" width="32" height="32" viewBox="0 0 32 32" role="img" aria-label="server"><rect x="5" y="6" width="22" height="20" rx="3" fill="#64748B"/><path d="M9 12h14M9 18h14" stroke="#fff" stroke-width="2"/><circle cx="11" cy="23" r="1.5" fill="#fff"/></svg>

  <text x="780" y="440" text-anchor="middle" font-family="var(--font)" font-size="12" font-weight="600" fill="var(--node-text)">Metrics</text>
</g>
<g id="node-Logs" class="diagra-node" data-icon="generic-database">
  <rect x="1400" y="372" width="120" height="88" rx="8" fill="var(--node-bg)" stroke="var(--node-border)"/>
  <svg x="1444" y="384" width="32" height="32" viewBox="0 0 32 32" role="img" aria-label="database"><ellipse cx="16" cy="8" rx="10" ry="4" fill="#64748B"/><path d="M6 8v14c0 2.2 4.5 4 10 4s10-1.8 10-4V8" fill="#64748B"/><path d="M6 15c0 2.2 4.5 4 10 4s10-1.8 10-4" stroke="#fff" stroke-width="1.8" fill="none"/></svg>

  <text x="1460" y="440" text-anchor="middle" font-family="var(--font)" font-size="12" font-weight="600" fill="var(--node-text)">Logs</text>
</g>
</g>
</svg>